<svg id="Capa_1" data-name="Capa 1" xmlns="http://www.w3.org/2000/svg" viewBox="0 0 90 90"><defs><style>.cls-1{fill:#fff;}.cls-2{fill:#dd2709;}.cls-3{fill:#f2f2f2;opacity:0.21;}</style></defs><title>Atlas-90x90</title><path class="cls-1" d="M47.17,88l-.76-.42c-20-10.92-33-31.47-33-52.34V33.67H15c16.34,0,27.21-8.3,30.73-16.53l1.44-3.35,1.44,3.35C52,25.1,63,33.66,79,33.66h1.56v1.57c0,22.17-11.28,40.27-32.63,52.34ZM16.58,36.78C17.19,55.73,29,74.21,47.15,84.42c19.6-11.35,29.78-27.37,30.27-47.66a41,41,0,0,1-20.25-5.85,30.4,30.4,0,0,1-10-9.76C42.36,29.05,31.7,36.3,16.58,36.78Z"/><path class="cls-2" d="M47.16,17.76V86.21h0C26.38,74.88,15,54.35,15,35.24c17.52,0,28.64-9.25,32.17-17.48Z"/><path d="M47.16,17.76V86.21h0C69.31,73.68,79,55.64,79,35.23c-17.09,0-28.31-9.24-31.84-17.47Zm0,68.45C69.31,73.68,79,53.7,79,35.23"/><path class="cls-1" d="M47.16,26.82h0A32.13,32.13,0,0,0,56.44,34c.51,11.82,3.53,22.24,8.38,30A54.85,54.85,0,0,1,52.5,77.58h0V54.09H41.82V77.58h0A54.85,54.85,0,0,1,29.5,63.92c4.85-7.73,7.87-18.15,8.38-30a32.13,32.13,0,0,0,9.28-7.13Zm0,6.12a35.72,35.72,0,0,1-5.34,3.75h0V50.51H52.5V36.69h0a35.22,35.22,0,0,1-5.34-3.75Z"/><rect class="cls-3" width="1" height="1"/></svg>