<svg id="Capa_1" data-name="Capa 1" xmlns="http://www.w3.org/2000/svg" viewBox="0 0 90 90"><defs><style>.cls-1,.cls-5{fill:#fff;}.cls-1,.cls-4{fill-rule:evenodd;}.cls-2{fill:#ce0e2d;}.cls-3,.cls-4{fill:#001f60;}</style></defs><title>CruzAzul-90x90</title><path class="cls-1" d="M82.42,48.84A35.35,35.35,0,1,1,47.07,13.69,35.26,35.26,0,0,1,82.42,48.84Z"/><path class="cls-2" d="M60.4,62.1H33.75V35.59H60.4ZM47.07,37.89a11,11,0,1,0,11,11A11,11,0,0,0,47.07,37.89Z"/><polygon class="cls-3" points="55.76 45.96 49.97 45.96 49.97 40.2 44.18 40.2 44.18 45.96 38.38 45.96 38.38 51.72 44.18 51.72 44.18 57.49 49.97 57.49 49.97 51.72 55.76 51.72 55.76 45.96"/><path class="cls-3" d="M59.09,63v-.74h.25l.09.43h0l.1-.43h.25V63h-.17l0-.58h0L59.5,63h-.13l-.13-.58h0l0,.58Z"/><path class="cls-3" d="M60.08,63h-.17v-.74h.26c.14,0,.22,0,.22.2a.16.16,0,0,1-.1.17h0a.1.1,0,0,1,.09.1c0,.06,0,.18,0,.23a0,0,0,0,0,0,0v0h-.2a.09.09,0,0,1,0-.05.91.91,0,0,0,0-.17s0-.07-.06-.08h-.06Zm0-.43h.07c.05,0,.06-.05.06-.09s0-.09-.13-.09Z"/><path class="cls-3" d="M33.75,34.43V29.82h1.19a2.47,2.47,0,0,1,1.23.22h0a1.21,1.21,0,0,1,.5,1.15h0v2a1.14,1.14,0,0,1-.48,1h0a1.69,1.69,0,0,1-1,.21H33.75ZM35,33.54c.24,0,.36,0,.43-.14h0a.76.76,0,0,0,.09-.45h0v-.22h0V31.25c0-.26-.05-.38-.14-.44h0a.92.92,0,0,0-.48-.09h0v2.82Z"/><path class="cls-3" d="M37,34.43V29.82H39.5v1H38.12v.75h1.33v1H38.12v.9h1.45v1Z"/><path class="cls-3" d="M39.87,34.43V29.82h1.31a1.87,1.87,0,0,1,1.33.39h0a1.42,1.42,0,0,1,.31,1h0a1.31,1.31,0,0,1-.62,1.3h0a2.83,2.83,0,0,1-1.18.15h0v1.76ZM41,31.77a.85.85,0,0,0,.53-.1h0a.64.64,0,0,0,.12-.43h0c0-.17,0-.42-.17-.49h0a1.55,1.55,0,0,0-.41,0H41v1.05Z"/><path class="cls-3" d="M44.53,34.54a1.48,1.48,0,0,1-1.17-.4h0A1.76,1.76,0,0,1,43,33h0V31.11a1.33,1.33,0,0,1,.39-1h0a1.53,1.53,0,0,1,1.11-.36h0a1.48,1.48,0,0,1,1.09.36h0a1.34,1.34,0,0,1,.39,1h0V33a1.76,1.76,0,0,1-.33,1.19h0a1.43,1.43,0,0,1-1.15.4Zm-.29-3.75a1,1,0,0,0-.06.39h0V33a1.13,1.13,0,0,0,.06.41h0a.3.3,0,0,0,.29.2h0a.28.28,0,0,0,.27-.2h0a1.13,1.13,0,0,0,.06-.41h0V31.18a.94.94,0,0,0-.06-.39h0a.27.27,0,0,0-.28-.18h0a.27.27,0,0,0-.28.18Z"/><path class="cls-3" d="M48.2,34.43v0a.88.88,0,0,1-.06-.27h0c0-.15,0-.3,0-.44h0v-.14h0a3.39,3.39,0,0,0,0-.47h0c0-.28-.1-.43-.32-.44h-.31v1.78H46.32V29.82h1.6a1.45,1.45,0,0,1,1,.3h0a1.28,1.28,0,0,1,.34,1h0a1,1,0,0,1-.51,1h0a.64.64,0,0,1,.47.6h0c0,.36,0,1.14.1,1.42h0a.28.28,0,0,0,.09.14h0v.12Zm-.41-2.68a.28.28,0,0,0,.27-.15h0a.74.74,0,0,0,.07-.37h0c0-.24,0-.36-.12-.43h0a.8.8,0,0,0-.43-.08h-.11v1Z"/><path class="cls-3" d="M50.2,34.43V30.81h-.84v-1h2.85v1h-.86v3.62Z"/><path class="cls-3" d="M52.55,34.43V29.82H53.7v4.61Z"/><path class="cls-3" d="M55,34.43l-1-4.61h1.15l.52,3,.52-3h1.15l-1,4.61Z"/><path class="cls-3" d="M58.92,34.54a1.47,1.47,0,0,1-1.16-.4h0A1.76,1.76,0,0,1,57.43,33h0V31.11a1.33,1.33,0,0,1,.39-1h0a1.55,1.55,0,0,1,1.1-.36h0a1.53,1.53,0,0,1,1.1.36h0a1.34,1.34,0,0,1,.38,1h0V33a1.81,1.81,0,0,1-.32,1.19h0a1.43,1.43,0,0,1-1.15.4h0Zm-.28-3.75a1,1,0,0,0-.06.39h0V33a1.13,1.13,0,0,0,.06.41h0a.28.28,0,0,0,.28.2h0a.29.29,0,0,0,.28-.2h0a1.13,1.13,0,0,0,0-.41h0V31.18a1,1,0,0,0,0-.39h0a.27.27,0,0,0-.28-.18h0a.27.27,0,0,0-.28.18Z"/><path class="cls-3" d="M34.09,67.6a1.67,1.67,0,0,1-.33-1.11h0V64.61a1.56,1.56,0,0,1,.37-1.13h0a1.51,1.51,0,0,1,1.12-.36h0a1.63,1.63,0,0,1,1.11.32h0a1.3,1.3,0,0,1,.41,1h0v.43H35.6v-.34a.77.77,0,0,0-.09-.42h0A.23.23,0,0,0,35.3,64h0a.32.32,0,0,0-.29.11h0a.58.58,0,0,0-.07.33h0v2.26c0,.25.08.36.35.37h0a.29.29,0,0,0,.29-.2h0a1.16,1.16,0,0,0,.06-.42h0V66h1.16v.61a1.31,1.31,0,0,1-.37,1h0a1.78,1.78,0,0,1-1.22.38h0a1.39,1.39,0,0,1-1.1-.39Z"/><path class="cls-3" d="M39.14,67.88v0a1.28,1.28,0,0,1-.07-.28h0v-.44h0V67h0c0-.18,0-.34,0-.48h0c0-.28-.11-.43-.33-.44H38.4v1.8H37.24V63.23h1.61a1.46,1.46,0,0,1,1,.3h0a1.25,1.25,0,0,1,.35,1h0a1,1,0,0,1-.52,1h0a.66.66,0,0,1,.48.6h0c0,.37,0,1.15.1,1.44h0a.34.34,0,0,0,.09.14h0v.12Zm-.74-2.71h.32A.3.3,0,0,0,39,65h0a.87.87,0,0,0,.07-.37h0c0-.25,0-.37-.13-.43h0a.69.69,0,0,0-.43-.09H38.4v1Z"/><path class="cls-3" d="M42.11,68a1.61,1.61,0,0,1-1.1-.34h0a1.38,1.38,0,0,1-.39-1.07h0V63.23h1.16v3.49c0,.21,0,.36.33.37h0c.25,0,.32-.21.33-.4h0V63.23H43.6v3.35a1.45,1.45,0,0,1-.32,1h0a1.52,1.52,0,0,1-1.17.41Z"/><path class="cls-3" d="M44,67.88V67l1.34-2.79H44.05v-1h2.52v.9l-1.31,2.76h1.37v1Z"/><path class="cls-3" d="M49.81,67.88,49.66,67h-.78l-.13.89H47.58l1-4.65H50l1,4.65ZM49,66.1h.53l-.26-1.77L49,66.1Z"/><path class="cls-3" d="M51.19,67.88V67l1.34-2.79H51.29v-1h2.52v.9L52.5,66.89h1.38v1Z"/><path class="cls-3" d="M55.76,68a1.6,1.6,0,0,1-1.09-.34h0a1.38,1.38,0,0,1-.4-1.07h0V63.23h1.16v3.49c0,.21.06.36.34.37h0c.25,0,.32-.21.33-.4h0V63.23h1.16v3.35a1.41,1.41,0,0,1-.33,1h0a1.49,1.49,0,0,1-1.17.41Z"/><path class="cls-3" d="M57.85,67.88V63.23H59v3.66h1.32v1Z"/><path class="cls-4" d="M81.26,48.84a34.19,34.19,0,1,1-34.19-34A34.1,34.1,0,0,1,81.26,48.84ZM47.07,22.91A25.94,25.94,0,1,0,73.15,48.84,26,26,0,0,0,47.07,22.91Z"/><polygon class="cls-1" points="79.18 42.49 77.44 43.46 77.83 45.4 76.37 44.06 74.63 45.02 75.46 43.23 74 41.88 75.98 42.11 76.81 40.31 77.2 42.26 79.18 42.49"/><polygon class="cls-1" points="74.29 30.75 73.06 32.31 74.17 33.96 72.3 33.27 71.06 34.83 71.14 32.85 69.27 32.16 71.19 31.62 71.27 29.64 72.37 31.29 74.29 30.75"/><polygon class="cls-1" points="65.26 21.77 64.72 23.68 66.38 24.78 64.39 24.86 63.84 26.76 63.16 24.9 61.16 24.98 62.73 23.75 62.04 21.89 63.7 23 65.26 21.77"/><polygon class="cls-1" points="53.46 16.91 53.69 18.88 55.65 19.26 53.84 20.09 54.07 22.06 52.72 20.6 50.91 21.43 51.88 19.7 50.53 18.25 52.49 18.64 53.46 16.91"/><polygon class="cls-1" points="40.69 16.91 41.66 18.64 43.61 18.25 42.26 19.7 43.24 21.43 41.43 20.6 40.07 22.06 40.31 20.09 38.5 19.26 40.45 18.88 40.69 16.91"/><polygon class="cls-1" points="28.89 21.77 30.45 23 32.11 21.89 31.42 23.75 32.98 24.98 30.99 24.9 30.3 26.76 29.76 24.86 27.77 24.78 29.43 23.68 28.89 21.77"/><polygon class="cls-1" points="19.85 30.75 21.77 31.29 22.88 29.64 22.96 31.62 24.87 32.16 23 32.85 23.08 34.83 21.85 33.27 19.98 33.96 21.09 32.31 19.85 30.75"/><polygon class="cls-1" points="14.97 42.49 16.95 42.26 17.33 40.31 18.17 42.11 20.15 41.88 18.68 43.23 19.52 45.02 17.78 44.06 16.32 45.4 16.7 43.46 14.97 42.49"/><path class="cls-3" d="M59.1,63v-.73h.24l.09.43h0l.1-.43h.24V63H59.6l0-.57h0L59.5,63h-.13l-.12-.57h0V63Z"/><path class="cls-3" d="M60.07,63H59.9v-.73h.25c.14,0,.21.06.21.2s0,.13-.09.17h0a.11.11,0,0,1,.09.1,1.77,1.77,0,0,0,0,.23l0,0H60.2V62.8s0-.07-.06-.08h-.06Zm0-.42h.06s.06-.05.06-.09,0-.09-.12-.09Z"/><path class="cls-5" d="M24.6,71.82l2.5-2.93,1.21,1-1,2.11h0l1.94-1.34,1.21,1-2.5,2.92L27.11,74l2.05-2.22h0L26.58,73.5,25.94,73l1.37-2.8h0l-1.89,2.36Z"/><path class="cls-5" d="M33.58,77.92l1.48-3.55,2.4,1-.3.71-1.35-.55-.27.65,1.31.54-.3.71-1.31-.54-.32.77,1.43.58-.3.71Z"/><path class="cls-5" d="M44.08,78h0l.63-1.11,1.12.11-1.19,1.82.85,2-1.13-.12L44,79.53h0l-.75,1.07-1.08-.1,1.26-1.8-.82-2,1.13.11Z"/><path class="cls-5" d="M51.83,80.49l-.64-3.79,1.12-.19.63,3.79Z"/><path class="cls-5" d="M59.89,75.44l-.11-.22c-.14-.3-.34-.39-.54-.3s-.33.32-.22.55l.8,1.72c.09.2.24.27.51.15s.24-.47.14-.68l-.14-.32,1-.47.19.43c.28.6.05,1.21-1,1.7s-1.5.2-1.83-.51L58,76.06c-.35-.76-.08-1.31.87-1.75s1.54-.35,1.87.37l.13.29Z"/><path class="cls-5" d="M68.82,70.77c.58.64.6,1.23-.25,2s-1.46.69-2,0l-1-1.16c-.5-.55-.36-1.23.38-1.88s1.41-.71,1.9-.16ZM67,70.4c-.16-.18-.36-.37-.64-.12s-.12.48,0,.65l1.06,1.18c.15.16.4.38.67.13s.08-.5-.07-.67Z"/></svg>