<svg id="Capa_1" data-name="Capa 1" xmlns="http://www.w3.org/2000/svg" viewBox="0 0 90 90"><defs><style>.cls-1{fill:#76bc21;}.cls-2{fill:#d7282f;}.cls-3{fill:#1e1d1d;}</style></defs><title>Juarez-FC</title><path class="cls-1" d="M72.29,65.53,48,83.69,23.67,65.53,16.2,30.59l6.24,3.71-2.6-12.06a8.63,8.63,0,0,0,3.94.38C31.66,21.82,37.5,15,48,15s16.32,6.84,24.2,7.64a8.6,8.6,0,0,0,3.94-.38L73.52,34.3l6.24-3.71L73.87,58.14l-.1.47a5.87,5.87,0,0,1,.93.34l6.49-30.36L75,32.3l2.5-11.66a9.61,9.61,0,0,1-4.13,1.06,7.45,7.45,0,0,1-1-.05c-3.26-.33-6.22-1.79-9.35-3.33C58.8,16.3,54.13,14,48,14s-10.81,2.3-14.93,4.32c-3.14,1.54-6.1,3-9.36,3.33a7.31,7.31,0,0,1-1,.05,9.69,9.69,0,0,1-4.14-1.06L21,32.3,14.8,28.59l8,37.49L48,84.89,73.18,66.08l.35-1.64-1,0Z"/><path class="cls-2" d="M40.17,20.32c-5.16,1.46-9.4,3.94-13.8,5.42v.1c4.4-1,8.64-2.49,13.8-3.33Z"/><path class="cls-1" d="M42.85,22.24v.06c.93-.08,1.39-.11,2.32-.15v-.06a1.25,1.25,0,0,1-.45-1v-.68s0-.05.06-.06h.29a1.13,1.13,0,0,1,1.09.44h.07v-2h-.07a1.26,1.26,0,0,1-1.09.54h-.29a.06.06,0,0,1-.06-.05v-1.2a.06.06,0,0,1,.06-.06c.55,0,.82,0,1.37,0a1.14,1.14,0,0,1,1.07.52l0,0h.06V16.92c-1.48,0-3,.09-4.45.21v.07a1.22,1.22,0,0,1,.44,1v3a1.46,1.46,0,0,1-.44,1.07"/><path class="cls-1" d="M35.61,26.4v-.08c-1.3.33-2,.53-3.25.9v.08A1.28,1.28,0,0,1,33,28.52c0,2.28,0,3.41,0,5.69,0,.63.55,1,1.24.76a37.43,37.43,0,0,1,3.83-1,1.53,1.53,0,0,0,1.26-1.36h0c0-2.23,0-3.34,0-5.57A2,2,0,0,1,40,25.53v-.08a24.87,24.87,0,0,0-3.3.61v.08a1.34,1.34,0,0,1,.63,1.24v4.94a.66.66,0,0,1-.49.58h0l-1.29.36h0c-.27.07-.49-.07-.49-.32V28a2.25,2.25,0,0,1,.62-1.55"/><path class="cls-1" d="M57.92,33.84v.09c2.6.54,3.88,1,6.42,1.78,0-.84,0-1.25,0-2.1l-.09,0,0,0a1.27,1.27,0,0,1-1.49.29h0c-.85-.26-1.28-.39-2.12-.62,0,0-.08-.06-.08-.09,0-.79,0-1.18,0-2,0,0,0-.06.08,0l.41.12a2.35,2.35,0,0,1,1.52,1.09l.09,0c0-1.08,0-1.62,0-2.7l-.09,0c-.26.23-.59.48-1.54.22l-.41-.11a.09.09,0,0,1-.08-.09c0-.78,0-1.17,0-1.94,0,0,0-.06.08-.05l1.93.53a2.39,2.39,0,0,1,1.49,1.16l0,0,.09,0c0-.84,0-1.26,0-2.1a62.77,62.77,0,0,0-6.31-1.62v.09a2.05,2.05,0,0,1,.64,1.5c0,2.1,0,3.15,0,5.26a1.33,1.33,0,0,1-.63,1.23"/><path class="cls-1" d="M51.21,25c-.75,0-1.12-.05-1.87-.07V25A1.71,1.71,0,0,1,50,26.43v5.24A1.62,1.62,0,0,1,49.34,33v.09c1.34,0,2,.06,3.33.15v-.08A1.8,1.8,0,0,1,52,31.77V30.15a.08.08,0,0,1,.08-.07l1.12.09a.08.08,0,0,1,.07,0l.75,1.71a1,1,0,0,1-.35,1.34v.09a31.14,31.14,0,0,1,3.46.43V33.7a4,4,0,0,1-1-1.46c-.35-.79-.52-1.21-.87-2a1,1,0,0,0,1.2-.93V26.64a1.41,1.41,0,0,0-1.27-1.29c-1.59-.18-2.39-.25-4-.33h0M52,26.45a.08.08,0,0,1,0-.05h.06c.72.05,1.09.07,1.81.14a.56.56,0,0,1,.52.51v1.45a.43.43,0,0,1-.52.41c-.72-.07-1.09-.1-1.81-.15a.07.07,0,0,1-.06,0,.08.08,0,0,1,0-.05V26.45"/><path class="cls-1" d="M65.65,29.88l.09,0s0,0,0,0a1.35,1.35,0,0,1,1.49-.34c.6.15.91.23,1.5.35a.1.1,0,0,1,.07,0,.08.08,0,0,1,0,.07c-1.34,2.42-2,3.61-3.4,5.92V36a21.76,21.76,0,0,0,6.07,1.12V35.08h-.08l0,0a1.42,1.42,0,0,1-1.46.59c-.65-.09-1-.15-1.63-.29a.08.08,0,0,1-.07,0s0,0,0-.06c1.36-2.42,2-3.67,3.3-6.2V29a29.6,29.6,0,0,1-5.85-1.21c0,.84,0,1.26,0,2.1"/><path class="cls-1" d="M24.79,36A1.08,1.08,0,0,0,26,37.06a19.62,19.62,0,0,0,3.56-.69,1.71,1.71,0,0,0,1.23-1.51V29.15a2.32,2.32,0,0,1,.62-1.58v-.09a39.36,39.36,0,0,1-5.64,1.34v2.1l.08,0,0,0a2.15,2.15,0,0,1,1.47-1c.55-.12.83-.18,1.38-.32,0,0,.08,0,.08.05v5.13a.63.63,0,0,1-.5.58c-.43.1-.64.14-1.07.22a.41.41,0,0,1-.49-.41v-.6a1.07,1.07,0,0,1,.27-.75v-.1a15.33,15.33,0,0,1-2.59.29v.08a1.23,1.23,0,0,1,.35,1v1"/><path class="cls-1" d="M40.1,33.59c1.28-.17,1.91-.23,3.19-.32v-.09c-.34-.21-.59-.74-.35-1.61a.09.09,0,0,1,.08-.06c1.06-.08,1.59-.11,2.66-.15,0,0,.07,0,.08.05a1.46,1.46,0,0,1-.35,1.65v.08c1.28,0,1.92-.06,3.2,0V33a2.09,2.09,0,0,1-.77-1.24c-.7-2.74-1.05-4.1-1.75-6.82-1.39.05-2.09.08-3.48.2-.7,2.8-1,4.2-1.74,7a2.43,2.43,0,0,1-.77,1.32v.09m4.17-7.27a.08.08,0,0,1,.08-.05s.07,0,.08,0c.37,1.4.54,2.14.91,3.53a.06.06,0,0,1,0,.06.09.09,0,0,1-.06,0c-.74,0-1.11.05-1.84.11a.07.07,0,0,1-.06,0s0,0,0-.05c.37-1.45.54-2.21.92-3.64"/><path class="cls-2" d="M29.56,63.22,27.3,49.4a10.67,10.67,0,0,1-4.38-1.18l3.4,15.92L42.93,76.55,29.58,63.32Z"/><path class="cls-2" d="M25.76,40,20.5,36.9l2,9.39a14.53,14.53,0,0,0,4.14-.86Z"/><polygon class="cls-2" points="53.03 76.55 61.9 69.92 60.58 69.07 53.03 76.55"/><path class="cls-2" d="M69.16,46.4l2.43,2.72a2.84,2.84,0,0,1,1,1.26s0,0,0,.07l2.9-13.55L70.2,40Z"/><polygon class="cls-2" points="66.4 63.23 66.38 63.32 64.48 65.2 65.06 67.56 69.64 64.14 69.98 62.55 66.63 61.84 66.4 63.23"/><path class="cls-2" d="M69,56.48c-.07,0-.84-.39-1.36-.66l-.2,1.24L71,58l.61-2.86a7.09,7.09,0,0,1-1,.82,2.71,2.71,0,0,1-1.59.5"/><path class="cls-2" d="M27.86,44c1.62-1.68,4.19-1.86,6.28-2.06a11.45,11.45,0,0,0,4.14-1.13,5.05,5.05,0,0,1-2-.77,26.14,26.14,0,0,1-3.48.53c-2.23.25-4.27.75-4.92,3.43"/><path class="cls-2" d="M71.45,50.81a1.76,1.76,0,0,0-.61-.79c-1.76-1.89-5.52-5.74-6.93-7.73a13.94,13.94,0,0,0-2.73-3,8.18,8.18,0,0,0-4.45-1.64h0a5.29,5.29,0,0,0-3.45-2.42c-1-.3-2.85-.49-3.89-.93v.26a11.19,11.19,0,0,0,1.47,1.34,2.64,2.64,0,0,0,0,.63,8.29,8.29,0,0,0-5,.14c-1.58.44-3.78,1.16-5,1.32a8.92,8.92,0,0,1-5.17-.6s.21.92,1.93,1.6h0a11.83,11.83,0,0,0,4.62.7A8.69,8.69,0,0,1,36,42.83c1.43,1.16,4.5.34,6.85-1.1,3.12-1.9,5-2.26,6.31-2A7.31,7.31,0,0,0,44,38.52a14.65,14.65,0,0,1,10.2,0,3,3,0,0,0-1.74,1.45A8.46,8.46,0,0,1,57,39.14,7.47,7.47,0,0,1,62.31,42l4.22,4.72L62.91,46v.15l4,2,2.79,2.82a.9.9,0,0,1,.06,1,.74.74,0,0,1-1.17-.89,1.15,1.15,0,0,0-1,1.35c.12,1.18,1.55,1.35,1.55,1.35a5.4,5.4,0,0,1-.41,1.43,1.67,1.67,0,0,0,1.18-.27,6.36,6.36,0,0,0,1.37-1.28,3.25,3.25,0,0,1-.39-.93,1.54,1.54,0,0,0,.56-1.92M52.38,37.1a3,3,0,0,1-.84-1.65,4.94,4.94,0,0,1,1.69.67c1.53,1.09,1.54,2.14,1.54,2.14a3.7,3.7,0,0,0-2.39-1.16"/><path class="cls-2" d="M23.84,47.25s2.58,1.7,7.19-1a11.71,11.71,0,0,1,3.9-1.79,6.42,6.42,0,0,0-6,1.06,7.69,7.69,0,0,1-5.12,1.75"/><path class="cls-1" d="M57.5,50.17l6.71,2.43v-.22l-5.3-3.13a4.77,4.77,0,0,0,1.43-2.46H60a5.11,5.11,0,0,1-4.88,2.51,4.58,4.58,0,0,1-4.38-4.14h-.31a5.41,5.41,0,0,0,.37,2.9A4.89,4.89,0,0,0,55,50.59a5.65,5.65,0,0,0,2.55-.42"/><path class="cls-1" d="M59.94,44.11a11.06,11.06,0,0,1,2.19.41v-.28c-.25-.21-.59-.46-.59-.46A4.73,4.73,0,0,0,60,42l-1.53-.14V42l.51.33a2.22,2.22,0,0,0,.92,1.8"/><polygon class="cls-1" points="45.18 43.79 45.18 43.61 29.05 51.31 29.46 53.82 45.18 43.79"/><polygon class="cls-1" points="37.91 52.43 37.91 52.3 29.98 56.92 30.25 58.74 37.91 52.43"/><path class="cls-1" d="M52.79,72.7l.1,0a12.77,12.77,0,0,0,1.54-1,.7.7,0,0,0,.17-.19,8.32,8.32,0,0,1,1-1.85,6.07,6.07,0,0,1,2.39-1,5.89,5.89,0,0,0-.88-.06,6.87,6.87,0,0,0-2,.28l-.18.11a6.78,6.78,0,0,0-1.15,1.1,1,1,0,0,1-.27.19c-.32.13-1,.38-1.73.61l-.09,0-.07-.06-.12-.12-.17-.14.07-.1A8.67,8.67,0,0,0,52,69.28a.4.4,0,0,0,0-.2,5.79,5.79,0,0,1-.09-1.52A6.22,6.22,0,0,1,53.24,66a5.18,5.18,0,0,0-2,1.19,1.27,1.27,0,0,0-.07.12,4.46,4.46,0,0,0-.3,1.08.61.61,0,0,1-.1.22,10.39,10.39,0,0,1-.89,1l-.06.06-.1,0-.45-.13-.12,0v-.12A10.67,10.67,0,0,0,49,67.62a.73.73,0,0,0-.09-.23,7.94,7.94,0,0,1-1.21-1.74A5,5,0,0,1,48,63.23a6,6,0,0,0-1.23,2.44,1.48,1.48,0,0,0,0,.2,6.31,6.31,0,0,0,.44,1.48.92.92,0,0,1,0,.32,12.13,12.13,0,0,1-.3,1.69l0,.09-.09,0-.41.11-.14,0-.07-.11a9.29,9.29,0,0,0-.8-1.08.79.79,0,0,0-.14-.11,6,6,0,0,1-1.44-.69h0A5.06,5.06,0,0,1,43,65.85a4.77,4.77,0,0,0,.14,2.23.72.72,0,0,0,.09.14,5.82,5.82,0,0,0,.88.8.61.61,0,0,1,.14.17,11.32,11.32,0,0,1,.48,1.2l0,.09-.08.06-.23.19-.08.08-.1,0a14.77,14.77,0,0,0-1.7-.74,1,1,0,0,0-.26,0,17.14,17.14,0,0,1-1.81.14,2.73,2.73,0,0,1-.41,0S39.47,70,38,68.64a6,6,0,0,0,1.64,2.21,1,1,0,0,0,.19.1,7.21,7.21,0,0,0,1.6.38.94.94,0,0,1,.31.13,15.08,15.08,0,0,1,1.43,1.09l.07.06s-.32.73-.35.88L48,78.59l5.13-5.1a8.35,8.35,0,0,0-.32-.79"/><path class="cls-1" d="M50,55.78l-8.27,1.4,2.15-1.26,6.38-6.16a3,3,0,0,1-.61-1L35.17,60.41v.17L50,55.91Z"/><path class="cls-1" d="M49.23,22.1c1.1,0,1.64,0,2.73.12a.81.81,0,0,0,.89-.79v-.28a.92.92,0,0,1,.26-.74v-.06c-.73-.06-1.1-.09-1.84-.13v.07a.67.67,0,0,1,.15.53.35.35,0,0,1-.36.35l-.92,0a.37.37,0,0,1-.36-.35v-2.5a.33.33,0,0,1,.36-.33h0l.92,0a.4.4,0,0,1,.36.38.64.64,0,0,1-.15.52V19c.74,0,1.11.06,1.84.13V19a1.05,1.05,0,0,1-.26-.77V18A1,1,0,0,0,52,17c-1.09-.07-1.63-.09-2.73-.11a.86.86,0,0,0-.89.83v3.47a.89.89,0,0,0,.89.87"/><path class="cls-2" d="M69.59,25.74c-4.4-1.48-8.63-4-13.79-5.42v2.19c5.16.84,9.39,2.3,13.79,3.34Z"/><path class="cls-3" d="M43.43,30c.73-.05,1.11-.08,1.84-.11a.07.07,0,0,0,.06,0,.06.06,0,0,0,0-.06c-.37-1.39-.54-2.12-.91-3.52a.09.09,0,0,0-.08-.05.09.09,0,0,0-.08.06c-.38,1.43-.56,2.18-.91,3.63a.07.07,0,0,0,0,.06l.06,0"/><path class="cls-3" d="M52.11,28.75c.73.05,1.09.08,1.81.15a.45.45,0,0,0,.52-.41V27a.55.55,0,0,0-.52-.51c-.72-.07-1.09-.09-1.81-.14h-.06s0,0,0,.05v2.23a.08.08,0,0,0,0,.05l.06,0"/><path class="cls-3" d="M74.7,59a5.87,5.87,0,0,0-.93-.34l.1-.46,5.89-27.56L73.52,34.3l2.6-12.06a8.6,8.6,0,0,1-3.94.38C64.3,21.82,58.45,15,48,15s-16.32,6.84-24.2,7.64a8.6,8.6,0,0,1-3.94-.38l2.6,12.06L16.2,30.59l7.47,35L48,83.69,72.29,65.54l.23-1.08,1,0,6.23-.1v-.52l-4.1-4.23a3,3,0,0,0-1-.64m.76-22.05-2.9,13.55s0-.05,0-.07a2.92,2.92,0,0,0-1-1.26l-2.43-2.73,1-6.36ZM71.28,53.66a6.14,6.14,0,0,1-1.37,1.28,1.68,1.68,0,0,1-1.19.27,4.74,4.74,0,0,0,.41-1.43s-1.42-.17-1.54-1.35a1.15,1.15,0,0,1,1-1.35.74.74,0,0,0,1.17.89.9.9,0,0,0-.06-1L67,48.11l-4-2V46l3.62.73L62.31,42A7.47,7.47,0,0,0,57,39.14a8.46,8.46,0,0,0-4.59.79,3,3,0,0,1,1.74-1.45,14.65,14.65,0,0,0-10.2,0,7.33,7.33,0,0,1,5.16,1.15c-1.31-.2-3.19.16-6.31,2.06C40.49,43.17,37.43,44,36,42.83a8.69,8.69,0,0,0,6.33-3.17A11.83,11.83,0,0,1,37.7,39h0c-1.73-.68-1.94-1.6-1.94-1.6a8.94,8.94,0,0,0,5.18.6c1.16-.16,3.36-.88,4.94-1.32a8.29,8.29,0,0,1,5-.14,2.71,2.71,0,0,1,0-.64,11.25,11.25,0,0,1-1.47-1.32v-.27c1,.44,2.93.63,3.89.92a5.31,5.31,0,0,1,3.44,2.43h0a8.18,8.18,0,0,1,4.45,1.64,14.62,14.62,0,0,1,2.74,3c1.4,2,5.16,5.84,6.92,7.73a1.78,1.78,0,0,1,.61.78,1.54,1.54,0,0,1-.56,1.93,3.25,3.25,0,0,0,.39.93m.28,1.5L71,58l-3.54-1,.2-1.24a14,14,0,0,0,1.36.66,2.71,2.71,0,0,0,1.59-.5,7.09,7.09,0,0,0,1-.82M35.48,33.26h0c.51-.15.78-.22,1.29-.35h0a.65.65,0,0,0,.5-.58V27.38a1.34,1.34,0,0,0-.63-1.24v-.09a26.56,26.56,0,0,1,3.3-.6v.08A2,2,0,0,0,39.32,27v5.57h0a1.53,1.53,0,0,1-1.26,1.36,38.33,38.33,0,0,0-3.84,1c-.68.21-1.24-.13-1.24-.77V28.52a1.25,1.25,0,0,0-.62-1.21v-.09c1.3-.37,2-.57,3.25-.91v.09A2.25,2.25,0,0,0,35,28v5c0,.25.22.39.49.32m-2.7,7.31A27.78,27.78,0,0,0,36.26,40a5,5,0,0,0,2,.77,11.46,11.46,0,0,1-4.15,1.13c-2.08.21-4.65.38-6.27,2.06.65-2.68,2.69-3.19,4.92-3.42M29,45.5a6.44,6.44,0,0,1,6-1.06A11.88,11.88,0,0,0,31,46.22c-4.61,2.72-7.18,1-7.18,1A7.64,7.64,0,0,0,29,45.5m16.22-1.89v.18l-15.71,10-.41-2.51ZM37.91,52.3v.13l-7.65,6.31L30,56.92Zm-2.74,8.11L49.65,48.75a3,3,0,0,0,.61,1l-6.38,6.16-2.15,1.26L50,55.78v.14L35.17,60.58Zm7.25,3.09,7.9-3.13a3.3,3.3,0,0,1,2.55.13l1.53.8L52.29,61l-9.88,2.59Zm8.39-15.45a5.24,5.24,0,0,1-.38-2.9h.31a4.58,4.58,0,0,0,4.38,4.14A5.15,5.15,0,0,0,60,46.78h.33a4.76,4.76,0,0,1-1.43,2.47l5.3,3.13v.22L57.5,50.17a5.65,5.65,0,0,1-2.55.42,4.85,4.85,0,0,1-4.14-2.54M58.51,42v-.15L60,42a4.73,4.73,0,0,1,1.5,1.81s.34.25.59.46v.28a11.89,11.89,0,0,0-2.19-.41,2.22,2.22,0,0,1-.92-1.8Zm-.59-16.13v-.09a63.47,63.47,0,0,1,6.31,1.62c0,.84,0,1.26,0,2.1l-.1,0,0,0a2.39,2.39,0,0,0-1.49-1.16l-1.93-.53c-.05,0-.08,0-.08.05,0,.77,0,1.16,0,1.94a.09.09,0,0,0,.08.09l.41.11c1,.26,1.28,0,1.53-.22l.1,0c0,1.08,0,1.62,0,2.7l-.09,0a2.32,2.32,0,0,0-1.52-1.09l-.41-.12s-.08,0-.08,0c0,.79,0,1.18,0,2a.12.12,0,0,0,.08.09c.84.23,1.27.36,2.12.62h0a1.27,1.27,0,0,0,1.49-.29l0,0,.09,0c0,.85,0,1.26,0,2.1a64.92,64.92,0,0,0-6.42-1.78v-.09a1.33,1.33,0,0,0,.63-1.23c0-2.11,0-3.16,0-5.26a2.05,2.05,0,0,0-.64-1.5m13.62,3.24c-1.28,2.54-2,3.78-3.32,6.2a0,0,0,0,0,0,.06.08.08,0,0,0,.07,0,15.43,15.43,0,0,0,1.63.28,1.38,1.38,0,0,0,1.46-.58l0,0h.08v2.06A21.39,21.39,0,0,1,65.43,36v-.11c1.37-2.32,2.06-3.5,3.4-5.92a0,0,0,0,0,0-.06.06.06,0,0,0-.06-.05c-.59-.12-.9-.2-1.51-.35a1.34,1.34,0,0,0-1.48.34s0,0,0,0l-.09,0c0-.84,0-1.26,0-2.1A29.55,29.55,0,0,0,71.54,29ZM55.8,20.32c5.15,1.47,9.39,3.94,13.79,5.42v.11c-4.4-1-8.64-2.5-13.79-3.34Zm.69,6.32c0,1.07,0,1.6,0,2.66a1,1,0,0,1-1.2.93c.35.8.52,1.22.88,2a3.85,3.85,0,0,0,1,1.46v.08a33.7,33.7,0,0,0-3.46-.43v-.08a1,1,0,0,0,.35-1.35l-.75-1.71a.08.08,0,0,0-.07,0l-1.12-.09a.08.08,0,0,0-.08.07v1.61a1.83,1.83,0,0,0,.64,1.42v.09c-1.33-.1-2-.13-3.33-.16,0,0,0,0,0-.08A1.66,1.66,0,0,0,50,31.67V26.43A1.71,1.71,0,0,0,49.34,25V25c.75,0,1.12,0,1.87.06h0c1.61.08,2.41.15,4,.33a1.42,1.42,0,0,1,1.28,1.29m-8.15-8.87a.86.86,0,0,1,.89-.84c1.1,0,1.64.05,2.73.12a.94.94,0,0,1,.89.91v.29a1,1,0,0,0,.26.77v.07C52.38,19,52,19,51.27,19v-.07a.59.59,0,0,0,.14-.52.39.39,0,0,0-.35-.38l-.92,0h0a.33.33,0,0,0-.36.33v2.5a.37.37,0,0,0,.36.35l.92,0a.34.34,0,0,0,.35-.35.63.63,0,0,0-.14-.53v-.07c.73,0,1.11.07,1.84.13v.06a.92.92,0,0,0-.26.74v.28a.81.81,0,0,1-.89.79c-1.09-.07-1.63-.1-2.73-.12a.89.89,0,0,1-.89-.87Zm-5.49-.57v-.07c1.48-.12,3-.19,4.45-.21v1.56h-.06l0,0a1.14,1.14,0,0,0-1.07-.52c-.55,0-.82,0-1.37,0a.06.06,0,0,0-.06.06v1.2a.06.06,0,0,0,.06.05h.29a1.26,1.26,0,0,0,1.09-.54h.07v2h-.07a1.15,1.15,0,0,0-1.09-.44h-.29a.06.06,0,0,0-.06.06v.68a1.25,1.25,0,0,0,.45,1v.06c-.93,0-1.39.08-2.32.15v-.06a1.45,1.45,0,0,0,.45-1.07v-3a1.22,1.22,0,0,0-.45-1M46.27,23l-1.58,1.17-1.63.13,1.1-1.15c.68-.07,1.35-.12,2.11-.15m-5.4,9.21c.69-2.82,1-4.22,1.74-7,1.39-.12,2.08-.16,3.47-.2.71,2.71,1.06,4.07,1.76,6.81A2,2,0,0,0,48.61,33v.09c-1.29,0-1.92,0-3.2,0v-.08a1.46,1.46,0,0,0,.35-1.65.08.08,0,0,0-.08-.05c-1.07,0-1.6.07-2.66.15,0,0-.08,0-.08.06-.24.87,0,1.4.35,1.61v.09c-1.28.09-1.92.16-3.19.32V33.5a2.43,2.43,0,0,0,.77-1.32m-14.5-6.44c4.4-1.48,8.63-3.95,13.79-5.42v2.19c-5.16.84-9.39,2.3-13.79,3.34ZM24.44,34A15.33,15.33,0,0,0,27,33.68v.1a1.07,1.07,0,0,0-.27.75v.6a.41.41,0,0,0,.49.41c.43-.08.64-.12,1.07-.22a.63.63,0,0,0,.5-.58V29.61s0-.06-.08-.05l-1.38.32a2.15,2.15,0,0,0-1.47,1l0,0-.09,0v-2.1a39.36,39.36,0,0,0,5.64-1.34v.09a2.37,2.37,0,0,0-.62,1.58v5.71a1.71,1.71,0,0,1-1.23,1.51,19.62,19.62,0,0,1-3.56.69A1.08,1.08,0,0,1,24.79,36V35a1.23,1.23,0,0,0-.35-1ZM20.5,36.9,25.76,40l.89,5.41a14.75,14.75,0,0,1-4.14.85Zm5.82,27.24-3.4-15.92A10.83,10.83,0,0,0,27.3,49.4l2.26,13.82,0,.1L42.93,76.55ZM48,78.59l-5.13-5.1c0-.14.35-.88.35-.88l-.07-.06a15.08,15.08,0,0,0-1.43-1.09,1.22,1.22,0,0,0-.31-.13,7.21,7.21,0,0,1-1.6-.38.73.73,0,0,1-.19-.1A6,6,0,0,1,38,68.64C39.47,70,40,70.09,40.05,70.09a1.84,1.84,0,0,0,.41,0,17,17,0,0,0,1.8-.14,1,1,0,0,1,.27,0,14.77,14.77,0,0,1,1.7.74l.1,0,.08-.08.23-.2.07,0,0-.09a9.91,9.91,0,0,0-.47-1.2.61.61,0,0,0-.14-.17,5.35,5.35,0,0,1-.88-.8.72.72,0,0,1-.09-.14A4.78,4.78,0,0,1,43,65.85a4.94,4.94,0,0,0,.86,1.79h0a6.61,6.61,0,0,0,1.45.69.79.79,0,0,1,.14.11,8.46,8.46,0,0,1,.8,1.08l.07.11.14,0,.41-.11.09,0,0-.09a12.13,12.13,0,0,0,.3-1.69,1.33,1.33,0,0,0,0-.32,6,6,0,0,1-.45-1.48,1.48,1.48,0,0,1,0-.2A5.94,5.94,0,0,1,48,63.23c-.46,1.8-.33,2.33-.29,2.42a7.61,7.61,0,0,0,1.21,1.75.58.58,0,0,1,.09.22,11.81,11.81,0,0,1,.16,1.74v.12l.11,0,.45.13.1,0,.06-.07a9.51,9.51,0,0,0,.89-1,.61.61,0,0,0,.1-.22,4.46,4.46,0,0,1,.3-1.08.47.47,0,0,1,.07-.12,5.18,5.18,0,0,1,2-1.19,6.22,6.22,0,0,0-1.3,1.58A5.79,5.79,0,0,0,52,69.08a.81.81,0,0,1,0,.2,10.92,10.92,0,0,1-.59,1.18l-.07.1.17.14.12.12.07.06.09,0a18,18,0,0,0,1.72-.61,1,1,0,0,0,.28-.19A6.8,6.8,0,0,1,54.93,69a1.18,1.18,0,0,1,.19-.1,6.48,6.48,0,0,1,2-.29,6,6,0,0,1,.88.06,6.07,6.07,0,0,0-2.39,1,8,8,0,0,0-1,1.85.7.7,0,0,1-.17.19,14,14,0,0,1-1.54,1l-.1.06s.28.65.32.79Zm5.05-2,7.55-7.48,1.32.85ZM59.14,59.9v-.14l2.19,1.68.06.13.76,1.66-1.89-.59L60.4,62Zm2.32,7.69s-.33-.31-.05-1l.89-.6-1.79-1.54,1.9.37s.6.06,1,1.33l.83,3.45Zm8.18-3.45-4.58,3.42-.58-2.35,1.9-1.89,0-.1.23-1.38,3.35.71Zm4.78-1.29a1.87,1.87,0,0,1-1.27-.78l-.27-.3,1.81-.85L61.57,57.75l-3.68.09-1.55-1s4.5-.05,4.88,0a3.89,3.89,0,0,1,.74.1l11.62,3a3.32,3.32,0,0,1,1.53.8l2.59,2.46Z"/><polygon class="cls-3" points="74.33 65.15 74.69 65.15 74.69 66.09 74.87 66.09 74.87 65.15 75.23 65.15 75.23 64.99 74.33 64.99 74.33 65.15"/><path class="cls-3" d="M75.92,65.84,75.63,65h-.25v1.09h.18v-.79l.27.79H76l.27-.79v.79h.18V65h-.24Z"/><path class="cls-3" d="M53.23,36.12a4.94,4.94,0,0,0-1.69-.67,3,3,0,0,0,.84,1.65,3.7,3.7,0,0,1,2.39,1.16s0-1-1.54-2.14"/><path class="cls-1" d="M54.4,61.3l-1.53-.81a3.35,3.35,0,0,0-2.55-.12L42.41,63.5v.12L52.29,61Z"/><path class="cls-1" d="M62.41,64.84l-1.9-.37L62.3,66l-.89.59c-.28.68.05,1,.05,1l2.74,2-.83-3.45c-.36-1.27-1-1.33-1-1.33"/><polygon class="cls-1" points="62.14 63.23 61.39 61.57 61.33 61.44 59.14 59.76 59.14 59.9 60.4 61.96 60.26 62.64 62.14 63.23"/><path class="cls-1" d="M73.58,59.93,62,56.9a3.89,3.89,0,0,0-.74-.1c-.38,0-4.88,0-4.88,0l1.55,1,3.68-.09,13.12,3.17-1.81.85.27.3a1.87,1.87,0,0,0,1.27.78l3.28.34-2.59-2.46a3.32,3.32,0,0,0-1.53-.8"/><path class="cls-1" d="M43.06,24.27l1.63-.13L46.27,23c-.76,0-1.43.08-2.11.15Z"/></svg>