<svg id="Capa_1" data-name="Capa 1" xmlns="http://www.w3.org/2000/svg" xmlns:xlink="http://www.w3.org/1999/xlink" viewBox="0 0 90 90"><defs><style>.cls-1,.cls-14{fill:#fbde00;}.cls-2{fill:#00722e;}.cls-3{fill:url(#linear-gradient);}.cls-4{fill:#007a2e;}.cls-5{fill:url(#linear-gradient-2);}.cls-6{fill:#dab700;}.cls-7{fill:#fff;}.cls-8{fill:#008035;}.cls-9{fill:url(#radial-gradient);}.cls-10{fill:#d6d6d6;}.cls-11{fill:url(#radial-gradient-2);}.cls-12{fill:url(#linear-gradient-3);}.cls-13,.cls-14,.cls-17,.cls-18,.cls-20{fill-rule:evenodd;}.cls-13{fill:url(#linear-gradient-4);}.cls-15{fill:#ffed88;}.cls-16{fill:#d0ab00;}.cls-17{fill:url(#linear-gradient-5);}.cls-18{fill:url(#linear-gradient-6);}.cls-19{fill:url(#linear-gradient-7);}.cls-20{fill:url(#linear-gradient-8);}.cls-21{fill:#007959;}.cls-22{fill:#f2f2f2;opacity:0.21;}</style><linearGradient id="linear-gradient" x1="22.6" y1="48.46" x2="70.12" y2="48.46" gradientUnits="userSpaceOnUse"><stop offset="0" stop-color="#006927"/><stop offset="0.53" stop-color="#6db032"/><stop offset="1" stop-color="#006525"/></linearGradient><linearGradient id="linear-gradient-2" x1="50.27" y1="39.02" x2="50.27" y2="71.58" gradientUnits="userSpaceOnUse"><stop offset="0" stop-color="#fff"/><stop offset="1" stop-color="#f2f2f2"/></linearGradient><radialGradient id="radial-gradient" cx="54.54" cy="60.84" r="7.88" gradientUnits="userSpaceOnUse"><stop offset="0" stop-color="#fff"/><stop offset="1" stop-color="#f0f0f0"/></radialGradient><radialGradient id="radial-gradient-2" cx="53.39" cy="57.14" r="8.54" gradientUnits="userSpaceOnUse"><stop offset="0" stop-color="#454545"/><stop offset="1"/></radialGradient><linearGradient id="linear-gradient-3" x1="26.7" y1="51.77" x2="47.02" y2="51.77" gradientUnits="userSpaceOnUse"><stop offset="0" stop-color="#007e34"/><stop offset="0.53" stop-color="#508b41"/><stop offset="1" stop-color="#00703f"/></linearGradient><linearGradient id="linear-gradient-4" x1="45.4" y1="51.77" x2="27.16" y2="51.77" gradientUnits="userSpaceOnUse"><stop offset="0" stop-color="#fcea00"/><stop offset="1" stop-color="#f4d400"/></linearGradient><linearGradient id="linear-gradient-5" x1="32.82" y1="17.12" x2="32.82" y2="36.32" gradientUnits="userSpaceOnUse"><stop offset="0" stop-color="#3ba750"/><stop offset="0.21" stop-color="#259845"/><stop offset="0.48" stop-color="#118a3b"/><stop offset="0.74" stop-color="#048135"/><stop offset="1" stop-color="#007e33"/></linearGradient><linearGradient id="linear-gradient-6" x1="41.15" y1="17.12" x2="41.15" y2="36.32" xlink:href="#linear-gradient-5"/><linearGradient id="linear-gradient-7" x1="50.38" y1="17.12" x2="50.38" y2="36.32" xlink:href="#linear-gradient-5"/><linearGradient id="linear-gradient-8" x1="59.09" y1="17.12" x2="59.09" y2="36.32" xlink:href="#linear-gradient-5"/></defs><title>Leon-90x90</title><path class="cls-1" d="M68.29,22.53l0,0c-8.89-4.23-19.66-4.44-21.73-4.44h-.6c-2.07,0-12.84.21-21.73,4.44l0,0a2,2,0,0,0-1.1,1.78V64.65h0a10.86,10.86,0,0,0,1.32,5.62c1.23,2,3.37,3.39,6.56,4.14.9.21,1.84.37,2.76.53.45.07.91.15,1.36.24,1.27.24,2.57.54,3.87.9l.67.17a16.76,16.76,0,0,1,4.45,1.65l0,0,1,.58a1.92,1.92,0,0,0,.53.25,1.8,1.8,0,0,0,.6.1h0a2,2,0,0,0,.6-.09,2.44,2.44,0,0,0,.53-.26l1-.58,0,0a16.5,16.5,0,0,1,4.45-1.65l.66-.17c1.3-.36,2.6-.66,3.87-.9.45-.09.91-.17,1.36-.24h0c.91-.16,1.85-.32,2.76-.53,3.18-.75,5.33-2.1,6.56-4.15a10.9,10.9,0,0,0,1.32-5.61h0V24.31A2,2,0,0,0,68.29,22.53Z"/><path class="cls-2" d="M68,23.17h0C59.19,19,48.56,18.79,46.52,18.79h-.6c-2,0-12.67.21-21.42,4.37h0a1.28,1.28,0,0,0-.71,1.14V63.85c0,2.89.35,4.58,1.23,6,1.12,1.87,3.11,3.12,6.1,3.81.89.21,1.82.37,2.73.53l1.37.24c1.28.24,2.6.55,3.92.91l.66.18a17.14,17.14,0,0,1,4.66,1.73s.87.5,1,.61a1,1,0,0,0,.33.16,1.32,1.32,0,0,0,.39.06h0a1.23,1.23,0,0,0,.39-.06A1.15,1.15,0,0,0,47,77.9l1-.6h0a17,17,0,0,1,4.65-1.73l.66-.18c1.32-.36,2.64-.67,3.93-.91.45-.08.91-.17,1.37-.24.9-.16,1.84-.32,2.72-.53,3-.69,5-1.94,6.11-3.81.86-1.45,1.21-3.12,1.23-6h0V24.31A1.28,1.28,0,0,0,68,23.17Z"/><path class="cls-3" d="M46.22,19s-12-.23-21.63,4.35h0a1.07,1.07,0,0,0-.61,1V63.74h0c0,2.81.3,4.54,1.2,6.05,1.19,2,3.29,3.1,6,3.72,1.33.31,2.75.52,4.09.77s2.69.57,3.94.91a19.85,19.85,0,0,1,5.36,1.94s.88.5,1.05.61a1.08,1.08,0,0,0,.29.14,1.2,1.2,0,0,0,.33.05,1.27,1.27,0,0,0,.34-.05,1.13,1.13,0,0,0,.28-.14c.17-.11,1-.61,1-.61a19.85,19.85,0,0,1,5.36-1.94c1.26-.34,2.58-.65,3.94-.91s2.77-.46,4.09-.77c2.69-.62,4.8-1.74,6-3.72.91-1.51,1.2-3.24,1.2-6.05h0V24.31a1.07,1.07,0,0,0-.61-1h0C58.21,18.75,46.22,19,46.22,19Z"/><path class="cls-4" d="M57.23,41.34a4.67,4.67,0,0,0-3.84,2v0l-18,26.42a1.3,1.3,0,0,0-.22.72,1.24,1.24,0,0,0,1,1.21c1,.19,2,.39,3,.6l1.59.31a23.42,23.42,0,0,1,4.42,1.1l.34.16a2.22,2.22,0,0,0,.78.29h0a2.22,2.22,0,0,0,.78-.29l.34-.16a23.42,23.42,0,0,1,4.42-1.1l1.59-.31c1-.22,2.1-.43,3.14-.63,1.24-.24,2.53-.49,3.76-.76A6.05,6.05,0,0,0,64,69c1.3-1.56,1.4-3.53,1.4-5.93V41.34Z"/><path class="cls-5" d="M53.53,43.49,35.5,69.9a1.08,1.08,0,0,0-.19.61,1,1,0,0,0,.83,1c1,.19,2,.39,3,.6a38,38,0,0,1,6,1.42,4.52,4.52,0,0,0,1.06.44,4.64,4.64,0,0,0,1-.44,38,38,0,0,1,6-1.42c2.25-.48,4.64-.89,6.9-1.39a5.91,5.91,0,0,0,3.65-1.86c1.19-1.44,1.35-3.2,1.35-5.8V41.53h-8a4.45,4.45,0,0,0-3.68,1.94l0,0"/><path class="cls-4" d="M65.44,26h0a1,1,0,0,0-.64-.84,3.7,3.7,0,0,0-.47-.21A53,53,0,0,0,46.22,22a53,53,0,0,0-18.1,2.9,4.51,4.51,0,0,0-.47.21A1,1,0,0,0,27,26h0v13.8H65.44V26Z"/><polygon class="cls-6" points="38.02 80.12 37.28 78.17 36.54 80.12 34.29 80.17 36.08 81.45 35.45 83.45 37.28 82.26 39.12 83.45 38.48 81.45 40.26 80.17 38.02 80.12"/><polygon class="cls-6" points="46.97 81.82 46.22 79.87 45.48 81.82 43.24 81.88 45.02 83.15 44.39 85.15 46.22 83.97 48.06 85.15 47.42 83.15 49.21 81.88 46.97 81.82"/><polygon class="cls-6" points="29.08 77.66 28.33 75.7 27.6 77.66 25.35 77.72 27.13 78.99 26.5 80.99 28.33 79.8 30.18 80.99 29.54 78.99 31.32 77.72 29.08 77.66"/><polygon class="cls-6" points="55.9 80.12 55.17 78.17 54.42 80.12 52.18 80.17 53.97 81.45 53.32 83.45 55.17 82.26 57 83.45 56.37 81.45 58.15 80.17 55.9 80.12"/><polygon class="cls-6" points="67.1 77.72 64.85 77.66 64.11 75.7 63.37 77.66 61.12 77.72 62.91 78.99 62.27 80.99 64.11 79.8 65.94 80.99 65.31 78.99 67.1 77.72"/><polygon class="cls-1" points="37.28 78.6 37.91 80.27 39.8 80.32 38.3 81.39 38.84 83.09 37.28 82.08 35.72 83.09 36.26 81.39 34.75 80.32 36.65 80.27 37.28 78.6"/><polygon class="cls-1" points="46.22 80.3 46.86 81.97 48.75 82.02 47.24 83.09 47.79 84.79 46.22 83.78 44.66 84.79 45.2 83.09 43.7 82.02 45.59 81.97 46.22 80.3"/><polygon class="cls-1" points="28.33 76.14 28.97 77.81 30.86 77.86 29.35 78.93 29.9 80.63 28.33 79.62 26.78 80.63 27.31 78.93 25.81 77.86 27.7 77.81 28.33 76.14"/><polygon class="cls-1" points="55.17 78.6 54.53 80.27 52.64 80.32 54.15 81.39 53.6 83.09 55.17 82.08 56.72 83.09 56.19 81.39 57.69 80.32 55.8 80.27 55.17 78.6"/><polygon class="cls-1" points="64.11 76.14 63.47 77.81 61.59 77.86 63.09 78.93 62.55 80.63 64.11 79.62 65.67 80.63 65.13 78.93 66.63 77.86 64.74 77.81 64.11 76.14"/><path class="cls-4" d="M34,68.61H33v-3.3h2.1v.8H34v.47h1.11v.79H34Zm-.69-.23h.46V67.14h1.11v-.33H33.72v-.93H34.9v-.34H33.26Z"/><polygon class="cls-7" points="33.15 65.42 35.02 65.42 35.02 65.99 33.84 65.99 33.84 66.69 34.94 66.69 34.94 67.26 33.84 67.26 33.84 68.49 33.15 68.49 33.15 65.42"/><path class="cls-8" d="M38.13,68.12a1,1,0,0,1,.84-.41,1.05,1.05,0,0,1,1,.55,1.31,1.31,0,0,1,.19.61h-.57a1.06,1.06,0,0,0-.14-.35A.5.5,0,0,0,39,68.3a.52.52,0,0,0-.48.3,1.72,1.72,0,0,0-.18.86,1.43,1.43,0,0,0,.19.83.54.54,0,0,0,.47.28.52.52,0,0,0,.45-.24,1.33,1.33,0,0,0,.14-.38h.57a1.58,1.58,0,0,1-.38.87,1,1,0,0,1-.77.34,1.08,1.08,0,0,1-.92-.45,2.14,2.14,0,0,1-.33-1.26,2,2,0,0,1,.38-1.33"/><path class="cls-9" d="M54.54,53a7.88,7.88,0,1,0,7.87,7.87A7.89,7.89,0,0,0,54.54,53Z"/><path class="cls-10" d="M54.54,68.87a8,8,0,1,1,8-8A8,8,0,0,1,54.54,68.87Zm0-15.75a7.72,7.72,0,1,0,7.72,7.72A7.72,7.72,0,0,0,54.54,53.12Z"/><path class="cls-11" d="M54.54,53a7.88,7.88,0,1,0,7.87,7.87A7.89,7.89,0,0,0,54.54,53ZM58.6,65.65a11.24,11.24,0,0,1-2.76-.21,27,27,0,0,1-1-3.13,27.09,27.09,0,0,0,1.88-2.62c.21,0,1.82.15,3,.37A12.71,12.71,0,0,1,60.65,63,6.36,6.36,0,0,1,58.6,65.65ZM50.37,54.47a7.52,7.52,0,0,1,2.78-1.11,5.76,5.76,0,0,1,2.49,1.36c-.09.21-.52,1.17-.91,2.23a10.09,10.09,0,0,0-3.1,1c-.78-.51-1.89-1.13-2.18-1.29A7.69,7.69,0,0,1,50.37,54.47Zm9.36,5.42c-1.2-.23-2.88-.36-3-.37A15,15,0,0,0,54.9,57c.39-1.06.81-2,.9-2.21a6.88,6.88,0,0,1,2.49.37A8.4,8.4,0,0,1,60.49,58,7.29,7.29,0,0,1,59.73,59.89Zm-8,1.48a15.05,15.05,0,0,0,3,1,26.9,26.9,0,0,0,.94,3.08,11.84,11.84,0,0,1-2.17,1.81,8.45,8.45,0,0,1-3.19-1.1,9.35,9.35,0,0,1-.91-2.82A21.57,21.57,0,0,1,51.68,61.37Zm-1.38,5a8.72,8.72,0,0,0,3.14,1.08,2.79,2.79,0,0,0,1,1,7.61,7.61,0,0,1-4.91-1.86A2.86,2.86,0,0,0,50.3,66.38Zm11.55-7.66a4.86,4.86,0,0,0-1.24-.9A8.6,8.6,0,0,0,58.35,55a2.33,2.33,0,0,0,0-.73A7.65,7.65,0,0,1,61.85,58.72Zm-14.63,0a10.37,10.37,0,0,1,2.11-2c.21.12,1.39.78,2.2,1.31a14,14,0,0,0,0,3.16,21.25,21.25,0,0,0-2.28,2A9.47,9.47,0,0,1,47,61.8a7.5,7.5,0,0,1-.06-1A7.67,7.67,0,0,1,47.22,58.74Zm11,8.78a3.87,3.87,0,0,0,.5-1.73,6.44,6.44,0,0,0,2.11-2.72,2.47,2.47,0,0,0,.43-.1,2,2,0,0,0,.73-.41A7.67,7.67,0,0,1,58.19,67.52Z"/><path class="cls-12" d="M47,45.85a1.06,1.06,0,0,0-.48-.7,3.2,3.2,0,0,0-.68-.45,1.78,1.78,0,0,0-.65-.11,1.68,1.68,0,0,1-.6-.08A1.93,1.93,0,0,1,44,44c0-.13.08-.22.2-.34a.72.72,0,0,0,.27-.53c0-.61-.8-.89-1.35-.89l-.2,0a1.89,1.89,0,0,0-.7.26,1.35,1.35,0,0,1-.69.23h-.18a1.29,1.29,0,0,1-.14-.49,1,1,0,0,0-.29-.7h0a.88.88,0,0,0-.27,0,1.29,1.29,0,0,0-.59.19l-.07,0a1.82,1.82,0,0,0-.23.15,1,1,0,0,1-.44.2.63.63,0,0,1-.27-.14l-.23-.14a2.46,2.46,0,0,0-.65-.26,2.42,2.42,0,0,0-.42,0h-.49l-.55,0h-.09l-.5,0-.56,0c-.58,0-1.18.09-1.21.76v.06l0,0a1,1,0,0,0,.64.19,1.13,1.13,0,0,1,.38,0,1,1,0,0,1,.66,1,.33.33,0,0,1-.19.06l-.22,0a1.26,1.26,0,0,0-.28,0h-.05a8.73,8.73,0,0,0-.92.07l-.4,0-.63,0a5.29,5.29,0,0,0-.72,0,2.34,2.34,0,0,0-1.21,1,3.3,3.3,0,0,0-.18.32,1.09,1.09,0,0,1-.27.42.46.46,0,0,1-.21.08l-.24.09c-.43.21-.86.46-1.28.71s-.64.37-.95.53l-.12.06a2.83,2.83,0,0,0-1.24,1A1.58,1.58,0,0,0,26.76,49a.32.32,0,0,0,.25.19c.25,0,.38-.18.5-.36s.17-.26.26-.26a2.65,2.65,0,0,1-.28.63,2,2,0,0,0-.36,1.46,2.18,2.18,0,0,0,.46.82,1.81,1.81,0,0,0,.75.55l.05,0,.05,0a1.8,1.8,0,0,0,.2-.18.82.82,0,0,1,.25-.21l.15,0a1.44,1.44,0,0,0,.8-.42,1.08,1.08,0,0,1,.55-.3.77.77,0,0,1,.66.5.92.92,0,0,1,0,.91,2.41,2.41,0,0,1-1.24.56h-.06c-.11,0-.13-.08-.16-.21a.49.49,0,0,0-.31-.41h-.08c-.16,0-.23.16-.28.28a.65.65,0,0,1-.09.17l-.18,0a.55.55,0,0,0-.42.19l0,0v0A2.7,2.7,0,0,0,28.47,54l.09.23c0,.06,0,.14.06.22.1.36.24.9.7.92h0a.88.88,0,0,0,.55-.29,2.26,2.26,0,0,1,.26-.2,2.46,2.46,0,0,1,1.36-.35,3.7,3.7,0,0,1,.9.22,4.29,4.29,0,0,0,.72.22,5.69,5.69,0,0,0,.94.07l.2,0,.17,0a.25.25,0,0,1,.21.09,4.16,4.16,0,0,1-1.77,1.3l-.07,0-.13.06a1.26,1.26,0,0,0-.61.46L32,57l.07.06a.88.88,0,0,1,.13.29c.07.24.16.54.44.54h0c.15,0,.24-.16.31-.29s.11-.21.17-.22a1.09,1.09,0,0,1,.53.21l.21.11.16.08a1.56,1.56,0,0,0,.76.22h.09l0-.09a4.58,4.58,0,0,0,.12-.74c.06-.56.13-1.18.48-1.18h0c.24,0,.26.27.27.7a2.06,2.06,0,0,0,0,.36v0a1,1,0,0,0,.33.29.61.61,0,0,1,.32.31,2.36,2.36,0,0,1,.06.82c0,.17,0,.34,0,.51a.52.52,0,0,1-.33.09h-.17c-.1,0-.21,0-.3,0a3.2,3.2,0,0,0-1.64.51,1.4,1.4,0,0,0-.3,1.2c0,.2,0,.42,0,.66v.08l.06,0a.41.41,0,0,0,.18,0,.48.48,0,0,0,.18,0,.53.53,0,0,1,.17,0,2,2,0,0,1,.21.19.94.94,0,0,0,.58.33h.13a1,1,0,0,0,.84-.5,1.11,1.11,0,0,1,.37-.35,1.9,1.9,0,0,1,.45-.14,1.68,1.68,0,0,0,.55-.2h0v0a.68.68,0,0,1,.23-.22,1.3,1.3,0,0,0,.28-.29.93.93,0,0,0,.12-.27c.07-.17.11-.28.21-.3a.45.45,0,0,1,.31.11.82.82,0,0,0,.39.15h.06c.28,0,.45-.39.6-.73a3.49,3.49,0,0,1,.24-.44,3.19,3.19,0,0,1,.46-.44,2.28,2.28,0,0,0,.57-.59,4.28,4.28,0,0,0,.38-1,2.09,2.09,0,0,0,0-.56,1.5,1.5,0,0,1,0-.36.27.27,0,0,1,.06-.12l.08-.14a.9.9,0,0,0,.06-.22s0-.11,0-.15.11-.19.17-.3a4,4,0,0,0,.2-.35l.13-.26a2.08,2.08,0,0,0,.2-.45,3.47,3.47,0,0,0,.08-.36c0-.27.06-.32.16-.33s.18.12.2.2a1.25,1.25,0,0,1-.2.61,1.34,1.34,0,0,0-.12.24l-.11.22a1.19,1.19,0,0,0-.19.71l0,.13.11,0a2.73,2.73,0,0,0,1.35-1.06,3.51,3.51,0,0,0,.79-1.63,1.1,1.1,0,0,0-.31-.89.94.94,0,0,1-.26-.46.67.67,0,0,1,.41,0,1.43,1.43,0,0,0,.43.08.66.66,0,0,0,.28-.05l0,0,0,0a4.57,4.57,0,0,0,.44-2s0-.11,0-.17a.63.63,0,0,1,.27,0H46a.53.53,0,0,0,.23,0h0l0,0a1.27,1.27,0,0,0,.09-1,2.39,2.39,0,0,1,0-.7.78.78,0,0,1,.08-.23.85.85,0,0,0,.1-.28v-.06a2.29,2.29,0,0,0-.1-.23,1.76,1.76,0,0,1-.19-.59.9.9,0,0,1,.28,0l.21,0a.37.37,0,0,0,.29-.12l0,0Zm-13.61.79-.13,0-.12,0a4.26,4.26,0,0,1-.74.1,1,1,0,0,1-.4-.07,1,1,0,0,1,.88-.57.93.93,0,0,1,.29,0,1.4,1.4,0,0,1,.52.36A.56.56,0,0,1,33.41,46.64ZM32.84,51a6.13,6.13,0,0,0,.93.4l.15,0,.18.06c.29.1.63.22.62.41s-.36.26-.84.26a2.12,2.12,0,0,1-.58-.07,2.5,2.5,0,0,1-.44-.27,3.91,3.91,0,0,1-1-1.81,2,2,0,0,1,.44.44A1.92,1.92,0,0,0,32.84,51Zm9.48-3.86a1.68,1.68,0,0,1-.18-.21,1.14,1.14,0,0,0-.87-.52c-.66-.09-1-.29-1.07-.64a1.18,1.18,0,0,1,.11-.85.29.29,0,0,1,.16-.14h.09a1.29,1.29,0,0,1,.74.44l.09.09.17.17c.21.23.47.52.74.52h.07a.35.35,0,0,0,.28-.22c.1-.26-.14-.64-.28-.84a2.83,2.83,0,0,0-.7-.72,1.36,1.36,0,0,0-.37-.13.64.64,0,0,1-.37-.17c0-.41.2-.46.38-.46l.21,0a2.44,2.44,0,0,1,.76.58l.1.09.08.07a2.77,2.77,0,0,1,.62.72,1.35,1.35,0,0,1,0,.69,2,2,0,0,0-.06.6,1.48,1.48,0,0,0,.17.54,1.93,1.93,0,0,1,.16.48,2,2,0,0,1,0,.24,1.16,1.16,0,0,0,0,.32,1.52,1.52,0,0,0,.47.76,1.56,1.56,0,0,1,.34.46,1.13,1.13,0,0,1,0,.9c-.14,0-.25-.17-.36-.32l-.09-.11c-.15-.18-.3-.36-.46-.53v0l-.12-.13a2.13,2.13,0,0,1-.77-1.58v-.05Zm-1.48,7.59a1.88,1.88,0,0,1-.06.73,2.14,2.14,0,0,1-.16.28l-.09.14-.36.6-.38.63c-.22.06-.44.09-.66.13a4.8,4.8,0,0,0-.64.12,3.43,3.43,0,0,0-.45.16,1.34,1.34,0,0,1-.65.17c-.09-.06-.09-.19-.08-.39a1.27,1.27,0,0,0,0-.2c0-.52-.06-1.19,0-1.76l.49-.35a4.24,4.24,0,0,0,1.39-1.29,1.3,1.3,0,0,0,.15-.34c.06-.15.12-.3.19-.3h0c.06,0,.07,0,.07,0s0,.27-.19.59a5.33,5.33,0,0,1-.74,1l-.27.32-.06.07a1.59,1.59,0,0,0-.44.69c0,.23.37.79.65.81s.52-.24.71-.43l.11-.11.18-.15a1.56,1.56,0,0,0,.46-.49v0a3.84,3.84,0,0,0,0-.77,1.63,1.63,0,0,1,0-.7,1.59,1.59,0,0,1,.51-.61,1.75,1.75,0,0,1,.27-.16.82.82,0,0,0,.42-.35,4.41,4.41,0,0,0-.1-1.64,1.43,1.43,0,0,0-.08-.22.47.47,0,0,1-.06-.33l.08,0c.09,0,.14.13.22.35a1.41,1.41,0,0,0,.26.5.89.89,0,0,0,.38.25.63.63,0,0,1,.24.14,7.51,7.51,0,0,1-.73,1.86l-.19.07a1.38,1.38,0,0,0-.34.18l0,0v0A4.16,4.16,0,0,0,40.84,54.72Zm-4.49.14a.55.55,0,0,0-.35.21.28.28,0,0,1-.23.13h-.06c-.15-.09-.12-.5.07-1.06.13-.38.26-.55.41-.55a.47.47,0,0,1,.24.1,1.28,1.28,0,0,1-.07.39,1.74,1.74,0,0,0-.08.5v.15l.14,0a.66.66,0,0,0,.28-.19.36.36,0,0,1,.25-.13.18.18,0,0,1,.08.06.55.55,0,0,1-.07.21c0,.07-.07.14-.1.23a2.33,2.33,0,0,0-.06.35.6.6,0,0,1-.07.28h0l-.14,0s0,0,0,0a.9.9,0,0,1-.05-.51v-.14ZM39,47.71l0,.07a.6.6,0,0,0,.09.13.81.81,0,0,1,.12.22,1.29,1.29,0,0,1-.79-.54.36.36,0,0,1,0-.29l.13,0C38.76,47.28,38.89,47.48,39,47.71Zm.13,3.58,0,0c-.14.16-.47.53-.61.54s-.14,0-.22-.11a.53.53,0,0,0-.3-.18H37.9a.75.75,0,0,0-.34.09.44.44,0,0,1-.23.06.24.24,0,0,1-.22-.2.66.66,0,0,1,.33-.61,1.91,1.91,0,0,1,.51-.17,2,2,0,0,0,.31-.08l.28-.09a3.54,3.54,0,0,1,.54-.16h.13q.33,0,.36.21C39.6,50.79,39.28,51.15,39.16,51.29Zm.34-7.68a1.14,1.14,0,0,1-.92.78h-.07a1.14,1.14,0,0,1-1.08-.85.64.64,0,0,1,.07-.49.34.34,0,0,1,.26-.09,1.27,1.27,0,0,1,.62.21l0,0h0a1.11,1.11,0,0,0,.42-.21.54.54,0,0,1,.32-.16.29.29,0,0,1,.16.06A.85.85,0,0,1,39.5,43.61Zm-1.93,5.23a2,2,0,0,1,1.19.44.22.22,0,0,1,.08.15c0,.19-.32.19-.35.19a.63.63,0,0,1-.32-.07,1.91,1.91,0,0,1-.71-.7Zm-.38,1.23a.46.46,0,0,1-.3.16h-.11a1.7,1.7,0,0,1-1.19-.5.44.44,0,0,1-.1-.39.33.33,0,0,1,.27-.2h0c.18,0,.22.07.32.2a.82.82,0,0,0,.42.37,1.1,1.1,0,0,0,.45.08c.23,0,.27,0,.28.13A.16.16,0,0,1,37.19,50.07Zm4.39-1.55h0c-.13,0-.34-.2-.38-.4a.17.17,0,0,1,.12-.22l.07,0c.15,0,.27.2.3.38S41.67,48.5,41.58,48.52ZM40.31,48h0c.16,0,.35.16.5.41a1.36,1.36,0,0,1,.23,1c-.23,0-.33-.15-.47-.34l-.1-.13-.06-.07c-.13-.16-.36-.45-.35-.61A.25.25,0,0,1,40.31,48Z"/><path class="cls-13" d="M46.91,45.86a1,1,0,0,0-.44-.62,2.92,2.92,0,0,0-.66-.44c-.36-.15-.85,0-1.24-.18-.17-.07-.72-.49-.73-.66,0-.36.49-.5.48-.87,0-.58-.89-.84-1.43-.77s-.92.62-1.64.47c-.26-.28-.12-1-.44-1.2a1,1,0,0,0-.83.18c-.24.13-.5.37-.73.37s-.35-.19-.55-.29a3.32,3.32,0,0,0-.62-.26c-.36-.06-1,0-1.53,0-1,0-2.12-.23-2.16.62.27.24.67.1,1,.22a1.11,1.11,0,0,1,.73,1.17c-.28.21-.52,0-.8,0s-.87.07-1.35.11-1,0-1.35.08a2.12,2.12,0,0,0-1.13.91c-.17.24-.26.59-.48.76a3.05,3.05,0,0,1-.47.19c-.76.37-1.52.86-2.23,1.24a3,3,0,0,0-1.31,1c-.12.22-.34,1.08,0,1.13s.45-.79.88-.58c-.09.68-.84,1.21-.66,2.15a2.14,2.14,0,0,0,.44.77,1.73,1.73,0,0,0,.69.51c.18-.13.26-.31.48-.4s.28,0,.44-.11c.42-.18.69-.64,1.09-.66.69,0,1.16,1.11.77,1.61a2.26,2.26,0,0,1-1.43.58c-.35-.1-.11-.48-.47-.62-.2-.07-.2.36-.37.44s-.45,0-.54.18a3.42,3.42,0,0,0,.33,1.28c.11.32.19,1,.65,1,.29,0,.5-.31.77-.47a2.51,2.51,0,0,1,1.42-.36,11.64,11.64,0,0,1,1.64.43,5.62,5.62,0,0,0,.92.08c.24,0,.49-.16.72.14a4.14,4.14,0,0,1-1.93,1.46,1.42,1.42,0,0,0-.69.48c.18.15.17.83.51.8s.25-.48.47-.51.59.22.81.33a2,2,0,0,0,.87.29c.2-.65.06-2,.73-2,.48,0,.35.73.4,1.17.15.25.54.29.66.62a6.6,6.6,0,0,1,.07,1.42c-.24.24-.6.12-.91.15a3.1,3.1,0,0,0-1.57.47c-.43.43-.21,1-.25,1.79.18.1.29-.06.51,0,.28.19.41.48.76.51.75.08.82-.61,1.28-.84s.66-.12,1-.32c.17-.26.34-.26.52-.51s.14-.57.4-.62.5.29.76.25.52-.81.77-1.13.78-.61,1-1a3.29,3.29,0,0,0,.36-1,6.9,6.9,0,0,0,0-.91,2.74,2.74,0,0,1,.15-.29c.05-.12.06-.26.11-.37s.26-.41.37-.65a6.83,6.83,0,0,0,.32-.7c.12-.4,0-.74.33-.76a.36.36,0,0,1,.33.29c0,.29-.21.64-.33.91a1.83,1.83,0,0,0-.29.88,2.79,2.79,0,0,0,1.28-1,3.24,3.24,0,0,0,.76-1.57c.07-.75-.49-.76-.58-1.39.31-.28.76.2,1.2,0A5.08,5.08,0,0,0,45.41,49c.24-.11.53.07.77,0,.28-.34,0-1,0-1.61,0-.21.16-.32.19-.51a2.08,2.08,0,0,1-.3-1C46.39,45.8,46.71,46.07,46.91,45.86Zm-13.68.22a1.84,1.84,0,0,1,.62.44c0,.21-.34.21-.55.25a2.23,2.23,0,0,1-1.42,0A1.07,1.07,0,0,1,33.23,46.08Zm0,6.13a2.29,2.29,0,0,1-.47-.3,3.46,3.46,0,0,1-1.06-2h.07c.52.27.58.7,1.1,1a6.94,6.94,0,0,0,1.06.44c.36.14.89.25.87.58S33.64,52.34,33.26,52.21Zm7-4.31c.54,0,1.09,1.11.84,1.61-.4,0-.51-.24-.73-.51s-.45-.53-.44-.77A.37.37,0,0,1,40.3,47.9Zm1-.11c.46-.19.73.73.37.84S40.77,48,41.25,47.79ZM39,49.43c0,.34-.56.37-.84.22a1.81,1.81,0,0,1-.8-.87C37.67,48.58,39,49,39,49.43Zm-.58-2.22c.42-.18.6.18.8.51s.31.36.22.51C39,48.33,38.1,47.68,38.37,47.21Zm-.15,3.35a6.07,6.07,0,0,1,.84-.25c.17,0,.57,0,.62.29s-.32.64-.47.8-.51.58-.69.59-.31-.26-.55-.29-.45.17-.66.14c-.52-.08-.35-.79.07-1A4.81,4.81,0,0,1,38.22,50.56Zm.22-7.47c.37-.07.59-.57,1-.3a.94.94,0,0,1,.18.84,1.18,1.18,0,0,1-2.3-.07C37.19,42.64,38,42.78,38.44,43.09Zm-3.06,6.24a.45.45,0,0,1,.36-.3c.46,0,.35.41.81.59s.75,0,.8.29-.21.4-.44.44C36.38,50.42,35.22,50,35.38,49.33ZM37,54.91c-.09.28,0,.56-.18.69s-.27.11-.36,0a1,1,0,0,1-.08-.58c-.31,0-.28.4-.69.33s-.12-.86,0-1.21.38-.86.88-.47c0,.37-.16.57-.15.95.24-.07.28-.33.58-.33S37.08,54.6,37,54.91Zm4.56-1.21A4.49,4.49,0,0,0,41,54a12.88,12.88,0,0,1-.11,1.53,3,3,0,0,1-.26.44c-.24.4-.53.87-.76,1.27-.46.13-.92.15-1.35.26s-.77.39-1.17.33c-.23-.13-.14-.45-.15-.69,0-.57-.05-1.25,0-1.83a6.56,6.56,0,0,0,1.89-1.64c.18-.28.21-.74.48-.69s.1.56,0,.8a8.33,8.33,0,0,1-1,1.31c-.11.13-.47.51-.47.7s.33.67.54.69.59-.39.73-.51a2.29,2.29,0,0,0,.62-.62c.07-.67-.11-1,0-1.5a1.73,1.73,0,0,1,.55-.66c.23-.18.56-.26.65-.47A4,4,0,0,0,41,51.11c-.05-.22-.23-.42-.11-.66.48-.24.42.49.73.84s.49.19.66.44A7.23,7.23,0,0,1,41.54,53.7ZM44.21,50c-.27,0-.43-.28-.59-.48L43.15,49a2.44,2.44,0,0,1-.91-1.79c-.29-.28-.35-.61-1-.69s-1.06-.27-1.16-.73.09-1.08.36-1.13.73.28,1,.54.58.72.88.66.14-.58-.08-.88a2.72,2.72,0,0,0-.65-.69c-.28-.16-.63-.1-.81-.37,0-.44.21-.69.73-.58.28.06.7.5.92.69a3.12,3.12,0,0,1,.73.84c.15.45-.11.86-.08,1.32s.29.66.33,1c0,.19,0,.37,0,.55.11.52.65.78.8,1.2S44.46,49.74,44.21,50Z"/><path class="cls-14" d="M65.24,26.07a.81.81,0,0,0-.53-.76,2.72,2.72,0,0,0-.45-.19,52.26,52.26,0,0,0-18-2.89,52.38,52.38,0,0,0-18,2.89,3.18,3.18,0,0,0-.45.19.83.83,0,0,0-.53.76h0V39.6H65.25V26.07Z"/><path class="cls-15" d="M65.32,39.67H27.12v-.15H65.17V26.07a.75.75,0,0,0-.14-.41l.13-.09a1,1,0,0,1,.16.46h0V39.67Z"/><path class="cls-16" d="M27.27,39.6h-.15V26h0a.91.91,0,0,1,.58-.79,4.28,4.28,0,0,1,.46-.2,52.91,52.91,0,0,1,18.06-2.89A53,53,0,0,1,64.29,25s.23.08.45.2a.92.92,0,0,1,.42.33l-.13.09a.7.7,0,0,0-.35-.28h0a2.83,2.83,0,0,0-.44-.19,52.46,52.46,0,0,0-18-2.89,52.38,52.38,0,0,0-18,2.89,2.45,2.45,0,0,0-.44.19h0a.73.73,0,0,0-.48.69V39.6Z"/><path class="cls-15" d="M36.58,38.5h-8V37.38h.18a1.07,1.07,0,0,0,1-1.07v-8.9a.68.68,0,0,0-.68-.68.58.58,0,0,0-.26.05l-.26.1V26l.12,0a41.43,41.43,0,0,1,4.71-1.31l.15,0,.38.9-.24,0a1.24,1.24,0,0,0-1,1.22v9.63a.28.28,0,0,0,.12.23,1.77,1.77,0,0,0,2.36-.48,8.08,8.08,0,0,0,.92-2.67v0c0-.16.08-.48.08-.48l0-.17h.87ZM29,38.12h7.24l.4-4.94h-.11l-.06.35a8.38,8.38,0,0,1-1,2.82,2.17,2.17,0,0,1-1.75.9,2.11,2.11,0,0,1-1.12-.32h0a.68.68,0,0,1-.3-.53h0V26.75a1.62,1.62,0,0,1,1.14-1.54L33.36,25c-2.23.5-3.91,1.06-4.37,1.21v.1h.14a1.07,1.07,0,0,1,1.06,1.07v8.9A1.44,1.44,0,0,1,29,37.74Z"/><path class="cls-15" d="M44.29,38.5H36.94V37.3h.19a.78.78,0,0,0,.76-.79v-11a.52.52,0,0,0-.52-.53.45.45,0,0,0-.2,0l-.26.1V24l.16,0a63.81,63.81,0,0,1,7.15-.64h.17l.74,4.4-1.2.11,0-.14s-.15-.45-.22-.67a4.91,4.91,0,0,0-.93-1.84,2.5,2.5,0,0,0-1.87-.41v5.4c.28-.07.91-.5,1.17-2.83l0-.17h.75V35h-.75l0-.17c-.26-2.34-.89-2.76-1.17-2.83v4.69a.14.14,0,0,0,.14.14h.42a2.5,2.5,0,0,0,2-1,7,7,0,0,0,1.07-2.28l0-.15h.84v.24Zm-7-.38H44l1-4.39h-.1A7.58,7.58,0,0,1,43.76,36a2.89,2.89,0,0,1-2.34,1.2H41a.52.52,0,0,1-.52-.52v-5l.14,0h.14c.39,0,1.3.3,1.64,3h0v-7h0c-.34,2.72-1.25,3-1.64,3l-.14,0-.14,0V24.42l.18,0,.59,0a2.51,2.51,0,0,1,1.74.51,5.07,5.07,0,0,1,1,2c0,.14.12.36.17.51l.48,0-.61-3.67a60.14,60.14,0,0,0-6.78.61v.29h.08a.91.91,0,0,1,.91.91v11a1.19,1.19,0,0,1-1,1.16Z"/><path class="cls-15" d="M50.38,38.47a3.36,3.36,0,0,1-1.33-.27,4.05,4.05,0,0,1-1.17-.74,5.91,5.91,0,0,1-1-1.16,7.4,7.4,0,0,1-.74-1.52A10.87,10.87,0,0,1,45.7,33a13.72,13.72,0,0,1-.16-2.08,13.18,13.18,0,0,1,.16-2,10.05,10.05,0,0,1,.47-1.78,7.87,7.87,0,0,1,.74-1.48,5.12,5.12,0,0,1,1-1.12,4,4,0,0,1,1.16-.72,3.66,3.66,0,0,1,2.66,0,4.2,4.2,0,0,1,1.17.72,5.7,5.7,0,0,1,1,1.13,7,7,0,0,1,.74,1.47,10.17,10.17,0,0,1,.47,1.77,12,12,0,0,1,.16,2A13,13,0,0,1,55.06,33a10.63,10.63,0,0,1-.47,1.85,7.07,7.07,0,0,1-.74,1.51,5.56,5.56,0,0,1-1,1.15,3.81,3.81,0,0,1-1.17.73A3.54,3.54,0,0,1,50.38,38.47Zm0-14.61a3.14,3.14,0,0,0-1.18.23,3.65,3.65,0,0,0-1.06.65,4.89,4.89,0,0,0-.91,1,8,8,0,0,0-.7,1.4,10.4,10.4,0,0,0-.45,1.71,12.5,12.5,0,0,0-.16,2,13,13,0,0,0,.16,2,11,11,0,0,0,.45,1.76,7.15,7.15,0,0,0,.71,1.44,5.11,5.11,0,0,0,.9,1.08,3.75,3.75,0,0,0,1.06.68,3,3,0,0,0,1.18.24,3.23,3.23,0,0,0,1.19-.23,3.78,3.78,0,0,0,1-.66,5.41,5.41,0,0,0,.91-1.08,7.61,7.61,0,0,0,.7-1.43,11,11,0,0,0,.45-1.78,13.35,13.35,0,0,0,.16-2.06,12.15,12.15,0,0,0-.16-2,10.15,10.15,0,0,0-.45-1.71,7,7,0,0,0-.7-1.39,5.21,5.21,0,0,0-.91-1.05,3.74,3.74,0,0,0-1-.65A3.23,3.23,0,0,0,50.38,23.86ZM50.3,37.28a1.28,1.28,0,0,1-1-.54,4,4,0,0,1-.67-1.36,11.82,11.82,0,0,1-.39-2,24.29,24.29,0,0,1-.13-2.51,22.81,22.81,0,0,1,.13-2.45,10.86,10.86,0,0,1,.39-1.94,3.91,3.91,0,0,1,.67-1.31,1.35,1.35,0,0,1,1-.51,1.34,1.34,0,0,1,1,.51A3.91,3.91,0,0,1,52,26.48a10,10,0,0,1,.4,1.94,22.81,22.81,0,0,1,.13,2.45,24.29,24.29,0,0,1-.13,2.51,10.86,10.86,0,0,1-.4,2,3.83,3.83,0,0,1-.66,1.36A1.28,1.28,0,0,1,50.3,37.28Zm0-12.23a1,1,0,0,0-.73.37A3.54,3.54,0,0,0,49,26.59a10.3,10.3,0,0,0-.37,1.87,19.92,19.92,0,0,0-.13,2.41,20.66,20.66,0,0,0,.13,2.46A11,11,0,0,0,49,35.27a3.52,3.52,0,0,0,.6,1.23.85.85,0,0,0,1.44,0,3.71,3.71,0,0,0,.6-1.23A11.9,11.9,0,0,0,52,33.33a23.3,23.3,0,0,0,.13-2.46A22.19,22.19,0,0,0,52,28.46a10.82,10.82,0,0,0-.38-1.86,3.33,3.33,0,0,0-.6-1.18A.92.92,0,0,0,50.3,25.05Z"/><path class="cls-15" d="M62.91,38.5h-1L57,29.4v6.81a1,1,0,0,0,1,1h.18V38.5H54.36V37.22h.18a1,1,0,0,0,1-1V26a1,1,0,0,0-1-1h-.22V23.86l.22,0c1.47.18,3.56.61,3.58.61l.08,0,3,5.71V27.41a1.39,1.39,0,0,0-.95-1.32h-.16V25l.24.06a31.66,31.66,0,0,1,3.33,1l.13,0V27h-.2a.74.74,0,0,0-.73.74Zm-.8-.38h.42V27.74a1.14,1.14,0,0,1,.92-1.11v-.3c-.36-.13-1.49-.52-2.92-.89v.32a1.77,1.77,0,0,1,1.11,1.65v4.36L58,24.85c-.39-.08-2-.4-3.24-.56v.36A1.37,1.37,0,0,1,55.93,26V36.18a1.43,1.43,0,0,1-1.18,1.41v.53h3.08v-.54a1.4,1.4,0,0,1-1.19-1.37V27.87Z"/><path class="cls-17" d="M36.35,33s0,.33-.08.51a8.42,8.42,0,0,1-1,2.75,1.95,1.95,0,0,1-2.61.53.47.47,0,0,1-.22-.38V26.75a1.43,1.43,0,0,1,1.22-1.41l-.22-.52a40.47,40.47,0,0,0-4.68,1.3v.48a.88.88,0,0,1,.33-.06.87.87,0,0,1,.87.87v8.9a1.26,1.26,0,0,1-1.2,1.26v.74h7.6L36.84,33Z"/><path class="cls-18" d="M40.67,36.68A.33.33,0,0,0,41,37h.42a2.74,2.74,0,0,0,2.19-1.12,7.3,7.3,0,0,0,1.1-2.36h.49l-1.06,4.77h-7v-.82h0a1,1,0,0,0,.95-1v-11a.71.71,0,0,0-.71-.72.76.76,0,0,0-.27.05v-.7a59.82,59.82,0,0,1,7.13-.63l.67,4-.83.07s-.16-.44-.22-.65a5,5,0,0,0-1-1.94,2.89,2.89,0,0,0-2.19-.43v5.77s1.18.34,1.56-3h.38V34.8h-.38c-.38-3.35-1.56-3-1.56-3v4.89Z"/><path class="cls-19" d="M49.43,36.62a3.88,3.88,0,0,1-.63-1.29,11.63,11.63,0,0,1-.39-2,23.88,23.88,0,0,1-.12-2.49,22.44,22.44,0,0,1,.12-2.43,10.37,10.37,0,0,1,.39-1.9,3.58,3.58,0,0,1,.63-1.24,1.08,1.08,0,0,1,1.74,0,3.58,3.58,0,0,1,.63,1.24,10.37,10.37,0,0,1,.39,1.9,22.29,22.29,0,0,1,.13,2.43,23.74,23.74,0,0,1-.13,2.49,11.63,11.63,0,0,1-.39,2,3.88,3.88,0,0,1-.63,1.29,1,1,0,0,1-1.74,0M51.64,38a3.84,3.84,0,0,0,1.11-.7,5.74,5.74,0,0,0,.94-1.11,7.54,7.54,0,0,0,.72-1.48,10.18,10.18,0,0,0,.46-1.81A12.58,12.58,0,0,0,55,30.85a11.46,11.46,0,0,0-.16-2,9.6,9.6,0,0,0-.46-1.74,7.45,7.45,0,0,0-.72-1.44,5.25,5.25,0,0,0-.94-1.08,3.81,3.81,0,0,0-1.11-.69,3.43,3.43,0,0,0-2.52,0,4,4,0,0,0-1.11.68,5.32,5.32,0,0,0-.94,1.09,7.45,7.45,0,0,0-.72,1.44,10.5,10.5,0,0,0-.46,1.74,12.79,12.79,0,0,0-.16,2,13.42,13.42,0,0,0,.16,2.05,11.41,11.41,0,0,0,.46,1.79,7.27,7.27,0,0,0,.72,1.48A5.59,5.59,0,0,0,48,37.32a4.11,4.11,0,0,0,1.11.71,3.36,3.36,0,0,0,2.52,0"/><path class="cls-20" d="M54.54,24.83h0A1.18,1.18,0,0,1,55.74,26V36.18a1.24,1.24,0,0,1-1.19,1.24h0v.89H58v-.9a1.21,1.21,0,0,1-1.19-1.2V28.63L62,38.31h.72V27.74a.93.93,0,0,1,.92-.93V26.2a33.12,33.12,0,0,0-3.3-1v.69h0a1.61,1.61,0,0,1,1.11,1.52V31L58.1,24.68s-2.08-.43-3.56-.61v.76"/><path class="cls-21" d="M33.39,25l.1.24a1.6,1.6,0,0,0-1.16,1.52v9.64h0a.65.65,0,0,0,.28.5h0a2.12,2.12,0,0,0,2.82-.57,8.33,8.33,0,0,0,1-2.81c0-.11,0-.27.06-.38h.19l-.41,5H29v-.45a1.4,1.4,0,0,0,1.2-1.4v-8.9a1,1,0,0,0-1-1l-.18,0v-.17A43.72,43.72,0,0,1,33.39,25m.09-.17a40.47,40.47,0,0,0-4.68,1.3v.48a.88.88,0,0,1,.33-.06.87.87,0,0,1,.87.87v8.9a1.26,1.26,0,0,1-1.2,1.26v.74h7.6L36.84,33h-.49s0,.33-.08.51a8.42,8.42,0,0,1-1,2.75,1.95,1.95,0,0,1-2.61.53.47.47,0,0,1-.22-.38V26.75a1.43,1.43,0,0,1,1.22-1.41l-.22-.52Z"/><path class="cls-21" d="M44.1,23.67l.63,3.74-.56.05L44,26.92a5,5,0,0,0-1-2,2.43,2.43,0,0,0-1.71-.51l-.59,0h-.14v6l.11,0a.27.27,0,0,0,.13,0c.38,0,1.27-.3,1.6-3h.09v7.13h-.09c-.33-2.72-1.22-3-1.6-3h-.13l-.11,0v5a.49.49,0,0,0,.48.48h.42A2.85,2.85,0,0,0,43.73,36a7.42,7.42,0,0,0,1.1-2.29H45l-1,4.47H37.29v-.54a1.14,1.14,0,0,0,1-1.12v-11a.88.88,0,0,0-.87-.88h-.12v-.36a60.41,60.41,0,0,1,6.85-.62m.13-.15a59.82,59.82,0,0,0-7.13.63v.7a.76.76,0,0,1,.27-.05.71.71,0,0,1,.71.72v11a1,1,0,0,1-.95,1h0v.82h7l1.06-4.77h-.49a7.3,7.3,0,0,1-1.1,2.36A2.74,2.74,0,0,1,41.42,37H41a.33.33,0,0,1-.33-.33V31.79h.09c.29,0,1.15.24,1.47,3h.38V27.36h-.38c-.32,2.78-1.18,3-1.47,3h-.09V24.6l.58,0a2.4,2.4,0,0,1,1.61.46,5,5,0,0,1,1,1.94c.06.21.22.65.22.65l.83-.07-.67-4Z"/><path class="cls-21" d="M50.38,38.35a3.33,3.33,0,0,1-1.29-.25A4.19,4.19,0,0,1,48,37.37a5.32,5.32,0,0,1-1-1.13,7.46,7.46,0,0,1-.73-1.5,10.4,10.4,0,0,1-.46-1.81,12.36,12.36,0,0,1-.17-2.06,11.79,11.79,0,0,1,.17-2,9.61,9.61,0,0,1,.46-1.76A8,8,0,0,1,47,25.63a5.13,5.13,0,0,1,1-1.1,4,4,0,0,1,1.13-.69,3.45,3.45,0,0,1,2.58,0,4.08,4.08,0,0,1,1.13.7,5.13,5.13,0,0,1,1,1.1,7,7,0,0,1,.73,1.45,9.72,9.72,0,0,1,.46,1.75,11.76,11.76,0,0,1,.17,2,12.67,12.67,0,0,1-.17,2.1,10.64,10.64,0,0,1-.46,1.83,7.12,7.12,0,0,1-.73,1.49,5.32,5.32,0,0,1-1,1.13,3.89,3.89,0,0,1-1.13.71A3.52,3.52,0,0,1,50.38,38.35Zm0-14.61a3.21,3.21,0,0,0-1.23.24,3.86,3.86,0,0,0-1.09.67,4.84,4.84,0,0,0-.92,1.07,6.73,6.73,0,0,0-.71,1.42A9.72,9.72,0,0,0,46,28.87a11.66,11.66,0,0,0-.16,2,12.14,12.14,0,0,0,.16,2,10.17,10.17,0,0,0,.46,1.77,6.69,6.69,0,0,0,.71,1.47,5.38,5.38,0,0,0,.92,1.11,4.13,4.13,0,0,0,1.09.7,3.21,3.21,0,0,0,1.23.24A3.4,3.4,0,0,0,51.61,38a3.72,3.72,0,0,0,1.09-.69,5.2,5.2,0,0,0,.92-1.09,7.18,7.18,0,0,0,.72-1.47,10.88,10.88,0,0,0,.45-1.79A12.54,12.54,0,0,0,55,30.85a11.43,11.43,0,0,0-.16-2,10.65,10.65,0,0,0-.45-1.73,7.27,7.27,0,0,0-.72-1.42,5.34,5.34,0,0,0-.92-1.07A3.86,3.86,0,0,0,51.61,24,3.21,3.21,0,0,0,50.38,23.74ZM50.3,37.17a1.19,1.19,0,0,1-.93-.5,3.87,3.87,0,0,1-.65-1.32,11.75,11.75,0,0,1-.38-2,21.19,21.19,0,0,1-.13-2.49,20.2,20.2,0,0,1,.13-2.44,10.86,10.86,0,0,1,.38-1.92,3.8,3.8,0,0,1,.65-1.26,1.16,1.16,0,0,1,1.86,0,3.62,3.62,0,0,1,.64,1.26,9.27,9.27,0,0,1,.39,1.92,20.43,20.43,0,0,1,.13,2.44,21.43,21.43,0,0,1-.13,2.49,10.84,10.84,0,0,1-.38,2,4.06,4.06,0,0,1-.65,1.32A1.17,1.17,0,0,1,50.3,37.17Zm0-12.24a1,1,0,0,0-.81.42,3.41,3.41,0,0,0-.62,1.21,10.3,10.3,0,0,0-.38,1.89,20,20,0,0,0-.13,2.42,21.25,21.25,0,0,0,.13,2.48,11.24,11.24,0,0,0,.38,1.95,3.76,3.76,0,0,0,.62,1.27,1,1,0,0,0,1.62,0,4,4,0,0,0,.62-1.27,11,11,0,0,0,.38-1.95,21.25,21.25,0,0,0,.13-2.48,20,20,0,0,0-.13-2.42,9.53,9.53,0,0,0-.38-1.89,3.58,3.58,0,0,0-.62-1.21A1,1,0,0,0,50.3,24.93Z"/><path class="cls-21" d="M62.79,38.39H62l-5-9.45v7.27A1.13,1.13,0,0,0,58,37.33h.08v1.06H54.48v-1h.07v-.08a1.16,1.16,0,0,0,1.11-1.16V26a1.1,1.1,0,0,0-1.1-1.1h0v-.08h-.08V24h.08c1.47.17,3.55.6,3.57.61h0l0,0,3.2,6.05V27.41a1.53,1.53,0,0,0-1-1.44h-.07V25.1l.09,0a31.91,31.91,0,0,1,3.32,1h0v.75h-.08a.86.86,0,0,0-.85.85ZM62,38.23h.6V27.74a1,1,0,0,1,.93-1v-.49a32.18,32.18,0,0,0-3.16-1v.55a1.66,1.66,0,0,1,1.11,1.57V31.3l-3.47-6.55c-.28-.06-2.09-.42-3.44-.59v.6A1.25,1.25,0,0,1,55.82,26V36.18a1.32,1.32,0,0,1-1.19,1.31v.74h3.31v-.75a1.27,1.27,0,0,1-1.18-1.27V28.33Z"/><polygon class="cls-6" points="45.3 13.86 43.06 13.81 42.31 11.85 41.58 13.81 39.33 13.86 41.12 15.14 40.48 17.13 42.32 15.95 44.16 17.13 43.52 15.14 45.3 13.86"/><polygon class="cls-1" points="42.32 12.29 42.95 13.96 44.84 14 43.34 15.08 43.88 16.77 42.32 15.77 40.76 16.77 41.3 15.08 39.79 14 41.69 13.96 42.32 12.29"/><polygon class="cls-6" points="53.11 13.86 50.87 13.81 50.13 11.85 49.39 13.81 47.14 13.86 48.93 15.14 48.3 17.13 50.13 15.95 51.97 17.13 51.33 15.14 53.11 13.86"/><polygon class="cls-1" points="50.13 12.29 50.76 13.96 52.65 14 51.15 15.08 51.69 16.77 50.13 15.77 48.57 16.77 49.11 15.08 47.6 14 49.5 13.96 50.13 12.29"/><rect class="cls-22" width="1" height="1"/></svg>