<svg xmlns="http://www.w3.org/2000/svg" xmlns:xlink="http://www.w3.org/1999/xlink" viewBox="0 0 127 127">
  <defs>
    <style>
      .cls-1 {
        clip-path: url(#clip-CHIVAS-NEW-LOGO);
      }

      .cls-2 {
        fill: #fff;
      }

      .cls-3 {
        fill: #002856;
      }

      .cls-4 {
        fill: #b0b3b2;
      }

      .cls-5 {
        fill: #ce0e2d;
      }

      .cls-6 {
        fill: #ffc629;
      }

      .cls-7 {
        fill: #3dae2b;
      }

      .cls-8 {
        fill: #c1531b;
      }
    </style>
    <clipPath id="clip-CHIVAS-NEW-LOGO">
      <rect width="127" height="127"/>
    </clipPath>
  </defs>
  <g id="CHIVAS-NEW-LOGO" class="cls-1">
    <g id="Group_17866" data-name="Group 17866" transform="translate(17.037 2.656)">
      <g id="Group_17863" data-name="Group 17863">
        <g id="Group_17862" data-name="Group 17862">
          <g id="Group_17818" data-name="Group 17818">
            <path id="Path_21440" data-name="Path 21440" class="cls-2" d="M48.193,122.84A46.23,46.23,0,0,1,2,76.665,45.993,45.993,0,0,1,16.656,42.96l.206-.187-.131-.262a18.271,18.271,0,0,1-2.505-8.487v-.561a13.739,13.739,0,0,1,4.823-10.057,11.44,11.44,0,0,1,7.384-2.486h.019a19.709,19.709,0,0,1,7.833,1.795,12.038,12.038,0,0,0,4.487,1.14h.28l.093-.262a9.7,9.7,0,0,1,2.673-4.075l1.2-1.066L38.248,19.8l.486-3.234.262-1.4a10,10,0,0,1,4.842-6.468c.43-.262.879-.523,1.327-.748l.206-.112V2.3l3.328.43a8.841,8.841,0,0,1,3.346,1.1A9.531,9.531,0,0,1,53.5,4.88a4.382,4.382,0,0,1,.879,1.066l.037.075.037.075a6.245,6.245,0,0,1,.6,3.253,3.935,3.935,0,0,1-.037.467c-.019.206-.037.411-.037.636v.262l.243.093.187.056a3.828,3.828,0,0,1,.841.374A7.609,7.609,0,0,1,58.98,14.4l.019.037a6.578,6.578,0,0,1,.467,1.533,7.8,7.8,0,0,1,.15,1.29v.206c0,.262-.019.486-.037.692l-.019.168c-.019.075-.019.15-.037.243-.019.168-.056.355-.093.542a6.768,6.768,0,0,1-.336,1.084,7.237,7.237,0,0,1-1.009,1.757,5.225,5.225,0,0,1-1.178,1.14l-.654.467.785.206a2.763,2.763,0,0,0,.71.075,7.044,7.044,0,0,0,1.439-.187h.037a11.224,11.224,0,0,0,2.8-.916.911.911,0,0,0,.131-.056l.056-.019.037-.019a1.357,1.357,0,0,1,.224-.093h.019a1.821,1.821,0,0,0,.206-.093l.037-.019h.019c.561-.224,1.122-.43,1.7-.6a18.762,18.762,0,0,1,5.459-.879h.019a11.44,11.44,0,0,1,7.309,2.43,1.027,1.027,0,0,0,.168.131.813.813,0,0,1,.131.112,5.587,5.587,0,0,1,.617.58,13.745,13.745,0,0,1,1.626,1.963,13.46,13.46,0,0,1,2.355,6.879v.075l.019.056V34.1a18.734,18.734,0,0,1-2.505,8.45l-.131.262L79.73,43A46.122,46.122,0,0,1,48.193,122.84Z" transform="translate(-1.626 -1.87)"/>
            <path id="Path_21441" data-name="Path 21441" class="cls-2" d="M44.118.86l1.888.243,1.009.131A8.6,8.6,0,0,1,50.231,2.3a8.9,8.9,0,0,1,1.383.991,4.736,4.736,0,0,1,.823.991l.037.056.037.056a5.949,5.949,0,0,1,.542,3.085c0,.15-.019.3-.019.449-.019.206-.037.43-.037.654V9.1l.486.187a.781.781,0,0,1,.187.075,3.1,3.1,0,0,1,.748.336,7.147,7.147,0,0,1,2.6,3.01v.037a6.586,6.586,0,0,1,.449,1.458h0a9.781,9.781,0,0,1,.15,1.215v.168a5.821,5.821,0,0,1-.037.636v.037l-.019.131c-.019.075-.019.15-.037.224-.019.168-.056.336-.093.523a5.513,5.513,0,0,1-.318,1.028,7.8,7.8,0,0,1-.953,1.664,4.589,4.589,0,0,1-1.1,1.066l-1.309.935,1.552.411a3.515,3.515,0,0,0,.8.093,7.407,7.407,0,0,0,1.514-.206h.037a12.26,12.26,0,0,0,2.9-.953.622.622,0,0,0,.112-.056h.019l.019-.019h.019l.037-.019c.056-.019.131-.056.224-.093.075-.037.15-.056.224-.093l.019-.019.019-.019c.542-.224,1.1-.411,1.664-.6a18.1,18.1,0,0,1,5.347-.86h.019a11.014,11.014,0,0,1,7.066,2.337l.019.019h.019a.791.791,0,0,0,.131.093l.019.019h.019c.037.037.075.056.131.112.168.15.374.336.58.542A13.553,13.553,0,0,1,80.1,31.145v.15l.019.037v.654h0v.15h0A18.316,18.316,0,0,1,77.656,40.4l-.28.5.411.393A45.785,45.785,0,1,1,.748,74.8,45.659,45.659,0,0,1,15.273,41.352l.411-.393-.28-.5a18.112,18.112,0,0,1-2.468-8.3v-.542a13.176,13.176,0,0,1,2.3-7.141,12.884,12.884,0,0,1,2.374-2.636h0a11.05,11.05,0,0,1,7.141-2.393h.019A19.553,19.553,0,0,1,32.453,21.2h0a12.084,12.084,0,0,0,4.617,1.159l.561.019.168-.523a8.962,8.962,0,0,1,2.58-3.907l2.393-2.15-3.1.879-.168.056L37,17.442l.393-2.636.262-1.4A9.5,9.5,0,0,1,42.324,7.2c.411-.262.86-.5,1.29-.729l.411-.206V.86M43.37,0V5.72a15.091,15.091,0,0,0-1.365.766A10.319,10.319,0,0,0,37,13.2l-.262,1.421-.561,3.795L39.781,17.4l.168-.056a9.8,9.8,0,0,0-2.785,4.225,11.394,11.394,0,0,1-4.337-1.1,20.487,20.487,0,0,0-7.982-1.813h-.019a11.8,11.8,0,0,0-7.609,2.561,13.567,13.567,0,0,0-2.524,2.8,13.771,13.771,0,0,0-2.43,7.534v.561a18.964,18.964,0,0,0,2.561,8.655,46.569,46.569,0,1,0,63.523.037,19.143,19.143,0,0,0,2.561-8.618V31.182l-.037-.056a13.781,13.781,0,0,0-2.412-7.066A13.272,13.272,0,0,0,76.8,22.04c-.243-.243-.449-.43-.636-.6-.037-.037-.093-.075-.131-.112-.056-.056-.112-.093-.168-.15a11.781,11.781,0,0,0-7.552-2.505H68.29a18.906,18.906,0,0,0-5.571.9c-.58.168-1.159.393-1.739.617h-.037l-.037.019a1.947,1.947,0,0,1-.224.093c-.093.037-.168.075-.224.093l-.056.019-.019.019a1.1,1.1,0,0,0-.15.075,11.491,11.491,0,0,1-2.711.879,6.851,6.851,0,0,1-1.4.187A2.322,2.322,0,0,1,55.5,21.5a5.933,5.933,0,0,0,1.253-1.215A7.023,7.023,0,0,0,57.8,18.432a6.05,6.05,0,0,0,.355-1.159c.037-.206.075-.393.112-.58.019-.093.019-.168.037-.243l.019-.131v-.037a7.278,7.278,0,0,0,.056-.729v-.224a8.544,8.544,0,0,0-.168-1.346,6.542,6.542,0,0,0-.5-1.626v-.037a8.337,8.337,0,0,0-2.86-3.309,5.335,5.335,0,0,0-1.1-.486c0-.374.056-.729.056-1.084A6.644,6.644,0,0,0,53.166,4l-.037-.093-.056-.075a4.623,4.623,0,0,0-.953-1.14,9.7,9.7,0,0,0-1.514-1.084A9.557,9.557,0,0,0,47.128.449L46.119.318,43.37,0Z"/>
          </g>
          <g id="Group_17861" data-name="Group 17861" transform="translate(2.43 2.748)">
            <g id="Group_17860" data-name="Group 17860">
              <g id="Group_17859" data-name="Group 17859">
                <g id="Group_17823" data-name="Group 17823">
                  <path id="Path_21442" data-name="Path 21442" class="cls-3" d="M226.044,27.412a6.538,6.538,0,0,0-.467-2.094A5.635,5.635,0,0,0,223.557,23a7.7,7.7,0,0,0-2.243-1.047,4.451,4.451,0,0,0,.131-1.047V19.822a5.558,5.558,0,0,0-.336-2.711l-.28-.411c-.037-.037-.056-.075-.093-.112a5.748,5.748,0,0,0-3.851-1.757l-1.01-.131v4.543a15.339,15.339,0,0,0-2.5,1.253,8,8,0,0,0-3.907,5.1L209.2,27l3.851-1.084a11.541,11.541,0,0,0-.449,3.066,8.791,8.791,0,0,0,.056.972l.187,1.159,1.066-.486a5.877,5.877,0,0,1,1.253-.336c.243-.037.449-.075.6-.093a.774.774,0,0,1,.187-.019H216l.168-.019.58.075a13.4,13.4,0,0,1,2.206.449c.28.075.5.15.654.206a2.288,2.288,0,0,1,.243.093h.019l.168.056.43.336.037.019c.056.037.168.15.336.3a6.08,6.08,0,0,1,.748.785l.467.58.692-.393s.019-.037.037-.037c.019-.019.056-.019.093-.056a2.568,2.568,0,0,0,.374-.243,7.068,7.068,0,0,0,1.682-1.57,5.349,5.349,0,0,0,.729-1.271,5.178,5.178,0,0,0,.224-.766,2.684,2.684,0,0,0,.075-.411c.019-.112.037-.243.056-.355a3.631,3.631,0,0,0,.037-.449A.14.14,0,0,1,226.044,27.412Z" transform="translate(-172.522 -14.7)"/>
                  <g id="Group_17819" data-name="Group 17819" transform="translate(37.837 1.028)">
                    <path id="Path_21443" data-name="Path 21443" class="cls-4" d="M232.394,71.7a11.518,11.518,0,0,1,2.374-.542,12.875,12.875,0,0,1,2.318-4.954l-4.169,1.29A9.768,9.768,0,0,0,232.394,71.7Z" transform="translate(-229.179 -57.601)"/>
                    <path id="Path_21444" data-name="Path 21444" class="cls-4" d="M250.2,64.687a13.763,13.763,0,0,1,3.328.785,6.353,6.353,0,0,1,4.935-2.9c-.112-3.4-4.019-4.374-4.019-4.374A12.135,12.135,0,0,0,250.2,64.687Z" transform="translate(-243.694 -51.096)"/>
                    <path id="Path_21445" data-name="Path 21445" class="cls-4" d="M272.4,88.861a8.731,8.731,0,0,1,1.29,1.253s2.673-1.477,2.8-3.814A5.145,5.145,0,0,0,272.4,88.861Z" transform="translate(-261.744 -73.943)"/>
                    <path id="Path_21446" data-name="Path 21446" class="cls-2" d="M225.607,25.378V22.8s.056-2.094-3.776-2.6v4.15s-5.664,1.682-6.431,5.87l8.562-2.412A2.347,2.347,0,0,0,225.607,25.378Z" transform="translate(-215.4 -20.2)"/>
                  </g>
                  <g id="Group_17820" data-name="Group 17820" transform="translate(36.641 14.488)">
                    <path id="Path_21447" data-name="Path 21447" class="cls-3" d="M227.775,103.937a6.337,6.337,0,1,1-6.337-6.337A6.343,6.343,0,0,1,227.775,103.937Z" transform="translate(-213.96 -96.591)"/>
                    <path id="Path_21448" data-name="Path 21448" class="cls-3" d="M209,99.622a7.452,7.452,0,0,1,7.478-7.422h0a7.452,7.452,0,0,1,7.478,7.422h0a7.452,7.452,0,0,1-7.478,7.422h0A7.452,7.452,0,0,1,209,99.622Zm2.112,0a5.37,5.37,0,0,0,5.365,5.328h0a5.346,5.346,0,0,0,5.365-5.328h0a5.346,5.346,0,0,0-5.365-5.328h0a5.357,5.357,0,0,0-5.365,5.328Z" transform="translate(-209 -92.2)"/>
                  </g>
                  <path id="Path_21449" data-name="Path 21449" class="cls-5" d="M114.6,294.064V317.45h.093l-.075.037a27.119,27.119,0,0,0,5.477,7.833l.15.15V286.063l-.15.15A27.784,27.784,0,0,0,114.6,294.064Zm11.16,35.65.037.019a27.206,27.206,0,0,0,5.477,2.449l.112.037v-48.1H125.76Zm11.16,3.645H137a26.42,26.42,0,0,0,2.729.131c.916,0,1.832-.056,2.729-.131h.075v-49.24h-5.608Zm11.16-1.14.112-.037a28.23,28.23,0,0,0,5.477-2.43l.037-.037V284.1h-5.627Zm16.787-38.155a27.747,27.747,0,0,0-5.477-7.833l-.15-.15v39.407l.15-.15a28.015,28.015,0,0,0,5.477-7.833V294.064Z" transform="translate(-95.607 -233.738)"/>
                  <g id="Group_17821" data-name="Group 17821" transform="translate(24.863 35.089)">
                    <path id="Path_21450" data-name="Path 21450" class="cls-3" d="M176.739,203.119l-.15.056-9.852,3.832-10-3.907H147.8l1.421,1.514.056.056a7.767,7.767,0,0,1,1.739,4.73v24.153a9.042,9.042,0,0,0,.841,3.739,18.421,18.421,0,0,0,6,6.823,40.3,40.3,0,0,0,5.72,3.514c1.514.785,2.449,1.178,2.823,1.327l.318.131.336-.131c.374-.15,1.309-.542,2.823-1.327a42.108,42.108,0,0,0,5.72-3.514,18.4,18.4,0,0,0,6-6.823,9.042,9.042,0,0,0,.841-3.739V209.419a7.382,7.382,0,0,1,.916-3.5,7.128,7.128,0,0,1,.636-.991c.075-.112.15-.187.187-.243s.056-.056.056-.056l1.421-1.514h-8.917Z" transform="translate(-147.464 -202.969)"/>
                    <path id="Path_21451" data-name="Path 21451" class="cls-3" d="M165.218,248.668l-.318-.131a29.36,29.36,0,0,1-2.842-1.327h0a40.675,40.675,0,0,1-5.739-3.533h0a18.816,18.816,0,0,1-6.057-6.9h0a9.317,9.317,0,0,1-.86-3.795h0V208.812h0a7.531,7.531,0,0,0-1.7-4.6h0c-.037-.056-.056-.056-.056-.056h0L146,202.4h9.31l9.983,3.888,9.8-3.814.168-.056.019-.019h9.31l-1.664,1.757-.056.056h0c-.037.056-.112.131-.187.243h0a6.921,6.921,0,0,0-.617.972h0a7.187,7.187,0,0,0-.9,3.384h0v24.172a9.3,9.3,0,0,1-.841,3.795h0a18.965,18.965,0,0,1-6.057,6.9h0a41.763,41.763,0,0,1-5.739,3.533h0c-1.533.785-2.449,1.178-2.842,1.327h0l-.374.15-.094-.019Zm-17.367-44.716a.556.556,0,0,1,.056.075h0a7.82,7.82,0,0,1,1.776,4.786h0v.037h0v24.134a9.136,9.136,0,0,0,.823,3.683h0a18.448,18.448,0,0,0,5.963,6.767h0a42.014,42.014,0,0,0,5.7,3.514h0a30.68,30.68,0,0,0,2.8,1.309h0l.28.112.28-.112c.374-.15,1.309-.542,2.823-1.309h0a40.211,40.211,0,0,0,5.7-3.514h0a18.448,18.448,0,0,0,5.963-6.767h0a9.066,9.066,0,0,0,.823-3.683h0V208.85h0a7.492,7.492,0,0,1,.935-3.552h0a9.43,9.43,0,0,1,.636-.991h0a1.825,1.825,0,0,1,.206-.262h0a.555.555,0,0,1,.056-.075h0l1.178-1.253h-8.562l-.131.056-9.908,3.851-10.02-3.926h-8.562l1.178,1.253Zm27.424-1.253v0Z" transform="translate(-146 -202.4)"/>
                  </g>
                  <path id="Path_21452" data-name="Path 21452" class="cls-3" d="M57.137,179.2a28.929,28.929,0,1,0,28.939,28.939A28.937,28.937,0,0,0,57.137,179.2Zm0,56.045a27.116,27.116,0,1,1,27.107-27.107A27.118,27.118,0,0,1,57.137,235.244Zm0-71.244a44.137,44.137,0,1,0,44.137,44.137A44.136,44.136,0,0,0,57.137,164Zm0,86.33A42.193,42.193,0,1,1,99.33,208.137,42.181,42.181,0,0,1,57.137,250.33Zm0-83.413a41.221,41.221,0,1,0,41.221,41.221A41.216,41.216,0,0,0,57.137,166.916Zm0,71.169a29.957,29.957,0,1,1,29.948-29.948A29.942,29.942,0,0,1,57.137,238.085Z" transform="translate(-13 -136.09)"/>
                  <path id="Path_21453" data-name="Path 21453" class="cls-3" d="M215.039,255.342c0,7.347-10.17,9.945-10.17,9.945s-10.17-2.58-10.17-9.945V231.9h20.358C215.039,231.881,215.039,254.221,215.039,255.342Z" transform="translate(-160.733 -191.296)"/>
                  <path id="Path_21454" data-name="Path 21454" class="cls-6" d="M216.971,312.9a1.092,1.092,0,0,0-.58,1.533,3.708,3.708,0,0,0-.318,2.468,4.584,4.584,0,0,1-.486,2.935s-.748.093-1.739-2.3a.47.47,0,0,0,.542,0c-.056-.411.43-.355.43-.355a.294.294,0,0,1,.262-.43c-.3-.579.075-.579.075-.579l-.168-.374c-.15-.374.168-.467.168-.467s.131-1.028-.542-1.346a1.283,1.283,0,0,1-.748-.991l-3.2,1.234.262.729s1.084-.972,1.271.075c0,0,.056.916-1.028.411l-.075.43s.953.411.542,1.028c0,0-1.253.542-2.86-2.617h-.28v1.346a2.4,2.4,0,0,1,1.14.692l1.066,1.29.71.093s-.729.617-1.252.187l-1.421-1.552h-.224v1.066s.916-.075,2,1.664h.953a2.107,2.107,0,0,0,1.365,1.832l-1.645,1.066a.749.749,0,0,1-.953.037l-1.458-1.14h-.3v.542l2.412,1.626s.617.131,1.346-.692a2.743,2.743,0,0,1,1.589-.486s-.168.617.636,1.122c0,0-.131.523-.206,1.084,0,0,0,.5-1.028.542a.741.741,0,0,0-.8.486h1.7L216,323.182a.868.868,0,0,0-.3-.879,1.917,1.917,0,0,0,.374-1.832,4.411,4.411,0,0,0,.28-3.72,2.487,2.487,0,0,1,.411-2.225A1.418,1.418,0,0,0,216.971,312.9Zm-13.348,4c-.411-.617.542-1.028.542-1.028l-.075-.43c-1.1.5-1.028-.411-1.028-.411.187-1.047,1.252-.075,1.252-.075l.28-.729-3.2-1.234a1.309,1.309,0,0,1-.748.991c-.673.318-.542,1.346-.542,1.346s.318.094.15.467l-.15.374s.374,0,.056.579a.3.3,0,0,1,.28.43s.486-.037.411.355a.463.463,0,0,0,.542,0c-.972,2.393-1.739,2.3-1.739,2.3a4.653,4.653,0,0,1-.5-2.935,3.851,3.851,0,0,0-.318-2.468,1.08,1.08,0,0,0-.579-1.533,1.585,1.585,0,0,0,.168,1.626,2.487,2.487,0,0,1,.411,2.225,4.457,4.457,0,0,0,.262,3.72,1.917,1.917,0,0,0,.374,1.832.922.922,0,0,0-.3.879l1.869,1.907h1.7a.759.759,0,0,0-.8-.486c-1.028-.037-1.028-.542-1.028-.542-.075-.561-.206-1.084-.206-1.084.8-.5.636-1.122.636-1.122a2.673,2.673,0,0,1,1.589.486c.729.823,1.346.692,1.346.692l2.412-1.626v-.542h-.3L204.932,322a.749.749,0,0,1-.953-.037l-1.626-1.066a2.108,2.108,0,0,0,1.365-1.832h.953c1.1-1.739,2-1.664,2-1.664V316.34H206.5l-1.421,1.552c-.523.43-1.253-.187-1.253-.187l.71-.094,1.066-1.29a2.313,2.313,0,0,1,1.14-.692v-1.346h-.28C204.876,317.443,203.624,316.9,203.624,316.9Z" transform="translate(-163.506 -257.154)"/>
                  <path id="Path_21455" data-name="Path 21455" class="cls-5" d="M249.1,388.2" transform="translate(-204.963 -318.377)"/>
                  <path id="Path_21456" data-name="Path 21456" class="cls-7" d="M217.391,248.1c-4.038,0-7.291,2.355-7.291,5.253s3.271,5.253,7.291,5.253c4.038,0,7.291-2.355,7.291-5.253S221.41,248.1,217.391,248.1Z" transform="translate(-173.254 -204.468)"/>
                  <path id="Path_21457" data-name="Path 21457" class="cls-3" d="M185.2,166.294l1.963-1.047a4.9,4.9,0,0,1,2-.523h0l.112-.542a5.785,5.785,0,0,1,2.561-3.5h0a1.77,1.77,0,0,1-.075-.523h0a2.38,2.38,0,0,1,1.028-1.832h0l.58-.411.6.393a6.76,6.76,0,0,0,2.935,1.028h0a1.235,1.235,0,0,0,.206.019h0a1.924,1.924,0,0,0,.243-.019h0a6.363,6.363,0,0,0,.748-.131h0a6.38,6.38,0,0,0,2.187-.916h0l.6-.393.58.411a2.38,2.38,0,0,1,1.028,1.832h0a1.77,1.77,0,0,1-.075.523h0a5.857,5.857,0,0,1,2.561,3.5h0l-1.028.206,1.028-.206.112.542a4.624,4.624,0,0,1,2,.523h0l1.963,1.047L197.108,171.1l-11.908-4.8Zm11.946,2.58.243-.093a.517.517,0,0,0-.15.019h-.187a.846.846,0,0,1-.15-.019h0l.243.093Zm5.533-5.01a4.835,4.835,0,0,0-1.14-1.271h0a13.312,13.312,0,0,0-3.365,1.851h0c-.243.187-.393.3-.393.3h0l-.654.523-.654-.523s-.131-.112-.393-.3h0c-.243-.187-.617-.43-1.028-.71h0a10.469,10.469,0,0,0-2.337-1.159h0q-.2.168-.449.393h0a3.6,3.6,0,0,0-.692.879h0c.374.187.879.411,1.421.636h0a11.833,11.833,0,0,0,4.113,1.009h0a14.288,14.288,0,0,0,5.571-1.626Zm-5.533-3.44.019-1.047-.019,1.047Z" transform="translate(-153.009 -131.13)"/>
                  <path id="Path_21458" data-name="Path 21458" class="cls-4" d="M207.959,100.158l.037.037s2.916,2.505,6.094,2.655a6.632,6.632,0,0,0-12.3,0c3.178-.131,6.113-2.655,6.113-2.655Zm0,7.627a10.307,10.307,0,0,1,6.206-1.1,5.685,5.685,0,0,0,.28-2.505,11.587,11.587,0,0,1-6.468-2.542,11.436,11.436,0,0,1-6.468,2.542,5.4,5.4,0,0,0,.28,2.505A10.215,10.215,0,0,1,207.959,107.785Zm5.7-.187s-3.72-.15-5.7,1.739c-1.982-1.888-5.72-1.739-5.72-1.739s1.215,2.8,5.72,3.627C212.446,110.421,213.661,107.6,213.661,107.6Zm-5.7,4.692a7.687,7.687,0,0,1-3.739-1.234s-.766.542-.542,1.234a19.148,19.148,0,0,1,4.281,2.094,19.148,19.148,0,0,1,4.281-2.094c.224-.673-.542-1.234-.542-1.234A7.929,7.929,0,0,1,207.959,112.291Zm6.823,3.963a5.046,5.046,0,0,0-2.243-2.916,14.067,14.067,0,0,0-4.6,2.468,14.45,14.45,0,0,0-4.6-2.468,5.123,5.123,0,0,0-2.243,2.916s3.926,2.187,6.842,2.187C210.876,118.441,214.783,116.254,214.783,116.254Zm-.766,1.589a18.723,18.723,0,0,1-6.057,1.776,18.6,18.6,0,0,1-6.057-1.776,5.063,5.063,0,0,0-3.4.187l9.478,3.832,9.478-3.832A5.17,5.17,0,0,0,214.016,117.843Z" transform="translate(-163.822 -82.997)"/>
                  <path id="Path_21459" data-name="Path 21459" class="cls-8" d="M240.323,316.257V305.9h-1.309v10.357c0,1.5-1.514,4.281-1.514,4.281a3.985,3.985,0,0,0,2.169.748,3.93,3.93,0,0,0,2.15-.748S240.323,317.752,240.323,316.257Z" transform="translate(-195.532 -251.463)"/>
                  <path id="Path_21460" data-name="Path 21460" class="cls-6" d="M185.932,208l-10.17,3.963L165.593,208H158.9a8.523,8.523,0,0,1,2.038,5.4v24.134a8.053,8.053,0,0,0,.766,3.365,17.8,17.8,0,0,0,5.72,6.487,38.3,38.3,0,0,0,5.608,3.44c1.5.766,2.412,1.14,2.748,1.29.337-.131,1.253-.523,2.748-1.29a41.1,41.1,0,0,0,5.608-3.44,17.648,17.648,0,0,0,5.72-6.487,8.052,8.052,0,0,0,.766-3.365V213.4a8.523,8.523,0,0,1,2.038-5.4Zm0,27.91c0,7.347-10.17,9.945-10.17,9.945s-10.17-2.58-10.17-9.945V212.468H185.95C185.932,212.449,185.932,234.789,185.932,235.91Z" transform="translate(-131.625 -171.864)"/>
                  <path id="Path_21461" data-name="Path 21461" class="cls-5" d="M201.71,228.107H200.7l-.542.86-.542-.86h-1.047l1.066,1.477-1.122,1.514h1.028l.561-.916.561.916h1.066l-1.1-1.533Zm-12.544,23.386h-1.028l-.523.86-.523-.86h-1.028l1.066,1.458-1.122,1.533h1.066l.523-.86.523.86h1.066l-1.122-1.533Zm10.375-34.9.561-.916.561.916h1.066l-1.1-1.533,1.066-1.458H200.7l-.542.86-.542-.86h-1.047l1.066,1.477-1.122,1.514Zm1.477,26.041h-1.009l-.542.86-.542-.86h-1.047l1.066,1.458-1.1,1.533h1.028l.579-.9.561.9h1.066l-1.122-1.533Zm-26.452-26.041.561-.916.579.916h1.028l-1.122-1.514,1.066-1.477h-1.047l-.542.86-.542-.86h-1.009l1.066,1.458-1.1,1.533Zm2.8,26.041h-1.028l-.542.86-.542-.86h-1.01l1.066,1.458-1.122,1.533h1.066l.561-.9.58.9h1.009l-1.1-1.533ZM175.126,230.2l.579.916h1.028l-1.122-1.514,1.066-1.477h-1.047l-.542.86-.542-.86h-1.009l1.066,1.458-1.1,1.533h1.066Z" transform="translate(-143.496 -176.417)"/>
                  <path id="Path_21462" data-name="Path 21462" class="cls-3" d="M142.3,123.617v-.28l-.019-.019a11.467,11.467,0,0,0-2-6.281,12.307,12.307,0,0,0-1.383-1.682c-.187-.187-.355-.337-.467-.449a.613.613,0,0,0-.15-.112.2.2,0,0,0-.075-.056,9.381,9.381,0,0,0-6.094-2.019,16.714,16.714,0,0,0-4.86.785c-.636.187-1.159.393-1.533.542-.187.075-.336.15-.43.187s-.131.056-.168.075a13.577,13.577,0,0,1-5.5,1.309h-.3l-1.309-.037.262,1.29a3.775,3.775,0,0,0,1.178,2.056,6.006,6.006,0,0,0-1.2,3.888v.337l.019,1.664,1.5-.729c.131-.056.3-.15.5-.243a2.761,2.761,0,0,0-.019.393,3.872,3.872,0,0,0,.5,2.019l.617.991.916-.71c.187-.15.542-.43.916-.71a5.613,5.613,0,0,0,3.384,3.552,8.041,8.041,0,0,0,2.673.58,1.551,1.551,0,0,1,.187.8,4.581,4.581,0,0,1-.523,1.944l-.86,1.832,1.982-.374a3.646,3.646,0,0,0,2.206-1.2,4.593,4.593,0,0,0,.953-2.935,4.909,4.909,0,0,0-.019-.561,6.2,6.2,0,0,0,2.785-4.935h0l-.019-.28v-.28a4.527,4.527,0,0,0-1.4-3.346,6.317,6.317,0,0,0-2.355-1.383l-1.795-.617.43,1.851a2.74,2.74,0,0,1,.075.617,1.68,1.68,0,0,1-.168.785,1.775,1.775,0,0,1-.71.766c-.131.075-.262.131-.337.168-.037.019-.075.019-.093.037h0a3.158,3.158,0,0,1-.561.056,1.855,1.855,0,0,1-1.346-.542,2.461,2.461,0,0,1-.636-1.047l-.019-.037v-.037a2.425,2.425,0,0,1-.168-.9,2.673,2.673,0,0,1,.823-1.832,5.2,5.2,0,0,1,1.626-1.122h0a6.058,6.058,0,0,1,4.73.318,5.079,5.079,0,0,1,.785.467c.187.131.262.206.28.206a7.652,7.652,0,0,1,2.673,5.889,10.956,10.956,0,0,1-.729,3.795c-.187.5-.374.9-.5,1.178a2.28,2.28,0,0,1-.168.318c-.019.037-.037.056-.037.075h0l-5.627,8.973-.019.019c-3.795,6.73-4.954,11.385-4.954,14.619-.019,3.2,1.178,4.973,1.963,5.72l.953.935.673-1.159a7.588,7.588,0,0,0,.86-3.795,10.113,10.113,0,0,0-.056-1.178v-.037a2.414,2.414,0,0,0,1.5-1.57,4.641,4.641,0,0,0,.224-1.14,2.333,2.333,0,0,0,1.234-1.309,4.544,4.544,0,0,0,.3-1.608,4.064,4.064,0,0,0-.056-.748c-.019-.093-.019-.168-.037-.224v-.019l-.019-.093a9.387,9.387,0,0,1-.168-1.72,9.68,9.68,0,0,1,.617-3.384c.168-.43.318-.766.43-.991a2.56,2.56,0,0,1,.15-.262c.019-.037.019-.056.037-.056h0l.019-.019,4.655-7.534c3.085-4.842,3.29-8.431,3.29-9.254v-.112A.141.141,0,0,1,142.3,123.617Zm-39.8-6.73.262-1.29-1.309.037h-.28a13.5,13.5,0,0,1-5.515-1.327h0A17.848,17.848,0,0,0,88.67,112.7a9.381,9.381,0,0,0-6.094,2.019,10.584,10.584,0,0,0-2.056,2.3A11.388,11.388,0,0,0,78.5,123.43v.206h0v.131c0,.86.206,4.412,3.29,9.254l4.636,7.5.9-.542-.879.561a9.562,9.562,0,0,1,1.253,4.748,9.389,9.389,0,0,1-.168,1.72l-.019.093v.037a7.168,7.168,0,0,0-.075.953,4.2,4.2,0,0,0,.28,1.626,2.423,2.423,0,0,0,1.253,1.309,4.487,4.487,0,0,0,.224,1.14,2.408,2.408,0,0,0,1.5,1.57,10.373,10.373,0,0,0-.056,1.215,7.9,7.9,0,0,0,.841,3.776l.673,1.159.953-.935c.785-.748,1.982-2.524,1.963-5.72,0-3.234-1.159-7.889-4.954-14.619l-.019-.019-5.646-9.011h0a11.985,11.985,0,0,1-1.439-5.347,7.528,7.528,0,0,1,2.673-5.889l-.019-.056.037.056a6.267,6.267,0,0,1,3.795-1.309,6.121,6.121,0,0,1,1.982.336,5.156,5.156,0,0,1,1.645,1.122,2.673,2.673,0,0,1,.823,1.832,3.087,3.087,0,0,1-.168.916l-.019.019v.019a2.719,2.719,0,0,1-.636,1.066,1.823,1.823,0,0,1-1.346.542,2.344,2.344,0,0,1-.58-.075,2.081,2.081,0,0,1-1.122-.972,1.761,1.761,0,0,1-.168-.8,2.518,2.518,0,0,1,.075-.617l.411-1.832-1.776.617a6.583,6.583,0,0,0-2.355,1.383,4.489,4.489,0,0,0-1.4,3.346v.28l-.019.28v.037a6.174,6.174,0,0,0,2.785,4.935,4.917,4.917,0,0,0-.019.561,4.485,4.485,0,0,0,.953,2.935,3.642,3.642,0,0,0,2.225,1.2l2,.355-.86-1.832a4.789,4.789,0,0,1-.523-1.944,1.551,1.551,0,0,1,.187-.8,8.22,8.22,0,0,0,2.673-.579,5.659,5.659,0,0,0,3.384-3.552c.355.28.71.561.9.71l.916.729.617-.991a3.749,3.749,0,0,0,.5-2.019,2.761,2.761,0,0,0-.019-.393c.187.093.374.187.5.243l1.458.729.056-1.963a6.135,6.135,0,0,0-1.215-3.907A4.206,4.206,0,0,0,102.5,116.888Z" transform="translate(-66.255 -94.38)"/>
                  <g id="Group_17822" data-name="Group 17822" transform="translate(13.289 19.392)">
                    <path id="Path_21463" data-name="Path 21463" class="cls-6" d="M298.955,126.654l-.224,1.1a5.463,5.463,0,0,0-.131,1.14,2.756,2.756,0,0,0,.355,1.477c.523-.411,2.225-1.757,2.225-1.757l.15.916c.729,4.057,5.272,4.057,5.477,4.057l.262-.019.168.206a2.528,2.528,0,0,1,.542,1.645,6.024,6.024,0,0,1-.617,2.393,2.684,2.684,0,0,0,1.608-.841,3.552,3.552,0,0,0,.692-2.262,5.792,5.792,0,0,0-.037-.692l-.056-.355.28-.206a5.2,5.2,0,0,0,2.58-4.262v-.561a4.08,4.08,0,0,0-3.066-3.758,4.72,4.72,0,0,1,.112.86,2.8,2.8,0,0,1-.28,1.253,3.034,3.034,0,0,1-1.813,1.533,3.143,3.143,0,0,1-3.814-2.262,3.487,3.487,0,0,1-.224-1.253c0-2.056,1.925-3.44,3.122-3.926l.019-.019h.019a7.144,7.144,0,0,1,6.823,1.2,8.664,8.664,0,0,1,3.01,6.655,12.83,12.83,0,0,1-1.608,5.926l-5.627,8.973c-3.739,6.636-4.823,11.123-4.823,14.1,0,2.954,1.066,4.393,1.645,4.973a6.584,6.584,0,0,0,.71-3.253,12.794,12.794,0,0,0-.093-1.533l-.094-.6.6-.037c1.234-.093,1.271-1.795,1.271-2.075l-.019-.467.411-.112c.935-.243,1.122-1.271,1.122-2.038a5.235,5.235,0,0,0-.075-.879,10.149,10.149,0,0,1-.187-1.925,10.84,10.84,0,0,1,1.421-5.309l4.636-7.515c3.328-5.234,3.141-8.8,3.141-8.842l-.019-.019v-.019a10.483,10.483,0,0,0-3.683-8.038c-4.6-3.832-11.927-.318-12-.28a14.1,14.1,0,0,1-6.263,1.4,2.67,2.67,0,0,0,1.159,1.72l.654.374-.542.523a4.869,4.869,0,0,0-1.271,3.552v.318C297.217,127.533,298.955,126.654,298.955,126.654Z" transform="translate(-256.872 -118.435)"/>
                    <path id="Path_21464" data-name="Path 21464" class="cls-6" d="M91.829,144.819a10.618,10.618,0,0,1,1.421,5.309,10.153,10.153,0,0,1-.187,1.925,5.233,5.233,0,0,0-.075.879c0,.766.187,1.795,1.122,2.038l.411.112v.467c0,.262.056,1.982,1.271,2.075l.6.037-.093.6a10.366,10.366,0,0,0-.112,1.533,6.773,6.773,0,0,0,.692,3.253c.6-.579,1.664-2.038,1.664-4.973,0-2.972-1.084-7.459-4.823-14.1L88.108,135a12.58,12.58,0,0,1-1.608-5.926,8.625,8.625,0,0,1,3.028-6.655,7.164,7.164,0,0,1,6.823-1.2h.019l.019.019c1.215.486,3.141,1.869,3.141,3.926a3.859,3.859,0,0,1-.224,1.253,3,3,0,0,1-5.627.729,2.736,2.736,0,0,1-.262-1.252,4.825,4.825,0,0,1,.093-.86,4.041,4.041,0,0,0-3.066,3.758v.224l.019.056-.019.056-.019.28a5.2,5.2,0,0,0,2.58,4.262l.3.206-.056.355a3.89,3.89,0,0,0-.056.692,3.469,3.469,0,0,0,.71,2.262,2.632,2.632,0,0,0,1.608.841,5.866,5.866,0,0,1-.636-2.393A2.562,2.562,0,0,1,95.418,134l.168-.206.262.019c.187,0,4.748,0,5.459-4.057l.15-.916s1.7,1.346,2.225,1.757a2.756,2.756,0,0,0,.355-1.477,5.334,5.334,0,0,0-.131-1.14l-.243-1.1s1.757.879,2.355,1.159l.019-.318a4.868,4.868,0,0,0-1.271-3.552l-.542-.523.654-.374a2.537,2.537,0,0,0,1.159-1.72,14.383,14.383,0,0,1-6.263-1.4c-.075-.037-7.4-3.552-12,.28a10.483,10.483,0,0,0-3.683,8.038v.037c0,.037-.206,3.608,3.122,8.842Z" transform="translate(-84.087 -118.598)"/>
                  </g>
                </g>
                <g id="Group_17858" data-name="Group 17858" transform="translate(5.59 49.409)">
                  <g id="Group_17824" data-name="Group 17824" transform="translate(6.02)">
                    <path id="Path_21465" data-name="Path 21465" class="cls-2" d="M79.565,283.644a1.554,1.554,0,0,0,.766-.636,1.642,1.642,0,0,0,.3-.766,1.6,1.6,0,0,0-.075-.729,1.839,1.839,0,0,0-.374-.636,2.675,2.675,0,0,0-.6-.523,3.308,3.308,0,0,0-.766-.393,2.2,2.2,0,0,0-.766-.131,1.533,1.533,0,0,0-.692.187,1.682,1.682,0,0,0-.6.561,1.465,1.465,0,0,0-.243.561,1.417,1.417,0,0,0,0,.561,1.434,1.434,0,0,0,.224.523,1.952,1.952,0,0,0,.43.449l-.393.58a2.419,2.419,0,0,1-.9-1.439,2.143,2.143,0,0,1,.43-1.608,2.491,2.491,0,0,1,.766-.766,1.97,1.97,0,0,1,.9-.3,2.206,2.206,0,0,1,.972.112,3.642,3.642,0,0,1,.972.486,3.782,3.782,0,0,1,.8.729,2.676,2.676,0,0,1,.467.879,2.13,2.13,0,0,1,.056.972,2.844,2.844,0,0,1-.953,1.589,2.389,2.389,0,0,1-.636.355,1.817,1.817,0,0,1-.71.093,1.873,1.873,0,0,1-.748-.206l.393-.58A1.066,1.066,0,0,0,79.565,283.644Z" transform="translate(-75.714 -279.102)"/>
                    <path id="Path_21466" data-name="Path 21466" class="cls-2" d="M78.315,284.421a2.269,2.269,0,0,1-.8-.224h0l-.131-.056.523-.766.093.037a1.377,1.377,0,0,0,.5.112h0a.837.837,0,0,0,.374-.075h0a1.608,1.608,0,0,0,.71-.579h0a1.488,1.488,0,0,0,.28-.71h0c0-.056.019-.112.019-.168h0a1.4,1.4,0,0,0-.093-.486h0a1.809,1.809,0,0,0-.355-.6h0a3.04,3.04,0,0,0-.58-.5h0a4.493,4.493,0,0,0-.729-.374h0a1.7,1.7,0,0,0-.654-.131h-.056a1.2,1.2,0,0,0-.654.187h0a1.635,1.635,0,0,0-.561.523h0a1.767,1.767,0,0,0-.224.523h0a1.263,1.263,0,0,0-.037.262h0a1.261,1.261,0,0,0,.037.262h0a1.586,1.586,0,0,0,.206.486h0a2.049,2.049,0,0,0,.393.411h0l.093.075-.523.785-.093-.093a2.517,2.517,0,0,1-.935-1.5h0a1.813,1.813,0,0,1-.019-.318h0a2.4,2.4,0,0,1,.486-1.383h0a2.291,2.291,0,0,1,.8-.785h0a2,2,0,0,1,.953-.318h0c.075,0,.15-.019.206-.019h0a2.491,2.491,0,0,1,.8.131h0a4.979,4.979,0,0,1,1.009.486h0a3.58,3.58,0,0,1,.823.766h0a2.8,2.8,0,0,1,.486.935h0a2.35,2.35,0,0,1,.093.617h0a3.359,3.359,0,0,1-.037.411h0a2.444,2.444,0,0,1-.449,1.047h0a2.941,2.941,0,0,1-.561.617h0a2,2,0,0,1-.673.374h0a1.82,1.82,0,0,1-.636.112h0c0-.075-.056-.075-.093-.075Zm.019-.243h.112a1.959,1.959,0,0,0,.561-.093h0a2.125,2.125,0,0,0,.6-.336h0a2.452,2.452,0,0,0,.5-.561h0a2.35,2.35,0,0,0,.411-.953h0a2.555,2.555,0,0,0,.037-.355h0a1.93,1.93,0,0,0-.075-.561h0a2.252,2.252,0,0,0-.43-.841h0a3.5,3.5,0,0,0-.766-.71h0a3.367,3.367,0,0,0-.935-.467h0a2.561,2.561,0,0,0-.729-.112h0a.636.636,0,0,0-.187.019h0a1.869,1.869,0,0,0-.86.28h0a2.453,2.453,0,0,0-.729.729h0a2.155,2.155,0,0,0-.43,1.253h0a1.416,1.416,0,0,0,.019.28h0a2.221,2.221,0,0,0,.748,1.271h0l.243-.374a2.434,2.434,0,0,1-.355-.411h0a1.651,1.651,0,0,1-.243-.561h0a1.636,1.636,0,0,1-.037-.3h0a.823.823,0,0,1,.037-.3h0a1.753,1.753,0,0,1,.262-.617h0a1.746,1.746,0,0,1,.636-.6h0a1.793,1.793,0,0,1,.748-.206h.075a2.175,2.175,0,0,1,.748.131h0a3.173,3.173,0,0,1,.785.411h0a2.915,2.915,0,0,1,.617.542h0a2,2,0,0,1,.411.692h0a1.98,1.98,0,0,1,.093.58h0a.839.839,0,0,1-.019.206h0a1.924,1.924,0,0,1-.336.823h0a1.785,1.785,0,0,1-.823.673h0l-.037-.112.037.112a1.291,1.291,0,0,1-.467.075h0a1.208,1.208,0,0,1-.5-.093h0l-.262.374a2.538,2.538,0,0,0,.542.112Z" transform="translate(-75.1 -279)"/>
                  </g>
                  <g id="Group_17825" data-name="Group 17825" transform="translate(3.141 4.019)">
                    <path id="Path_21467" data-name="Path 21467" class="cls-2" d="M66.507,304.372l-4.15-2.075-1.234,2.468L60.6,304.5l1.552-3.1,4.674,2.337Z" transform="translate(-60.432 -301.232)"/>
                    <path id="Path_21468" data-name="Path 21468" class="cls-2" d="M60.336,304.145l-.636-.318,1.664-3.328,4.9,2.449-.056.112-.318.617-.056.112-4.15-2.075L60.448,304.2l-.112-.056Zm-.318-.43.318.15,1.234-2.468,4.15,2.075.206-.411-4.468-2.243-1.439,2.9Zm5.758-.075.056-.112-.056.112Z" transform="translate(-59.7 -300.5)"/>
                  </g>
                  <g id="Group_17826" data-name="Group 17826" transform="translate(1.926 8.207)">
                    <path id="Path_21469" data-name="Path 21469" class="cls-2" d="M54.077,326.4a2.091,2.091,0,0,1,.037-1.608,2.347,2.347,0,0,1,.991-1.327,1.88,1.88,0,0,1,1.626-.019l3.159,1.122-.224.654L56.526,324.1a1.312,1.312,0,0,0-1.851.9,1.359,1.359,0,0,0,0,1.084,1.477,1.477,0,0,0,.879.692l3.159,1.122-.243.654-3.141-1.122A1.987,1.987,0,0,1,54.077,326.4Z" transform="translate(-53.797 -323.204)"/>
                    <path id="Path_21470" data-name="Path 21470" class="cls-2" d="M54.677,327.218a2.087,2.087,0,0,1-1.309-1.066h0l.112-.056.112-.056a1.849,1.849,0,0,0,1.178.953h0l3.028,1.084.15-.43-3.028-1.084a1.594,1.594,0,0,1-.953-.748h0a1.106,1.106,0,0,1-.131-.542h0a2.073,2.073,0,0,1,.112-.636h0a1.607,1.607,0,0,1,.766-.953h0a1.374,1.374,0,0,1,.561-.131h0a1.7,1.7,0,0,1,.654.131h0l3.028,1.084.15-.43-3.028-1.084a2.485,2.485,0,0,0-.841-.168h0a1.24,1.24,0,0,0-.692.187h0a2.235,2.235,0,0,0-.935,1.271h0a2.6,2.6,0,0,0-.168.879h0a1.382,1.382,0,0,0,.131.636h0l-.112.056-.112.056a1.882,1.882,0,0,1-.15-.729h0a2.612,2.612,0,0,1,.187-.953h0a2.455,2.455,0,0,1,1.028-1.383h0a1.539,1.539,0,0,1,.823-.206h0a2.893,2.893,0,0,1,.916.168h0l3.271,1.159-.037.112-.28.766-3.271-1.159a1.757,1.757,0,0,0-.58-.112h0a1.129,1.129,0,0,0-.449.093h0a1.438,1.438,0,0,0-.654.823h0a1.561,1.561,0,0,0-.112.542h0a1.2,1.2,0,0,0,.093.449h0a1.34,1.34,0,0,0,.823.617h0l3.271,1.159-.037.112-.28.767-3.234-1.178Z" transform="translate(-53.2 -322.9)"/>
                  </g>
                  <g id="Group_17827" data-name="Group 17827" transform="translate(0.58 13.254)">
                    <path id="Path_21471" data-name="Path 21471" class="cls-2" d="M51.869,353.479a3.035,3.035,0,0,1-.075.355c-.037.131-.056.262-.093.374a3.524,3.524,0,0,1-.112.336,1.252,1.252,0,0,1-.168.262,1.3,1.3,0,0,1-1.2.393,1.2,1.2,0,0,1-1.009-.991H49.2a1.148,1.148,0,0,1-.58.636,1.32,1.32,0,0,1-.86.093,1.8,1.8,0,0,1-.523-.206,1.178,1.178,0,0,1-.411-.393,1.7,1.7,0,0,1-.243-.561,2.143,2.143,0,0,1,0-.692l.486-2.486,5.141,1.009Zm-4.674-.355a1.041,1.041,0,0,0,.112.766.9.9,0,0,0,.636.393.657.657,0,0,0,.43-.019.894.894,0,0,0,.318-.187,1.017,1.017,0,0,0,.206-.337,1.485,1.485,0,0,0,.112-.411l.3-1.57-1.776-.355Zm2.43.112a1.465,1.465,0,0,0,.037.879.768.768,0,0,0,.561.374.9.9,0,0,0,.449,0,.574.574,0,0,0,.28-.187.981.981,0,0,0,.187-.336,2.641,2.641,0,0,0,.112-.411l.262-1.365-1.626-.318Z" transform="translate(-46.447 -350.469)"/>
                    <path id="Path_21472" data-name="Path 21472" class="cls-2" d="M49.758,354.76a1.365,1.365,0,0,1-.729-.374h0a1.622,1.622,0,0,1-.3-.43h0a1.231,1.231,0,0,1-.486.449h0a1.355,1.355,0,0,1-.617.131h0a1.841,1.841,0,0,1-.318-.037h0a1.474,1.474,0,0,1-.561-.224h0a1.637,1.637,0,0,1-.449-.43h0a1.935,1.935,0,0,1-.262-.6h0A2.06,2.06,0,0,1,46,352.91h0a3.358,3.358,0,0,1,.037-.411h0l.5-2.6,5.365,1.047-.393,1.982c-.019.112-.056.224-.075.355h0a2.187,2.187,0,0,1-.093.374h0a1.994,1.994,0,0,1-.131.355h0a1.047,1.047,0,0,1-.187.28h0a1.566,1.566,0,0,1-.542.374h0a1.2,1.2,0,0,1-.449.093h0a.7.7,0,0,1-.28,0Zm-.972-1.234.093.019.019.075a1.02,1.02,0,0,0,.3.58h0a1.07,1.07,0,0,0,.617.3h0a1.323,1.323,0,0,0,.262.019h0a.837.837,0,0,0,.374-.075h0a1.147,1.147,0,0,0,.449-.318h0a1.165,1.165,0,0,0,.15-.224h0c.037-.094.075-.206.112-.318h0a2.491,2.491,0,0,0,.093-.355h0c.019-.131.056-.243.075-.355h0l.336-1.757-4.917-.916-.467,2.374a2.555,2.555,0,0,0-.037.355h0a1.864,1.864,0,0,0,.037.3h0a1.366,1.366,0,0,0,.206.5h0a1.346,1.346,0,0,0,.374.355h0a1.2,1.2,0,0,0,.486.187h0a1.414,1.414,0,0,0,.28.019h0a1.114,1.114,0,0,0,.5-.112h0a1.147,1.147,0,0,0,.523-.58h0l.037-.093.093.019Zm.972.523a.919.919,0,0,1-.654-.43h0a1.009,1.009,0,0,1-.112-.5h0a2.257,2.257,0,0,1,.056-.467h0l.28-1.477,1.869.355L50.917,353c-.037.15-.075.3-.112.43h0a.916.916,0,0,1-.206.374h0a.648.648,0,0,1-.355.224h0a.947.947,0,0,1-.243.037h0a1.24,1.24,0,0,1-.243-.019Zm-.5-.935a.773.773,0,0,0,.075.393h0a.634.634,0,0,0,.486.318h0a.989.989,0,0,0,.224.019h0a.518.518,0,0,0,.168-.019h0a.66.66,0,0,0,.243-.15h0a.674.674,0,0,0,.15-.28h0c.037-.131.075-.262.112-.411h0l.243-1.252-1.4-.28-.243,1.253a1.79,1.79,0,0,0-.056.411Zm-1.795.71a1.036,1.036,0,0,1-.71-.43h0a.974.974,0,0,1-.15-.561h0a1.864,1.864,0,0,1,.037-.3h0l.355-1.832,2.019.393-.318,1.682a2.888,2.888,0,0,1-.131.43h0a1.244,1.244,0,0,1-.224.374h0a.722.722,0,0,1-.355.224h0a1.1,1.1,0,0,1-.262.037h0a1.235,1.235,0,0,1-.262-.019Zm-.58-1.234a1.287,1.287,0,0,0-.037.243h0a.819.819,0,0,0,.112.43h0a.807.807,0,0,0,.542.337h0a.7.7,0,0,0,.187.019h0a.308.308,0,0,0,.187-.037h0a.783.783,0,0,0,.262-.168h0a.912.912,0,0,0,.187-.3h0a1.551,1.551,0,0,0,.112-.393h0l.28-1.439-1.552-.3-.28,1.608-.112-.019.112.019Z" transform="translate(-46 -349.9)"/>
                  </g>
                  <g id="Group_17828" data-name="Group 17828" transform="translate(0 20.844)">
                    <path id="Path_21473" data-name="Path 21473" class="cls-2" d="M48.772,392.995a2.611,2.611,0,0,1-.58,1.869,2.4,2.4,0,0,1-1.869.673,3.854,3.854,0,0,1-1.178-.131,2.073,2.073,0,0,1-.86-.43,2.046,2.046,0,0,1-.542-.767,3.333,3.333,0,0,1-.206-1.122l-.037-1.795,5.234-.093Zm-4.655.131c0,.075.019.168.019.3a1.562,1.562,0,0,0,.093.374,1.981,1.981,0,0,0,.206.393,1.1,1.1,0,0,0,.374.337,1.95,1.95,0,0,0,.561.243,2.741,2.741,0,0,0,.823.075,2.864,2.864,0,0,0,.841-.112,1.569,1.569,0,0,0,.636-.318,1.45,1.45,0,0,0,.393-.542,2.109,2.109,0,0,0,.131-.823l-.019-1.178-4.057.056Z" transform="translate(-43.388 -391.069)"/>
                    <path id="Path_21474" data-name="Path 21474" class="cls-2" d="M45.742,395.1a3.967,3.967,0,0,1-1.1-.131h0a2.245,2.245,0,0,1-.916-.467h0a2.049,2.049,0,0,1-.58-.823h0a3.233,3.233,0,0,1-.206-1.178h0l-.037-1.907,5.477-.094.037,1.907H48.19l-.019-1.682-4.991.075.019,1.682a3.047,3.047,0,0,0,.187,1.084h0a1.887,1.887,0,0,0,.5.729h0a2.128,2.128,0,0,0,.823.411h0a4.326,4.326,0,0,0,1.047.131h.093a2.421,2.421,0,0,0,1.776-.636h0a2.533,2.533,0,0,0,.561-1.72h0v-.075h.224v.075h0a2.767,2.767,0,0,1-.617,1.888h0a2.605,2.605,0,0,1-1.944.729h-.112Zm-.093-.692a3.23,3.23,0,0,1-.785-.093h0a2.218,2.218,0,0,1-.6-.262h0a1.258,1.258,0,0,1-.393-.374h0a2.233,2.233,0,0,1-.224-.411h0a1.094,1.094,0,0,1-.093-.411h0a1.82,1.82,0,0,1-.019-.3h.243a1.615,1.615,0,0,0,.019.28h0a1.135,1.135,0,0,0,.093.336h0a1.293,1.293,0,0,0,.187.355h0a1.107,1.107,0,0,0,.336.318h0a1.631,1.631,0,0,0,.542.224h0a2.586,2.586,0,0,0,.71.075h.075a3.391,3.391,0,0,0,.8-.094h0a1.294,1.294,0,0,0,.58-.28h0a1.309,1.309,0,0,0,.355-.486h0a1.991,1.991,0,0,0,.112-.729h0V392.5h0l-.019-1.047-3.814.056.019,1.047h-.243l-.019-1.271,4.3-.075.019,1.309v.037h0a2.071,2.071,0,0,1-.131.8h0a1.494,1.494,0,0,1-.411.6h0a1.9,1.9,0,0,1-.673.336h0a3.089,3.089,0,0,1-.86.112h0a.2.2,0,0,0-.112,0Z" transform="translate(-42.9 -390.5)"/>
                  </g>
                  <g id="Group_17829" data-name="Group 17829" transform="translate(0.15 25.592)">
                    <path id="Path_21475" data-name="Path 21475" class="cls-2" d="M50.183,420.108l-.58.075-.411-2.9-1.645.224.374,2.692-.58.075-.374-2.692-1.795.262.411,2.9-.58.093-.5-3.608,5.178-.729Z" transform="translate(-44.35 -416.388)"/>
                    <path id="Path_21476" data-name="Path 21476" class="cls-2" d="M43.7,416.667l5.421-.767.523,3.7-.112.019.112-.019.019.112-.112.019-.692.094-.411-2.879-1.4.206.374,2.692-.131.019-.692.093-.374-2.692-1.552.224.411,2.916-.112.019-.71.094-.561-3.851Zm.28.206.467,3.365.336-.056-.411-2.916,2.038-.3.374,2.692.336-.037-.374-2.692,1.888-.262.411,2.9.336-.037-.467-3.346-4.935.692Z" transform="translate(-43.7 -415.9)"/>
                  </g>
                  <g id="Group_17830" data-name="Group 17830" transform="translate(0.953 29.855)">
                    <path id="Path_21477" data-name="Path 21477" class="cls-2" d="M54.546,441.706a1.623,1.623,0,0,1-.056,1.271,1.534,1.534,0,0,1-.991.692,1.408,1.408,0,0,1-1.926-1.122l-.43-1.533-2.056.579-.187-.673,5.029-1.421Zm-2.486.467a1.259,1.259,0,0,0,.467.766,1.06,1.06,0,0,0,1.383-.393,1.221,1.221,0,0,0,0-.9l-.374-1.309-1.851.523Z" transform="translate(-48.732 -439.35)"/>
                    <path id="Path_21478" data-name="Path 21478" class="cls-2" d="M51.5,443.056a1.683,1.683,0,0,1-.766-1.122h0l-.411-1.421-2.056.579-.037-.112L48,440.2l5.272-1.5.654,2.318-.112.037-.112.037L53.1,439l-4.8,1.365.131.43,2.056-.58.467,1.645a1.487,1.487,0,0,0,.654.972h0a1.232,1.232,0,0,0,.6.15h0a1.771,1.771,0,0,0,.523-.075h0a1.436,1.436,0,0,0,.916-.636h0a1.233,1.233,0,0,0,.15-.6h0a2.326,2.326,0,0,0-.093-.58h0l.112-.037.112-.037a2.762,2.762,0,0,1,.093.654h0a1.477,1.477,0,0,1-.168.71h0a1.588,1.588,0,0,1-1.066.748h0a2.335,2.335,0,0,1-.6.093h0a1.456,1.456,0,0,1-.692-.168Zm.243-.654a1.4,1.4,0,0,1-.523-.841h0l-.411-1.421,2.075-.579.411,1.421a1.891,1.891,0,0,1,.075.542h0a.88.88,0,0,1-.093.449h0a1.06,1.06,0,0,1-.692.523h0a1.291,1.291,0,0,1-.374.056h0a1.512,1.512,0,0,1-.467-.15Zm.131-.206a.632.632,0,0,0,.374.112h0a1.866,1.866,0,0,0,.3-.037h0a.776.776,0,0,0,.542-.393h0a.893.893,0,0,0,.075-.337h0a1.712,1.712,0,0,0-.075-.486h0l-.336-1.2-1.608.449.336,1.2-.112.037.112-.037a1.062,1.062,0,0,0,.393.692Z" transform="translate(-48 -438.7)"/>
                  </g>
                  <g id="Group_17831" data-name="Group 17831" transform="translate(3.141 34.883)">
                    <path id="Path_21479" data-name="Path 21479" class="cls-2" d="M63.011,466.183a2.518,2.518,0,0,1,.991.056,2.354,2.354,0,0,1,.879.467,2.825,2.825,0,0,1,.673.9,2.389,2.389,0,0,1,.243,1.084,2.124,2.124,0,0,1-.224.972,2.734,2.734,0,0,1-.6.8,3.528,3.528,0,0,1-.879.561,3.12,3.12,0,0,1-1.009.28,2.924,2.924,0,0,1-.991-.056,2.353,2.353,0,0,1-.879-.467,2.539,2.539,0,0,1-.654-.9A2.7,2.7,0,0,1,60.3,468.8a2.181,2.181,0,0,1,.224-.972,2.733,2.733,0,0,1,.6-.8,2.844,2.844,0,0,1,.86-.561A4,4,0,0,1,63.011,466.183Zm-1.383,1.346a2.01,2.01,0,0,0-.486.579,1.587,1.587,0,0,0-.224.71,1.669,1.669,0,0,0,.168.823,1.877,1.877,0,0,0,.5.673,1.564,1.564,0,0,0,.692.318,1.767,1.767,0,0,0,.766,0,3.185,3.185,0,0,0,.748-.243,3.09,3.09,0,0,0,.673-.411,2.129,2.129,0,0,0,.5-.58,1.635,1.635,0,0,0,.206-.71,1.669,1.669,0,0,0-.168-.823,1.877,1.877,0,0,0-.5-.673,1.629,1.629,0,0,0-.692-.3,1.767,1.767,0,0,0-.766,0,2.694,2.694,0,0,0-.748.243A2.051,2.051,0,0,0,61.627,467.529Z" transform="translate(-60.188 -466.052)"/>
                    <path id="Path_21480" data-name="Path 21480" class="cls-2" d="M61.588,470.909a2.363,2.363,0,0,1-.935-.486h0a2.972,2.972,0,0,1-.692-.935h0a2.714,2.714,0,0,1-.262-1.1h0v-.037h0a2.341,2.341,0,0,1,.224-1.009h0a2.272,2.272,0,0,1,.636-.823h0a3.273,3.273,0,0,1,.9-.6h0a4.272,4.272,0,0,1,1.028-.3h0a2.264,2.264,0,0,1,.355-.019h0a2.807,2.807,0,0,1,.692.093h0a2.553,2.553,0,0,1,.916.486h0a2.547,2.547,0,0,1,.692.935h0a2.645,2.645,0,0,1,.262,1.1h0v.037h0a2.3,2.3,0,0,1-.243,1.009h0a2.506,2.506,0,0,1-.636.841h0a3.272,3.272,0,0,1-.9.6h0a3.963,3.963,0,0,1-1.047.3h0a2.257,2.257,0,0,1-.355.019h0a2.681,2.681,0,0,1-.636-.112Zm-.019-4.786a3.3,3.3,0,0,0-.841.561h0a3.1,3.1,0,0,0-.58.748h0a2.147,2.147,0,0,0-.206.935h0v.019a2.343,2.343,0,0,0,.243,1.009h0a2.37,2.37,0,0,0,.617.86h0a2.178,2.178,0,0,0,.823.43h0a2.323,2.323,0,0,0,.617.075h0a1.924,1.924,0,0,0,.318-.019h0a3.043,3.043,0,0,0,.972-.28h0a3.3,3.3,0,0,0,.841-.561h0a2.594,2.594,0,0,0,.58-.766h0a2.124,2.124,0,0,0,.206-.916h0v-.037h0a2.208,2.208,0,0,0-.243-.991h0a2.544,2.544,0,0,0-.617-.86h0a2.121,2.121,0,0,0-.841-.43h0a2.37,2.37,0,0,0-.636-.075h0a1.918,1.918,0,0,0-.318.019h0a4.8,4.8,0,0,0-.935.28Zm.206,4.169a1.622,1.622,0,0,1-.729-.336h0a1.758,1.758,0,0,1-.542-.71h0a1.729,1.729,0,0,1-.187-.785h0v-.094h0a1.745,1.745,0,0,1,.224-.766h0a2.3,2.3,0,0,1,.523-.617h0l.075.093-.075-.093a3.85,3.85,0,0,1,.692-.43h0a2.744,2.744,0,0,1,.785-.243h0a2.792,2.792,0,0,1,.393-.037h0a3.06,3.06,0,0,1,.411.037h0a1.852,1.852,0,0,1,.729.336h0a1.758,1.758,0,0,1,.542.71h0a1.728,1.728,0,0,1,.187.785h0v.112h0a1.745,1.745,0,0,1-.224.766h0a2.3,2.3,0,0,1-.523.617h0a3.857,3.857,0,0,1-.692.43h0a3.5,3.5,0,0,1-.785.243h0a2.791,2.791,0,0,1-.393.037h0l-.411-.056Zm-1.028-2.58a1.664,1.664,0,0,0-.206.673h0v.093h0a1.619,1.619,0,0,0,.168.673h0a1.494,1.494,0,0,0,.467.617h0a1.389,1.389,0,0,0,.636.28h0a2.3,2.3,0,0,0,.374.037h0a1.15,1.15,0,0,0,.355-.037h0a2.725,2.725,0,0,0,.729-.224h0a2.846,2.846,0,0,0,.636-.411h0a2.12,2.12,0,0,0,.467-.542h0a1.664,1.664,0,0,0,.206-.673h0v-.093h0a1.619,1.619,0,0,0-.168-.673h0a1.5,1.5,0,0,0-.467-.617h0a1.389,1.389,0,0,0-.636-.28h0a2.3,2.3,0,0,0-.374-.037h0a2.553,2.553,0,0,0-.355.037h0a2.536,2.536,0,0,0-.729.224h0a2.775,2.775,0,0,0-.636.393h0a2.2,2.2,0,0,0-.467.561Z" transform="translate(-59.7 -465.6)"/>
                  </g>
                  <g id="Group_17832" data-name="Group 17832" transform="translate(5.197 39.033)">
                    <path id="Path_21481" data-name="Path 21481" class="cls-2" d="M76.876,490.675a1.74,1.74,0,0,1,.336,1.178,1.254,1.254,0,0,1-.617.9,1.732,1.732,0,0,1-.823.28,1.117,1.117,0,0,1-.785-.318l-.019.019a.807.807,0,0,1,.075.393,1.583,1.583,0,0,1-.075.318,1.339,1.339,0,0,1-.206.28,1.922,1.922,0,0,1-.28.262c-.112.075-.206.15-.318.224s-.206.168-.3.243a3.483,3.483,0,0,0-.262.262.948.948,0,0,0-.168.3l-.43-.654a.356.356,0,0,1,.131-.206c.075-.056.15-.131.243-.206.093-.056.187-.131.3-.206s.206-.168.3-.243a3.443,3.443,0,0,0,.262-.262,1.115,1.115,0,0,0,.168-.28.623.623,0,0,0,.037-.318,1.123,1.123,0,0,0-.168-.393l-.935-1.421-1.869,1.215-.374-.579,4.374-2.86ZM74.97,492.1a1.026,1.026,0,0,0,.337.243.635.635,0,0,0,.374.056,1.343,1.343,0,0,0,.449-.168.893.893,0,0,0,.411-.542.87.87,0,0,0-.187-.729l-.935-1.458-1.533,1.009.785,1.215C74.783,491.853,74.876,491.984,74.97,492.1Z" transform="translate(-71.025 -488.451)"/>
                    <path id="Path_21482" data-name="Path 21482" class="cls-2" d="M72.588,493.745l.019-.056a.455.455,0,0,1,.168-.262h0a1.6,1.6,0,0,1,.262-.206h0a2.86,2.86,0,0,0,.3-.206h0a1.886,1.886,0,0,0,.3-.243h0a3.111,3.111,0,0,1,.262-.243h0a.857.857,0,0,0,.15-.243h0a.664.664,0,0,0,.037-.187h0v-.075h0a.644.644,0,0,0-.15-.336h0l-.86-1.327L71.2,491.576l-.5-.785,4.58-2.991,1.421,2.169-.093.075-.112.056-1.29-1.963-4.188,2.729.243.374,1.869-1.215,1.009,1.514a1.152,1.152,0,0,1,.187.449h0v.093h0a1.444,1.444,0,0,1-.037.28h0a.844.844,0,0,1-.206.318h0a1.73,1.73,0,0,1-.262.262h0a3.915,3.915,0,0,1-.318.262h0c-.112.075-.206.15-.3.224h0a1.191,1.191,0,0,0-.224.187h0c-.037.037-.056.075-.075.093h0l.262.411c.037-.037.056-.093.093-.131h0a1.981,1.981,0,0,1,.28-.28h0a2.043,2.043,0,0,1,.318-.243h0c.112-.075.206-.15.3-.224h0A1.619,1.619,0,0,0,74.42,493h0a.95.95,0,0,0,.168-.243h0a.609.609,0,0,0,.075-.262h0v-.037h0a.712.712,0,0,0-.075-.318h0l-.037-.093.075-.056.093-.056.075.056a1.054,1.054,0,0,0,.673.28H75.5a1.3,1.3,0,0,0,.748-.262h0a1.173,1.173,0,0,0,.561-.822h0v-.168h0a1.734,1.734,0,0,0-.337-.935h0l.112-.056.093-.075a1.907,1.907,0,0,1,.355,1.066h0a.576.576,0,0,1-.019.187h0a1.379,1.379,0,0,1-.654.991h0a1.766,1.766,0,0,1-.879.3h-.037a1.273,1.273,0,0,1-.58-.15h0v.093h0v.037h0a.851.851,0,0,1-.093.374h0a1.659,1.659,0,0,1-.224.318h0c-.093.093-.187.168-.28.262h0c-.093.075-.206.15-.318.224h0a1.888,1.888,0,0,0-.3.243h0a2.981,2.981,0,0,0-.243.243h0a.938.938,0,0,0-.15.262h0l-.075.243-.6-.9Zm2.337-1.963a1.234,1.234,0,0,1-.374-.262h0l.093-.075.093-.075a.783.783,0,0,0,.3.206h0a.682.682,0,0,0,.28.056h.056a.686.686,0,0,0,.374-.15h0a.812.812,0,0,0,.374-.467h0a.277.277,0,0,0,.019-.131h0a.89.89,0,0,0-.187-.5h0l-.879-1.346-1.327.86.729,1.1a2.488,2.488,0,0,0,.262.355h0l-.093.075-.093.075a2.915,2.915,0,0,1-.3-.374h0l-.86-1.309,1.72-1.14,1.009,1.552a1.308,1.308,0,0,1,.224.636h0a.636.636,0,0,1-.019.187h0a1.045,1.045,0,0,1-.467.6h0a.935.935,0,0,1-.5.187H75.28a.484.484,0,0,1-.355-.056Z" transform="translate(-70.7 -487.8)"/>
                  </g>
                  <g id="Group_17833" data-name="Group 17833" transform="translate(9.31 42.847)">
                    <path id="Path_21483" data-name="Path 21483" class="cls-2" d="M95.937,509.393l.43-.393,2.767,3.141-.449.393-1.14-1.309-3.5,3.085-.449-.523,3.477-3.066Z" transform="translate(-93.432 -508.85)"/>
                    <path id="Path_21484" data-name="Path 21484" class="cls-2" d="M92.7,513.117l3.5-3.066-1.066-1.215.093-.075.075.094-.075-.094-.093.075-.075-.093.093-.075.542-.467,2.916,3.328-.093.075-.542.467-1.14-1.309-3.515,3.047-.617-.692Zm3.814-3.047-3.5,3.066.3.337,3.5-3.066,1.14,1.309.262-.224L95.6,508.518l-.262.224,1.178,1.327Z" transform="translate(-92.7 -508.2)"/>
                  </g>
                  <g id="Group_17834" data-name="Group 17834" transform="translate(11.777 46.399)">
                    <path id="Path_21485" data-name="Path 21485" class="cls-2" d="M110.894,528.586,107.3,532.4l-.5-.486,3.589-3.814Z" transform="translate(-106.632 -527.932)"/>
                    <path id="Path_21486" data-name="Path 21486" class="cls-2" d="M105.9,531.182l3.758-3.982.093.075.5.467-.075.094.075-.094.093.075-3.776,4.019-.673-.654Zm.337,0,.336.318,3.421-3.627-.337-.336-3.421,3.645Z" transform="translate(-105.9 -527.2)"/>
                  </g>
                  <g id="Group_17835" data-name="Group 17835" transform="translate(14.581 47.352)">
                    <path id="Path_21487" data-name="Path 21487" class="cls-2" d="M121.7,538.572l1.757-5.272.6.467-1.589,4.505.019.019,3.982-2.655.58.449-4.674,2.991Z" transform="translate(-121.55 -533.113)"/>
                    <path id="Path_21488" data-name="Path 21488" class="cls-2" d="M120.975,537.852l.075-.094.112.037-.112-.037-.075.094-.075-.056,1.832-5.5.8.617-1.514,4.262,3.776-2.524.785.6-4.917,3.141-.692-.542Zm.71.243,4.468-2.86-.374-.28-3.982,2.655-.056-.056-.075-.056,1.589-4.505-.393-.3-1.664,5.029.486.374Z" transform="translate(-120.9 -532.3)"/>
                  </g>
                  <g id="Group_17836" data-name="Group 17836" transform="translate(18.264 51.035)">
                    <path id="Path_21489" data-name="Path 21489" class="cls-2" d="M142.254,553.258a2.351,2.351,0,0,1,.841-.523,2.346,2.346,0,0,1,2.056.187,2.7,2.7,0,0,1,.841.729,2.319,2.319,0,0,1,.374.916,2.532,2.532,0,0,1-.019.991,3.084,3.084,0,0,1-.374.972,3.453,3.453,0,0,1-.636.823,2.5,2.5,0,0,1-.841.542,2.411,2.411,0,0,1-.972.15,2.364,2.364,0,0,1-1.066-.336,2.7,2.7,0,0,1-.841-.729,2.105,2.105,0,0,1-.393-.916,2.526,2.526,0,0,1,.019-.991,3.265,3.265,0,0,1,.374-.972A2.631,2.631,0,0,1,142.254,553.258Zm-.336,1.888a2.129,2.129,0,0,0-.056.766,1.611,1.611,0,0,0,.243.71,1.511,1.511,0,0,0,.617.561,1.728,1.728,0,0,0,.8.243,1.6,1.6,0,0,0,.729-.15,2.37,2.37,0,0,0,.617-.449,2.664,2.664,0,0,0,.467-.636,3.147,3.147,0,0,0,.3-.729,2.129,2.129,0,0,0,.056-.766,2.006,2.006,0,0,0-.243-.71,1.641,1.641,0,0,0-.617-.561,1.728,1.728,0,0,0-.8-.243,1.6,1.6,0,0,0-.729.15,2.37,2.37,0,0,0-.617.449,3.093,3.093,0,0,0-.467.636A3.142,3.142,0,0,0,141.918,555.146Z" transform="translate(-141.077 -552.472)"/>
                    <path id="Path_21490" data-name="Path 21490" class="cls-2" d="M143.03,557.683a2.546,2.546,0,0,1-1.1-.355h0a2.534,2.534,0,0,1-.879-.766h0a2.689,2.689,0,0,1-.411-.953h0a3.936,3.936,0,0,1-.037-.467h0a3.041,3.041,0,0,1,.056-.58h0a3.858,3.858,0,0,1,.374-1.01h0a3.7,3.7,0,0,1,.673-.841h0a2.928,2.928,0,0,1,.879-.561h0a2.192,2.192,0,0,1,.86-.15h.168a2.452,2.452,0,0,1,1.122.355h0a2.533,2.533,0,0,1,.879.766h0a2.635,2.635,0,0,1,.411.972h0a3.641,3.641,0,0,1,.037.467h0a3.043,3.043,0,0,1-.056.58h0a3.857,3.857,0,0,1-.374,1.009h0a3.7,3.7,0,0,1-.673.841h0a2.927,2.927,0,0,1-.879.561h0a2.161,2.161,0,0,1-.841.15h0a.915.915,0,0,0-.206-.019Zm-1.795-4.019a3.562,3.562,0,0,0-.355.935h0a2.629,2.629,0,0,0-.056.523h0a3.339,3.339,0,0,0,.037.43h0a1.955,1.955,0,0,0,.374.86h0a2.278,2.278,0,0,0,.8.692h0a2.522,2.522,0,0,0,1.009.318h.168a2.635,2.635,0,0,0,.766-.131h0a2.428,2.428,0,0,0,.8-.5h0A3.183,3.183,0,0,0,145.4,556h0a3.562,3.562,0,0,0,.355-.935h0a2.628,2.628,0,0,0,.056-.523h0a2.8,2.8,0,0,0-.037-.411h0a1.866,1.866,0,0,0-.374-.86h0a2.276,2.276,0,0,0-.8-.692h0a2.519,2.519,0,0,0-1.009-.318h-.15a2.172,2.172,0,0,0-.785.15h0a2.428,2.428,0,0,0-.8.5h0a2.448,2.448,0,0,0-.617.748Zm.953,3.159a1.915,1.915,0,0,1-.673-.6h0a1.634,1.634,0,0,1-.262-.766h0a.91.91,0,0,1-.019-.224h0a3.284,3.284,0,0,1,.075-.579h0a3.023,3.023,0,0,1,.318-.766h0a3.3,3.3,0,0,1,.486-.654h0a2.321,2.321,0,0,1,.654-.467h0a1.744,1.744,0,0,1,.748-.168h.037a1.7,1.7,0,0,1,.86.262h0a1.861,1.861,0,0,1,.654.6h0a1.635,1.635,0,0,1,.262.767h0c0,.075.019.15.019.224h0a2.146,2.146,0,0,1-.075.58h0a2.966,2.966,0,0,1-.3.766h0a2.835,2.835,0,0,1-.486.654h0a2.219,2.219,0,0,1-.654.467h0a1.745,1.745,0,0,1-.748.168h-.037a2.267,2.267,0,0,1-.86-.262Zm-.692-1.608a.766.766,0,0,0,.019.206h0a1.441,1.441,0,0,0,.224.654h0a1.592,1.592,0,0,0,.58.524h0a1.55,1.55,0,0,0,.748.224h.037a1.344,1.344,0,0,0,.654-.15h0a2.053,2.053,0,0,0,.58-.411h0a2.635,2.635,0,0,0,.449-.6h0a2.351,2.351,0,0,0,.28-.71h0a1.652,1.652,0,0,0,.075-.5h0a.765.765,0,0,0-.019-.206h0a1.706,1.706,0,0,0-.224-.654h0a1.591,1.591,0,0,0-.58-.523h0a1.5,1.5,0,0,0-.748-.224h-.037a1.344,1.344,0,0,0-.654.15h0a2.51,2.51,0,0,0-.58.411h0a2.636,2.636,0,0,0-.449.6h0a2.559,2.559,0,0,0-.28.71h0a1.575,1.575,0,0,0-.075.5Z" transform="translate(-140.6 -552)"/>
                  </g>
                  <g id="Group_17837" data-name="Group 17837" transform="translate(25.536 54.045)">
                    <path id="Path_21491" data-name="Path 21491" class="cls-2" d="M182.953,574.509a2.612,2.612,0,0,1-.935-.093,2.363,2.363,0,0,1-.935-.5,2.149,2.149,0,0,1-.58-.785,2.739,2.739,0,0,1-.224-.953,2.543,2.543,0,0,1,.131-.991,3.707,3.707,0,0,1,.467-.991,2.932,2.932,0,0,1,.71-.729,2.289,2.289,0,0,1,.935-.374,2.533,2.533,0,0,1,1.1.093,3.185,3.185,0,0,1,.729.318,2.025,2.025,0,0,1,.561.486,1.645,1.645,0,0,1,.318.654,2.062,2.062,0,0,1,.037.841l-.673-.206a1.332,1.332,0,0,0-.262-.991,1.3,1.3,0,0,0-.374-.337,2.067,2.067,0,0,0-.5-.224,1.64,1.64,0,0,0-.841-.056,1.607,1.607,0,0,0-.673.318,1.759,1.759,0,0,0-.5.6,2.965,2.965,0,0,0-.336.748,2.847,2.847,0,0,0-.112.785,1.812,1.812,0,0,0,.15.729,1.635,1.635,0,0,0,.411.6,1.767,1.767,0,0,0,.692.393,1.647,1.647,0,0,0,1.346-.093,1.462,1.462,0,0,0,.467-.43,1.561,1.561,0,0,0,.28-.617l-1.608-.486.168-.561,2.206.654-.8,2.636-.43-.131.019-.673A1.974,1.974,0,0,1,182.953,574.509Z" transform="translate(-180.13 -568.882)"/>
                    <path id="Path_21492" data-name="Path 21492" class="cls-2" d="M183.594,574.288l-.5-.15v-.093l.019-.449a1.845,1.845,0,0,1-.766.243H182.1a2.5,2.5,0,0,1-.748-.112h0a2.55,2.55,0,0,1-.991-.542h0a2.641,2.641,0,0,1-.617-.823h0a2.576,2.576,0,0,1-.243-.991h0v-.15h0a2.98,2.98,0,0,1,.131-.9h0a4,4,0,0,1,.486-1.028h0a2.658,2.658,0,0,1,.748-.766h0a2.228,2.228,0,0,1,.972-.393h0a2.285,2.285,0,0,1,.355-.037h0a2.492,2.492,0,0,1,.8.131h0a3.17,3.17,0,0,1,.766.336h0a2.676,2.676,0,0,1,.6.524h0a1.917,1.917,0,0,1,.337.71h0a2.321,2.321,0,0,1,.056.5h0c0,.131-.019.243-.019.355h0l-.019.15-.131-.037-.766-.224.019-.093v-.187h0a1.648,1.648,0,0,0-.037-.318h0a.988.988,0,0,0-.206-.393h0a1.121,1.121,0,0,0-.355-.3h0a1.939,1.939,0,0,0-.486-.224h0a1.655,1.655,0,0,0-.5-.075h0a.726.726,0,0,0-.28.037h0a1.537,1.537,0,0,0-.636.3h0a2.392,2.392,0,0,0-.486.561h0a3.191,3.191,0,0,0-.318.729h0a2.467,2.467,0,0,0-.112.729h-.056l.056.019a1.689,1.689,0,0,0,.131.692h0a1.555,1.555,0,0,0,.374.561h0a1.413,1.413,0,0,0,.636.355h0a1.945,1.945,0,0,0,.542.093h.15a1.179,1.179,0,0,0,.561-.187h0a1.234,1.234,0,0,0,.43-.393h0a1.842,1.842,0,0,0,.243-.467h0l-1.608-.486.037-.112.206-.673,2.43.729-.86,2.879-.093-.037Zm-.262-.916-.019.58.224.056.729-2.411L182.3,571l-.093.336,1.608.486-.037.112a1.906,1.906,0,0,1-.3.654h0a2.006,2.006,0,0,1-.5.467h0a1.5,1.5,0,0,1-.654.206h0c-.056,0-.112.019-.168.019h0a2.6,2.6,0,0,1-.617-.094h0a1.732,1.732,0,0,1-.729-.411h0a1.9,1.9,0,0,1-.43-.654h0a2.132,2.132,0,0,1-.15-.748h0v-.056h0a2.979,2.979,0,0,1,.112-.8h0a4.223,4.223,0,0,1,.355-.785h0a2.473,2.473,0,0,1,.542-.617h0a1.637,1.637,0,0,1,.729-.336h0a2.062,2.062,0,0,1,.336-.037h0a2.2,2.2,0,0,1,.58.094h0a2.39,2.39,0,0,1,.542.243h0a1.529,1.529,0,0,1,.411.355h0a1.088,1.088,0,0,1,.243.486h0a1.205,1.205,0,0,1,.056.374h0v.112h0l.43.131v-.187h0a1.636,1.636,0,0,0-.056-.449h0a1.724,1.724,0,0,0-.3-.617h0a2.526,2.526,0,0,0-.523-.467h0a2.732,2.732,0,0,0-.71-.318h0a2.661,2.661,0,0,0-.729-.112h0a1.707,1.707,0,0,0-.318.019h0a2.128,2.128,0,0,0-.879.355h0a2.634,2.634,0,0,0-.673.692h0a4.447,4.447,0,0,0-.449.953h0a3.114,3.114,0,0,0-.112.823h0v.131h0a2.635,2.635,0,0,0,.224.916h0a2.638,2.638,0,0,0,.542.748h0a2.581,2.581,0,0,0,.9.486h0a2.541,2.541,0,0,0,.673.094h0a.911.911,0,0,0,.224-.019h0a1.611,1.611,0,0,0,.841-.318h0l.206-.15-.093.262Z" transform="translate(-179.5 -568.1)"/>
                  </g>
                  <g id="Group_17838" data-name="Group 17838" transform="translate(31.014 55.073)">
                    <path id="Path_21493" data-name="Path 21493" class="cls-2" d="M212.938,579.628a2.179,2.179,0,0,1-1.589.28,2.357,2.357,0,0,1-1.5-.71,1.821,1.821,0,0,1-.337-1.589L210,574.3l.692.094-.486,3.309a1.385,1.385,0,0,0,.224,1.1,1.51,1.51,0,0,0,1.009.523,1.287,1.287,0,0,0,1.047-.224,1.533,1.533,0,0,0,.5-1.01l.486-3.309.692.094-.486,3.309A1.993,1.993,0,0,1,212.938,579.628Z" transform="translate(-209.349 -574.169)"/>
                    <path id="Path_21494" data-name="Path 21494" class="cls-2" d="M210.782,579.451a2.406,2.406,0,0,1-1.57-.748h0a1.774,1.774,0,0,1-.411-1.215h0a3.935,3.935,0,0,1,.037-.467h0l.5-3.421.112.019.8.112-.5,3.421a1.712,1.712,0,0,0-.019.3h0a1.078,1.078,0,0,0,.224.71h0a1.32,1.32,0,0,0,.935.467h0a1.416,1.416,0,0,0,.28.019h0a1.167,1.167,0,0,0,.692-.206h0a1.385,1.385,0,0,0,.449-.935h0l.486-3.421.112.019.8.112-.5,3.421a2.009,2.009,0,0,1-.8,1.5h0l-.075-.093.075.093a2.032,2.032,0,0,1-1.178.337h0a1.907,1.907,0,0,1-.449-.019Zm-1.7-2.393a3.637,3.637,0,0,0-.037.449h0a1.583,1.583,0,0,0,.337,1.066h0a2.254,2.254,0,0,0,1.421.654h0a3.959,3.959,0,0,0,.449.037h0a1.694,1.694,0,0,0,1.047-.3h0a1.862,1.862,0,0,0,.692-1.327h0l.449-3.2-.449-.056-.467,3.2a1.634,1.634,0,0,1-.542,1.084h0a1.35,1.35,0,0,1-.823.262h0a1.924,1.924,0,0,1-.318-.019h0a1.606,1.606,0,0,1-1.084-.561h0a1.216,1.216,0,0,1-.262-.86h0a2.034,2.034,0,0,1,.019-.336h0l.467-3.2-.449-.056-.449,3.159Z" transform="translate(-208.8 -573.6)"/>
                  </g>
                  <g id="Group_17839" data-name="Group 17839" transform="translate(35.5 55.727)">
                    <path id="Path_21495" data-name="Path 21495" class="cls-2" d="M236.779,577.719l1.963,5.272-.766-.019-.542-1.589-2.206-.037-.617,1.57-.71-.019,2.131-5.2Zm.43,3.066-.841-2.449h-.019l-.916,2.43Z" transform="translate(-233.694 -577.588)"/>
                    <path id="Path_21496" data-name="Path 21496" class="cls-2" d="M237.829,582.615l-.86-.019-.542-1.57-2.038-.037-.617,1.57h-.093l-.879-.019,2.225-5.44h.093l.766.019v0h.075l2.056,5.515-.187-.019Zm-1.215-1.832.542,1.589.5.019-1.869-5.029-.6-.019-2.038,4.954h.449l.617-1.57,2.393.056Zm-2.243-.393,1.01-2.673h.168l.86,2.542-.112.037v0l.112-.037.056.168-2.094-.037Zm.336-.224,1.421.019-.673-2-.748,1.982Z" transform="translate(-232.8 -577.1)"/>
                  </g>
                  <g id="Group_17840" data-name="Group 17840" transform="translate(40.529 55.447)">
                    <path id="Path_21497" data-name="Path 21497" class="cls-2" d="M262.357,576.372a2.729,2.729,0,0,1,1.926.374,2.427,2.427,0,0,1,.879,1.776,4.134,4.134,0,0,1,0,1.178,2.33,2.33,0,0,1-.337.916,1.894,1.894,0,0,1-.71.617,2.732,2.732,0,0,1-1.1.318l-1.776.224-.636-5.2Zm.636,4.617a2.936,2.936,0,0,1,.3-.056,1.667,1.667,0,0,0,.355-.131,1.165,1.165,0,0,0,.355-.262,1.283,1.283,0,0,0,.3-.393,1.732,1.732,0,0,0,.187-.6,3.014,3.014,0,0,0,0-.823,3.534,3.534,0,0,0-.206-.823,1.416,1.416,0,0,0-.374-.58,1.629,1.629,0,0,0-.58-.336,2.316,2.316,0,0,0-.823-.037l-1.159.149.5,4.038Z" transform="translate(-260.432 -576.204)"/>
                    <path id="Path_21498" data-name="Path 21498" class="cls-2" d="M259.7,575.88l1.907-.243c.187-.019.355-.037.523-.037h0a2.61,2.61,0,0,1,1.5.43h0a2.58,2.58,0,0,1,.935,1.87h0c.019.224.037.43.037.636h0a5.666,5.666,0,0,1-.037.579h0a2.372,2.372,0,0,1-.374.953h0a1.869,1.869,0,0,1-.766.654h0a3.274,3.274,0,0,1-1.14.337h0l-1.907.243-.673-5.421Zm.28.224.617,4.954,1.664-.206a2.972,2.972,0,0,0,1.066-.318h0a2.05,2.05,0,0,0,.673-.579h0a2.365,2.365,0,0,0,.336-.86h0a4.935,4.935,0,0,0,.037-.542h0c0-.187-.019-.393-.037-.6h0a2.391,2.391,0,0,0-.841-1.7h0a2.208,2.208,0,0,0-1.346-.392h0a4.607,4.607,0,0,0-.486.037h0l-1.682.206Zm.486.28,1.29-.168a2.508,2.508,0,0,1,.374-.019h0a2.087,2.087,0,0,1,.5.056h0a1.518,1.518,0,0,1,.636.355h0a1.966,1.966,0,0,1,.411.636h0a3.416,3.416,0,0,1,.206.86h0a4.072,4.072,0,0,1,.019.468h0a2.763,2.763,0,0,1-.019.392h0a2.835,2.835,0,0,1-.187.636h0a1.564,1.564,0,0,1-.336.43h0a1.594,1.594,0,0,1-.393.262h0a3.371,3.371,0,0,1-.393.15h0a2.611,2.611,0,0,1-.3.056h0l-1.271.15-.542-4.262Zm1.309.075-1.047.131.467,3.795,1.028-.131q.112-.028.28-.056h0a1.549,1.549,0,0,0,.336-.131h0a1.759,1.759,0,0,0,.336-.224h0a1.073,1.073,0,0,0,.28-.355h0a1.991,1.991,0,0,0,.168-.561h0a2.146,2.146,0,0,0,.019-.355h0c0-.131-.019-.28-.019-.449h0a2.848,2.848,0,0,0-.187-.785h0a1.439,1.439,0,0,0-.355-.542h0a1.131,1.131,0,0,0-.523-.3h0a1.637,1.637,0,0,0-.449-.056h0a2.255,2.255,0,0,0-.336.019Z" transform="translate(-259.7 -575.6)"/>
                  </g>
                  <g id="Group_17841" data-name="Group 17841" transform="translate(45.95 54.512)">
                    <path id="Path_21499" data-name="Path 21499" class="cls-2" d="M290.783,571.3l3.309,4.543-.748.187-.953-1.383-2.131.58-.168,1.664-.692.187.617-5.59Zm1.234,2.842-1.458-2.131h-.019l-.224,2.58Z" transform="translate(-289.269 -571.169)"/>
                    <path id="Path_21500" data-name="Path 21500" class="cls-2" d="M289.354,570.843l.075-.019.748-.206.075-.019,3.458,4.748-.168.056-.823.224-.953-1.383-1.982.523-.15,1.682-.935.243.654-5.851Zm.206.168-.6,5.328.43-.112.168-1.682,2.3-.617.953,1.383.486-.131-3.178-4.318-.561.15Zm.3.336.075-.019.093-.019,1.514,2.206-.094.056.094-.056.093.15-2.038.542.262-2.86Zm.019,2.524,1.383-.374-1.2-1.739-.187,2.112Z" transform="translate(-288.7 -570.6)"/>
                  </g>
                  <g id="Group_17842" data-name="Group 17842" transform="translate(49.39 53.596)">
                    <path id="Path_21501" data-name="Path 21501" class="cls-2" d="M308.554,566.5l1.739,4.318,2.561-1.028.224.542-3.215,1.29-1.963-4.861Z" transform="translate(-307.75 -566.35)"/>
                    <path id="Path_21502" data-name="Path 21502" class="cls-2" d="M307.1,566.055l.112-.056.654-.262.112-.037,1.739,4.318,2.58-1.028.037.112.262.654-3.44,1.383-2.056-5.085Zm.318.131,1.869,4.636,2.991-1.2-.131-.318-2.58,1.047-1.739-4.318-.411.15Z" transform="translate(-307.1 -565.7)"/>
                  </g>
                  <g id="Group_17843" data-name="Group 17843" transform="translate(54.437 51.222)">
                    <path id="Path_21503" data-name="Path 21503" class="cls-2" d="M335.454,553.7l4.356,3.533-.673.374-1.271-1.084-1.926,1.1.28,1.664-.617.355-.8-5.571Zm1.944,2.43-1.963-1.682h-.019l.43,2.561Z" transform="translate(-334.669 -553.569)"/>
                    <path id="Path_21504" data-name="Path 21504" class="cls-2" d="M334.1,553.449l.075-.037.673-.374.075-.037,4.561,3.7-.9.5-1.271-1.084-1.776,1.009.262,1.664-.841.486-.86-5.833Zm.243.131.785,5.309.393-.224L335.259,557l2.075-1.178,1.271,1.084.43-.262-4.169-3.384-.523.318Zm.374.243.075-.037.094-.037,2.019,1.739-.075.093.075-.093.131.112-1.832,1.047-.486-2.823Zm.654,2.43,1.253-.71-1.608-1.383.355,2.094Z" transform="translate(-334.1 -553)"/>
                  </g>
                  <g id="Group_17844" data-name="Group 17844" transform="translate(58.718 48.306)">
                    <path id="Path_21505" data-name="Path 21505" class="cls-2" d="M361.059,541.989a1.612,1.612,0,0,1,.075.523,1.256,1.256,0,0,1-.187.542,2.014,2.014,0,0,1-.523.542,1.58,1.58,0,0,1-1.14.374,1.477,1.477,0,0,1-.991-.673l-.187-.262.561-.411.131.187c.093.112.187.224.28.318a.878.878,0,0,0,.3.187.687.687,0,0,0,.337.019.881.881,0,0,0,.374-.187.748.748,0,0,0,.374-.6,1.273,1.273,0,0,0-.262-.654l-2.3-3.066.561-.43,2.355,3.141A1.465,1.465,0,0,1,361.059,541.989Z" transform="translate(-357.732 -538.213)"/>
                    <path id="Path_21506" data-name="Path 21506" class="cls-2" d="M358.533,543.27a1.59,1.59,0,0,1-1.066-.71h0l-.262-.355.748-.561.075.093.131.168a2.145,2.145,0,0,0,.262.3h0a.784.784,0,0,0,.262.168h0a.352.352,0,0,0,.15.037h0a.236.236,0,0,0,.112-.019h0a.933.933,0,0,0,.337-.168h0c.224-.187.318-.336.318-.486h0a1.127,1.127,0,0,0-.243-.6h0L357,537.961l.748-.561,2.43,3.253a1.754,1.754,0,0,1,.262.486h0l-.112.037-.112.037a1.886,1.886,0,0,0-.224-.43h0l-2.281-3.047-.374.28,2.225,2.972a1.194,1.194,0,0,1,.28.729h0v.037h0a.884.884,0,0,1-.411.654h0a.91.91,0,0,1-.43.206h0c-.056,0-.112.019-.168.019h0a1.091,1.091,0,0,1-.243-.037h0a.91.91,0,0,1-.336-.206h0a2.661,2.661,0,0,1-.28-.336h0l-.056-.075-.355.28.112.15a1.4,1.4,0,0,0,.916.617h.131a1.58,1.58,0,0,0,.916-.355h0a1.739,1.739,0,0,0,.486-.5h0a1.374,1.374,0,0,0,.168-.486h0v-.093h0a.891.891,0,0,0-.075-.374h0l.112-.037.112-.037a1.255,1.255,0,0,1,.075.449h0v.112h0a1.275,1.275,0,0,1-.206.6h0a2.229,2.229,0,0,1-.542.579h0a1.821,1.821,0,0,1-1.066.411h0a.516.516,0,0,0-.168-.019Z" transform="translate(-357 -537.4)"/>
                  </g>
                  <g id="Group_17845" data-name="Group 17845" transform="translate(61.055 46.231)">
                    <path id="Path_21507" data-name="Path 21507" class="cls-2" d="M370.842,527.1l5.1,2.374-.561.523-1.5-.748-1.608,1.533.673,1.552-.5.486-2.15-5.2Zm2.486,1.869-2.318-1.159h0l1.047,2.374Z" transform="translate(-370.151 -526.95)"/>
                    <path id="Path_21508" data-name="Path 21508" class="cls-2" d="M369.5,526.936l.617-.579.056-.056,5.328,2.468-.748.71-1.5-.748-1.477,1.421.654,1.552-.692.673-2.243-5.44Zm.28.075,2.056,4.954.318-.318-.673-1.552,1.72-1.645,1.5.748.374-.355-4.86-2.262-.43.43Zm.411.131.056-.056.075-.075,2.393,1.2-.056.112.056-.112.15.075-1.533,1.458-1.14-2.6Zm1.234,2.206,1.028-.991-1.888-.953.86,1.944Z" transform="translate(-369.5 -526.3)"/>
                  </g>
                  <g id="Group_17846" data-name="Group 17846" transform="translate(63.093 42.118)">
                    <path id="Path_21509" data-name="Path 21509" class="cls-2" d="M382.852,505.593a1.8,1.8,0,0,1,1.009-.692,1.245,1.245,0,0,1,1.047.3,1.839,1.839,0,0,1,.523.692,1.11,1.11,0,0,1-.056.841h.019a.764.764,0,0,1,.337-.187.685.685,0,0,1,.336-.019,2.263,2.263,0,0,1,.337.093l.336.168c.093.075.206.15.318.224s.206.15.318.224l.337.168a1.059,1.059,0,0,0,.336.056l-.486.6a.5.5,0,0,1-.224-.056c-.075-.056-.168-.093-.262-.168s-.187-.15-.3-.224a3.219,3.219,0,0,0-.336-.206l-.336-.168a.983.983,0,0,0-.318-.075.614.614,0,0,0-.318.075.933.933,0,0,0-.318.262l-1.066,1.327,1.757,1.4-.43.542-4.113-3.253Zm1.944,1.365a1.083,1.083,0,0,0,.131-.393.954.954,0,0,0-.056-.393,1.052,1.052,0,0,0-.3-.374.823.823,0,0,0-1.271.168l-1.084,1.346,1.421,1.14.9-1.14A1.746,1.746,0,0,0,384.8,506.958Z" transform="translate(-381.132 -504.77)"/>
                    <path id="Path_21510" data-name="Path 21510" class="cls-2" d="M380.4,507.067l1.608-2.019a1.825,1.825,0,0,1,1.084-.729h0a1.066,1.066,0,0,1,.243-.019h0a1.412,1.412,0,0,1,.9.337h0a1.8,1.8,0,0,1,.561.748h0a1.458,1.458,0,0,1,.075.393h0c0,.075-.019.168-.019.243h0l.112-.056h0a1.263,1.263,0,0,1,.262-.037h.131a1.128,1.128,0,0,1,.355.112h0c.112.056.224.112.355.187h0c.112.075.206.15.318.224h0a1.844,1.844,0,0,0,.318.206h0a2.441,2.441,0,0,0,.318.15h0a.75.75,0,0,0,.28.056h.262l-.673.841h-.075a.429.429,0,0,1-.262-.075h0l-.28-.168h0c-.094-.075-.187-.15-.3-.224h0c-.093-.075-.206-.131-.318-.206h0c-.112-.056-.224-.112-.318-.168h0a.829.829,0,0,0-.28-.056h-.019a.575.575,0,0,0-.243.056h0a.97.97,0,0,0-.28.243h0l-.991,1.234,1.757,1.4-.58.729-4.3-3.4Zm.336-.037,3.907,3.122.28-.355-1.739-1.383,1.14-1.421a.871.871,0,0,1,.355-.3h0a.758.758,0,0,1,.355-.075h.019a.919.919,0,0,1,.374.093h0l.336.168h0a1.321,1.321,0,0,1,.336.224h0c.112.075.206.15.3.224h0a1.227,1.227,0,0,0,.243.15h0a.476.476,0,0,0,.131.037h0l.318-.393a.483.483,0,0,1-.15-.056h0a1.529,1.529,0,0,1-.355-.168h0l-.337-.224h0c-.112-.075-.206-.15-.318-.224h0a1.762,1.762,0,0,0-.318-.168h0a.8.8,0,0,0-.3-.093h-.093a.663.663,0,0,0-.187.037h0a.7.7,0,0,0-.3.168h0l-.075.056-.075-.056-.075-.056.037-.075a1.073,1.073,0,0,0,.093-.449h0a.775.775,0,0,0-.056-.3h0a1.421,1.421,0,0,0-.486-.636h0a1.163,1.163,0,0,0-.748-.3h0c-.075,0-.131.019-.206.019h0a1.492,1.492,0,0,0-.935.636h0l-1.477,1.795Zm.561-.131,1.159-1.439a1.079,1.079,0,0,1,.71-.449h.056a1.052,1.052,0,0,1,.673.262h0a1.129,1.129,0,0,1,.337.411h0a1.093,1.093,0,0,1,.075.355h0v.094h0a1.15,1.15,0,0,1-.131.43h0c-.075.131-.168.262-.262.393h0l-.972,1.234L381.3,506.9Zm1.888-1.664a.8.8,0,0,0-.542.355h0l-1.01,1.271,1.234.991.823-1.047a2.118,2.118,0,0,0,.243-.374h0l.112.056-.112-.056a.6.6,0,0,0,.112-.337h0v-.075h0a.661.661,0,0,0-.056-.262h0a.933.933,0,0,0-.262-.318h0a.885.885,0,0,0-.523-.206h-.019Z" transform="translate(-380.4 -504.3)"/>
                  </g>
                  <g id="Group_17847" data-name="Group 17847" transform="translate(66.794 39.015)">
                    <path id="Path_21511" data-name="Path 21511" class="cls-2" d="M401.393,488.5l5.552.9-.393.673-1.645-.3-1.122,1.907,1.066,1.309-.355.617-3.5-4.449Zm2.879,1.14-2.542-.486v.019l1.664,2Z" transform="translate(-400.85 -488.351)"/>
                    <path id="Path_21512" data-name="Path 21512" class="cls-2" d="M400.2,488.523l.037-.075.393-.673.037-.075,5.814.935-.523.9-1.645-.318-1.028,1.757,1.066,1.309-.486.841-3.664-4.6Zm.28-.019,3.328,4.206.224-.393-1.066-1.309,1.215-2.056,1.645.318.262-.449-5.29-.841-.318.523Zm.449.019.037-.075.056-.093,2.636.5-.019.112.019-.112.168.037-1.066,1.832-1.832-2.206Zm1.776,1.776.729-1.234-2.075-.393,1.346,1.626Z" transform="translate(-400.2 -487.7)"/>
                  </g>
                  <g id="Group_17848" data-name="Group 17848" transform="translate(69.243 32.528)">
                    <path id="Path_21513" data-name="Path 21513" class="cls-2" d="M415.341,454.6a1.449,1.449,0,0,0-.542.748,1.949,1.949,0,0,0-.112.411,1.515,1.515,0,0,0,0,.411.58.58,0,0,0,.168.336.927.927,0,0,0,.374.243.523.523,0,0,0,.411,0,.98.98,0,0,0,.355-.28,4.667,4.667,0,0,0,.337-.449c.112-.168.224-.355.336-.523a5.022,5.022,0,0,1,.374-.5,1.773,1.773,0,0,1,.43-.411,1.14,1.14,0,0,1,.523-.206,1.19,1.19,0,0,1,.654.093,1.334,1.334,0,0,1,.617.411,1.541,1.541,0,0,1,.28.617,2.252,2.252,0,0,1,.019.71,2.318,2.318,0,0,1-.168.71,3.153,3.153,0,0,1-.393.748,2.13,2.13,0,0,1-.542.542,1.534,1.534,0,0,1-.71.243,1.751,1.751,0,0,1-.841-.112l.224-.617a1.275,1.275,0,0,0,.579.075,1.1,1.1,0,0,0,.486-.187,1.421,1.421,0,0,0,.374-.374,1.62,1.62,0,0,0,.262-.5,3.419,3.419,0,0,0,.131-.467,1.8,1.8,0,0,0,0-.449.745.745,0,0,0-.168-.393,1.062,1.062,0,0,0-.393-.28.675.675,0,0,0-.467-.019,1.2,1.2,0,0,0-.393.262,2.809,2.809,0,0,0-.336.449c-.112.168-.224.355-.337.523a5.156,5.156,0,0,1-.355.523,1.713,1.713,0,0,1-.411.411,1.275,1.275,0,0,1-.486.224.972.972,0,0,1-.6-.075,1.518,1.518,0,0,1-.6-.393,1.629,1.629,0,0,1-.3-.561,1.97,1.97,0,0,1-.056-.673,3.052,3.052,0,0,1,.15-.692,3.773,3.773,0,0,1,.336-.673,1.65,1.65,0,0,1,.486-.467,1.42,1.42,0,0,1,.636-.206,2.159,2.159,0,0,1,.748.094l-.224.617A.981.981,0,0,0,415.341,454.6Z" transform="translate(-413.92 -453.63)"/>
                    <path id="Path_21514" data-name="Path 21514" class="cls-2" d="M416.31,457.786l-.112-.037.037-.112.262-.729.112.037a1.108,1.108,0,0,0,.393.075h0a.318.318,0,0,0,.131-.019h0a.869.869,0,0,0,.43-.168h0a1.226,1.226,0,0,0,.336-.355h0a1.692,1.692,0,0,0,.243-.486h0a1.617,1.617,0,0,0,.112-.43h0a.909.909,0,0,0,.019-.224h0a.636.636,0,0,0-.019-.187h0a.557.557,0,0,0-.149-.336h0a.729.729,0,0,0-.355-.224h0a.474.474,0,0,0-.224-.037h0c-.056,0-.112.019-.15.019h0a1.006,1.006,0,0,0-.355.243h0a2.869,2.869,0,0,0-.336.43h0c-.112.168-.224.355-.336.523h0a5.29,5.29,0,0,1-.374.523h0a3.281,3.281,0,0,1-.43.449h0a1.283,1.283,0,0,1-.542.243h0a.636.636,0,0,1-.187.019h0a1.589,1.589,0,0,1-.486-.094h0a1.423,1.423,0,0,1-.636-.43h0a1.984,1.984,0,0,1-.336-.617h0a2.318,2.318,0,0,1-.056-.5h0v-.206h0a2.575,2.575,0,0,1,.168-.729h0a2.409,2.409,0,0,1,.355-.692h0a1.916,1.916,0,0,1,.523-.5h0a1.441,1.441,0,0,1,.673-.224h.15a2.092,2.092,0,0,1,.654.112h0l.131.037-.037.112-.262.729-.112-.019a1.151,1.151,0,0,0-.355-.037h0a.765.765,0,0,0-.467.131h0a1.553,1.553,0,0,0-.5.692h0a1.556,1.556,0,0,0-.112.393h0c0,.056-.019.112-.019.168h0a.577.577,0,0,0,.019.187h0a.648.648,0,0,0,.15.3h0a.851.851,0,0,0,.318.206h0a.554.554,0,0,0,.187.037h0a.579.579,0,0,0,.15-.037h0a.965.965,0,0,0,.318-.243h0a2.569,2.569,0,0,0,.318-.43h0c.112-.168.224-.355.336-.523h0a5.31,5.31,0,0,1,.374-.523h0a1.71,1.71,0,0,1,.467-.43h0a1.3,1.3,0,0,1,.58-.224h0c.056,0,.112-.019.187-.019h0a1.482,1.482,0,0,1,.542.112h0a1.442,1.442,0,0,1,.654.467h0a1.724,1.724,0,0,1,.318.673h0a1.884,1.884,0,0,1,.056.467h0a1.416,1.416,0,0,1-.019.28h0a4.169,4.169,0,0,1-.168.729h0a3.332,3.332,0,0,1-.411.766h0a2.353,2.353,0,0,1-.58.561h0a1.792,1.792,0,0,1-.748.262h-.168a2.655,2.655,0,0,1-.654-.149Zm.71-.112a.411.411,0,0,0,.15-.019h0a1.239,1.239,0,0,0,.636-.224h0a2.221,2.221,0,0,0,.523-.5h0a2.848,2.848,0,0,0,.374-.71h0a4.416,4.416,0,0,0,.168-.673h0a1.233,1.233,0,0,0,.019-.262h0a2.8,2.8,0,0,0-.037-.411h0a1.289,1.289,0,0,0-.262-.561h0a1.166,1.166,0,0,0-.561-.393h0a1.481,1.481,0,0,0-.449-.093h-.131a1.542,1.542,0,0,0-.486.187h0a1.618,1.618,0,0,0-.411.393h0c-.131.168-.243.336-.374.5h0c-.112.187-.224.355-.336.523h0a3.373,3.373,0,0,1-.336.467h0a1.218,1.218,0,0,1-.411.3h0a.513.513,0,0,1-.243.037h0a1.263,1.263,0,0,1-.262-.037h0a1.145,1.145,0,0,1-.43-.28h0a.988.988,0,0,1-.206-.393h0a1.065,1.065,0,0,1-.019-.243h0a.766.766,0,0,1,.019-.206h0a1.971,1.971,0,0,1,.112-.449h0a1.555,1.555,0,0,1,.58-.8h0a1.067,1.067,0,0,1,.6-.168h0a1.639,1.639,0,0,1,.3.037h0l.15-.393a1.4,1.4,0,0,0-.449-.075h-.131a1.622,1.622,0,0,0-.58.187h0a1.406,1.406,0,0,0-.449.43h0a2.917,2.917,0,0,0-.336.635h0a2.759,2.759,0,0,0-.15.654h0v.168h0a1.841,1.841,0,0,0,.056.449h0a1.3,1.3,0,0,0,.28.523h0a1.306,1.306,0,0,0,.542.355h0a1.108,1.108,0,0,0,.393.075h0a.365.365,0,0,0,.15-.019h0a.989.989,0,0,0,.449-.206h0a2.777,2.777,0,0,0,.393-.411h0c.131-.168.243-.336.355-.5h0c.112-.187.224-.355.336-.523h0a2.357,2.357,0,0,1,.355-.467h0a1.281,1.281,0,0,1,.43-.3h0a.552.552,0,0,1,.243-.037h0a.95.95,0,0,1,.318.056h0a.9.9,0,0,1,.449.318h0a.96.96,0,0,1,.187.449h0c0,.075.019.149.019.224h0a1.15,1.15,0,0,1-.019.262h0a2.07,2.07,0,0,1-.131.486h0a2.976,2.976,0,0,1-.28.542h0a1.718,1.718,0,0,1-.411.411h0a1.264,1.264,0,0,1-.542.206h0c-.056,0-.112.019-.15.019h0a1.174,1.174,0,0,1-.355-.056h0l-.15.393a.925.925,0,0,0,.5.131Z" transform="translate(-413.3 -453)"/>
                  </g>
                  <g id="Group_17849" data-name="Group 17849" transform="translate(74.571 32.004)">
                    <path id="Path_21515" data-name="Path 21515" class="cls-2" d="M442.806,450.9l.785.224-.206.785-.785-.206Z" transform="translate(-442.451 -450.769)"/>
                    <path id="Path_21516" data-name="Path 21516" class="cls-2" d="M441.8,451.21l.037-.112.206-.785.037-.112,1.009.28-.262,1.01-1.028-.28Zm.3-.168.542.15.15-.561-.542-.149-.15.561Z" transform="translate(-441.8 -450.2)"/>
                  </g>
                  <g id="Group_17850" data-name="Group 17850" transform="translate(71.057 26.452)">
                    <path id="Path_21517" data-name="Path 21517" class="cls-2" d="M423.993,422.559l5.515-1.159-.131.767-1.645.3-.355,2.187,1.458.841-.112.692-4.823-2.86Zm3.1.019-2.542.467v.019l2.262,1.271Z" transform="translate(-423.732 -421.232)"/>
                    <path id="Path_21518" data-name="Path 21518" class="cls-2" d="M423,422.631v-.075l.131-.766.019-.075,5.739-1.215-.019.168-.15.841-1.645.3-.336,2.019,1.458.841-.019.093-.131.879L423,422.631Zm.262-.112,4.617,2.729.075-.449-1.458-.841.393-2.337,1.645-.3.093-.5-5.253,1.1-.112.6Zm.43-.131.019-.075.019-.093,2.636-.467.168-.037-.355,2.094-2.486-1.421Zm2.3,1.01.224-1.421-2.075.374,1.851,1.047Z" transform="translate(-423 -420.5)"/>
                  </g>
                  <g id="Group_17851" data-name="Group 17851" transform="translate(75.861 24.957)">
                    <path id="Path_21519" data-name="Path 21519" class="cls-2" d="M449.456,413.1l.8.056-.056.823-.8-.056Z" transform="translate(-449.269 -412.988)"/>
                    <path id="Path_21520" data-name="Path 21520" class="cls-2" d="M449.635,413.6l-.935-.075.019-.112.056-.8V412.5h.112l.935.056-.019.112-.056.935Zm-.673-.3.58.037.037-.579-.58-.037-.037.58Z" transform="translate(-448.7 -412.5)"/>
                  </g>
                  <g id="Group_17852" data-name="Group 17852" transform="translate(71.543 18.246)">
                    <path id="Path_21521" data-name="Path 21521" class="cls-2" d="M426.178,380.007a2.676,2.676,0,0,1,.5-1.888,2.5,2.5,0,0,1,1.851-.748,4.746,4.746,0,0,1,1.178.075,1.918,1.918,0,0,1,.879.411,2.118,2.118,0,0,1,.579.748,2.839,2.839,0,0,1,.243,1.122l.094,1.795-5.234.3Zm4.655-.318a2.556,2.556,0,0,0-.037-.3,1.674,1.674,0,0,0-.112-.374,1.53,1.53,0,0,0-.224-.374,1.649,1.649,0,0,0-.374-.336,2.083,2.083,0,0,0-.579-.224,2.8,2.8,0,0,0-.823-.056,4.974,4.974,0,0,0-.841.131,1.639,1.639,0,0,0-.617.336,1.256,1.256,0,0,0-.355.561,2.215,2.215,0,0,0-.094.823l.056,1.178,4.057-.224Z" transform="translate(-426.066 -377.221)"/>
                    <path id="Path_21522" data-name="Path 21522" class="cls-2" d="M425.6,379.4v-.262h0a2.531,2.531,0,0,1,.542-1.72h0a2.636,2.636,0,0,1,1.925-.8h0c.112,0,.206-.019.3-.019h0a4.556,4.556,0,0,1,.9.093h0a2.263,2.263,0,0,1,.935.43h0a2.06,2.06,0,0,1,.617.8h0a3.114,3.114,0,0,1,.243,1.159h0l.112,1.907-5.459.3L425.6,379.4Zm.336,1.664,4.973-.28-.093-1.664a2.994,2.994,0,0,0-.243-1.084h0a1.759,1.759,0,0,0-.542-.71h0a1.932,1.932,0,0,0-.841-.374h0a4.025,4.025,0,0,0-.841-.075h-.3a2.3,2.3,0,0,0-1.757.71h0a2.389,2.389,0,0,0-.486,1.57h0v.243h0l-.112.019.112-.019.131,1.664Zm.243-1.776c0-.075-.019-.131-.019-.187h0a1.988,1.988,0,0,1,.112-.692h0a1.559,1.559,0,0,1,.411-.617h0a1.589,1.589,0,0,1,.654-.355h0a3.733,3.733,0,0,1,.86-.15h0c.075,0,.168-.019.243-.019h0a3.02,3.02,0,0,1,.617.056h0a2.372,2.372,0,0,1,.617.224h0a1.944,1.944,0,0,1,.411.355h0a1.326,1.326,0,0,1,.243.411h0a1.805,1.805,0,0,1,.112.393h0a2.152,2.152,0,0,1,.037.3h0l.075,1.29-4.3.243-.075-1.253Zm2.038-1.739a3.285,3.285,0,0,0-.8.131h0a1.591,1.591,0,0,0-.58.318h0a1.2,1.2,0,0,0-.336.5h0a1.948,1.948,0,0,0-.094.617h0v.168h0l.056,1.047,3.814-.206-.056-1.028h0a1.944,1.944,0,0,0-.037-.28h0a2.26,2.26,0,0,0-.093-.336h0a1.738,1.738,0,0,0-.206-.355h0a1.069,1.069,0,0,0-.336-.3h0a3,3,0,0,0-.542-.206h0a2.588,2.588,0,0,0-.561-.056h0a.908.908,0,0,0-.224-.019Z" transform="translate(-425.6 -376.6)"/>
                  </g>
                  <g id="Group_17853" data-name="Group 17853" transform="translate(70.589 13.329)">
                    <path id="Path_21523" data-name="Path 21523" class="cls-2" d="M421.2,351.728l.579-.112.561,2.86,1.626-.318-.523-2.673.579-.112.523,2.673,1.776-.336-.561-2.9.579-.112.692,3.571-5.141.991Z" transform="translate(-421.069 -350.625)"/>
                    <path id="Path_21524" data-name="Path 21524" class="cls-2" d="M420.519,351.44l.112-.019.019.112-.019-.112-.112.019-.019-.112.112-.019.692-.131.561,2.86,1.4-.262-.5-2.673.112-.019.692-.131.524,2.673,1.533-.3-.561-2.879.112-.019.692-.131.748,3.814-5.384,1.047-.71-3.72Zm.9,3.384,4.917-.953-.654-3.346-.355.075.561,2.879-2.019.393-.523-2.673-.336.075.523,2.673-1.869.355-.561-2.86-.336.075.654,3.309Z" transform="translate(-420.5 -350.3)"/>
                  </g>
                  <g id="Group_17854" data-name="Group 17854" transform="translate(68.944 6.917)">
                    <path id="Path_21525" data-name="Path 21525" class="cls-2" d="M412.824,318.6a1.54,1.54,0,0,0,.093.991,1.406,1.406,0,0,0,.467.673,1.5,1.5,0,0,0,.636.336,2.482,2.482,0,0,0,.748.056,2.739,2.739,0,0,0,.766-.206,3.2,3.2,0,0,0,.748-.411,1.859,1.859,0,0,0,.523-.561,1.7,1.7,0,0,0,.243-.692,1.893,1.893,0,0,0-.131-.823,1.8,1.8,0,0,0-.337-.523,1.507,1.507,0,0,0-.449-.318,1.431,1.431,0,0,0-.561-.112,2.216,2.216,0,0,0-.6.094l-.262-.654a2.242,2.242,0,0,1,1.682.075,2.191,2.191,0,0,1,1.084,1.271,2.83,2.83,0,0,1,.206,1.066,2.17,2.17,0,0,1-.262.916,2.358,2.358,0,0,1-.636.729,3.029,3.029,0,0,1-.935.523,3.659,3.659,0,0,1-1.066.243,2.886,2.886,0,0,1-.991-.112,2.408,2.408,0,0,1-.841-.5,2.518,2.518,0,0,1-.6-.916,2.868,2.868,0,0,1-.187-.766,2.313,2.313,0,0,1,.056-.729,1.7,1.7,0,0,1,.318-.636,2.311,2.311,0,0,1,.6-.5l.262.654A1.641,1.641,0,0,0,412.824,318.6Z" transform="translate(-412.076 -316.266)"/>
                    <path id="Path_21526" data-name="Path 21526" class="cls-2" d="M413.382,321.066a2.3,2.3,0,0,1-.879-.542h0a2.629,2.629,0,0,1-.617-.953h0a2.4,2.4,0,0,1-.187-.8h0v-.206h0a1.849,1.849,0,0,1,.075-.561h0a1.634,1.634,0,0,1,.336-.673h0a2.269,2.269,0,0,1,.636-.542h0l.112-.056.056.112.3.748-.075.056a1.173,1.173,0,0,0-.542.71h0l-.112-.019.112.019a1.84,1.84,0,0,0-.037.318h0a1.445,1.445,0,0,0,.131.6h0a1.471,1.471,0,0,0,.43.636h0a1.548,1.548,0,0,0,.6.318h0a1.884,1.884,0,0,0,.467.056h0a1.15,1.15,0,0,0,.243-.019h0a2.743,2.743,0,0,0,.748-.187h0a4.518,4.518,0,0,0,.729-.393h0a2.647,2.647,0,0,0,.5-.523h0a1.84,1.84,0,0,0,.224-.636h0v-.131h0a1.527,1.527,0,0,0-.131-.617h0a1.293,1.293,0,0,0-.318-.486h0a1.153,1.153,0,0,0-.411-.28h0a1.454,1.454,0,0,0-.523-.093h0a1.957,1.957,0,0,0-.561.093h0l-.112.037-.337-.879.112-.037A3.415,3.415,0,0,1,415.2,316h0a2.274,2.274,0,0,1,.935.206h0a2.334,2.334,0,0,1,1.159,1.346h0a2.764,2.764,0,0,1,.206.991h0v.131h0a2.172,2.172,0,0,1-.28.972h0a2.4,2.4,0,0,1-.673.766h0a3.52,3.52,0,0,1-.972.542h0a3.944,3.944,0,0,1-1.1.262h-.206a3.078,3.078,0,0,1-.879-.15Zm-1.1-3.589a1.5,1.5,0,0,0-.3.6h0a2.354,2.354,0,0,0-.075.5h0a.7.7,0,0,0,.019.187h0a2.572,2.572,0,0,0,.168.729h0a2.453,2.453,0,0,0,.561.86h0a2.194,2.194,0,0,0,.785.486h0a2.5,2.5,0,0,0,.748.112h.187a2.846,2.846,0,0,0,1.009-.243h0a3.314,3.314,0,0,0,.916-.5h0a2.387,2.387,0,0,0,.617-.692h0a1.911,1.911,0,0,0,.243-.86h0v-.112h0a2.5,2.5,0,0,0-.187-.916h0a2.184,2.184,0,0,0-1.028-1.215h0a2.048,2.048,0,0,0-.841-.168h0a2.56,2.56,0,0,0-.636.075h0l.168.411a1.689,1.689,0,0,1,.523-.075h0a1.619,1.619,0,0,1,.6.112h0a1.494,1.494,0,0,1,.5.337h0a1.606,1.606,0,0,1,.355.579h0a2.017,2.017,0,0,1,.15.71h0v.168h0a1.793,1.793,0,0,1-.262.748h0a2.06,2.06,0,0,1-.561.58h0a3.332,3.332,0,0,1-.766.411h0a2.429,2.429,0,0,1-.8.206h0c-.093,0-.187.019-.262.019h0a2.364,2.364,0,0,1-.523-.056h0a1.574,1.574,0,0,1-.692-.374h0a1.947,1.947,0,0,1-.5-.729h0a1.816,1.816,0,0,1-.131-.692h0a2.527,2.527,0,0,1,.037-.374h0a1.336,1.336,0,0,1,.561-.8h0l-.168-.43a4.268,4.268,0,0,0-.411.411Z" transform="translate(-411.7 -316)"/>
                  </g>
                  <g id="Group_17855" data-name="Group 17855" transform="translate(71.842 5.047)">
                    <path id="Path_21527" data-name="Path 21527" class="cls-2" d="M428.1,307.255l.729-.355.355.729-.729.355Z" transform="translate(-427.932 -306.732)"/>
                    <path id="Path_21528" data-name="Path 21528" class="cls-2" d="M427.256,306.58l.112-.056.056.112-.056-.112-.112.056-.056-.112.935-.467.467.935-.935.467-.411-.823Zm.523.5.523-.262-.262-.5-.5.262.243.5Z" transform="translate(-427.2 -306)"/>
                  </g>
                  <g id="Group_17856" data-name="Group 17856" transform="translate(65.598 2.393)">
                    <path id="Path_21529" data-name="Path 21529" class="cls-2" d="M400.57,293.273l-3.533,4.281-.393-.636,3.1-3.627v-.019l-4.674,1.047-.374-.617,5.44-1.1Z" transform="translate(-394.532 -292.451)"/>
                    <path id="Path_21530" data-name="Path 21530" class="cls-2" d="M395.782,296.249l2.954-3.44-4.431.991-.5-.841,5.7-1.159.449.748-.112.056.112-.056.037.075-3.7,4.468-.5-.841Zm3.346-3.683.056.093-3.1,3.627.243.411,3.365-4.075-.318-.523-5.2,1.066.243.393,4.674-1.047.037.056Z" transform="translate(-393.8 -291.8)"/>
                  </g>
                  <g id="Group_17857" data-name="Group 17857" transform="translate(69.206 0.58)">
                    <path id="Path_21531" data-name="Path 21531" class="cls-2" d="M414.1,283.467l.673-.467.467.673-.673.449Z" transform="translate(-413.913 -282.832)"/>
                    <path id="Path_21532" data-name="Path 21532" class="cls-2" d="M413.175,282.792l.093-.075.075.093-.075-.093-.093.075-.075-.093.86-.6.6.879-.86.6-.523-.785Zm.6.449.467-.336-.336-.467-.467.318.336.486Z" transform="translate(-413.1 -282.1)"/>
                  </g>
                </g>
              </g>
            </g>
          </g>
          <path id="Path_21533" data-name="Path 21533" class="cls-5" d="M255.356,25.353a3.367,3.367,0,0,0-.748-.467A5.234,5.234,0,0,0,253.3,24.4v2.86a7.116,7.116,0,0,0,2.056-1.084c.131-.093.28-.243.28-.393A.611.611,0,0,0,255.356,25.353Z" transform="translate(-205.948 -19.839)"/>
          <path id="Path_21534" data-name="Path 21534" class="cls-5" d="M229.055,40.188V38.3a9.354,9.354,0,0,1-2.636,1.234c-.056.019-4.636,1.271-6.02,4.543l7.066-2A2,2,0,0,0,229.055,40.188Z" transform="translate(-179.198 -31.14)"/>
        </g>
      </g>
    </g>
  </g>
</svg>
