<svg id="Capa_1" data-name="Capa 1" xmlns="http://www.w3.org/2000/svg" viewBox="0 0 90 90"><defs><style>.cls-1{fill:#0a2240;}.cls-2{fill:#fff;}.cls-3{fill:#cb9700;}</style></defs><title>Monterrey-90x90</title><path class="cls-1" d="M43.28,15.13a65,65,0,0,1,12.5,2.92,86.65,86.65,0,0,1,12.67,5.6v1c0,23.43-4.86,37.83-25.17,50.3,0,0-3.25-2-6.27-4.34-15.59-12.11-18.9-25.77-18.9-46v-1a86.65,86.65,0,0,1,12.67-5.6,65,65,0,0,1,12.5-2.92"/><path class="cls-2" d="M31,18.58a63.77,63.77,0,0,1,12.33-2.9,63.77,63.77,0,0,1,12.33,2.9A82.28,82.28,0,0,1,67.9,24v.66c0,20.1-3.28,33.56-18.69,45.53-3,2.32-5.93,4.12-5.93,4.12a71.84,71.84,0,0,1-5.93-4.12c-15.41-12-18.69-25.43-18.69-45.53V24A82.28,82.28,0,0,1,31,18.58"/><polygon class="cls-1" points="50.38 50.73 52.09 45 54.12 50.8 63.38 48.2 57.21 29.88 47.07 29.88 43.28 36.74 39.48 29.88 29.35 29.88 23.18 48.2 32.44 50.8 34.47 45 36.18 50.73 50.38 50.73"/><path class="cls-1" d="M28.24,20.73v7.84L22.13,46.78c-1.47-5.14-2.38-12-2.38-22.15a75.12,75.12,0,0,1,8.49-3.9m0,30.27v8.22A39.77,39.77,0,0,1,23,49.58Zm21.19,1V68.58A66.09,66.09,0,0,1,43.28,73,68.34,68.34,0,0,1,37,68.48V52Zm8.76,7.37V51l5.37-1.49a40.25,40.25,0,0,1-5.37,9.87M49.43,28.57h-3l-3.14,5.76-3.14-5.76H37V18a53.44,53.44,0,0,1,6.28-1.19A51.63,51.63,0,0,1,49.43,18Zm8.76,0V20.68a77,77,0,0,1,8.62,3.95c0,10.25-.94,17.19-2.43,22.36Z"/><polygon class="cls-1" points="37.77 12.14 36.03 13.43 36.7 11.35 34.95 10.07 37.1 10.07 37.77 8 38.43 10.07 40.58 10.07 38.84 11.35 39.51 13.43 37.77 12.14"/><polygon class="cls-1" points="48.9 12.14 47.16 13.43 47.83 11.35 46.09 10.07 48.23 10.07 48.9 8 49.56 10.07 51.71 10.07 49.98 11.35 50.64 13.43 48.9 12.14"/><polygon class="cls-1" points="26.73 15.51 25 16.8 25.66 14.72 23.92 13.44 26.07 13.44 26.73 11.37 27.4 13.44 29.55 13.44 27.81 14.72 28.48 16.8 26.73 15.51"/><polygon class="cls-1" points="59.93 15.51 58.19 16.8 58.86 14.72 57.12 13.44 59.27 13.44 59.93 11.37 60.6 13.44 62.75 13.44 61.01 14.72 61.67 16.8 59.93 15.51"/><polygon class="cls-3" points="32.16 75.21 30.11 76.72 30.89 74.27 28.84 72.76 31.38 72.76 32.16 70.31 32.95 72.76 35.49 72.76 33.44 74.27 34.22 76.72 32.16 75.21"/><polygon class="cls-3" points="54.29 75.35 52.23 76.87 53.02 74.42 50.97 72.9 53.51 72.91 54.29 70.45 55.08 72.91 57.62 72.9 55.56 74.42 56.35 76.87 54.29 75.35"/><polygon class="cls-3" points="43.4 82.48 41.34 84 42.13 81.55 40.07 80.03 42.62 80.03 43.4 77.58 44.19 80.03 46.73 80.03 44.67 81.55 45.46 84 43.4 82.48"/></svg>