<svg id="Capa_1" data-name="Capa 1" xmlns="http://www.w3.org/2000/svg" xmlns:xlink="http://www.w3.org/1999/xlink" viewBox="0 0 90 90"><defs><style>.cls-1{fill:none;}.cls-2{fill:#fff;}.cls-3{fill:#ffe900;}.cls-4{fill:#e13011;}.cls-5{clip-path:url(#clip-path);}.cls-6{clip-path:url(#clip-path-2);}.cls-7{fill:url(#Degradado_sin_nombre_3);}.cls-8{fill:#878587;}.cls-9{fill:#e1452d;}</style><clipPath id="clip-path"><path class="cls-1" d="M37.1,32.49a10.14,10.14,0,0,0,7.1,12.44h0a10.08,10.08,0,0,0,12.39-7.11h0A10.14,10.14,0,0,0,49.5,25.38h0A10.2,10.2,0,0,0,46.84,25h0a10.13,10.13,0,0,0-9.74,7.47"/></clipPath><clipPath id="clip-path-2"><rect class="cls-1" x="35.85" y="24.82" width="22.4" height="21.38"/></clipPath><radialGradient id="Degradado_sin_nombre_3" cx="-289" cy="-162" r="1" gradientTransform="translate(2963.97 1704.8) scale(10.09 10.31)" gradientUnits="userSpaceOnUse"><stop offset="0" stop-color="#fff"/><stop offset="0.21" stop-color="#f8f8f8"/><stop offset="0.5" stop-color="#e5e6e6"/><stop offset="0.86" stop-color="#c6c7c8"/><stop offset="1" stop-color="#b7b9ba"/></radialGradient></defs><title>Morelia-90x90</title><path class="cls-2" d="M59.52,18.15s0,0,0,.07a1.39,1.39,0,0,0,1.18.51,1,1,0,0,0,.31,0h.35a.9.9,0,0,1-.35-.44s0-.06,0-.09,0,0,0,0a1.23,1.23,0,0,0-.82-.88l-.14,0a.44.44,0,0,0-.33.15s0,0,0,0c-.32.4-.25.63-.19.72m-27.62.22a.5.5,0,0,0-.3.09.58.58,0,0,0-.21.35.69.69,0,0,0,.13.48.64.64,0,0,0,.51.28.46.46,0,0,0,.3-.11.51.51,0,0,0,.21-.36.67.67,0,0,0-.64-.73M26.74,31.19a.89.89,0,0,1-.67-.3l-4.18-4.55a.93.93,0,0,1-.17-1,.89.89,0,0,1,.82-.55l2.39-.06-1.05-2.19a.94.94,0,0,1,.12-1,.91.91,0,0,1,.7-.34.67.67,0,0,1,.24,0L30,22.64a3.77,3.77,0,0,1-1.44-1.19,3.86,3.86,0,0,1-.66-3.05,4.41,4.41,0,0,1,1.72-2.69,4.47,4.47,0,0,1,2.62-.87,3.88,3.88,0,0,1,3.16,1.57l.19.27-1.14-3.19a.9.9,0,0,1,.18-.93.92.92,0,0,1,.68-.29,1,1,0,0,1,.24,0l2.72.74-.22-.64a.92.92,0,0,1,.57-1.16l1.62-.56a.76.76,0,0,1,.3-.05.9.9,0,0,1,.85.6l1.49,4.07,2.55-4.94a.92.92,0,0,1,.78-.5h0a.87.87,0,0,1,.76.43l3,4.82,1.15-3.95a.91.91,0,0,1,.88-.65.93.93,0,0,1,.23,0l.94.24a8.2,8.2,0,0,1,2.21.82,2.65,2.65,0,0,1,1.41,2.77A2.44,2.44,0,0,1,55.7,16l.26.77a3.83,3.83,0,0,1,3.36-3l.4,0a5.3,5.3,0,0,1,4,2.37.92.92,0,0,1,0,1.06l-1.06,1.34a.88.88,0,0,1-.71.35l-.15,0h0a1,1,0,0,1,.26.27.91.91,0,0,1,0,1l4.77-1,.19,0a.91.91,0,0,1,.68.31.92.92,0,0,1,.19.9L66.2,25.17l.25,0a.93.93,0,0,1,.46.12l0,0a2.48,2.48,0,0,1,2.26-1.38h.32c2.21.43,2.79,2.8,2.79,4a.92.92,0,0,1-.52.83l-1.36.64a.82.82,0,0,1-.4.1.5.5,0,0,1-.17,0,1,1,0,0,1-.13.27h0a2.5,2.5,0,0,1-2.23,1.4A3.34,3.34,0,0,1,66,30.7l-.09-.07A5.28,5.28,0,0,1,64.09,27v0l-1.27-1.4a.93.93,0,0,1-.15-1l0-.13-.7-.77-.15,0a.76.76,0,0,1-.3.05.89.89,0,0,1-.69-.31L59.61,22a1.18,1.18,0,0,1-.13-.18,4.54,4.54,0,0,1-1.76-.76,4.46,4.46,0,0,1-1.61-2,1,1,0,0,1-.58.2.82.82,0,0,1-.26,0l-2-.58a.91.91,0,0,1-.58-.49.06.06,0,0,1-.06,0,.88.88,0,0,1-.44.12.75.75,0,0,1-.26,0l-1.71-.51a.92.92,0,0,1-.51-.37l-1.77.08h0a.91.91,0,0,1-.81-.51L47,16.89l-1,.05-.05.15a.88.88,0,0,1-.83.6l-1.83.06a1,1,0,0,1-.66.29.69.69,0,0,1-.25,0l-2.73-.77.23.63A.92.92,0,0,1,39.29,19l-1.66.61a.86.86,0,0,1-.7,0,.93.93,0,0,1-.47-.52l-.36-1a4.29,4.29,0,0,1-1.76,4.06,4.36,4.36,0,0,1-2.61.87,4.08,4.08,0,0,1-.61,0,.92.92,0,0,1,.31,1.26l-.94,1.59a.94.94,0,0,1-.79.44.67.67,0,0,1-.24,0l-.13,0,.28.6a1,1,0,0,1,0,.87.92.92,0,0,1-.77.44h-.55l.05,0a.94.94,0,0,1,.12,1.11l-.9,1.49a.87.87,0,0,1-.69.43h-.09M43.11,81a.53.53,0,0,0-.3.11.45.45,0,0,0-.16.2.37.37,0,0,0,0,.18.31.31,0,0,0,.1.25.43.43,0,0,0,.41.2.66.66,0,0,0,.31-.09.48.48,0,0,0,.16-.19.36.36,0,0,0,0-.19.32.32,0,0,0,0-.16.51.51,0,0,0-.17-.2.59.59,0,0,0-.32-.11m.18,3a2.92,2.92,0,0,1-1.5-.39.91.91,0,0,1-.69.31h-.46a.93.93,0,0,1-.76-.39.9.9,0,0,1-.75.39H39a.89.89,0,0,1-.75-.39.93.93,0,0,1-.76.39H37a.92.92,0,0,1-.69-.32.91.91,0,0,1-.21-.75l.53-3.17a.91.91,0,0,1,.9-.77h.15a.9.9,0,0,1,.79.47l.59,1.05.6-1.05a.9.9,0,0,1,.79-.47h.14a.91.91,0,0,1,.84.56,3.52,3.52,0,0,1,.5-.31,2.81,2.81,0,0,1,1.34-.31h0a2.92,2.92,0,0,1,1.65.46,1,1,0,0,1,.64-.39A39.14,39.14,0,0,1,30.24,62.47c0,.11,0,.21,0,.31a14.5,14.5,0,0,0,5.94,11.73.92.92,0,0,1,.35.69.87.87,0,0,1-.29.72L30.4,81.36a.9.9,0,0,1-1.16.07,24.14,24.14,0,0,1-2.95-35.6,76.57,76.57,0,0,1-.4-7.82,49.47,49.47,0,0,1,.21-5.07l0-.36a.92.92,0,0,1,.91-.81h9.47a11.08,11.08,0,0,1,1.86-3.49,10.13,10.13,0,0,1,1.83-1.81s0,0,0,0a2,2,0,0,1,.23-.18l.24-.17s0,0,0,0a11,11,0,0,1,4.14-1.76.92.92,0,0,1,0-.44l.15-1-.73-.69a.91.91,0,0,1-.25-.94.92.92,0,0,1,.72-.64l1-.16.43-.92a.94.94,0,0,1,.81-.52h0a.93.93,0,0,1,.81.49l.46.89,1,.13a.91.91,0,0,1,.75.61.92.92,0,0,1-.21.94l-.7.72.18,1a.93.93,0,0,1,0,.55l.69.16a11.05,11.05,0,0,1,7.58,7.28h9.58a.92.92,0,0,1,.91.87L68,33v0s.08,1.28.08,3.47-.08,5.67-.45,9.43a24,24,0,0,1,6.57,16.55,23.42,23.42,0,0,1-9.64,18.9,1,1,0,0,1-.53.17.93.93,0,0,1-.61-.23l-5.87-5.15a.92.92,0,0,1,.07-1.42,14.3,14.3,0,0,0,6-11.37,7.3,7.3,0,0,0,0-.81c-1.91,4.08-6.17,10.66-15.12,16.4h2.14l.18,0,.19,0h.47a.92.92,0,0,1,.81.5.92.92,0,0,1,.81-.5h.47a.92.92,0,0,1,.92.89l.22-.41a.93.93,0,0,1,.8-.48h.16a.9.9,0,0,1,.8.48l1.71,3.18a.92.92,0,0,1,0,.91c-.16.28.6.44.28.44H56.85a.88.88,0,0,1-.8-.48l-.28-.52h-.38l-.28.53a.92.92,0,0,1-.81.47H47.51a.91.91,0,0,1-.68-.29.91.91,0,0,1-.68.29h-.47a.93.93,0,0,1-.76-.39,2.79,2.79,0,0,1-1.63.47"/><path class="cls-3" d="M46.93,78.26s.06,0,.09-.05c14-8.71,16.59-19.7,16.59-19.7,3.69-10.7,2.92-25.44,2.92-25.44H27.24a74.89,74.89,0,0,0,2.68,25.78s4.46,12.86,17,19.41"/><path class="cls-4" d="M30.49,59.28c.14.35.36.87.67,1.52A40,40,0,0,0,34,65.89,35.94,35.94,0,0,0,46.92,77.81C59,70.27,62.44,61,63.11,58.88l.13-.46v0c2.57-7.46,3-17,3-21.94,0-1.42,0-2.46,0-3H27.59c0,.22,0,.54-.07.95,0,.83-.09,2.06-.09,3.6a76.84,76.84,0,0,0,2.85,20.72s.08.22.21.55M46.77,78.62l.16-.36-.17.35C34.05,72,29.57,59,29.55,59h0a77.58,77.58,0,0,1-2.88-21,48.27,48.27,0,0,1,.2-5l0-.35h40l0,.37s.07,1.3.07,3.39c0,5-.38,14.56-3,22.18C63.85,59.16,61,70,47.25,78.52h0a.49.49,0,0,1-.31.14.53.53,0,0,1-.17,0"/><path class="cls-4" d="M46.85,75.09c11.26-7.8,14.26-16.75,14.84-18.84.07-.3.1-.45.1-.45v0h0a57.1,57.1,0,0,0,2-15.8c0-1.34,0-2.45-.08-3.22,0-.36,0-.65,0-.85h-5.4a11.22,11.22,0,0,1-5.94,9.19,13.21,13.21,0,0,1-5.23,1.51h0a11.46,11.46,0,0,1-10-5.65,14.33,14.33,0,0,1-1.79-5H30c0,.15,0,.36-.05.62,0,.65-.09,1.61-.09,2.87a78.6,78.6,0,0,0,1.9,16.23s0,.15.12.45.22.74.42,1.31A30.28,30.28,0,0,0,34.44,62,39.45,39.45,0,0,0,46.3,74.79Zm0,.46.19-.34Zm-1-.1h0C33.39,66.73,31,55.93,31,55.87A79.52,79.52,0,0,1,29.1,39.48a30.48,30.48,0,0,1,.2-3.93l.05-.33h6.7l0,.35s0,.14.06.41.12.65.24,1.12a13.73,13.73,0,0,0,1.43,3.44c1.51,2.52,4.21,5.06,9.32,5.28l.38,0c.26,0,.64-.09,1.1-.18A12.79,12.79,0,0,0,52,44.4c2.51-1.34,5.1-3.87,5.58-8.93l0-.34h6.81l0,.35s.15,1.77.15,4.49a58.18,58.18,0,0,1-2,16c-.11.53-2.51,11-15.46,19.89l-.2.13Z"/><path class="cls-4" d="M63.84,80.58a22.46,22.46,0,0,0,9.27-18.17,22.92,22.92,0,0,0-13.48-21L47,53.83,34.33,41.36a22.24,22.24,0,0,0-13.75,21,22.79,22.79,0,0,0,9.05,18.37l5.84-5.44a15.48,15.48,0,0,1-6.3-12.47,14.65,14.65,0,0,1,4.07-10L47,66.16,60.51,53A15,15,0,0,1,58,75.43Z"/><g class="cls-5"><g class="cls-6"><rect class="cls-7" x="35.85" y="24.82" width="22.4" height="21.38"/></g></g><path d="M43.33,42.94l3.54-1.65,3.75,1.47L49,45.06a9.8,9.8,0,0,1-4.14,0Z"/><polygon points="42.93 34.28 44.48 30 49.23 29.99 50.62 34.17 46.84 36.95 42.93 34.28"/><path d="M36.93,33.25l2.57,2.64,0,4.31L38,40a9.93,9.93,0,0,1-1.08-6.76"/><path d="M54.34,40.07l-.05-3.9,2.44-3.11a9.72,9.72,0,0,1-1.11,7Z"/><path d="M44.75,25.26,42.36,27.6l-3.78,1.76a9.93,9.93,0,0,1,6.17-4.1"/><path d="M49.17,25.31l2,2.18,3.94,1.88a10,10,0,0,0-5.95-4.06"/><polygon class="cls-8" points="39.5 35.87 42.92 34.27 42.94 34.3 39.51 35.9 39.5 35.87"/><polygon class="cls-8" points="46.82 36.92 46.87 41.25 46.89 41.25 46.85 36.92 46.82 36.92"/><polygon class="cls-8" points="39.53 40.23 39.55 40.2 43.27 42.87 43.26 42.9 39.53 40.23"/><polygon class="cls-8" points="50.62 42.75 54.32 40.07 54.34 40.09 50.64 42.77 50.62 42.75"/><polygon class="cls-8" points="50.6 34.18 50.62 34.16 54.3 36.15 54.29 36.18 50.6 34.18"/><polygon class="cls-8" points="49.22 29.98 51.17 27.48 51.19 27.5 49.24 30 49.22 29.98"/><polygon class="cls-8" points="42.36 27.61 42.37 27.6 44.49 29.99 44.47 30.01 42.36 27.61"/><polygon points="40.43 79.83 40.29 79.83 38.91 82.28 37.52 79.83 37.38 79.83 36.85 83 37.31 83 37.64 80.92 38.81 83 38.98 83 40.16 80.93 40.49 83 40.96 83 40.43 79.83"/><path d="M44.56,81.42a1.09,1.09,0,0,1-.19.63,1.25,1.25,0,0,1-.51.45,1.6,1.6,0,0,1-.73.16,1.42,1.42,0,0,1-1-.36,1.11,1.11,0,0,1-.41-.87,1.16,1.16,0,0,1,.18-.63,1.3,1.3,0,0,1,.53-.45,1.4,1.4,0,0,1,.7-.18,1.55,1.55,0,0,1,.73.18,1.25,1.25,0,0,1,.51.45,1,1,0,0,1,.19.62m-.07-1.18a2,2,0,0,0-1.37-.49,2,2,0,0,0-.94.23,1.63,1.63,0,0,0-.69.61,1.5,1.5,0,0,0-.25.84,1.47,1.47,0,0,0,.55,1.17,2,2,0,0,0,1.36.48h0a2,2,0,0,0,1.34-.48,1.52,1.52,0,0,0,0-2.36"/><path d="M46.55,81.18H46v-.92h.57a1.8,1.8,0,0,1,.5,0,.57.57,0,0,1,.22.16.39.39,0,0,1,0,.5.56.56,0,0,1-.23.16,1.9,1.9,0,0,1-.51.06m.16.41a2.17,2.17,0,0,0,.58-.1.85.85,0,0,0,.42-.31.8.8,0,0,0,.15-.47.72.72,0,0,0-.22-.55,1,1,0,0,0-.53-.28,4.77,4.77,0,0,0-.81,0h-.76V83H46V81.59h.11L47.37,83H48Z"/><polygon points="50.49 80.25 50.49 79.83 48.37 79.83 48.37 83 50.48 83 50.48 82.59 48.84 82.59 48.84 81.5 50.48 81.51 50.48 81.09 48.84 81.09 48.84 80.25 50.49 80.25"/><polygon points="51.33 82.59 51.33 79.83 50.86 79.83 50.86 83 52.69 83 52.69 82.59 51.33 82.59"/><rect x="52.96" y="79.83" width="0.47" height="3.17"/><polygon class="cls-9" points="46.18 21.27 46.81 19.92 47.5 21.25 48.97 21.43 47.93 22.49 48.21 23.95 46.88 23.29 45.58 24.01 45.8 22.54 44.72 21.52 46.18 21.27"/><polygon points="26.59 30.28 22.42 25.72 26.23 25.63 24.55 22.16 30.5 23.76 29.56 25.34 27.48 24.77 28.64 27.17 26.01 27.2 27.49 28.78 26.59 30.28"/><polygon points="35.17 13.18 37.17 18.78 38.83 18.17 38.01 15.86 42.44 17.12 40.4 11.54 38.78 12.1 39.55 14.36 35.17 13.18"/><path d="M45.67,14.71l.5-1.09.59,1.07Zm.44-3.94L43,16.84l1.95-.06.26-.73L47.4,16l.34.65,2-.1Z"/><path d="M64.15,23.12l-.69-.84L64.62,22Zm-4-1.7,1.27,1.46.74-.26,1.49,1.68-.29.66,1.31,1.47L66.82,20Z"/><path d="M54,14s-.11.74-1,.35l.32-1.1s.88.08.71.75m.88-1.59a7,7,0,0,0-2-.72l-.94-.25-1.61,5.51,1.71.51.6-2.13.73,2.5,2,.59-1-2.91a1.69,1.69,0,0,0,1.42-1.3,1.82,1.82,0,0,0-1-1.8"/><path d="M61.78,18s0,0,0-.05a2.17,2.17,0,0,0-1.47-1.53,1.37,1.37,0,0,0-1.44.48,1.43,1.43,0,0,0-.15,1.92,2.47,2.47,0,0,0,2.4.84L60,21a3.75,3.75,0,0,1-1.91-.67,3,3,0,0,1-1.48-3,2.91,2.91,0,0,1,2.6-2.63c2.2-.23,3.59,1.92,3.59,1.92l-1,1.34"/><path d="M71.27,27.92s0-2.69-2-3.09A1.61,1.61,0,0,0,67.52,26a4.47,4.47,0,0,0-.09,1.59s.1,1.29-.62.82c0,0-.57-.52-.5-2.32L64.86,27a4.31,4.31,0,0,0,1.43,3,1.75,1.75,0,0,0,2.52-.63,4.15,4.15,0,0,0,.25-1.78,3.26,3.26,0,0,1,0-.73.25.25,0,0,1,.35-.22s.27,0,.45,1.09a5.32,5.32,0,0,1,0,.92Z"/><path d="M32.73,20.2a1.49,1.49,0,0,1-2.09-.36,1.51,1.51,0,0,1,.27-2.12,1.54,1.54,0,0,1,1.82,2.48M34.53,17a3.35,3.35,0,0,0-5.37,4,3.35,3.35,0,0,0,5.37-4"/><path class="cls-2" d="M58.35,83.93a1.2,1.2,0,0,1-1.2-1.13.35.35,0,0,1,0-.06,1.21,1.21,0,0,1,1.18-1.21h0a1.2,1.2,0,0,1,1.18,1.21h0a1.18,1.18,0,0,1-1.17,1.19Z"/><path d="M58.35,82.07a.71.71,0,0,1,0,1.42.71.71,0,1,1,0-1.42m0,.1a.61.61,0,0,0-.57.62.59.59,0,0,0,.58.6.6.6,0,0,0,.58-.61.62.62,0,0,0-.59-.61m-.12,1h-.15v-.78a.61.61,0,0,1,.23,0,.45.45,0,0,1,.26.06.2.2,0,0,1,.08.17c0,.11-.07.15-.16.18v0c.07,0,.12.06.13.18s.05.17.05.2h-.11c-.06,0-.06-.09-.06-.2s-.08-.15-.18-.14h-.1Zm0-.44h.09c.1,0,.17,0,.17-.13s0-.14-.18-.14h-.09Z"/><path d="M55.93,81.59h-1l.5-.93Zm-.41-1.76h-.15L53.64,83h.52l.55-1h1.45l.54,1h.53Z"/></svg>