<svg id="Capa_1" data-name="Capa 1" xmlns="http://www.w3.org/2000/svg" viewBox="0 0 90 90"><defs><style>.cls-1{fill:#fff;}.cls-2{fill:#aa8400;}.cls-3{fill:#002577;}.cls-4{fill:#0d6928;}.cls-5{fill:#d8001d;}</style></defs><title>Pachuca-90x90</title><path class="cls-1" d="M43.36,84a.62.62,0,0,1-.39-.14.65.65,0,0,1-.23-.71l.63-2-1.75-1.25A.65.65,0,0,1,42,78.74l2.25,0,.76-2a.65.65,0,0,1,.61-.42h0a.66.66,0,0,1,.61.42l.75,2,2.25,0a.66.66,0,0,1,.37,1.19l-1.76,1.25.63,2a.64.64,0,0,1-.22.71.66.66,0,0,1-.75,0L45.6,82.69,43.71,83.9A.62.62,0,0,1,43.36,84Z"/><path class="cls-1" d="M32.74,79.83a.67.67,0,0,1-.4-.14.66.66,0,0,1-.22-.72l.63-2L31,75.75a.65.65,0,0,1-.24-.72.65.65,0,0,1,.61-.46l2.25-.06.75-2a.65.65,0,0,1,.61-.42h0a.64.64,0,0,1,.61.42l.76,2,2.25.06A.65.65,0,0,1,39,75.75L37.2,77l.63,2a.66.66,0,0,1-.23.72.63.63,0,0,1-.74,0L35,78.51l-1.88,1.21A.66.66,0,0,1,32.74,79.83Z"/><path class="cls-1" d="M54,79.83a.62.62,0,0,1-.39-.14.66.66,0,0,1-.23-.72L54,77l-1.76-1.26A.65.65,0,0,1,52,75a.66.66,0,0,1,.61-.46l2.26-.06.75-2a.65.65,0,0,1,.61-.42h0a.65.65,0,0,1,.61.42l.75,2,2.26.06a.64.64,0,0,1,.6.46.63.63,0,0,1-.24.72L58.44,77l.63,2a.65.65,0,0,1-1,.75l-1.88-1.21-1.88,1.21A.66.66,0,0,1,54,79.83Z"/><path class="cls-1" d="M29.93,72.23a.64.64,0,0,1-.35-.1L27.7,70.92l-1.88,1.21a.66.66,0,0,1-1-.75l.63-2-1.75-1.25A.65.65,0,0,1,24.08,67l2.26,0,.75-2a.65.65,0,0,1,.61-.42h0a.66.66,0,0,1,.61.42l.75,2,2.26,0a.66.66,0,0,1,.36,1.19l-1.76,1.25.63,2a.63.63,0,0,1-.22.71A.67.67,0,0,1,29.93,72.23Z"/><path class="cls-1" d="M61.26,72.23a.67.67,0,0,1-.4-.14.66.66,0,0,1-.22-.71l.63-2-1.76-1.25a.68.68,0,0,1-.24-.73.67.67,0,0,1,.61-.46l2.25,0,.76-2a.64.64,0,0,1,.6-.42h0a.64.64,0,0,1,.61.42l.76,2,2.25,0a.67.67,0,0,1,.61.46.68.68,0,0,1-.24.73l-1.76,1.25.63,2a.65.65,0,0,1-1,.75l-1.89-1.21-1.88,1.21A.62.62,0,0,1,61.26,72.23Z"/><path class="cls-1" d="M45.6,74a.59.59,0,0,1-.29-.07L45,73.77C23.13,63.15,23.21,45.32,23.29,28.08V22.93a.66.66,0,0,1,.66-.65h.78c10.37,0,11.71,0,20.08-5.7l.42-.29a.65.65,0,0,1,.73,0l.42.29c8.38,5.7,9.71,5.7,20.08,5.7h.79a.65.65,0,0,1,.65.65v5.15c.07,17.24.15,35.07-21.7,45.69l-.33.16A.58.58,0,0,1,45.6,74Z"/><path class="cls-1" d="M43.21,15.24a.64.64,0,0,1-.35-.1l-1.37-.88-1.37.88a.66.66,0,0,1-.75,0,.65.65,0,0,1-.22-.72L39.6,13l-1.27-.91a.65.65,0,0,1,.37-1.18l1.64,0,.54-1.43a.65.65,0,0,1,1.22,0l.54,1.43,1.64,0a.65.65,0,0,1,.36,1.18L43.38,13l.45,1.41a.66.66,0,0,1-.22.72A.73.73,0,0,1,43.21,15.24Z"/><path class="cls-1" d="M51.42,15.24a.64.64,0,0,1-.35-.1l-1.37-.88-1.37.88a.65.65,0,0,1-.74,0,.67.67,0,0,1-.23-.72L47.82,13l-1.27-.91a.65.65,0,0,1-.25-.72.66.66,0,0,1,.61-.46l1.64,0,.54-1.43A.66.66,0,0,1,49.7,9a.65.65,0,0,1,.61.42l.55,1.43,1.63,0a.65.65,0,0,1,.37,1.18L51.59,13l.46,1.41a.67.67,0,0,1-.23.72A.68.68,0,0,1,51.42,15.24Z"/><path class="cls-1" d="M35.51,18.07a.64.64,0,0,1-.35-.1l-1.37-.88L32.42,18a.65.65,0,0,1-1-.75l.45-1.41-1.26-.91A.65.65,0,0,1,31,13.72l1.64,0,.54-1.43a.66.66,0,0,1,.61-.42h0a.66.66,0,0,1,.61.42l.54,1.43,1.64,0A.65.65,0,0,1,37,14.9l-1.27.91.45,1.41a.63.63,0,0,1-.22.71A.67.67,0,0,1,35.51,18.07Z"/><path class="cls-1" d="M59.12,18.07a.64.64,0,0,1-.35-.1l-1.37-.88L56,18a.65.65,0,0,1-.75,0,.63.63,0,0,1-.22-.71l.45-1.41-1.26-.91a.65.65,0,0,1,.36-1.18l1.64,0,.54-1.43a.66.66,0,0,1,.61-.42h0a.66.66,0,0,1,.61.42l.55,1.43,1.63,0a.65.65,0,0,1,.37,1.18l-1.27.91.45,1.41a.63.63,0,0,1-.22.71A.67.67,0,0,1,59.12,18.07Z"/><path class="cls-1" d="M28.36,20.18a.66.66,0,0,1-.35-.11l-1.37-.88-1.37.88a.65.65,0,0,1-.75,0,.66.66,0,0,1-.22-.72l.45-1.41L23.49,17a.66.66,0,0,1-.25-.72.64.64,0,0,1,.61-.46l1.64,0L26,14.36a.65.65,0,0,1,1.22,0l.54,1.43,1.64,0a.64.64,0,0,1,.61.46.67.67,0,0,1-.24.72l-1.27.9L29,19.32a.64.64,0,0,1-.22.72A.67.67,0,0,1,28.36,20.18Z"/><path class="cls-1" d="M66.27,20.18a.66.66,0,0,1-.35-.11l-1.37-.88-1.37.88a.65.65,0,0,1-1-.75l.45-1.41L61.4,17a.66.66,0,0,1-.25-.72.64.64,0,0,1,.61-.46l1.64,0,.54-1.43a.65.65,0,0,1,1.22,0l.54,1.43,1.64,0a.64.64,0,0,1,.61.46.67.67,0,0,1-.24.72l-1.27.9.45,1.41a.64.64,0,0,1-.22.72A.67.67,0,0,1,66.27,20.18Z"/><polygon class="cls-2" points="49.2 79.4 46.5 79.33 45.6 76.94 44.69 79.33 41.99 79.4 44.14 80.93 43.36 83.35 45.6 81.91 47.83 83.35 47.05 80.93 49.2 79.4"/><polygon class="cls-2" points="38.58 75.22 35.88 75.16 34.97 72.77 34.07 75.16 31.37 75.22 33.52 76.75 32.74 79.17 34.97 77.74 37.21 79.17 36.43 76.75 38.58 75.22"/><polygon class="cls-2" points="52.62 75.22 55.31 75.16 56.22 72.77 57.13 75.16 59.82 75.22 57.67 76.75 58.45 79.17 56.22 77.74 53.98 79.17 54.76 76.75 52.62 75.22"/><polygon class="cls-2" points="31.3 67.63 28.61 67.56 27.7 65.17 26.79 67.56 24.1 67.63 26.24 69.16 25.46 71.58 27.7 70.14 29.93 71.58 29.15 69.16 31.3 67.63"/><polygon class="cls-2" points="59.89 67.63 62.59 67.56 63.49 65.17 64.4 67.56 67.1 67.63 64.95 69.16 65.73 71.58 63.49 70.14 61.26 71.58 62.04 69.16 59.89 67.63"/><path class="cls-3" d="M67.25,28.08V22.93h-.79c-10.32,0-11.9,0-20.44-5.81l-.42-.29-.42.29c-8.54,5.81-10.13,5.81-20.45,5.81H24v5.15c-.08,17-.16,34.66,21.32,45.1l.34.17.33-.17C67.41,62.74,67.33,45.12,67.25,28.08Z"/><path class="cls-1" d="M63.19,52.57c-2.85,8.43-8.45,14.48-17.59,19C36.45,67.05,30.85,61,28,52.57c-2.25-6.66-2.49-14.11-2.49-21.48,0-1,0-2,0-3V24.51c9.63,0,11.76-.15,20.08-5.77,8.31,5.62,10.44,5.77,20.07,5.77v3.58c0,1,0,2,0,3C65.68,38.46,65.44,45.91,63.19,52.57Z"/><path class="cls-3" d="M45.6,20.47c-7.71,5.25-9.38,5.21-18.56,5.21v8.2H64.14l0-8.2C55,25.68,53.3,25.72,45.6,20.47Z"/><path class="cls-3" d="M45.6,37.32H27c.34,15,3.8,25.27,18.56,32.43,14.76-7.16,18.21-17.39,18.55-32.43Z"/><path class="cls-1" d="M45.6,69.38c-14.43-7-17.81-17-18.15-31.69H63.74C63.4,52.38,60,62.39,45.6,69.38Z"/><path class="cls-1" d="M54.89,27.8c.19-.37.44-.53.78-.46a.75.75,0,0,1,.39.21,1.16,1.16,0,0,1,.29.43,2.35,2.35,0,0,1,.13.48l1.3-.23a4.07,4.07,0,0,0-.73-1.69,2.46,2.46,0,0,0-1.4-.85,1.56,1.56,0,0,0-1.76.56A4.9,4.9,0,0,0,53.21,29a6.29,6.29,0,0,0,.34,2.37,2.81,2.81,0,0,0,.83,1.28,2.16,2.16,0,0,0,1.26.35,2.09,2.09,0,0,0,1-.26,2.14,2.14,0,0,0,.68-.77,4.37,4.37,0,0,0,.41-1.25l-1.27-.66a2.5,2.5,0,0,1-.32,1,.68.68,0,0,1-.63.32.78.78,0,0,1-.66-.5,3.77,3.77,0,0,1-.23-1.68A3.58,3.58,0,0,1,54.89,27.8Z"/><path class="cls-1" d="M61.45,26.81l-1.6-.09L58,32.91h1.48l.23-1h.84l.83,0,.23,1h1.52Zm-.89,3.75-.51,0,.51-2,0-.18.47,2.24Z"/><path class="cls-1" d="M32.07,28.53a2.32,2.32,0,0,0-.13-.89,1.22,1.22,0,0,0-.25-.45,1.33,1.33,0,0,0-1.19-.37h-.39l-2,.06v6h1.46V30.67l.56,0h.25a1.61,1.61,0,0,0,1.3-.59,1.85,1.85,0,0,0,.29-.56A2.85,2.85,0,0,0,32.07,28.53Zm-1.59.66a.61.61,0,0,1-.39.2l-.2,0h-.36V28.07l.42,0a.65.65,0,0,1,.14,0,.46.46,0,0,1,.41.17.82.82,0,0,1,0,1Z"/><path class="cls-1" d="M33.59,26.35l-1.66,6.06-.13.5h1.49l.22-1.08.83,0,.83,0,.23,1.13h1.53l-1.7-6.71Zm.75,4-.51,0L34.34,28l.53,2.34Z"/><path class="cls-1" d="M40.1,30.73a.71.71,0,0,1-.63.44.65.65,0,0,1-.66-.43A3.9,3.9,0,0,1,38.58,29a4.67,4.67,0,0,1,.2-1.56c.18-.48.43-.77.77-.85a.51.51,0,0,1,.4.06.89.89,0,0,1,.3.37,4.53,4.53,0,0,1,.13.53l1.29-.79A3.41,3.41,0,0,0,40.93,25a1.32,1.32,0,0,0-1.4-.19,3.09,3.09,0,0,0-1.78,1.53,6.07,6.07,0,0,0-.64,2.94,5.51,5.51,0,0,0,.35,2.2,2.77,2.77,0,0,0,.84,1.24,2.16,2.16,0,0,0,1.26.36,1.6,1.6,0,0,0,1-.32,2.47,2.47,0,0,0,.69-1A6.44,6.44,0,0,0,41.7,30l-1.29-.54A3.65,3.65,0,0,1,40.1,30.73Z"/><polygon class="cls-1" points="45.48 26.8 43.89 26.9 43.92 23.7 42.45 24.02 42.41 32.87 43.86 32.86 43.87 29.15 45.45 29.09 45.44 32.86 46.91 32.86 46.98 23.66 45.5 23.54 45.48 26.8"/><path class="cls-1" d="M51,29.67a1.92,1.92,0,0,1-.22,1,.58.58,0,0,1-.58.35.71.71,0,0,1-.6-.44,2.36,2.36,0,0,1-.21-1.12l.07-5.28L48,23.85l-.06,5.38A8.84,8.84,0,0,0,48,30.76a3.93,3.93,0,0,0,.3,1,2.57,2.57,0,0,0,.51.76,1.19,1.19,0,0,0,.68.36,3.44,3.44,0,0,0,.74.1,1.83,1.83,0,0,0,1-.28,1.77,1.77,0,0,0,.59-.66A3.37,3.37,0,0,0,52.27,31a6.66,6.66,0,0,0,.13-1.3l.07-4.7L51,24.65Z"/><path class="cls-3" d="M52.39,60.71,52,60.47l-.23-3.11-.18-.31-.2-4.78-1.95-1,.23-.09s1.31.7,1.73.84c.18-.28.23-.51.46-.65s-.28-.7-.28-.7L50.89,49l-.34.07L50.29,47v-.33c.6-2.84.7-1.54-.14-4l-2.38-.56v-.94l.14-.09c.05,0,.51.42.51.51l-.09.05c0,.19.37.37.47.51h.32l.33-.32c.14.14.14.09.14.18s-.19.28-.14.28l.33,0c.09-.1.37-.42.09-.66-.09-.37-.42-.51-.47-.79L49,40.42v-.93l-.09-.09v-.19l-.42-.37c-.19,0,0,0-.42.14V39c-.05,0-.14,0-.14,0a.36.36,0,0,1,0-.24c-.05-.14-.33-.37-.42-.46l-.24.18c0-.09-.14-.18-.18-.09l-.19.23c-.14,0-.14-.42-.14-.51s-.09,0-.09,0v.24l-.24.46h0c-.42-.37-.51-.6-1-.56l-.32.28L45,38.42c-.14.37-.46.37-.28.65a.54.54,0,0,1-.09.38c-.14,0-.09,0-.19-.1,0,.1-.09.14-.23.24a.11.11,0,0,0-.09-.1l-.28.14h0a3.66,3.66,0,0,0-.33.23l0,.42c-.24,0-.14,0-.14,0s-.19.05-.19.05,0-.19-.14-.05,0,.33.14.33.42.23.47.37,0,.42,0,.65l-.42.28a.09.09,0,0,1-.09.1c0,.09.18.23.18.23s0,.09-.09.14-.14,0-.19,0a.16.16,0,0,0-.14.14v.65c0-.28,0,.32-.13.32l-.33.19.09.65.1.14c.14.09,0,.42,0,.42L42,49.8l-.45,0h-.09a.8.8,0,0,1,.09.42s-.14,0-.14,0l-.14.09c0,.1,0,.1-.09.1l-.1.41-.28.19v.42l.62.5L41.3,54.6l-.09.08-.1,2.2-.28.27,0,.71v0l-.1,1.44-.09.94-.33.32v1l7.22.43,4.9-.48Zm-.73-2.38,0,.15-1.85-.19,0,.56h-.39l.11-.74Zm-.37-.92-2.7-.18.1-.5.7.09L50,57l0,.22,1.38,0Zm-.74-2.25.3.49.3.1,0,.62-.41,0-.36,0Zm.13,1.43-1.25-.05-1.1-.07.31-.45.61.35.72,0Zm-2.42-1.13v-3l.44-1,.15.45v3.74Zm1.49.7-.78,0v-.85l.78.14Zm-.22-3.91.23.51v2.37L49,55V52.44l.29-.11Zm-.13-4.52a1,1,0,0,0,.22.19l-.35.29L49.1,48Zm.47,1.81h-1.4l.75-.46C49.29,49.14,49.8,49.47,49.87,49.54Zm-1.44-3.2.07-1.49.29.15,0,1.42v1.36a.36.36,0,0,1-.42,0C48.4,47.21,48.45,47.21,48.43,46.34Zm-.12,2.46.21.19-.35.28L48,49Zm-.46.92,2.62-.07c.07.08-.2.27-.13.33l-2.86.22Zm-5.73,1.87-.45-.2,4-.53h.13l0,.15-.16.14Zm.08.25-.29.07a.75.75,0,0,0-.18.2s-.18-.09-.17-.15l.33-.29Zm1-2,.5-.36.68.16-.67.66ZM45.07,55l.06-2.56.39-.29.15-.31.3.12V54.8Zm.9.1v1l-1,.07.07-.84Zm-.8-3.3s.27-.51.35-.48l.07.14-.26.45Zm-.27,3.84V56l-.29-.12-.31.37H43v-.55Zm-2-3.25,0,1-.22.08,0-1h.06l.1-.15Zm-.27,1.72.15-.34.08.15,0,2.41-.34.15.08-2.34Zm.32,2.4,1.57-.17L46,56.16l-.28.24-1.15.12-2.27.2Zm3.21-.22.6,0,1.22.08-.46.2-.8.06-1-.12ZM46.12,44l.38.16V47a.3.3,0,0,1-.38.06Zm0,3.15.38.12v1.92l-.38.23Zm.75,2.14c.06.07.62.35.7.41l-.73.39-.51-.44Zm-.37,6.79L46.12,56V51.88l.21.08.17-.31Zm.22,0v-4l.6-.15.41-1.22.3.48v4.88ZM47,41.64l.64-.31v.74l-.72.22Zm-4,.88c0,.09.05.08.17,0l.15.07.48-.42.11.06.42-.32s-.28-.39-.31-.42l.18-.11.25.19.18.13.45-.32a5,5,0,0,0-.47-.43c.11-.16.2-.16.31-.27h0l.29.34,0,.16.41.39h.25l.07.08c0,.2.52.17.73.1a.93.93,0,0,1,.24,0c0,.6-.86.33-.86.87-.11,0-.53-.29-.44-.48l.16-.21a4,4,0,0,0-.53-.34c-.51-.12-1.21.85-1.62,1.22l.1.1-.13.16-.68,0s0-.52,0-.54A.12.12,0,0,1,43,42.52Zm2,.42-.18-.09.18-.25.19,0C45.1,42.67,45,42.85,44.94,42.94Zm.07.47c0,.08-.16.28-.19.37l-.2-.09.2-.27Zm.15-.47,0-.08.11-.07h0a.1.1,0,0,1,.09,0l-.07.08s0,0,0,0a.05.05,0,0,0,0,0c-.07,0-.09.09-.14.15s0-.05-.06-.09S45.12,43,45.16,42.94Zm-.61.25-.13.16-.2-.26.05-.2C44.33,43,44.48,43.13,44.55,43.19Zm-1.25.46c.06.07.11.75.18.82l-.54,0L42.8,44Zm-.62,1.18.84.34-.27,3.55-1,.36Zm-.41,4.45,1.1-.44.25-3.65s.1-.08.06-.17a5.8,5.8,0,0,1,.52-.58,2.44,2.44,0,0,0-.43-.28c0-.13,0-.51.13-.55l.85.77c.1,0,0-.14,0-.17l-.49-.37,0,0c.08,0,.18.11.35.17a.87.87,0,0,0,.71-.18s.75-.71.81-.76c.27.12.1.31.26.42a1.9,1.9,0,0,0,.35-.2c.41.06.41.15.75,0l.14.07c0,.07,0,5.58,0,5.58l-.21.12a.33.33,0,0,1-.23.16s-.08-.06-.1,0-.06,0-.09.06l-.37-.2V43.83l-.3-.3-.47.26-.05,1.46c-.15-.07-.22-.22-.32-.34s0-.31-.07-.43l-.18-.16c0-.14.16-.17.21-.31s.14-.17,0-.19-.15.16-.24.23a1,1,0,0,1-.15.19l.06.22.17.12,0,.22-.21.06-.06-.07-.39.33s-.18-.14-.2-.13a3.8,3.8,0,0,0-.6.64s.05,0,.07.07.4-.34.44-.42l.11.11c-.25.26-.43.58-.69.85l-.07,1.41,0,.58a.2.2,0,0,0,.15,0,2.67,2.67,0,0,0,.07-.71,9.2,9.2,0,0,0,.08-1.17l.59-.7.05.07a3.89,3.89,0,0,1-.25.5v1.48l0,.53,0,.09a1.14,1.14,0,0,1,.53.09l-.05.26,0,.07h-.59s0,0,0,0,0,.08.09.1a.19.19,0,0,1,.23,0l.1,0,.16,0,0,.09-.11.31-.87-.26c-.14,0-.21,0-.3,0s-1.31,1-1.39,1Zm3.39-.21L45.59,49l-.23-.1,0-.09s0,0,0-.05l-.09,0s0,.05,0,.07,0,0,0-.06a.05.05,0,0,0,0,0s0,0,0-.08h0l0-.2s.09,0,.11,0,0,0,.06,0l.3-.19V45.93l-.32-.38-.05-.15.42.16-.57-.38a.73.73,0,0,0-.22.22l-.14,0,.33-.39.58.29.12.15s0,0,0,.05l.08,1.21v2.47Zm.23.24,0,.33-1.07-.29.33-.45A8.14,8.14,0,0,0,45.89,49.31Zm-1-2.14V48s-.19.11-.23.1l-.09-1.69C44.69,46.71,44.74,46.86,44.87,47.17Zm-3.88,4,2.73-2,2.64.77-.4,0-2.26-.56-2.72,2Zm0,.35.47-.09.28.18-.3.27Zm.56.91.23,0,.48-.45.23.22L42.43,55l-1,.17Zm-.21,3,1.05-.16-.09,1-1,.06Zm-.07,1.48,0-.39.94-.08-.21.43-.16.26h-.84Zm.78,3.74c0,.06,0,0,0,.12l-.79,0-.78-.08,0-.11Zm-1.7.82v-.27l1.81.08v.28Zm1.9-1-1.22-.29,1.22.05Zm0-.65-1.35,0,.19-.83.11-.92,1,0,.12.89Zm.4-1.72v-.45l.39.1,1.32-.08.1.22-.24.15Zm3.16,1-.12.8-1.45.06.08-1.1.33-.69,1.18.1Zm.69,2.52-.38.05V57.76l.37.09Zm1.43.08H46.79s.06,0,.17-.05h1.15A.86.86,0,0,1,47.92,61.63Zm-1.23-1.79.15-1.05.36-.11-.1-.79,1,.21,0,.89.07.92Zm-1.91-2.66-2.63.06,1-.44,1.76-.08,3.33.08.1.43ZM49,59.07l-.06.84-.51,0,.12-.69.1-.45.1-.65H49Zm.86,1.44s-.05,0-.07.07l-.16.07h0s0,0,0,0l-.17-.12-.06-.07s0,0,0,0,.06,0,.07,0l.07,0s.07,0,.11,0,0,0,.09,0,.06,0,.1,0,0,0,0,0l.05.05Zm2.29,1-2.09.18L50,61.16l.73,0,.87,0h.61Z"/><path class="cls-3" d="M31.7,43.65l0-.45a1.81,1.81,0,0,0,.5-.59,1.52,1.52,0,0,0,.13-.72,1.43,1.43,0,0,0-.52-1.06,1.66,1.66,0,0,0-2.27.1A1.43,1.43,0,0,0,29.1,42a1.46,1.46,0,0,0,.19.7,1.64,1.64,0,0,0,.52.53l0,.44A1.86,1.86,0,0,1,29,43a1.89,1.89,0,0,1-.3-1,1.83,1.83,0,0,1,.51-1.39,2,2,0,0,1,1.4-.62,2,2,0,0,1,.76.12,2.08,2.08,0,0,1,.66.41,2,2,0,0,1,.44.59,2,2,0,0,1-.06,1.75A1.93,1.93,0,0,1,31.7,43.65Z"/><path class="cls-3" d="M32.78,44.34l0,.37-3.4.42.16,1.32-.36,0L29,44.8Z"/><path class="cls-3" d="M33.08,46.72l.08.37-2.24.47a3.28,3.28,0,0,0-.51.14,1.28,1.28,0,0,0-.26.16.78.78,0,0,0-.21.36.81.81,0,0,0,0,.41.84.84,0,0,0,.18.38.86.86,0,0,0,.34.23,1,1,0,0,0,.31,0,3,3,0,0,0,.52-.08l2.24-.47.07.36-2.36.49a1.7,1.7,0,0,1-1.14-.05,1.14,1.14,0,0,1-.54-.8,1.21,1.21,0,0,1,.16-1,1.7,1.7,0,0,1,1-.52Z"/><path class="cls-3" d="M32.21,51.44a1.08,1.08,0,0,1,0,.7.63.63,0,0,1-.44.38.61.61,0,0,1-.58,0,1,1,0,0,1-.38-.58l-.17-.5L32,50.94Zm1.51-.66a1.08,1.08,0,0,1,.05.65.58.58,0,0,1-.38.35.61.61,0,0,1-.55-.05,1.53,1.53,0,0,1-.39-.68l-.07-.22,1.22-.41Zm-3.49.39.26.8a1.5,1.5,0,0,0,.59.84,1.1,1.1,0,0,0,.93,0,1,1,0,0,0,.48-.32.79.79,0,0,0,.17-.51.79.79,0,0,0,.38.18.94.94,0,0,0,.43-.05,1,1,0,0,0,.62-.53,1.16,1.16,0,0,0,0-.88L33.83,50Z"/><path class="cls-3" d="M35.63,55.18a1.41,1.41,0,0,1,.19,1.14,1.49,1.49,0,0,1-.75.9,1.62,1.62,0,0,1-1.18.24,1.3,1.3,0,0,1-.88-.67L32.57,56l2.66-1.55Zm-3.56.71.5.86a3.34,3.34,0,0,0,.46.64,1.54,1.54,0,0,0,.47.31,1.68,1.68,0,0,0,.87.15,2.11,2.11,0,0,0,.88-.28,1.87,1.87,0,0,0,.92-1.14A1.93,1.93,0,0,0,35.93,55l-.57-1Z"/><path class="cls-3" d="M37.28,57.12l1.24,1.54-.28.22-1-1.25-1.06.85,1,1.24-.28.22-1-1.24-1.06.86,1,1.24-.28.22-1.23-1.53Z"/><path class="cls-3" d="M58.65,41.84v-.38l3.43.1,0-1.33h.36L62.44,42Z"/><path class="cls-3" d="M59.29,43.79a1.52,1.52,0,0,1,1.16-.33,1.63,1.63,0,0,1,1.1.57,1.46,1.46,0,0,1,.35,1.14,1.51,1.51,0,0,1-.58,1.06,1.62,1.62,0,0,1-1.19.32A1.57,1.57,0,0,1,59.05,46a1.43,1.43,0,0,1-.35-1.13A1.49,1.49,0,0,1,59.29,43.79Zm-.89,1.75a1.93,1.93,0,0,0,.34.65,2.19,2.19,0,0,0,.59.51,1.91,1.91,0,0,0,.73.24,2,2,0,0,0,1.48-.4,1.83,1.83,0,0,0,.72-1.3,1.92,1.92,0,0,0-1-2,2.08,2.08,0,0,0-.72-.21,2,2,0,0,0-.78.06,2.17,2.17,0,0,0-.67.36,1.92,1.92,0,0,0-.49.58,2,2,0,0,0-.22.71A1.87,1.87,0,0,0,58.4,45.54Z"/><path class="cls-3" d="M59.68,49.27a1,1,0,0,1,.33-.62.65.65,0,0,1,.57-.09.64.64,0,0,1,.48.34,1.06,1.06,0,0,1,0,.69l-.12.52-1.39-.33ZM58,49a1.13,1.13,0,0,1,.3-.58.58.58,0,0,1,.51-.1.6.6,0,0,1,.44.33,1.54,1.54,0,0,1,0,.79l0,.22L58,49.41Zm3.18,1.5.19-.82a1.46,1.46,0,0,0-.06-1,1.09,1.09,0,0,0-.77-.52.92.92,0,0,0-.57,0,.77.77,0,0,0-.42.33.77.77,0,0,0-.22-.34A1,1,0,0,0,59,48a1,1,0,0,0-.8.13,1.21,1.21,0,0,0-.46.75l-.18.79Z"/><path class="cls-3" d="M56.67,52.27l.62-1.8.36.12-.25.73,3.22,1.12-.12.36-3.23-1.13L57,52.4Z"/><path class="cls-3" d="M55.27,55.23l.17-.34,2,1a3.47,3.47,0,0,0,.49.21.84.84,0,0,0,.31,0,.8.8,0,0,0,.39-.14.79.79,0,0,0,.26-.31.91.91,0,0,0,.1-.41,1,1,0,0,0-.12-.4.86.86,0,0,0-.21-.22,2.93,2.93,0,0,0-.46-.27l-2.05-1,.17-.33,2.16,1.08a1.75,1.75,0,0,1,.85.76,1.1,1.1,0,0,1-.07,1,1.16,1.16,0,0,1-.74.68,1.7,1.7,0,0,1-1.13-.23Z"/><path class="cls-3" d="M53.68,57.6l1.07-1.54.31.22-.86,1.24,1.09.75L56.15,57l.31.22-.86,1.24,1.41,1-.21.3Z"/><rect class="cls-4" x="27.04" y="34.62" width="13.42" height="2.02"/><rect class="cls-5" x="50.73" y="34.62" width="13.42" height="2.02"/><polygon class="cls-3" points="44.26 11.54 42.19 11.49 41.49 9.65 40.79 11.49 38.71 11.54 40.37 12.72 39.77 14.59 41.49 13.48 43.21 14.59 42.61 12.72 44.26 11.54"/><polygon class="cls-3" points="52.48 11.54 50.4 11.49 49.7 9.65 49 11.49 46.93 11.54 48.58 12.72 47.98 14.59 49.7 13.48 51.42 14.59 50.83 12.72 52.48 11.54"/><polygon class="cls-3" points="36.57 14.37 34.49 14.32 33.79 12.48 33.09 14.32 31.02 14.37 32.67 15.55 32.07 17.42 33.79 16.31 35.51 17.42 34.91 15.55 36.57 14.37"/><polygon class="cls-3" points="60.18 14.37 58.1 14.32 57.4 12.48 56.7 14.32 54.63 14.37 56.28 15.55 55.68 17.42 57.4 16.31 59.12 17.42 58.52 15.55 60.18 14.37"/><polygon class="cls-3" points="29.42 16.48 27.34 16.43 26.64 14.59 25.94 16.43 23.87 16.48 25.52 17.66 24.92 19.52 26.64 18.42 28.36 19.52 27.76 17.66 29.42 16.48"/><polygon class="cls-3" points="67.33 16.48 65.25 16.43 64.55 14.59 63.85 16.43 61.77 16.48 63.43 17.66 62.83 19.52 64.55 18.42 66.27 19.52 65.67 17.66 67.33 16.48"/></svg>