<svg id="Capa_1" data-name="Capa 1" xmlns="http://www.w3.org/2000/svg" viewBox="0 0 90 90"><defs><style>.cls-1{fill:#001e47;}.cls-2{fill:#fff;}.cls-3{fill:#766910;}</style></defs><title>Pumas-90x90</title><path class="cls-1" d="M77.39,60.22h0L60.61,33.31c-.26-.46-.54-.9-.84-1.34l-.1-.15h0a16.93,16.93,0,0,0-27.1.14h0l-.18.29q-.28.42-.54.87L15.89,58.84l0,0A14.23,14.23,0,0,0,13,67.41c0,8.31,7.26,15,16.22,15,.44,0,.87,0,1.29,0H61.86c.42,0,.85,0,1.28,0,9,0,16.23-6.74,16.23-15A14.09,14.09,0,0,0,77.39,60.22Z"/><path class="cls-2" d="M63.14,84c-.43,0-.87,0-1.34,0H30.61c-.47,0-.92,0-1.35,0-9.8,0-17.78-7.45-17.78-16.61a15.77,15.77,0,0,1,2.95-9.17l.13-.22,15.92-25.7c.18-.32.38-.64.58-.95l.61-1h.1a18.55,18.55,0,0,1,28.67-.13h.08l.55.84c.31.45.61.93.88,1.42L79.23,60.19l0,.06a15.85,15.85,0,0,1,1.73,7.16C80.93,76.57,73,84,63.14,84ZM30.49,80.85H62c.41,0,.79.05,1.16.05,8.09,0,14.66-6.05,14.66-13.49A12.62,12.62,0,0,0,76.05,61l-.11-.19L59.24,34.07a12.12,12.12,0,0,0-.75-1.2l-.09-.13a15.38,15.38,0,0,0-24.56.12l-.18.25c-.19.28-.33.53-.47.77l0,.06L17.74,58.83l.05.08-.63.9a12.65,12.65,0,0,0-2.56,7.6c0,7.44,6.58,13.49,14.66,13.49.37,0,.76,0,1.17-.05Z"/><path class="cls-1" d="M77.39,60.22h0L60.61,33.31c-.26-.46-.54-.9-.84-1.34l-.1-.15h0a16.93,16.93,0,0,0-27.1.14h0l-.18.29q-.28.42-.54.87L15.89,58.84l0,0A14.23,14.23,0,0,0,13,67.41c0,8.31,7.26,15,16.22,15,.44,0,.87,0,1.29,0H61.86c.42,0,.85,0,1.28,0,9,0,16.23-6.74,16.23-15A14.09,14.09,0,0,0,77.39,60.22Z"/><path class="cls-3" d="M46.26,43.12c1.47,0,7.91,1.76,8.77,1.76s1.71.09,2.07.09,3.42,1,3.42,3.91c0,1.73-2.24,4.66-2.24,5.12-.06,1.07-1.61,5.7-1.87,6.65a21.74,21.74,0,0,0-.92,2.93c.06.36-.1,1.37-.79,1.37h-5a1,1,0,0,1-.92-1,.93.93,0,0,1,.89-1l2.43,0c.17,0,.26-.09.23-.4s-.66-5.49-.69-5.89a6.35,6.35,0,0,1-.07-1.43c.1-.09,2.57-1.31,2.57-2.65,0-.25-.13-.22-.36-.22H49.7s.72,6.92.53,7.87c0,0-8,.06-8,0,0-.94.63-7.78.56-7.93a39.1,39.1,0,0,0-4.4-.09c-.7,0,.22,1.56,1.08,2.11s1.45.85,1.45,1.34-1.06,7-.83,7.1a19.19,19.19,0,0,0,2.77.1,1.08,1.08,0,0,1,.85.94,1.11,1.11,0,0,1-1,1.1l-4.87,0a1,1,0,0,1-1-1.07,6.29,6.29,0,0,0-.72-2.74,55.85,55.85,0,0,1-1.55-5.4c-.13-.34-1-3.54-1.81-4.45a3.36,3.36,0,0,1-.92-2.54,4,4,0,0,1,4.38-4C40.42,44.82,40.19,43.12,46.26,43.12Z"/><path class="cls-3" d="M49.86,67.14l-.16,0h-7l-.16,0a1,1,0,1,0,0,2.08l.16,0h7l.16,0a1,1,0,1,0,0-2.08Z"/></svg>