<svg id="Capa_1" data-name="Capa 1" xmlns="http://www.w3.org/2000/svg" viewBox="0 0 90 90"><defs><style>.cls-1{fill:#fff;}.cls-2,.cls-3,.cls-5,.cls-6{fill:#1f140f;}.cls-3{stroke:#000;}.cls-3,.cls-6{stroke-width:0.16px;}.cls-4{fill:#525fa3;}.cls-5,.cls-6{stroke:#1f140f;}.cls-5{stroke-width:0.48px;}</style></defs><title>Queretaro-90x90</title><path class="cls-1" d="M22.38,14.06V62.42c0,11.19,14,20.88,25.83,20.88S74,73.61,74,62.42V14.06Z"/><rect class="cls-2" x="23.03" y="15" width="50.25" height="7.99"/><path class="cls-1" d="M36.72,19.25a2.13,2.13,0,0,1-.13.76,1.69,1.69,0,0,1-.38.63,1.59,1.59,0,0,1-.56.38,2.78,2.78,0,0,1-1,.15h-.11a4.41,4.41,0,0,1-.6-.05,1.8,1.8,0,0,1-.64-.18,1.91,1.91,0,0,1-.48-.39,1.55,1.55,0,0,1-.29-.53,2.59,2.59,0,0,1-.12-.77V16.54h1.37v2.78a.74.74,0,0,0,.21.58.72.72,0,0,0,.55.21.75.75,0,0,0,.57-.21.81.81,0,0,0,.19-.58V16.54h1.39Z"/><polygon class="cls-1" points="41.41 21.09 37.63 21.09 37.63 16.54 41.33 16.54 41.33 17.51 39.01 17.51 39.01 18.24 41.17 18.24 41.17 19.15 39.01 19.15 39.01 20.06 41.41 20.06 41.41 21.09"/><polygon class="cls-1" points="50.77 21.09 47 21.09 47 16.54 50.7 16.54 50.7 17.51 48.39 17.51 48.39 18.24 50.53 18.24 50.53 19.15 48.39 19.15 48.39 20.06 50.77 20.06 50.77 21.09"/><polygon class="cls-1" points="53.99 21.09 52.61 21.09 52.61 17.66 51.2 17.66 51.2 16.54 55.4 16.54 55.4 17.66 53.99 17.66 53.99 21.09"/><path class="cls-1" d="M69.4,20.09a1.87,1.87,0,0,1-.76.79,2.5,2.5,0,0,1-1.24.29h-.05a2.77,2.77,0,0,1-1.2-.25,1.89,1.89,0,0,1-.81-.78A2.54,2.54,0,0,1,65,18.81a2.38,2.38,0,0,1,.61-1.73,2.31,2.31,0,0,1,1.7-.62h0a2.32,2.32,0,0,1,1.71.61,2.35,2.35,0,0,1,.61,1.71A2.8,2.8,0,0,1,69.4,20.09Zm-2.05-2.56h0a.86.86,0,0,0-.68.29,1.65,1.65,0,0,0-.25,1,1.65,1.65,0,0,0,.25,1,.91.91,0,0,0,.69.3.83.83,0,0,0,.69-.3,1.72,1.72,0,0,0,.24-1.06,1.43,1.43,0,0,0-.25-.94A.83.83,0,0,0,67.35,17.53Z"/><path class="cls-1" d="M63.3,21.09l-.63-1.21-.1-.19a1.05,1.05,0,0,0-.25-.34.58.58,0,0,0-.34-.11h-.12v1.85H60.47V16.54h2.31a3.18,3.18,0,0,1,1,.11,1,1,0,0,1,.54.42,1.23,1.23,0,0,1,.21.73,1.37,1.37,0,0,1-.16.66,1.29,1.29,0,0,1-.43.44,2,2,0,0,1-.49.18,1.76,1.76,0,0,1,.36.17,1.23,1.23,0,0,1,.22.23,2.24,2.24,0,0,1,.19.29l.67,1.32Zm-.63-3.62-.2,0h-.61v.93h.58l.23,0,.14,0a.33.33,0,0,0,.22-.14.42.42,0,0,0,.09-.27.44.44,0,0,0-.13-.33A.55.55,0,0,0,62.67,17.47Z"/><path class="cls-1" d="M58.57,21.09l-.22-.76H56.78l-.21.76H55.15l1.68-4.55h1.51L60,21.09Zm-1-3.37-.49,1.63h1Z"/><path class="cls-1" d="M45,21.09l-.64-1.21-.09-.19a1,1,0,0,0-.26-.34.6.6,0,0,0-.34-.11h-.12v1.85H42.17V16.54h2.29a3.1,3.1,0,0,1,1,.11,1,1,0,0,1,.55.42,1.23,1.23,0,0,1,.2.73,1.26,1.26,0,0,1-.15.66,1.32,1.32,0,0,1-.44.44,1.73,1.73,0,0,1-.48.18,2.06,2.06,0,0,1,.36.17,2.11,2.11,0,0,1,.42.52l.66,1.32Zm-.64-3.62-.2,0h-.61v.93h.58l.23,0,.14,0a.35.35,0,0,0,.23-.14.48.48,0,0,0,.08-.27.41.41,0,0,0-.14-.33A.52.52,0,0,0,44.36,17.47Z"/><path class="cls-1" d="M31.46,21.6l-.56-.33c-.2-.14-.33-.24-.4-.3a2.93,2.93,0,0,1-1.05.2h-.1a2.21,2.21,0,0,1-1.6-.55,2.28,2.28,0,0,1-.7-1.79,2.43,2.43,0,0,1,.6-1.75,2.33,2.33,0,0,1,1.71-.62h.09a2.21,2.21,0,0,1,1.63.61,2.36,2.36,0,0,1,.6,1.74,2.46,2.46,0,0,1-.49,1.61l.34.23a2.38,2.38,0,0,0,.32.16Zm-2-4.07h-.09a.84.84,0,0,0-.67.29,1.46,1.46,0,0,0-.26.94,1.77,1.77,0,0,0,.25,1.06.87.87,0,0,0,.68.3h.09l.18,0-.18-.15a3,3,0,0,0-.36-.18l.21-.51.15,0,.13.05a3.67,3.67,0,0,1,.41.26.78.78,0,0,0,.15.1,1.9,1.9,0,0,0,.16-.9,1.56,1.56,0,0,0-.25-1A.82.82,0,0,0,29.45,17.53Z"/><path class="cls-3" d="M23,24.15H73.28V62.22c0,5.23-3.15,10.14-7.7,13.82a28.92,28.92,0,0,1-17.43,6.52A29,29,0,0,1,30.71,76C26.17,72.36,23,67.45,23,62.22Z"/><path class="cls-1" d="M23.3,24.45V62.22c0,5.14,3.11,10,7.59,13.59a28.68,28.68,0,0,0,17.26,6.46A28.6,28.6,0,0,0,65.4,75.81c4.49-3.62,7.6-8.45,7.6-13.59V24.45Z"/><path class="cls-2" d="M66.57,24.45H60.71V42.51a17,17,0,0,1,3.9,10.85,16.87,16.87,0,0,1-2.19,8.37h0l-.08.1,2.76,2.65.08.07-.08.08-4.22,4.53-.08.08-.07-.09,0,0v9.18a29.79,29.79,0,0,0,4.38-2.92c.54-.44,1.06-.9,1.55-1.35Z"/><path class="cls-2" d="M46.2,70.07V81.64a18.65,18.65,0,0,0,2,.1,22.21,22.21,0,0,0,3.94-.36V69.68a16.06,16.06,0,0,1-4,.5A14.81,14.81,0,0,1,46.2,70.07Z"/><path class="cls-2" d="M52.14,37V24.45H46.23V36.64a16.21,16.21,0,0,1,5.92.4Z"/><path class="cls-4" d="M59.19,24.45H53.53v13a16.35,16.35,0,0,1,5.66,3.44Z"/><path class="cls-4" d="M53.58,69.23l-.07,0V81.09a29.13,29.13,0,0,0,5.68-2V67.43l-.81-.91A16.48,16.48,0,0,1,53.58,69.23Z"/><path class="cls-5" d="M48.1,37.17A16.07,16.07,0,0,1,64,53.36a16.49,16.49,0,0,1-.61,4.42,15.74,15.74,0,0,1-1.73,4l2.68,2.7.08.07-.08.07-3.48,3.62-.08.08-.06-.08-2.39-2.51a15.7,15.7,0,0,1-4.75,2.81,15.47,15.47,0,0,1-5.46,1,16.19,16.19,0,0,1,0-32.37Z"/><path class="cls-1" d="M48.1,37.38a16,16,0,0,0,0,31.95,15.43,15.43,0,0,0,5.4-1,15.82,15.82,0,0,0,4.74-2.84l.08-.07.06.08L60.76,68l3.34-3.47-2.66-2.68,0-.06,0-.07a15.54,15.54,0,0,0,1.76-4,16.17,16.17,0,0,0,.59-4.37A15.85,15.85,0,0,0,48.1,37.38Z"/><path class="cls-4" d="M48.1,43.21a10.08,10.08,0,0,1,10,10.15,9.84,9.84,0,0,1-.83,4.06l-.06.15-.11-.12-.52-.57-3.37,3.45.9,1,.07.09-.09.06a9.79,9.79,0,0,1-5.95,2,10.16,10.16,0,0,1,0-20.31Z"/><path class="cls-1" d="M56.92,49.12l-16-2.45a10.15,10.15,0,0,0-1.7,2.6,8.67,8.67,0,0,1,.11.94,8.89,8.89,0,0,1,.06,1l0,5.3.64,0V51.14a2.34,2.34,0,0,1,1.52-2.33,2.73,2.73,0,0,1,1-.19,3,3,0,0,1,1,.18,2.16,2.16,0,0,1,1.51,2.09V56.1L46,56V51.43a2.05,2.05,0,0,1,1.52-1.75,2.84,2.84,0,0,1,.9-.19,2.54,2.54,0,0,1,.88.15,1.8,1.8,0,0,1,1.12,1.86v4.19l.93-.08V52.25a2,2,0,0,1,1.26-2,2.46,2.46,0,0,1,.85-.16,2.37,2.37,0,0,1,.85.15,1.78,1.78,0,0,1,1.23,1.71v3.36l.85-.06,0-2.92a1.54,1.54,0,0,1,.34-.9,2.54,2.54,0,0,1,.8-.64c-.08-.28-.16-.56-.26-.82A8.51,8.51,0,0,0,56.92,49.12Z"/><path class="cls-6" d="M46.66,39.24a1.17,1.17,0,0,0-.47-.42,1.31,1.31,0,0,0-.38-.09.83.83,0,0,0-.22,0,1,1,0,0,0-.67.42,1.2,1.2,0,0,0-.14.85,1,1,0,0,0,.41.72.87.87,0,0,0,.62.18h.09a.91.91,0,0,0,.42-.2,1,1,0,0,0,.27-.37.32.32,0,0,1,0,.08,2.13,2.13,0,0,1,0,.5,1.34,1.34,0,0,1-.08.4.64.64,0,0,1-.19.27.6.6,0,0,1-.3.14.69.69,0,0,1-.25,0l-.11,0a.72.72,0,0,1-.25-.36l-.36.11a.86.86,0,0,0,.38.53.7.7,0,0,0,.34.12,1,1,0,0,0,.3,0,1,1,0,0,0,.58-.31,1.17,1.17,0,0,0,.3-.62,3.32,3.32,0,0,0,0-1A2.37,2.37,0,0,0,46.66,39.24Zm-.31,1a.58.58,0,0,1-.41.27l-.13,0a.78.78,0,0,1-.36-.13.74.74,0,0,1-.27-.47.82.82,0,0,1,.1-.59.58.58,0,0,1,.42-.3h.11a.54.54,0,0,1,.35.13.79.79,0,0,1,.27.51A.82.82,0,0,1,46.35,40.28Z"/><path class="cls-6" d="M41.24,40.28a1.35,1.35,0,0,1-.09.56,2.54,2.54,0,0,1-.33.63l.19.33a2.5,2.5,0,0,0,.26-.38,2,2,0,0,0,.2-.43l1.22,2.24L43,43l-1.57-2.88Z"/><path class="cls-6" d="M49.24,40.28l.36.1a1.12,1.12,0,0,1,.28-.18.69.69,0,0,1,.35,0,.63.63,0,0,1,.46.28.72.72,0,0,1,.1.57.85.85,0,0,1-.3.54.56.56,0,0,1-.51.13.57.57,0,0,1-.38-.22.84.84,0,0,1-.13-.5l-.41,0a1,1,0,0,0,.19.72,1.14,1.14,0,0,0,.67.37,1,1,0,0,0,.91-.25,1.25,1.25,0,0,0,.37-.71,1,1,0,0,0-.15-.8,1,1,0,0,0-.65-.42,1,1,0,0,0-.64.09l.32-.83,1.27.22.07-.37-1.58-.29Z"/><path class="cls-6" d="M53.45,43.29a.89.89,0,0,0,.6.12l.2-.06a1.51,1.51,0,0,0,.37-.25,2.52,2.52,0,0,0,.54-.76,2.68,2.68,0,0,0,.31-.71,1.66,1.66,0,0,0,.06-.53.91.91,0,0,0-.49-.75.85.85,0,0,0-.59-.11.66.66,0,0,0-.2.06,1.19,1.19,0,0,0-.38.25,3.1,3.1,0,0,0-.54.75A2.29,2.29,0,0,0,53,42.63.94.94,0,0,0,53.45,43.29Zm.24-1.78a2.53,2.53,0,0,1,.56-.78l.14-.1a.5.5,0,0,1,.49,0,.61.61,0,0,1,.28.47,2.15,2.15,0,0,1-.35,1,2.84,2.84,0,0,1-.56.76.38.38,0,0,1-.11.08.53.53,0,0,1-.53,0,.54.54,0,0,1-.27-.46A1.85,1.85,0,0,1,53.69,41.51Z"/><path class="cls-6" d="M62.48,55.44a1,1,0,0,0-.1-.39.82.82,0,0,0-.25-.28.84.84,0,0,0-.4-.17.76.76,0,0,0-.26,0,.59.59,0,0,0-.25.07.81.81,0,0,0-.36.39.83.83,0,0,0-.24-.38.69.69,0,0,0-.36-.18.46.46,0,0,0-.2,0,1.05,1.05,0,0,0-.24.06.67.67,0,0,0-.35.29,1.57,1.57,0,0,0-.21.58l-.21,1.21,1,.19,1.41.25.76.13L62.44,56A2.17,2.17,0,0,0,62.48,55.44Zm-1.89.31-.13.69-.4-.06-.56-.11.12-.64a2,2,0,0,1,.12-.49.41.41,0,0,1,.2-.19l.12,0a.37.37,0,0,1,.18,0,.52.52,0,0,1,.26.12.54.54,0,0,1,.12.29A2.47,2.47,0,0,1,60.59,55.75Zm1.47.16-.13.8-.46-.08-.63-.12.12-.75a2.13,2.13,0,0,1,.14-.46.51.51,0,0,1,.23-.23.35.35,0,0,1,.14,0h.18a.56.56,0,0,1,.26.11.61.61,0,0,1,.19.46A1.62,1.62,0,0,1,62.06,55.91Z"/><polygon class="cls-6" points="40.2 62.29 40.43 62.54 40.71 62.28 40.2 61.73 38.97 60.37 38.68 60.64 39.41 61.43 37.91 62.85 37.33 63.4 37.62 63.72 37.91 63.45 39.7 61.75 40.2 62.29"/><path class="cls-6" d="M55.88,64.62l-.23.08a1.06,1.06,0,0,1,0,.7,1,1,0,0,1-.41.5,1,1,0,0,1-.56.16.89.89,0,0,1-.55-.2,2.11,2.11,0,0,1-.47-.57,1.86,1.86,0,0,1-.23-.59,1,1,0,0,1,0-.61,1.05,1.05,0,0,1,.44-.48.94.94,0,0,1,.54-.13.92.92,0,0,1,.54.27l.31-.3a1.28,1.28,0,0,0-.74-.37,1.37,1.37,0,0,0-.83.22,1.64,1.64,0,0,0-.57.57,1.33,1.33,0,0,0-.17.79,2,2,0,0,0,.28.86,2.39,2.39,0,0,0,.59.67,1.35,1.35,0,0,0,.75.27,1.51,1.51,0,0,0,.83-.26,1.34,1.34,0,0,0,.4-.34,1.28,1.28,0,0,0,.19-.34,1.57,1.57,0,0,0,0-1Z"/><path class="cls-6" d="M38.49,59.75l-.18-.39-.4.2-1.28.63a1.21,1.21,0,0,1-.83.18.86.86,0,0,1-.48-.51,1,1,0,0,1-.11-.48.65.65,0,0,1,.16-.38,1.71,1.71,0,0,1,.52-.35l1.67-.83-.18-.39-1.68.83a2.23,2.23,0,0,0-.67.48.9.9,0,0,0-.22.57,1.78,1.78,0,0,0,.67,1.36.94.94,0,0,0,.6.16,2.14,2.14,0,0,0,.74-.25L37.91,60Z"/><polygon class="cls-6" points="35.32 56.61 35.69 56.54 35.43 55.03 36.41 54.85 36.72 56.61 37.09 56.54 36.72 54.36 33.54 54.92 33.61 55.35 35.06 55.09 35.32 56.61"/><path class="cls-6" d="M42.42,63.38l-.6-.38-.43-.27-1.19,2-.51.82.51.32.53.34a2,2,0,0,0,.48.24.71.71,0,0,0,.37,0,.53.53,0,0,0,.24-.06l.13-.07a.89.89,0,0,0,.3-.31.84.84,0,0,0,.12-.51.78.78,0,0,0-.22-.49.77.77,0,0,0,.44-.08.66.66,0,0,0,.3-.27.72.72,0,0,0,.12-.43.71.71,0,0,0-.14-.45A1.3,1.3,0,0,0,42.42,63.38Zm-.54,2.39-.06.08a.53.53,0,0,1-.14.12.42.42,0,0,1-.24.07.65.65,0,0,1-.25-.06l-.26-.14-.67-.44.58-1,.63.41a2,2,0,0,1,.35.27l0,0a.53.53,0,0,1,.11.31A.55.55,0,0,1,41.88,65.77Zm.63-1.3a.55.55,0,0,1-.22.21.56.56,0,0,1-.29,0,.75.75,0,0,1-.18-.09l-.19-.11-.58-.37.5-.83.27.16.29.17a2.25,2.25,0,0,1,.39.31.4.4,0,0,1,.1.26A.45.45,0,0,1,42.51,64.47Z"/><polygon class="cls-6" points="48.56 67.81 48.31 64.92 47.89 64.96 48.16 68.23 50.17 68.05 50.14 67.67 48.56 67.81"/><polygon class="cls-6" points="57.99 63.72 55.91 61.75 55.88 61.77 55.62 62.07 55.88 62.33 57.97 64.3 59.33 62.81 59.06 62.54 57.99 63.72"/><path class="cls-6" d="M61,58.91a1.88,1.88,0,0,0-.64-.45l-.31-.16-1.36-.68-.19.4,1.55.77.12.06a1.28,1.28,0,0,1,.65.55.93.93,0,0,1-.1.7.86.86,0,0,1-.31.38.53.53,0,0,1-.36.11h0a1.68,1.68,0,0,1-.59-.21l-1.66-.82-.19.38,1.67.84A2,2,0,0,0,60,61h0a.83.83,0,0,0,.56-.17,1.61,1.61,0,0,0,.47-.61,1.43,1.43,0,0,0,.16-.77A.87.87,0,0,0,61,58.91Z"/><path class="cls-6" d="M46.4,65a1.62,1.62,0,0,0-.72-.41,1.52,1.52,0,0,0-.42-.06,1.48,1.48,0,0,0-.78.23,1.78,1.78,0,0,0-.71,1.14,1.71,1.71,0,0,0,0,.84,1.4,1.4,0,0,0,.38.72,1.42,1.42,0,0,0,.74.43,2.58,2.58,0,0,0,.39,0,3,3,0,0,0,.42,0,1.51,1.51,0,0,0,.68-.44,2,2,0,0,0,.4-.83,2,2,0,0,0,0-.9A1.42,1.42,0,0,0,46.4,65Zm-.06,1.52a1.4,1.4,0,0,1-.54.87.94.94,0,0,1-.54.17,1.15,1.15,0,0,1-.31,0,1,1,0,0,1-.68-.52,1.34,1.34,0,0,1-.08-1,1.4,1.4,0,0,1,.56-1,1.16,1.16,0,0,1,.51-.16,1,1,0,0,1,.33,0,1,1,0,0,1,.52.29,1.08,1.08,0,0,1,.26.55A1.78,1.78,0,0,1,46.34,66.51Z"/><path class="cls-2" d="M49.4,61.63a2.16,2.16,0,0,1-1.66-.08,2.23,2.23,0,0,1-1.06-2.94,2.18,2.18,0,0,1,1.23-1.15,2.12,2.12,0,0,1,1.66.08,2.16,2.16,0,0,1,1.13,1.24,2.26,2.26,0,0,1-.07,1.7A2.18,2.18,0,0,1,49.4,61.63Z"/><path class="cls-1" d="M50.62,58.9l0-.08,0,0a.79.79,0,0,1,0,.12Z"/><polygon class="cls-1" points="47.02 60.85 47.02 60.85 47.02 60.85 47.02 60.85"/><path class="cls-1" d="M50.11,58.11a2,2,0,0,1,.46.81.92.92,0,0,1,.15.14,2.5,2.5,0,0,0-.07-.26A2.19,2.19,0,0,0,50.1,58,.38.38,0,0,1,50.11,58.11Z"/><path class="cls-1" d="M47.89,57.63a1.94,1.94,0,0,1,1-.13.56.56,0,0,1,.14-.09,2.12,2.12,0,0,0-1.08.1l-.25.11Z"/><path class="cls-1" d="M48.67,61.61l-.15.08a2.11,2.11,0,0,0,.86-.12l.2-.08h-.12A1.7,1.7,0,0,1,48.67,61.61Z"/><path class="cls-1" d="M46.67,60.08l-.09-.1c0,.1.05.2.08.3a2.22,2.22,0,0,0,.4.68c0-.06,0-.12,0-.13A2.58,2.58,0,0,1,46.67,60.08Z"/><path class="cls-1" d="M49.77,61a1.25,1.25,0,0,1-.2.43h.16a2.23,2.23,0,0,0,.85-.95c0-.09.07-.18.1-.27a.86.86,0,0,1-.29.14A1.73,1.73,0,0,1,49.77,61Z"/><path class="cls-1" d="M46.56,59.83l.12.14a1.13,1.13,0,0,1,.2-.37,2.43,2.43,0,0,1,.12-.92.84.84,0,0,1-.07-.39,1.9,1.9,0,0,0-.2.34,2.28,2.28,0,0,0-.18,1.19h0Z"/><path class="cls-1" d="M48.35,61.67l.22-.09a.73.73,0,0,1-.21-.32,3.59,3.59,0,0,1-.81-.4.71.71,0,0,1-.42,0,1.05,1.05,0,0,0,0,.19h0a2.1,2.1,0,0,0,1.16.59h0Z"/><path class="cls-1" d="M48.28,58.68a1.9,1.9,0,0,1,.8-.12l.29-.58a1,1,0,0,0-.48-.4,1.77,1.77,0,0,0-1,.13,1,1,0,0,0-.18.53A1.87,1.87,0,0,1,48.28,58.68Z"/><path class="cls-1" d="M48.22,58.74a1.5,1.5,0,0,0-.56-.43,1.13,1.13,0,0,0-.57.37,2.25,2.25,0,0,0-.13.91,1.42,1.42,0,0,0,.49.37,1.93,1.93,0,0,1,.69-.43A2.92,2.92,0,0,1,48.22,58.74Z"/><path class="cls-1" d="M49.45,58l-.29.58a1.92,1.92,0,0,1,.38.69,1.59,1.59,0,0,1,.71.15A1.27,1.27,0,0,0,50.5,59a1.83,1.83,0,0,0-.46-.8A.77.77,0,0,0,49.45,58Z"/><path class="cls-1" d="M49.53,59.37A3.27,3.27,0,0,1,49,60a4.08,4.08,0,0,1,.14.79,2.46,2.46,0,0,0,.61.15,1.69,1.69,0,0,0,.62-.66,1.78,1.78,0,0,0-.1-.72A1.23,1.23,0,0,0,49.53,59.37Z"/><path class="cls-1" d="M48.18,59.6a2,2,0,0,0-.68.43,2.19,2.19,0,0,0,.08.75,3.48,3.48,0,0,0,.8.4,3.56,3.56,0,0,0,.64-.42,2.81,2.81,0,0,0-.13-.79A3.76,3.76,0,0,1,48.18,59.6Z"/></svg>