<svg id="Capa_1" data-name="Capa 1" xmlns="http://www.w3.org/2000/svg" viewBox="0 0 90 90"><defs><style>.cls-1{fill:#0033a1;}.cls-2,.cls-5{fill:#fff;}.cls-2,.cls-4{fill-rule:evenodd;}.cls-3,.cls-4{fill:#ffa400;}.cls-6{fill:#f2f2f2;opacity:0.21;}</style></defs><title>Tigres-90x90</title><rect class="cls-1" x="28.17" y="21.41" width="38.86" height="56.92"/><path class="cls-2" d="M27.3,20.57v58.6H67.89V20.57ZM67,78.33H28.17V21.41H67Z"/><path class="cls-3" d="M47.6,52.11c5.74,0,5.71-5,5.71-5V32.36H67v4.38H65.88a1.12,1.12,0,0,0-1.14,1.09l0,17.64s.47,14-17,14.11h-.09c-17.52-.11-17-14.11-17-14.11l-.05-17.64a1.11,1.11,0,0,0-1.14-1.09H28.17V32.36H41.88V47.13S41.85,52.08,47.6,52.11Z"/><path class="cls-4" d="M36.51,70.67h.68v3.87a7.08,7.08,0,0,0,0,.86,1.36,1.36,0,0,0,.23.63,1.53,1.53,0,0,0,.57.43,2,2,0,0,0,.78.17,1.74,1.74,0,0,0,.64-.13,1.56,1.56,0,0,0,.52-.38,1.54,1.54,0,0,0,.31-.58,4.87,4.87,0,0,0,.07-1V70.67H41v3.87a4.35,4.35,0,0,1-.18,1.38,1.89,1.89,0,0,1-.71.92,2.1,2.1,0,0,1-1.3.4,2.64,2.64,0,0,1-1.41-.37,1.84,1.84,0,0,1-.79-1,5.09,5.09,0,0,1-.12-1.35Z"/><path class="cls-4" d="M45.16,70.67l3.18,6.41h-.73L46.55,75H43.6l-1.06,2.11h-.76L45,70.67ZM45.08,72l-1.17,2.34h2.33Z"/><polygon class="cls-4" points="49 77.08 49 70.67 49.15 70.67 53.67 75.57 53.67 70.67 54.35 70.67 54.35 77.08 54.2 77.08 49.7 72.22 49.7 77.08 49 77.08"/><polygon class="cls-4" points="55.84 70.67 56.52 70.67 56.52 76.45 59.15 76.45 59.15 77.08 55.84 77.08 55.84 70.67"/><polygon class="cls-4" points="32.32 12.26 31.32 15.26 28.24 15.26 30.7 17.1 29.71 20.09 32.36 18.24 34.95 20.12 33.95 17.09 36.59 15.25 33.33 15.25 32.32 12.26"/><polygon class="cls-4" points="42.48 12.26 41.48 15.26 38.41 15.26 40.87 17.1 39.87 20.09 42.52 18.24 45.11 20.12 44.11 17.09 46.76 15.25 43.49 15.25 42.48 12.26"/><polygon class="cls-4" points="52.64 12.26 51.64 15.26 48.57 15.26 51.03 17.1 50.03 20.09 52.68 18.24 55.27 20.12 54.27 17.09 56.92 15.25 53.66 15.25 52.64 12.26"/><polygon class="cls-4" points="47.5 4 46.49 7 43.42 7 45.88 8.84 44.89 11.83 47.54 9.98 50.13 11.86 49.13 8.82 51.77 6.99 48.51 6.99 47.5 4"/><polygon class="cls-4" points="62.8 12.26 61.8 15.26 58.73 15.26 61.19 17.1 60.2 20.09 62.85 18.24 65.44 20.12 64.43 17.09 67.08 15.25 63.82 15.25 62.8 12.26"/><polygon class="cls-4" points="28.74 23.53 28.74 22.72 33.52 22.72 33.52 23.53 31.57 23.53 31.57 31.05 30.69 31.05 30.69 23.53 28.74 23.53"/><rect class="cls-3" x="34.66" y="22.72" width="0.88" height="8.34"/><path class="cls-4" d="M46.06,24.11l-.68.62a5.1,5.1,0,0,0-1.61-1,4.44,4.44,0,0,0-1.7-.36,4.28,4.28,0,0,0-2,.48,3.66,3.66,0,0,0-1.44,1.31,3.22,3.22,0,0,0,0,3.54A3.69,3.69,0,0,0,40.14,30a4.43,4.43,0,0,0,2,.49,3.62,3.62,0,0,0,2.28-.73,2.78,2.78,0,0,0,1.11-1.88H42.8v-.81h3.77a4.07,4.07,0,0,1-1.21,3.07,4.41,4.41,0,0,1-3.19,1.13,4.93,4.93,0,0,1-3.85-1.57,4.16,4.16,0,0,1-.46-5,4.46,4.46,0,0,1,1.71-1.6A5.26,5.26,0,0,1,42,22.51a5.88,5.88,0,0,1,2.1.38A6.37,6.37,0,0,1,46.06,24.11Z"/><path class="cls-4" d="M48.27,22.72H50a10.67,10.67,0,0,1,2,.11,2.29,2.29,0,0,1,1.27.73,2,2,0,0,1,.49,1.37,2.11,2.11,0,0,1-.34,1.2,2.08,2.08,0,0,1-1,.78,4.85,4.85,0,0,1-1.73.27l3.15,3.88H52.8l-3.15-3.88h-.5v3.88h-.88Zm.88.81v2.83l1.51,0a4.12,4.12,0,0,0,1.3-.16,1.37,1.37,0,0,0,.89-1.29,1.29,1.29,0,0,0-.24-.76,1.33,1.33,0,0,0-.63-.49,3.9,3.9,0,0,0-1.29-.15Z"/><polygon class="cls-4" points="55.7 22.72 60.71 22.72 60.71 23.53 56.58 23.53 56.58 26.14 60.67 26.14 60.67 26.96 56.58 26.96 56.58 30.24 60.67 30.24 60.67 31.05 55.7 31.05 55.7 22.72"/><path class="cls-4" d="M61.33,29.49l.74-.42c.52.92,1.13,1.38,1.82,1.38a1.77,1.77,0,0,0,.82-.19,1.39,1.39,0,0,0,.59-.53,1.27,1.27,0,0,0,.21-.69,1.4,1.4,0,0,0-.3-.82,6.86,6.86,0,0,0-1.51-1.34,8.41,8.41,0,0,1-1.36-1.14,2,2,0,0,1-.46-1.28,1.89,1.89,0,0,1,.27-1,1.87,1.87,0,0,1,.77-.7A2.27,2.27,0,0,1,64,22.51a2.32,2.32,0,0,1,1.16.29,3.84,3.84,0,0,1,1.15,1.07l-.72.52a3.26,3.26,0,0,0-.84-.82,1.45,1.45,0,0,0-.77-.2,1.23,1.23,0,0,0-.86.3,1,1,0,0,0-.34.76,1.2,1.2,0,0,0,.12.52,2,2,0,0,0,.43.56c.12.11.5.38,1.14.83A6.22,6.22,0,0,1,66,27.77,2.2,2.2,0,0,1,66.45,29a2.11,2.11,0,0,1-.72,1.58,2.52,2.52,0,0,1-1.76.66,2.65,2.65,0,0,1-1.44-.4A3.66,3.66,0,0,1,61.33,29.49Z"/><path class="cls-1" d="M48.89,47.83c.5,0,1.2.92,1.2,1.37a.53.53,0,0,1-.1.35,18.91,18.91,0,0,1-1.38-1.45v-.18A.71.71,0,0,1,48.89,47.83Zm-2.58,0a.62.62,0,0,1,.27.09v.18a17.15,17.15,0,0,1-1.38,1.45.59.59,0,0,1-.1-.35C45.1,48.75,45.8,47.83,46.31,47.83Z"/><path class="cls-1" d="M50,49.61l0,0a7.94,7.94,0,0,1-.94-1l-.44-.49h0V47.9h0a.63.63,0,0,1,.3-.1c.54,0,1.24,1,1.24,1.41a.61.61,0,0,1-.1.37Zm-1.35-1.53c.14.14.28.31.44.48a8.88,8.88,0,0,0,.89.93.51.51,0,0,0,.07-.29c0-.41-.68-1.32-1.16-1.32a.51.51,0,0,0-.24.07Zm-3.46,1.53,0,0a.56.56,0,0,1-.11-.37c0-.46.7-1.41,1.25-1.41a.63.63,0,0,1,.3.1h0v.21h0l-.45.49a7.94,7.94,0,0,1-.94,1Zm1.12-1.73c-.49,0-1.16.91-1.16,1.32a.58.58,0,0,0,.06.29,8.92,8.92,0,0,0,.9-.93l.43-.48V48A.48.48,0,0,0,46.31,47.88Z"/><path class="cls-5" d="M42.87,47a4.85,4.85,0,0,0-2.31,1.73c-.16-.27-.22-.35-.3-.35-.39,0-.4.72-.4.73A2.2,2.2,0,0,0,40,50a11.35,11.35,0,0,0,2.63,1.47s.08,0,.13-.1c.43.54,1,.93,1,1.29,0,.09-.23.8-.29,1.09l-.19-.33c-.18-1.44-1.67-1.67-2.69-1.67l-1.21.12c-.64,0-1.08-1-1.08-1.43s.6-1.06.6-1.32-.4-.19-.4-.47a3.59,3.59,0,0,1,.7-1.36A21,21,0,0,1,42.7,46c.19,0,.53.21.53.36A2,2,0,0,1,42.87,47Zm15.54,6.15c0-.16.5-.85.8-.85l.41.16v1.3a2.78,2.78,0,0,1,.09,1.29c0,.31,0,3.44-1.4,3.77l-.78-.09c-.53,0-.93,1-1.18,1.45-.43-.3-2-1.33-2.46-1.73.3,0,4.2-.51,4.2-1.78,0-.1-.12-.24-.12-.34,0-.31.36-.68.36-1.48Zm-5.43.6c.39-.14,2-1.68,2.41-1.68.08,0,.63.11.87.17a8.4,8.4,0,0,1-1.94,2,14.49,14.49,0,0,1-2.31.81A2.17,2.17,0,0,1,53,53.76ZM52.32,47a2,2,0,0,1-.36-.68c0-.15.33-.36.53-.36a20.56,20.56,0,0,1,3.42,1.27,3.47,3.47,0,0,1,.71,1.36c0,.28-.4.08-.4.47s.6.82.6,1.32-.44,1.43-1.09,1.43l-1.2-.12c-1,0-2.51.23-2.69,1.67l-.19.33c-.07-.29-.29-1-.29-1.09,0-.36.61-.75,1-1.29.05.11.09.1.13.1A11.35,11.35,0,0,0,55.16,50a2.42,2.42,0,0,0,.17-.83s0-.73-.4-.73c-.08,0-.14.08-.3.35A4.85,4.85,0,0,0,52.32,47ZM36.78,53.16l.08,1.7c0,.8.36,1.17.36,1.48,0,.1-.12.24-.12.34,0,1.27,3.9,1.82,4.19,1.78-.5.4-2,1.43-2.46,1.73-.24-.41-.64-1.45-1.17-1.45l-.79.09c-1.36-.33-1.39-3.46-1.39-3.77a2.84,2.84,0,0,1,.08-1.29v-1.3l.42-.16C36.28,52.31,36.78,53,36.78,53.16Zm5.42.6a2.14,2.14,0,0,1,1,1.3,14.49,14.49,0,0,1-2.32-.81,8.8,8.8,0,0,1-1.94-2c.25-.06.79-.17.88-.17C40.18,52.08,41.82,53.62,42.2,53.76Z"/><path class="cls-4" d="M43.84,56l.09.92A1.71,1.71,0,0,0,43.84,56Zm7.53,0a1.62,1.62,0,0,0-.1.92Zm1.92-1.58c.17.43,1.06.5,1.38.5.07,0,.67.11.67-.33,0-.1-.07-.21-.07-.31a6.69,6.69,0,0,1,1.66-1.43,6.71,6.71,0,0,1,1,1s-.59,1.49-1,2.21-2.1,1.07-2.1,1.07a5.52,5.52,0,0,0,1.45,1.64c-.1,0-.53.13-.63.13-1,0-2.23-1.18-3.1-1.71C53,58.19,54,59.51,54,60.47c0,.72-1.09,2.43-2.26,2.43-.11,0-.26,0-.26-.19s.15-1.48-.7-1.48A15.34,15.34,0,0,0,47.62,63v0h0v0a15.34,15.34,0,0,0-3.14-1.77c-.85,0-.7,1.25-.7,1.48s-.15.19-.26.19c-1.17,0-2.26-1.71-2.26-2.43,0-1,1-2.28,1.47-3.21-.87.53-2.11,1.71-3.1,1.71-.1,0-.53-.12-.63-.13a5.52,5.52,0,0,0,1.45-1.64s-1.62-.23-2.1-1.07-1-2.21-1-2.21a6.71,6.71,0,0,1,1-1,6.74,6.74,0,0,1,1.67,1.43c0,.1-.09.21-.09.31,0,.44.61.33.68.33.32,0,1.21-.07,1.38-.5A2.73,2.73,0,0,1,43.84,56c-.11-1-.26-2.41-.26-2.48s.2-.8.2-.89c0-.55-.71-1-1.06-1.37a9.11,9.11,0,0,1-1.31-2.08,4,4,0,0,1,.58-1c.36-.55.7-.68.91-1.3a2.15,2.15,0,0,0,.28-.54.39.39,0,0,0-.44-.39,18.66,18.66,0,0,0-3.32,1.16,2.85,2.85,0,0,0-1,1.53c0,.21-.18,3.34.32,3.72-.72.44-1.16,1.22-2,1.72-.1-.53.11-1.66-.86-1.72.08-.25-1.19-.31-1.31,0-.39.14-.83.25-1.25.41,0-.06-.34-.27-.34-.37,0-3.32,5.91-6,5.91-7.9,0-.67-.82-.68-1.4-.64a17.53,17.53,0,0,1,3-1h-.28c-1.85,0-3.28.62-5.13,2.52.53-.69.38-1.3.52-2,.23-1,1.91-1.3,2.58-1.3.92,0,1.86.39,2.75.39,2.14,0,2.45-1.83,6.69-1.83h0c4.25,0,4.55,1.83,6.69,1.83.89,0,1.83-.39,2.75-.39.67,0,2.35.27,2.57,1.3.15.7,0,1.31.53,2-1.85-1.9-3.28-2.52-5.13-2.52h-.28a17.53,17.53,0,0,1,3,1c-.57,0-1.4,0-1.4.64,0,1.86,5.91,4.58,5.91,7.9,0,.1-.33.31-.34.37-.42-.16-.86-.27-1.25-.41-.12-.3-1.39-.24-1.31,0-1,.06-.76,1.19-.86,1.72-.83-.5-1.27-1.28-2-1.72.5-.38.33-3.51.32-3.72a2.85,2.85,0,0,0-1-1.53A18.66,18.66,0,0,0,52.46,46a.39.39,0,0,0-.44.39,2.15,2.15,0,0,0,.28.54c.22.62.55.75.91,1.3a4,4,0,0,1,.58,1,9.44,9.44,0,0,1-1.3,2.08c-.36.37-1.07.82-1.07,1.37,0,.09.2.79.2.89s-.15,1.5-.25,2.48A2.7,2.7,0,0,1,53.29,54.46Z"/><path class="cls-3" d="M47.63,63.15l0,0,0,0,0-.12a16.44,16.44,0,0,0-3.1-1.75.54.54,0,0,0-.41.16,1.73,1.73,0,0,0-.25,1.18v.1c0,.21-.12.24-.21.24h-.09c-1.19,0-2.31-1.7-2.31-2.47a5.43,5.43,0,0,1,1-2.3c.17-.28.33-.55.45-.8l-.63.45A4.81,4.81,0,0,1,39.59,59a2.64,2.64,0,0,1-.41-.08l-.23,0h-.09l.07-.06a5.54,5.54,0,0,0,1.41-1.58c-.29,0-1.62-.31-2.06-1.08s-1-2.2-1-2.21v0c0-.12.77-.89.78-.9.17-.17.19-.17.21-.17a5.07,5.07,0,0,1,.92.65c.29.25.79.69.79.82a.53.53,0,0,1,0,.17.27.27,0,0,0,0,.14c0,.2.14.3.43.3h.2c.4,0,1.19-.1,1.34-.47v0h0a2.82,2.82,0,0,1,1.85,1.37c-.15-1.43-.23-2.18-.23-2.23a4.08,4.08,0,0,1,.1-.46,3.59,3.59,0,0,0,.1-.43c0-.4-.39-.74-.74-1.05l-.32-.29a9.28,9.28,0,0,1-1.31-2.11,2.69,2.69,0,0,1,.5-.89l.08-.11a5.26,5.26,0,0,1,.41-.52,2.06,2.06,0,0,0,.5-.78h0a2.59,2.59,0,0,0,.27-.51.36.36,0,0,0-.4-.35,15.39,15.39,0,0,0-3.07,1.06l-.23.1,0,0a3,3,0,0,0-1,1.47c0,.66-.13,3.35.31,3.69l.05,0-.05,0a4.49,4.49,0,0,0-.91.79,5.24,5.24,0,0,1-1.09.93l0,0v-.06c0-.12,0-.26,0-.42,0-.55-.06-1.23-.78-1.26h-.06l0-.05a0,0,0,0,0,0,0,1,1,0,0,0-.59-.13c-.33,0-.59.07-.63.18h0l-.54.18c-.24.07-.48.14-.71.23h-.05v0l-.12-.1c-.13-.12-.22-.2-.22-.27,0-1.91,1.91-3.6,3.6-5.09,1.23-1.09,2.3-2,2.3-2.81,0-.42-.32-.61-1-.61h-.43l.07-.07a16.44,16.44,0,0,1,2.78-1h0c-1.91,0-3.33.7-5.1,2.51l-.06,0A2.34,2.34,0,0,0,35.46,44a4.53,4.53,0,0,1,.07-.62c.24-1.09,2-1.33,2.62-1.33a6.75,6.75,0,0,1,1.41.2,6.36,6.36,0,0,0,1.34.19A4.07,4.07,0,0,0,43,41.75a8.27,8.27,0,0,1,4.58-1.15h0a8.27,8.27,0,0,1,4.58,1.15,4.07,4.07,0,0,0,2.11.68,6.36,6.36,0,0,0,1.34-.19,6.75,6.75,0,0,1,1.41-.2c.6,0,2.38.24,2.62,1.33a4.53,4.53,0,0,1,.07.62,2.34,2.34,0,0,0,.44,1.37l-.06,0C58.35,43.6,56.93,42.9,55,42.9h0a16.44,16.44,0,0,1,2.78,1l.07.07h-.43c-.7,0-1,.19-1,.61,0,.78,1.07,1.72,2.3,2.81,1.69,1.49,3.6,3.18,3.6,5.09,0,.07-.09.15-.22.27a.69.69,0,0,0-.12.11v.05l0,0c-.23-.09-.47-.16-.7-.23l-.55-.18h0c0-.11-.3-.18-.63-.18a1,1,0,0,0-.59.13,0,0,0,0,0,0,0l0,.05h-.06c-.72,0-.75.71-.78,1.26,0,.16,0,.3,0,.42v.06l-.05,0a5.24,5.24,0,0,1-1.09-.93,4.49,4.49,0,0,0-.91-.79l0,0,0,0c.43-.33.35-3,.31-3.69a2.93,2.93,0,0,0-1-1.48h0l-.24-.1a15.39,15.39,0,0,0-3.07-1.06.36.36,0,0,0-.4.35,2.59,2.59,0,0,0,.27.51h0a2.06,2.06,0,0,0,.5.78,4.11,4.11,0,0,1,.41.52l.08.11a2.69,2.69,0,0,1,.5.89,9.28,9.28,0,0,1-1.31,2.11l-.32.29c-.35.31-.74.65-.74,1.05a3.59,3.59,0,0,0,.1.43,4.08,4.08,0,0,1,.1.46c0,.06-.13,1.32-.23,2.23a2.82,2.82,0,0,1,1.85-1.37h0v0c.15.37.94.47,1.34.47h.19c.3,0,.44-.1.44-.3a.43.43,0,0,0,0-.14.53.53,0,0,1,0-.17c0-.13.5-.57.79-.82a5.07,5.07,0,0,1,.92-.65s0,0,.22.18a5.81,5.81,0,0,1,.77.89v0s-.59,1.5-1,2.21-1.77,1-2.07,1.08a5.75,5.75,0,0,0,1.42,1.58l.07.06h-.09l-.23,0a2.64,2.64,0,0,1-.41.08,4.81,4.81,0,0,1-2.36-1.19l-.63-.45c.12.25.28.52.45.8a5.43,5.43,0,0,1,1,2.3c0,.77-1.12,2.47-2.31,2.47h-.09a.24.24,0,0,1-.15-.05.26.26,0,0,1-.07-.19s0-.06,0-.1a1.73,1.73,0,0,0-.25-1.18.54.54,0,0,0-.41-.16A16.44,16.44,0,0,0,47.66,63Zm-3.19-2A15.43,15.43,0,0,1,47.6,63h0a15.43,15.43,0,0,1,3.16-1.77.64.64,0,0,1,.47.18,1.78,1.78,0,0,1,.28,1.24.46.46,0,0,0,0,.1c0,.06,0,.11,0,.13s.05,0,.09,0h.09c1.16,0,2.22-1.72,2.22-2.39A5.41,5.41,0,0,0,53,58.21c-.2-.34-.39-.65-.53-.94l-.06-.13.13.08a8.52,8.52,0,0,1,.76.54,4.79,4.79,0,0,0,2.31,1.17,2.36,2.36,0,0,0,.38-.08l.16,0a5.43,5.43,0,0,1-1.4-1.6l0,0h.06s1.6-.23,2.06-1,.93-2.06,1-2.19a7.62,7.62,0,0,0-.91-1,7.34,7.34,0,0,0-1.61,1.39.89.89,0,0,0,0,.14.41.41,0,0,1,0,.17c0,.18-.09.38-.53.38h-.19c-.05,0-1.16,0-1.4-.5a2.7,2.7,0,0,0-1.86,1.55l-.1.91h-.08a1.71,1.71,0,0,1,.09-.94c.16-1.5.26-2.42.26-2.47s-.06-.25-.1-.44a2.51,2.51,0,0,1-.1-.45c0-.43.4-.79.76-1.11a3,3,0,0,0,.31-.29,9.42,9.42,0,0,0,1.3-2.05,3.29,3.29,0,0,0-.49-.84l-.08-.12a3.79,3.79,0,0,0-.41-.5,2.21,2.21,0,0,1-.51-.8A2.06,2.06,0,0,1,52,46.4a.43.43,0,0,1,.48-.43A15.77,15.77,0,0,1,55.57,47l.19.08h0a2.85,2.85,0,0,1,1.08,1.58s.19,3.17-.3,3.72a4.91,4.91,0,0,1,.88.77,5.92,5.92,0,0,0,1,.89c0-.11,0-.23,0-.36,0-.53.07-1.27.83-1.33a.14.14,0,0,1,0-.06c.09-.12.41-.16.66-.16s.62,0,.7.21l.52.17c.22.06.46.14.68.22a.69.69,0,0,1,.12-.11c.06-.06.2-.17.2-.21,0-1.88-1.9-3.55-3.58-5-1.25-1.1-2.33-2.06-2.33-2.87s.84-.69,1.11-.69h.18a24,24,0,0,0-2.86-.94l-.14,0,.14,0a.9.9,0,0,1,.24,0H55a6.5,6.5,0,0,1,4.88,2.26A2.86,2.86,0,0,1,59.66,44c0-.19,0-.4-.08-.6-.22-1-1.94-1.27-2.53-1.27a6.66,6.66,0,0,0-1.39.2,7.07,7.07,0,0,1-1.36.19,4.1,4.1,0,0,1-2.15-.69,8.15,8.15,0,0,0-4.54-1.14h0a8.15,8.15,0,0,0-4.54,1.14,4.1,4.1,0,0,1-2.15.69,7.07,7.07,0,0,1-1.36-.19,6.66,6.66,0,0,0-1.39-.2c-.59,0-2.31.23-2.53,1.27a4.3,4.3,0,0,0-.08.6,2.86,2.86,0,0,1-.24,1.09,6.5,6.5,0,0,1,4.88-2.26h0a.9.9,0,0,1,.24,0l.14,0-.14,0a24,24,0,0,0-2.86.94h.18c.27,0,1.11,0,1.11.69s-1.08,1.77-2.34,2.87c-1.67,1.48-3.57,3.15-3.57,5,0,0,.13.15.2.21a.69.69,0,0,1,.12.11c.22-.08.45-.16.68-.22l.52-.17c.11-.2.56-.21.7-.21s.57,0,.66.16l0,.06c.75.06.79.8.81,1.33q0,.2,0,.36a5.92,5.92,0,0,0,1-.89,5.22,5.22,0,0,1,.87-.77c-.48-.55-.29-3.69-.29-3.72a2.85,2.85,0,0,1,1.08-1.58h0l.19-.08A15.77,15.77,0,0,1,42.74,46a.43.43,0,0,1,.48.43,1.78,1.78,0,0,1-.28.55,2.17,2.17,0,0,1-.51.81,3.79,3.79,0,0,0-.41.5l-.07.12a3.08,3.08,0,0,0-.5.84,9.42,9.42,0,0,0,1.3,2.05,3,3,0,0,0,.31.29c.36.32.76.68.76,1.11a2.51,2.51,0,0,1-.1.45c0,.19-.1.4-.1.44s0,.39.26,2.47A1.71,1.71,0,0,1,44,57h-.08l-.1-.91a2.7,2.7,0,0,0-1.86-1.55c-.24.5-1.35.5-1.4.5h-.2c-.43,0-.52-.2-.52-.38a.59.59,0,0,1,0-.17.43.43,0,0,0,0-.14,7.44,7.44,0,0,0-1.62-1.39,9.25,9.25,0,0,0-.9,1,21.82,21.82,0,0,0,1,2.19c.46.82,2,1,2.06,1h.06l0,0a5.56,5.56,0,0,1-1.4,1.6l.16,0a2.36,2.36,0,0,0,.38.08,4.79,4.79,0,0,0,2.31-1.17,8.52,8.52,0,0,1,.76-.54l.13-.08-.06.13c-.14.29-.33.6-.53.94a5.41,5.41,0,0,0-.94,2.26c0,.67,1.06,2.39,2.22,2.39h.09c.07,0,.13,0,.13-.15v-.1A1.72,1.72,0,0,1,44,61.37.64.64,0,0,1,44.44,61.19Z"/><path class="cls-1" d="M45.38,61.93c.54,0,1.55.86,2.23.86s1.66-.86,2.18-.86.4.2.4.43c0,.66-.9,1.12-1.37,1.41a4,4,0,0,0-1.16,1.43h-.14a4.56,4.56,0,0,0-1-1.28C46,63.43,45,63.14,45,62.36,45,62.05,45.12,61.93,45.38,61.93ZM31.78,42.47c.32.91,1,2.35,2.17,2.45.12.22.54.78.85.78.79,0,1.75-2,3.35-2,.43,0,1,.21,1,.59,0,1.84-5.93,4.82-5.93,8.25l.16,2.33A7.62,7.62,0,0,1,33,56.74c-.06.16-.91,1.61-1.23,1.61-.14,0-.2-.4-.2-.43L31.84,56V52.45a2.91,2.91,0,0,1,1.77-3c.79-.4,3.32-2.79,3.32-3.94,0-.33-.25-.4-.46-.4-.61,0-2,.87-2,1.59a8.54,8.54,0,0,0-.66-.73c-.28-.22-.78-.28-1.05-.62a9.55,9.55,0,0,1-1-2.29Zm14.85,3.42c0,.26.56,0,.56.34s-.21.38-.34.61a2.38,2.38,0,0,1-2.37,1.23c-.49,0-.38,0-.46-.62-.32,0-.93.48-1.09.57s-.61.08-.76.18a2.68,2.68,0,0,0-.63.94,10.32,10.32,0,0,0,1.2,2.26s0,.06-.1.06A10.48,10.48,0,0,1,40,49.93a1.48,1.48,0,0,1-.18-.75,1.34,1.34,0,0,1,.43-1c.1.14.17.26.34.53.44-1.23,2.89-2.13,3.78-2.13a.64.64,0,0,1,.3.09v.14c-.14.14-.28.29-.28.38s.12.17.2.17a3.4,3.4,0,0,0,.9-.65c-.12-.1-.19-.11-.41,0,0,0-.09,0-.09-.12,0-.33,1.81-1.82,2-1.82s.18.09.18.19C47.19,45.24,46.63,45.73,46.63,45.89Zm-4.79,8.57a2,2,0,0,1-1.26.46c-.25,0-.69,0-.69-.31,0-.09.08-.23.08-.33C40,54,38.7,53.22,38.43,53h-.19c-.49.61-.71.68-.71,1.12s.76,0,.76.43c0,.1-.12.88-.12,1,0,.86,1.85,1.46,2.44,1.47-.18.56-1,1.87-1.44,1.87A3.65,3.65,0,0,1,37,56.66c0-.1.16-.12.16-.22a10.44,10.44,0,0,1-.44-1.59c0-1.33.37-2.27,1.73-2.4v-.16a.88.88,0,0,1-.85-.93c0-.46.28-.93.28-1.4,0-.15.09-.49-.3-.49s-.42.54-.86.55L36.56,50a.76.76,0,0,1,0-.16A4.38,4.38,0,0,1,37,48.64c.93-1.57,2.58-3.27,3.45-4.84,3.16-.08,2.91-1.49,3.65-1.49.18,0,.9.47,1.08.47s.9-.58,1.56-.94c-.34.49-.49.48-.49.79,0,.09.2.46.2.56s-.06.72-.24.72-.75-.16-.85-.16a15.81,15.81,0,0,0-2.05.48,2.09,2.09,0,0,1-.53.3c-.1,0-.44-.19-.54-.19a7.22,7.22,0,0,0-1.75,1.26c-.17.19-1.9,2.38-1.9,3,0,.34.4.28.4.51s-.6.67-.6,1.36.49,1.34,1.08,1.34c.1,0,1.09-.12,1.19-.12,1.61,0,2.64.38,2.92,2.42l.16,0,.11-.33a2.25,2.25,0,0,1,.67,1.61,3.31,3.31,0,0,1-.49,1.69h-.14c-.16-.43-.18-.82-.31-1.22a7.17,7.17,0,0,0-1.25-2c-.31-.24-1-.2-1.37-.41a4.51,4.51,0,0,1-1.11-1.31l-.75.11v.16a.2.2,0,0,1,.13.06C39.94,53.31,40.7,54.37,41.84,54.46ZM36,51.71c0,.1-.19.43-.24.67-.07.42-.08.85-.12,1.28l0,1.21c0,.58.11,3.83,1.38,3.83h.88c.38,0,.66,1,1,1.36L41.76,58c.05,0,.06,0,.06.12a9.15,9.15,0,0,0-2.29,4.47H39.4c-.38,0-.87-.74-.87-1s.24-.37.24-.57c0-.36-.67-1.18-1.1-1.18-.1,0-1.1.23-1.2.23s-.65-.17-.69-.28c-.28-.77-1.17-2.25-1.18-3.15l.16-1.59c0-.69-.52-.44-.52-1.13A5,5,0,0,1,36,50.39c-.16.45-.34.85-.34.93C35.69,51.64,36,51.52,36,51.71ZM34.42,38.93c2.55,0,4.36,1.79,5.09,1.79.1,0,.71-.16.81-.16h.29c-.07,1-.57,1.09-1.16,1.09-1.08,0-2.47-2.26-4.06-2.26-.19,0-.74.7-.93.7H33.31c-.71,0-1.13,1.27-1.42,1.56v-.33a10.11,10.11,0,0,1,.56-2C32.64,39,34,38.93,34.42,38.93Zm29,3.54.06.6a9.57,9.57,0,0,1-1,2.29c-.26.34-.76.4-1,.62a8.54,8.54,0,0,0-.66.73c0-.72-1.39-1.59-2-1.59-.22,0-.46.07-.46.4,0,1.15,2.52,3.54,3.31,3.94a2.9,2.9,0,0,1,1.78,3V56l.24,1.93s-.07.43-.2.43c-.33,0-1.18-1.45-1.23-1.61a7.16,7.16,0,0,1-.34-1.82L62,52.59c0-3.43-5.93-6.41-5.93-8.25,0-.38.55-.59,1-.59,1.6,0,2.56,2,3.35,2,.31,0,.73-.56.85-.78C62.39,44.82,63.1,43.38,63.42,42.47ZM48.57,45.89c0-.16-.56-.65-.56-.93,0-.1,0-.19.17-.19s2,1.49,2,1.82c0,.09,0,.09-.09.12-.22-.06-.29-.05-.4,0a3.38,3.38,0,0,0,.89.65c.08,0,.2,0,.2-.17s-.14-.24-.28-.38v-.14a.67.67,0,0,1,.3-.09c.89,0,3.35.9,3.79,2.13.17-.27.23-.39.33-.53a1.34,1.34,0,0,1,.43,1,1.56,1.56,0,0,1-.17.75,10.51,10.51,0,0,1-2.66,1.53c-.08,0-.09,0-.09-.06a10.76,10.76,0,0,0,1.2-2.26A2.71,2.71,0,0,0,53,48.2c-.15-.1-.57-.08-.76-.18s-.76-.57-1.09-.57c-.08.58,0,.62-.46.62a2.38,2.38,0,0,1-2.37-1.23c-.13-.23-.33-.41-.33-.61S48.57,46.15,48.57,45.89Zm4.78,8.57c1.15-.09,1.9-1.15,2.6-2a.18.18,0,0,1,.13-.06v-.16l-.75-.11a4.39,4.39,0,0,1-1.12,1.31c-.37.21-1.05.17-1.36.41-.57.43-.81,1.29-1.25,2a7.61,7.61,0,0,1-.32,1.22h-.14a3.31,3.31,0,0,1-.49-1.69,2.3,2.3,0,0,1,.67-1.61l.11.33.16,0c.28-2,1.32-2.42,2.93-2.42.1,0,1.08.12,1.18.12.59,0,1.08-.77,1.08-1.34s-.6-1.2-.6-1.36.4-.17.4-.51c0-.58-1.73-2.77-1.9-3a7.22,7.22,0,0,0-1.75-1.26c-.1,0-.44.19-.54.19a2.28,2.28,0,0,1-.53-.3,15.42,15.42,0,0,0-2-.48c-.1,0-.74.16-.84.16s-.24-.61-.24-.72.2-.47.2-.56c0-.31-.16-.3-.49-.79.66.36,1.41.94,1.55.94s.9-.47,1.08-.47c.75,0,.49,1.41,3.65,1.49.88,1.57,2.52,3.27,3.45,4.84a4.38,4.38,0,0,1,.5,1.17c0,.07,0,.1,0,.16l-.12.05c-.44,0-.53-.55-.86-.55s-.31.34-.31.49c0,.47.28.94.28,1.4a.88.88,0,0,1-.85.93v.16c1.36.13,1.73,1.07,1.73,2.4a10.44,10.44,0,0,1-.44,1.59c0,.1.15.12.15.22A3.65,3.65,0,0,1,56,58.89c-.41,0-1.25-1.31-1.43-1.87.59,0,2.43-.61,2.43-1.47,0-.1-.12-.88-.12-1,0-.46.76-.14.76-.43s-.22-.51-.7-1.12h-.19c-.27.2-1.55.93-1.55,1.26,0,.1.08.24.08.33,0,.29-.44.31-.68.31A2,2,0,0,1,53.35,54.46Zm5.84-2.75c0-.19.32-.07.32-.39,0-.08-.18-.48-.35-.93A5,5,0,0,1,61,54c0,.69-.52.44-.52,1.13l.16,1.59c0,.9-.9,2.38-1.17,3.15,0,.11-.58.28-.69.28s-1.11-.23-1.21-.23c-.43,0-1.1.82-1.1,1.18,0,.2.24.41.24.57s-.49,1-.86,1h-.13a9.24,9.24,0,0,0-2.29-4.47c0-.09,0-.09,0-.12l2.91,2.06c.33-.36.6-1.36,1-1.36h.87c1.27,0,1.39-3.25,1.39-3.83l0-1.21c0-.43-.06-.86-.13-1.28C59.38,52.14,59.19,51.81,59.19,51.71Zm1.58-12.78c.41,0,1.78.11,2,.39a9.44,9.44,0,0,1,.57,2v.33c-.3-.29-.72-1.56-1.42-1.56H60.74c-.2,0-.75-.7-.93-.7-1.6,0-3,2.26-4.07,2.26-.59,0-1.09-.08-1.16-1.09h.29c.1,0,.71.16.81.16C56.42,40.72,58.22,38.93,60.77,38.93Z"/><path class="cls-1" d="M47.68,65.24h-.19v0a4.74,4.74,0,0,0-1-1.26,3.93,3.93,0,0,0-.58-.41c-.49-.31-1-.62-1-1.18,0-.33.14-.47.44-.47a2.71,2.71,0,0,1,1,.39,3.08,3.08,0,0,0,1.22.47,3,3,0,0,0,1.15-.45,2.83,2.83,0,0,1,1-.41c.45,0,.45.24.45.47,0,.62-.74,1.06-1.23,1.35l-.16.09a4,4,0,0,0-1.15,1.42Zm-.13-.09h.08a4.11,4.11,0,0,1,1.17-1.42l.16-.09c.48-.29,1.19-.71,1.19-1.28,0-.23,0-.39-.36-.39a2.71,2.71,0,0,0-1,.4,3.14,3.14,0,0,1-1.19.46,3.09,3.09,0,0,1-1.27-.48,2.73,2.73,0,0,0-1-.38c-.25,0-.35.11-.35.39,0,.51.49.82,1,1.11a4.43,4.43,0,0,1,.59.42A5.14,5.14,0,0,1,47.55,65.15Zm8.25-2.52h-.17v0a8.09,8.09,0,0,0-2-4.13c-.19-.22-.25-.3-.25-.34s0-.11.07-.15l0,0h0l2.88,2a4.5,4.5,0,0,0,.31-.55c.2-.39.41-.8.68-.8h.87c1.33,0,1.34-3.76,1.34-3.79l0-1.21,0-.38c0-.3,0-.6-.09-.9a2.57,2.57,0,0,0-.15-.41,1.13,1.13,0,0,1-.09-.26c0-.11.09-.14.16-.17s.16-.07.16-.22a2.49,2.49,0,0,0-.16-.45c0-.14-.12-.3-.18-.46l0-.12.1.07A5,5,0,0,1,61,54a.67.67,0,0,1-.27.6.55.55,0,0,0-.25.53l.16,1.59A6.58,6.58,0,0,1,59.85,59a8.36,8.36,0,0,0-.39.88c-.05.14-.61.31-.73.31a5,5,0,0,1-.61-.12l-.6-.11c-.39,0-1.06.78-1.06,1.14a.62.62,0,0,0,.13.29.61.61,0,0,1,.12.28C56.71,61.86,56.21,62.63,55.8,62.63Zm-.1-.08h.1v0c.35,0,.82-.72.82-.93a.5.5,0,0,0-.11-.24.72.72,0,0,1-.13-.33c0-.36.68-1.22,1.14-1.22l.61.11.6.12a1.41,1.41,0,0,0,.65-.26,9.42,9.42,0,0,1,.39-.89,6.61,6.61,0,0,0,.78-2.24l-.16-1.59a.65.65,0,0,1,.27-.59.58.58,0,0,0,.25-.54,5.19,5.19,0,0,0-1.66-3.45c0,.12.09.24.13.34a2.77,2.77,0,0,1,.17.48.27.27,0,0,1-.22.29c-.07,0-.1,0-.1.1a1,1,0,0,0,.08.23,1.69,1.69,0,0,1,.15.43c0,.3.08.61.1.91l0,.37,0,1.22c0,.16,0,3.87-1.43,3.87h-.87c-.22,0-.42.4-.6.76a3.4,3.4,0,0,1-.35.59l0,0-2.92-2.07s0,0,0,.07a1.7,1.7,0,0,0,.23.28A8.2,8.2,0,0,1,55.7,62.55Zm-16.3.08c-.25,0-.49-.26-.61-.41a1.23,1.23,0,0,1-.3-.6.61.61,0,0,1,.12-.28.6.6,0,0,0,.12-.29c0-.36-.66-1.14-1.06-1.14l-.59.11a5.39,5.39,0,0,1-.61.12c-.12,0-.68-.17-.73-.31s-.24-.55-.39-.88a6.61,6.61,0,0,1-.79-2.28l.16-1.59a.57.57,0,0,0-.24-.53.65.65,0,0,1-.28-.6A5,5,0,0,1,36,50.36l.1-.07,0,.12c-.06.16-.12.33-.18.47a3.28,3.28,0,0,0-.16.44c0,.15.07.18.16.22s.16.06.16.17A.78.78,0,0,1,36,52a2.49,2.49,0,0,0-.14.41,6.88,6.88,0,0,0-.1.9l0,.39,0,1.2s0,3.79,1.34,3.79h.88c.26,0,.47.41.67.8a4.46,4.46,0,0,0,.32.55L41.76,58l0,0c.05,0,.06.06.06.15s-.06.12-.24.34a8,8,0,0,0-2,4.13v0H39.4v-.08h.09a8.2,8.2,0,0,1,2.06-4.15,2.59,2.59,0,0,0,.23-.29s0,0,0-.06l-2.92,2.07,0,0a2.87,2.87,0,0,1-.36-.59c-.17-.36-.38-.76-.59-.76H37c-1.41,0-1.43-3.71-1.43-3.87l0-1.21c0-.13,0-.26,0-.38,0-.3,0-.61.09-.91a3.12,3.12,0,0,1,.15-.43,1,1,0,0,0,.08-.23c0-.05,0-.07-.1-.1a.27.27,0,0,1-.22-.29,2.53,2.53,0,0,1,.17-.47L36,50.5A5.16,5.16,0,0,0,34.28,54a.61.61,0,0,0,.25.54.63.63,0,0,1,.28.59l-.16,1.6a6.59,6.59,0,0,0,.77,2.23c.16.34.31.65.4.89a1.37,1.37,0,0,0,.65.26l.59-.12.61-.11c.47,0,1.14.86,1.14,1.22a.62.62,0,0,1-.13.33.47.47,0,0,0-.1.24,1.28,1.28,0,0,0,.28.55.84.84,0,0,0,.54.38ZM56,58.93c-.45,0-1.3-1.36-1.48-1.89V57h.06c.59,0,2.39-.61,2.39-1.43,0,0,0-.28-.06-.48s-.06-.45-.06-.5c0-.29.28-.31.49-.32s.27,0,.27-.11c0-.3-.1-.42-.34-.67s-.21-.24-.34-.41h-.16l-.29.19c-.43.28-1.23.79-1.23,1a.48.48,0,0,0,0,.15.65.65,0,0,1,0,.18q0,.36-.72.36a2,2,0,0,1-1.3-.48l-.06-.06h.09a3.75,3.75,0,0,0,2.35-1.71l.21-.25A.23.23,0,0,1,56,52.4v-.09H56l-.61-.1-.12.17a3.58,3.58,0,0,1-1,1.13,2.51,2.51,0,0,1-.67.2,1.65,1.65,0,0,0-.69.21,3.28,3.28,0,0,0-.83,1.2,7.73,7.73,0,0,1-.4.75l0,.16a6.2,6.2,0,0,1-.28,1.06v0h-.2a3.39,3.39,0,0,1-.5-1.72,2.33,2.33,0,0,1,.69-1.64l0,0,0,0,.1.29h.1c.28-2,1.3-2.43,3-2.43l.59.06.59.06c.55,0,1-.73,1-1.3a2,2,0,0,0-.44-1.07.7.7,0,0,1-.16-.29c0-.13.1-.18.19-.23s.21-.12.21-.28c0-.57-1.72-2.75-1.89-2.93a7.11,7.11,0,0,0-1.72-1.25,1.61,1.61,0,0,0-.25.09,1,1,0,0,1-.29.1,1.42,1.42,0,0,1-.47-.26l-.08-.05a17.37,17.37,0,0,0-2-.47l-.41.08L49,44c-.26,0-.29-.75-.29-.76a.92.92,0,0,1,.11-.3,1.62,1.62,0,0,0,.09-.26.48.48,0,0,0-.17-.38,2.74,2.74,0,0,1-.31-.39l.06-.06c.31.17.63.38.91.57a3.41,3.41,0,0,0,.62.37,2.15,2.15,0,0,0,.52-.23,1.92,1.92,0,0,1,.56-.24c.27,0,.42.17.6.38.38.42.95,1.06,3,1.11h0l0,0a20,20,0,0,0,1.79,2.53,23.26,23.26,0,0,1,1.66,2.31,4.68,4.68,0,0,1,.5,1.19.21.21,0,0,1,0,.12V50l-.15.06h0a.72.72,0,0,1-.53-.32c-.11-.12-.2-.22-.33-.22a.29.29,0,0,0-.21.06c-.07.07-.06.2-.06.3s0,.06,0,.08a2.42,2.42,0,0,0,.14.69,2.88,2.88,0,0,1,.14.71.9.9,0,0,1-.85,1v.09c1.53.17,1.73,1.39,1.73,2.44a7.66,7.66,0,0,1-.41,1.49l0,.1s0,.05.06.08.1.07.1.14A3.65,3.65,0,0,1,56,58.93Zm-1.38-1.87c.21.57,1,1.79,1.38,1.79a3.6,3.6,0,0,0,2.16-2.19s0,0-.06-.08-.1-.07-.1-.14l0-.12a9,9,0,0,0,.4-1.47c0-1.52-.52-2.24-1.69-2.36h0v-.24h0a.83.83,0,0,0,.81-.89,2.49,2.49,0,0,0-.14-.69A2.49,2.49,0,0,1,57.3,50v-.07a.48.48,0,0,1,.07-.37.38.38,0,0,1,.28-.09.56.56,0,0,1,.4.26.63.63,0,0,0,.45.29l.09,0v0a.24.24,0,0,0,0-.09,4.24,4.24,0,0,0-.49-1.15,23,23,0,0,0-1.65-2.3,23.08,23.08,0,0,1-1.79-2.51c-2.11-.07-2.7-.72-3.08-1.15-.18-.2-.31-.35-.54-.35a2.15,2.15,0,0,0-.52.23,1.92,1.92,0,0,1-.56.24,2.32,2.32,0,0,1-.67-.38L48.58,42l.2.23a.56.56,0,0,1,.19.43,1.2,1.2,0,0,1-.1.29,1,1,0,0,0-.1.27c0,.19.08.68.2.68l.41-.08.43-.08a15.38,15.38,0,0,1,2.07.48l.09.06a1.85,1.85,0,0,0,.42.24,1.11,1.11,0,0,0,.25-.09.86.86,0,0,1,.29-.1c.35,0,1.7,1.18,1.78,1.27s1.91,2.39,1.91,3a.38.38,0,0,1-.25.35c-.09.05-.14.08-.14.16a.63.63,0,0,0,.14.24,2,2,0,0,1,.46,1.12c0,.61-.54,1.38-1.13,1.38l-.6-.06-.58,0c-1.62,0-2.61.39-2.88,2.38v0l-.23,0v0c0-.09,0-.17-.09-.27a2.35,2.35,0,0,0-.61,1.54A3.19,3.19,0,0,0,51.17,57h.08a6.46,6.46,0,0,0,.27-1l0-.18c.15-.23.28-.49.41-.74a3.21,3.21,0,0,1,.85-1.23,2,2,0,0,1,.72-.24,2,2,0,0,0,.65-.18,3.5,3.5,0,0,0,1-1.1l.13-.19,0,0h0l.65.09.14,0v.24h0s-.08,0-.1.05l-.21.25a3.93,3.93,0,0,1-2.32,1.72,2,2,0,0,0,1.17.39c.42,0,.64-.09.64-.27a.48.48,0,0,0,0-.15.58.58,0,0,1,0-.18c0-.26.62-.68,1.26-1.1a3.05,3.05,0,0,0,.3-.2H57l0,0a3.5,3.5,0,0,0,.35.42c.24.27.36.4.36.73,0,.17-.19.18-.36.19s-.4,0-.4.24c0,0,0,.28.06.49s.06.43.06.49C57.07,56.41,55.33,57,54.64,57.06ZM39.17,58.93a3.65,3.65,0,0,1-2.25-2.27c0-.07.06-.11.1-.14a.17.17,0,0,0,.07-.08.37.37,0,0,1,0-.1,8.26,8.26,0,0,1-.4-1.49c0-1.05.19-2.27,1.72-2.44v-.09a.9.9,0,0,1-.85-1,2.49,2.49,0,0,1,.14-.71,2.42,2.42,0,0,0,.14-.69v-.08a.38.38,0,0,0-.05-.3.31.31,0,0,0-.21-.06c-.14,0-.23.1-.34.22a.72.72,0,0,1-.52.32h0L36.53,50v0a.43.43,0,0,0,0,0,.35.35,0,0,1,0-.12,4.68,4.68,0,0,1,.5-1.19,23.41,23.41,0,0,1,1.67-2.31,22.31,22.31,0,0,0,1.79-2.53v0h0c2.1,0,2.67-.69,3.05-1.11.19-.21.34-.38.6-.38a1.72,1.72,0,0,1,.56.24,2.15,2.15,0,0,0,.52.23,3.1,3.1,0,0,0,.62-.37c.29-.19.61-.4.92-.57l0,.06a2.17,2.17,0,0,1-.31.39.48.48,0,0,0-.17.38,1.15,1.15,0,0,0,.1.26,1.11,1.11,0,0,1,.1.3s0,.76-.28.76a3.21,3.21,0,0,1-.43-.08l-.42-.08a18.39,18.39,0,0,0-2,.47l-.07.05a1.44,1.44,0,0,1-.48.26,1.08,1.08,0,0,1-.29-.1,1.11,1.11,0,0,0-.25-.09,7.25,7.25,0,0,0-1.71,1.25c-.18.18-1.89,2.36-1.89,2.93,0,.16.1.22.2.28s.19.1.19.23a.78.78,0,0,1-.15.29,1.88,1.88,0,0,0-.45,1.07c0,.57.49,1.3,1,1.3l.59-.06.6-.06c1.65,0,2.67.4,3,2.43h.09l.1-.29,0,0,0,0a2.33,2.33,0,0,1,.69,1.64,3.39,3.39,0,0,1-.5,1.72h-.21v0a5.7,5.7,0,0,1-.19-.7,3,3,0,0,0-.12-.52c-.13-.22-.25-.45-.37-.68a3.45,3.45,0,0,0-.87-1.27,1.6,1.6,0,0,0-.68-.21,2.48,2.48,0,0,1-.68-.2,3.58,3.58,0,0,1-1-1.13,1,1,0,0,1-.11-.17l-.62.1h-.07v.09a.17.17,0,0,1,.12.06l.21.25a3.75,3.75,0,0,0,2.35,1.71h.09l-.06.06a2,2,0,0,1-1.29.48c-.48,0-.73-.12-.73-.36a.65.65,0,0,1,0-.18.48.48,0,0,0,0-.15c0-.24-.8-.75-1.22-1l-.3-.19h-.15l-.35.41c-.23.25-.34.37-.34.67,0,.08.09.1.28.11s.48,0,.48.32a4.29,4.29,0,0,1-.06.5c0,.2-.06.43-.06.48,0,.82,1.8,1.42,2.4,1.43h.06l0,.06C40.48,57.57,39.62,58.93,39.17,58.93Zm-1.62-9.5a.37.37,0,0,1,.27.09.45.45,0,0,1,.08.37.17.17,0,0,0,0,.07,2.49,2.49,0,0,1-.14.71,2.49,2.49,0,0,0-.14.69.84.84,0,0,0,.82.89h0v.24h0c-1.17.12-1.69.84-1.69,2.36a9,9,0,0,0,.4,1.47l0,.12a.18.18,0,0,1-.09.14s-.07.05-.07.08a3.63,3.63,0,0,0,2.16,2.19c.37,0,1.17-1.22,1.38-1.79-.68-.05-2.42-.65-2.42-1.51,0-.06,0-.27.06-.49s.06-.44.06-.49c0-.2-.16-.23-.41-.24s-.35,0-.35-.19a1,1,0,0,1,.35-.73A4.64,4.64,0,0,0,38.2,53v0h.24a2.43,2.43,0,0,0,.31.2c.63.42,1.26.84,1.26,1.1a.41.41,0,0,1-.05.18,1,1,0,0,0,0,.15c0,.18.21.27.64.27a2,2,0,0,0,1.17-.39,4,4,0,0,1-2.33-1.72l-.2-.25a.16.16,0,0,0-.11-.05h0v-.24l.15,0c.2,0,.42-.07.64-.09h0v0a1.27,1.27,0,0,1,.13.19,3.53,3.53,0,0,0,1,1.1,1.93,1.93,0,0,0,.64.18,2,2,0,0,1,.72.24,3.51,3.51,0,0,1,.9,1.29,7.3,7.3,0,0,0,.36.68h0c.06.18.09.36.13.53a4.28,4.28,0,0,0,.17.66H44a3.27,3.27,0,0,0,.47-1.65,2.3,2.3,0,0,0-.61-1.54l-.09.27v0l-.23,0v0c-.27-2-1.26-2.38-2.88-2.38l-.59,0-.6.06c-.59,0-1.12-.77-1.12-1.38a2,2,0,0,1,.45-1.12.7.7,0,0,0,.15-.24c0-.08,0-.11-.15-.16a.38.38,0,0,1-.25-.35c0-.6,1.73-2.79,1.91-3s1.43-1.27,1.78-1.27a.86.86,0,0,1,.29.1,1.11,1.11,0,0,0,.25.09,2.13,2.13,0,0,0,.43-.24l.08-.06a15.76,15.76,0,0,1,2.07-.48,3.21,3.21,0,0,1,.43.08l.42.08c.11,0,.2-.49.2-.68a1.61,1.61,0,0,0-.1-.27,1,1,0,0,1-.11-.29.54.54,0,0,1,.2-.43l.19-.23-.74.47a2.32,2.32,0,0,1-.67.38,1.92,1.92,0,0,1-.56-.24,2,2,0,0,0-.52-.23c-.22,0-.35.15-.54.35-.38.43-1,1.08-3.08,1.15a22.93,22.93,0,0,1-1.78,2.51,21.66,21.66,0,0,0-1.66,2.3,4.11,4.11,0,0,0-.49,1.15.24.24,0,0,0,0,.09v0l.09,0a.61.61,0,0,0,.45-.29C37.26,49.56,37.37,49.43,37.55,49.43Zm25.85,9c-.38,0-1.23-1.51-1.27-1.64a7.26,7.26,0,0,1-.34-1.83L62,52.59c0-2-1.93-3.74-3.63-5.32-1.24-1.14-2.3-2.13-2.3-2.93,0-.43.61-.63,1-.63A3.57,3.57,0,0,1,59.33,45c.4.38.75.71,1.06.71s.7-.54.81-.76v0h0c1.15-.1,1.83-1.56,2.14-2.43h.08l.06.62h0c0,.13-.1.26-.15.4a7.57,7.57,0,0,1-.9,1.9,1.41,1.41,0,0,1-.65.42,1.87,1.87,0,0,0-.4.2,2.43,2.43,0,0,0-.38.41,2.21,2.21,0,0,1-.28.32l-.08.07v-.1A1,1,0,0,0,60.3,46a2.83,2.83,0,0,0-1.57-.82q-.42,0-.42.36c0,1.11,2.44,3.48,3.29,3.91a2.94,2.94,0,0,1,1.8,3V56l.24,1.92S63.59,58.39,63.4,58.39ZM57,43.79c-.39,0-.94.19-.94.55,0,.76,1.06,1.74,2.28,2.87C60.09,48.8,62,50.6,62,52.59l-.16,2.34a7.19,7.19,0,0,0,.33,1.8c.06.18.9,1.58,1.19,1.58.07,0,.15-.31.15-.39L63.31,56V52.45a2.83,2.83,0,0,0-1.75-3c-.75-.38-3.34-2.8-3.34-4,0-.29.18-.45.51-.45a2.41,2.41,0,0,1,1.1.43,4.78,4.78,0,0,1-.56-.49A3.5,3.5,0,0,0,57,43.79ZM60,45.6a3.09,3.09,0,0,1,.39.33,1.24,1.24,0,0,1,.39.68,2.54,2.54,0,0,0,.2-.24,2.27,2.27,0,0,1,.4-.43,2.61,2.61,0,0,1,.41-.21,1.32,1.32,0,0,0,.63-.39,8.06,8.06,0,0,0,.88-1.87l.15-.4,0-.41c-.33.88-1,2.18-2.12,2.3-.13.22-.55.78-.88.78A.78.78,0,0,1,60,45.6ZM31.8,58.39c-.19,0-.24-.46-.24-.47L31.8,56V52.45a3,3,0,0,1,1.79-3c.85-.43,3.3-2.8,3.3-3.91,0-.24-.15-.36-.42-.36a2.88,2.88,0,0,0-1.58.82,1,1,0,0,0-.37.73v.1l-.08-.07a2.17,2.17,0,0,1-.27-.32,2.5,2.5,0,0,0-.39-.41,1.49,1.49,0,0,0-.4-.2,1.41,1.41,0,0,1-.65-.42,7.57,7.57,0,0,1-.9-1.9l-.15-.4h0l.05-.61h.09c.3.87,1,2.33,2.14,2.43h0v0c.12.22.53.76.81.76s.66-.33,1.07-.71a3.53,3.53,0,0,1,2.28-1.24c.41,0,1,.2,1,.63,0,.8-1.07,1.79-2.31,2.93-1.7,1.58-3.63,3.36-3.63,5.32l.16,2.33a7.74,7.74,0,0,1-.33,1.83C33,56.88,32.17,58.39,31.8,58.39Zm4.67-13.32c.32,0,.5.16.5.45,0,1.18-2.59,3.6-3.34,4a2.85,2.85,0,0,0-1.75,3V56l-.24,1.94c0,.07.08.38.16.38.28,0,1.13-1.4,1.18-1.58a7.18,7.18,0,0,0,.34-1.81l-.16-2.33c0-2,1.94-3.79,3.65-5.38,1.22-1.13,2.28-2.11,2.28-2.87,0-.36-.55-.55-.94-.55A3.48,3.48,0,0,0,35.93,45a7.24,7.24,0,0,1-.56.49A2.41,2.41,0,0,1,36.47,45.07Zm-4.71-2,.15.4a7.69,7.69,0,0,0,.89,1.87,1.34,1.34,0,0,0,.62.39,2.74,2.74,0,0,1,.42.21,3.19,3.19,0,0,1,.4.43,2.51,2.51,0,0,0,.19.24,1.26,1.26,0,0,1,.4-.68,2.43,2.43,0,0,1,.38-.33.75.75,0,0,1-.41.14c-.33,0-.75-.56-.87-.78-1.11-.12-1.79-1.42-2.13-2.3ZM52.55,51.5a.13.13,0,0,1-.14-.09v0h0c0-.07.13-.22.26-.42a6.65,6.65,0,0,0,.93-1.82,2.75,2.75,0,0,0-.61-.91,1.14,1.14,0,0,0-.33-.08,1.3,1.3,0,0,1-.43-.1l-.18-.12a2.76,2.76,0,0,0-.85-.44c0,.1,0,.17,0,.24,0,.34-.06.38-.47.38a2.41,2.41,0,0,1-2.4-1.25l-.15-.21a.78.78,0,0,1-.2-.42c0-.19.19-.21.33-.22s.23,0,.23-.12a1.17,1.17,0,0,0-.21-.32A1.34,1.34,0,0,1,48,45c0-.08,0-.24.22-.24a6,6,0,0,1,2.07,1.87.13.13,0,0,1-.08.14l0,0h0l-.2,0a.2.2,0,0,0-.13,0,3.13,3.13,0,0,0,.83.61c.11,0,.16,0,.16-.13s-.19-.28-.27-.36h0V46.7l0,0a.78.78,0,0,1,.32-.09c.89,0,3.28.87,3.8,2.08l.08-.13a3.89,3.89,0,0,1,.21-.33l0,0,0,0a1.34,1.34,0,0,1,.44,1,1.63,1.63,0,0,1-.18.78A10.52,10.52,0,0,1,52.55,51.5Zm0-.09h0a11,11,0,0,0,2.62-1.51,1.44,1.44,0,0,0,.17-.73,1.3,1.3,0,0,0-.38-.89l-.18.29a1.76,1.76,0,0,0-.12.2l0,.08,0-.08c-.44-1.22-2.86-2.11-3.75-2.11a.59.59,0,0,0-.25.08v.09c.16.17.27.3.27.4s0,.21-.24.21a3.23,3.23,0,0,1-.93-.66l0,0,0,0a.3.3,0,0,1,.22-.1l.2,0h0s0,0,0-.07a6.49,6.49,0,0,0-2-1.78c-.12,0-.13,0-.13.15a1.24,1.24,0,0,0,.33.56c.14.18.23.29.23.37s-.17.18-.31.2-.25,0-.25.14a.67.67,0,0,0,.18.37c.05.07.11.15.15.22A2.35,2.35,0,0,0,50.71,48c.36,0,.36,0,.39-.31,0-.07,0-.16,0-.28v0h0a2.34,2.34,0,0,1,.94.46l.17.11a1.39,1.39,0,0,0,.4.09,1.05,1.05,0,0,1,.37.09,2.76,2.76,0,0,1,.65,1,6.38,6.38,0,0,1-1,1.86C52.64,51.18,52.54,51.33,52.5,51.41Zm-9.86.09A10.69,10.69,0,0,1,40,50a1.63,1.63,0,0,1-.18-.78,1.38,1.38,0,0,1,.44-1l0,0,0,0a3.76,3.76,0,0,1,.22.33l.08.13c.52-1.21,2.9-2.08,3.79-2.08a.78.78,0,0,1,.32.09l0,0v.17h0c-.07.08-.26.27-.26.36s0,.13.15.13a3.3,3.3,0,0,0,.84-.61.25.25,0,0,0-.14,0l-.19,0h0l0,0a.13.13,0,0,1-.08-.14A6.07,6.07,0,0,1,47,44.72c.22,0,.22.16.22.24a1.25,1.25,0,0,1-.35.61,1.17,1.17,0,0,0-.21.32c0,.08.08.1.23.12s.33,0,.33.22a.78.78,0,0,1-.2.42l-.14.21a2.43,2.43,0,0,1-2.41,1.25c-.41,0-.44,0-.47-.38,0-.07,0-.15,0-.24a2.83,2.83,0,0,0-.84.44l-.19.12a1.23,1.23,0,0,1-.42.1,1.21,1.21,0,0,0-.34.08,2.91,2.91,0,0,0-.61.91A6.73,6.73,0,0,0,42.52,51c.12.2.22.35.25.42h0v0A.13.13,0,0,1,42.64,51.5Zm-2.41-3.21a1.33,1.33,0,0,0-.37.89,1.54,1.54,0,0,0,.16.73,11,11,0,0,0,2.62,1.51h0c0-.08-.13-.22-.25-.41a6.65,6.65,0,0,1-.95-1.86,2.66,2.66,0,0,1,.66-1,1.05,1.05,0,0,1,.37-.09,1.32,1.32,0,0,0,.39-.09l.18-.11a2.25,2.25,0,0,1,.93-.46h0v0a1.78,1.78,0,0,1,0,.28c0,.31,0,.31.39.31a2.34,2.34,0,0,0,2.33-1.21L47,46.6a.67.67,0,0,0,.18-.37c0-.1-.07-.12-.25-.14s-.31,0-.31-.2.09-.19.24-.37a1.3,1.3,0,0,0,.32-.56c0-.11,0-.15-.13-.15a6.45,6.45,0,0,0-2,1.78s0,0,0,.07h0l.2,0a.33.33,0,0,1,.23.1l0,0,0,0a3.23,3.23,0,0,1-.93.66c-.2,0-.24-.11-.24-.21s.11-.23.28-.4v-.09a.68.68,0,0,0-.26-.08c-.89,0-3.31.89-3.75,2.11l0,.08-.05-.08-.13-.2Zm-8.39-6.54v-.43a9.87,9.87,0,0,1,.58-2c.2-.31,1.64-.41,2-.41a7.89,7.89,0,0,1,4,1.29,3.25,3.25,0,0,0,1.13.5,2.9,2.9,0,0,0,.38-.08,3.88,3.88,0,0,1,.43-.08h.34v0c-.07,1-.61,1.12-1.2,1.12a3.23,3.23,0,0,1-1.67-1,4.25,4.25,0,0,0-2.39-1.28c-.08,0-.27.19-.43.34s-.39.37-.5.37H33.31c-.47,0-.82.61-1.08,1.06a2.19,2.19,0,0,1-.32.48Zm3.55-2.4a4.26,4.26,0,0,1,2.44,1.3,3.21,3.21,0,0,0,1.62,1c.58,0,1-.07,1.11-1h-.24c-.06,0-.24,0-.41.07l-.4.08a3.17,3.17,0,0,1-1.17-.51A7.87,7.87,0,0,0,34.42,39c-.5,0-1.76.13-1.93.38a9.67,9.67,0,0,0-.56,2v.22a4.26,4.26,0,0,0,.23-.37c.28-.49.63-1.11,1.15-1.11h1.15c.08,0,.28-.19.44-.34S35.28,39.35,35.39,39.35Zm28,2.4-.07-.07A2.19,2.19,0,0,1,63,41.2c-.26-.45-.61-1.06-1.07-1.06H60.74c-.11,0-.27-.14-.51-.37s-.35-.34-.42-.34a4.19,4.19,0,0,0-2.39,1.28,3.21,3.21,0,0,1-1.68,1c-.59,0-1.13-.08-1.2-1.12v0h.33c.06,0,.21,0,.44.08l.37.08a3.1,3.1,0,0,0,1.13-.5,7.89,7.89,0,0,1,4-1.29c.37,0,1.8.1,2,.41a9.91,9.91,0,0,1,.57,2Zm-8.72-1.14c.08.93.53,1,1.11,1a3.17,3.17,0,0,0,1.62-1,4.29,4.29,0,0,1,2.45-1.3c.1,0,.25.14.48.36s.36.34.45.34h1.15c.51,0,.86.62,1.15,1.11a2.71,2.71,0,0,0,.23.37v-.21a9.55,9.55,0,0,0-.57-2c-.16-.25-1.43-.38-1.93-.38a7.9,7.9,0,0,0-3.92,1.28,3.17,3.17,0,0,1-1.17.51,2.83,2.83,0,0,1-.39-.08l-.41-.07Z"/><path class="cls-5" d="M53.13,53.25c-.33,0-.36,0-.8-.48a5.37,5.37,0,0,1,.34-.46c.17.35.23.4.4.4.43,0,.31-.26.43-.7H54v.68C54,53.06,53.43,53.25,53.13,53.25Zm-11.07,0c-.29,0-.88-.19-.88-.56V52h.51c.12.44,0,.7.43.7.18,0,.23-.05.4-.4a5.37,5.37,0,0,1,.34.46C42.42,53.2,42.4,53.25,42.06,53.25Z"/><rect class="cls-6" width="1" height="1"/></svg>