<svg id="Capa_1" data-name="Capa 1" xmlns="http://www.w3.org/2000/svg" viewBox="0 0 90 90"><defs><style>.cls-1,.cls-6{fill:#fff;}.cls-1,.cls-2,.cls-3,.cls-4,.cls-5{fill-rule:evenodd;}.cls-2,.cls-7{fill:#df040b;}.cls-4{fill:#000002;}.cls-5{fill:#1f140f;}</style></defs><title>ClubTijuana-90x90</title><polygon points="45.81 23.45 40.91 26.97 42.79 21.25 37.89 17.71 43.95 17.71 45.83 12 47.7 17.72 53.76 17.73 48.85 21.26 50.72 26.98 45.81 23.45"/><path d="M45.82,85A29.25,29.25,0,1,1,75.25,55.75,29.38,29.38,0,0,1,45.82,85m0-56.78a27.53,27.53,0,1,0,27.7,27.53,27.64,27.64,0,0,0-27.7-27.53"/><path class="cls-1" d="M45.82,27.36A28.39,28.39,0,1,1,17.25,55.75,28.49,28.49,0,0,1,45.82,27.36"/><path d="M67.8,40.44l-1.24.38-2.17.66L63,41.89l.62.92.73-.24.48-.16.76,1.12-.81,1,.65,1,1.09-1.36,2-2.5Zm-.92,1.71-.32.38-.35.43-.59-.87.94-.31,0,0c.28-.09.61-.23.89-.33h0l-.62.71"/><path d="M37.13,32.75h0a1.09,1.09,0,0,0,.35-1.23,1,1,0,0,0-.81-.63h-.07a1.79,1.79,0,0,0-.72,0,6.92,6.92,0,0,0-.69.23,11.89,11.89,0,0,0-1.22.59l0,0,0,.07,1.72,4.24.19-.05c.21-.06.47-.15.79-.27l.13-.05a3,3,0,0,0,1.57-1.09,1.25,1.25,0,0,0,.08-1.12,1.2,1.2,0,0,0-1.31-.73M35.6,33l-.41-1a2.37,2.37,0,0,1,.41-.19l.27-.09a.54.54,0,0,1,.65.31c.13.32-.07.65-.59.86l-.06,0Zm1.18,1.81-.12,0-.27.1-.5-1.24.34-.13a1.86,1.86,0,0,1,.43-.12.62.62,0,0,1,.72.37c.18.46-.14.79-.6,1"/><path d="M33.49,35.06,32,32.86l-.89.6,1.53,2.25c.47.7.43,1.19,0,1.51s-.94.13-1.4-.54l-1.34-2-.19-.28-.9.6,1.09,1.6.4.59c.84,1.25,1.8,1.4,2.8.74a2,2,0,0,0,.9-1.22,1.51,1.51,0,0,0,0-.6,3,3,0,0,0-.47-1.07"/><polygon points="29.86 39.3 28.98 40.2 26.77 38.08 26.2 37.54 25.46 38.31 26.77 39.57 28.88 41.6 29.86 40.59 30.94 39.48 30.29 38.85 29.86 39.3"/><path d="M26.93,42.77a2.5,2.5,0,0,1-.16.24,1.57,1.57,0,0,1-2.49-1.88,2.28,2.28,0,0,1,.63-.67l-.61-.63a2.71,2.71,0,0,0-.8.88,2.4,2.4,0,0,0,.77,3.52,2.22,2.22,0,0,0,2.5.05,2.94,2.94,0,0,0,.84-.9,3.06,3.06,0,0,0,.47-1.14l-.8-.3a2.47,2.47,0,0,1-.35.83"/><polygon points="43.76 29.08 40.14 29.59 40.27 30.48 41.53 30.3 42.07 34.09 43.14 33.95 42.6 30.15 43.89 29.97 43.76 29.08"/><path d="M65.74,37.74,65,37.07l-.63.67-.32.34a17,17,0,0,0-1.29,1.51v0a12.58,12.58,0,0,0,.54-1.71l.47-1.94-.92-.85-3.11,3.31-.13.15.13.13.59.54,1-1c.53-.57,1-1.06,1.38-1.54h0a17.23,17.23,0,0,0-.54,1.78l-.51,2,.83.77,1.89-2Z"/><path d="M55.54,32.35,56,31l-.46-.16L55,30.67l-.9,2.57c-.27.79-.69,1.06-1.23.88s-.67-.67-.41-1.44l.89-2.58-1-.35-.86,2.5c-.49,1.42,0,2.28,1.09,2.66a1.86,1.86,0,0,0,2.58-1.39Z"/><rect x="45.27" y="29.07" width="1.08" height="4.73"/><path d="M59.89,33l-.14-.07-1.1-.61-.49.48L55.54,35.3l-.47.45.47.25.51.28.89-.89,1.19.65-.27,1.24.3.16.71.4.88-4.2Zm-1.28,1.26-.23,1-.22-.13-.7-.38.7-.7,0,0c.2-.2.44-.48.64-.69h0c-.08.28-.17.63-.24.92"/><path d="M48.76,32.18c-.1.73-.41.89-.86.83a1.75,1.75,0,0,1-.53-.16l-.24.84a2.58,2.58,0,0,0,.76.22c1,.14,1.74-.23,1.93-1.57l.42-3-1.06-.14Z"/><polygon points="28.94 74.89 31.27 74.29 31.64 74.19 31.93 73.86 31.27 73.29 30.07 72.25 29.66 72.73 30.76 73.69 30.75 73.7 28.85 74.18 28 74.39 27.73 74.7 28.85 75.67 29.72 76.43 30.14 75.95 28.93 74.9 28.94 74.89"/><path d="M36.84,76.75l-.43-.22-.25-.13-.92,1.71c-.28.53-.6.67-1,.48s-.4-.54-.13-1.06l.92-1.71-.68-.36-.71,1.32-.18.34c-.44.82-.34,1.41.18,1.82a1.6,1.6,0,0,0,.29.18,1.33,1.33,0,0,0,2-.69l.46-.88Z"/><path d="M41.11,78.11l-.64-.19-.29.94a12,12,0,0,0-.35,1.37h0c0-.4-.11-.86-.19-1.26l-.31-1.39-.86-.26-.74,2.4-.26.83.26.07.42.13.3-1c.16-.53.29-1,.4-1.42h0a13.27,13.27,0,0,0,.21,1.31l.31,1.46.77.23,1-3.09,0-.13h0Z"/><path d="M33.65,76l0,0,.45-.38a2,2,0,0,0-.45-.51l-.14-.1a1.74,1.74,0,0,0-2.27,0,2.36,2.36,0,0,0-.29.33,1.59,1.59,0,0,0,.29,2.3l.15.11a2.29,2.29,0,0,0,.79.39l.26-.55a2,2,0,0,1-.58-.29,1,1,0,0,1-.23-1.53,1,1,0,0,1,1.54-.27,1.77,1.77,0,0,1,.45.48"/><polygon points="37.97 77.12 37.72 77.02 37.25 76.83 36.41 78.91 35.98 79.96 36.41 80.14 36.7 80.25 37.72 77.74 37.97 77.12"/><polygon points="24.21 65.95 25.14 65.54 24.83 64.84 24.21 65.11 22.19 66.01 21.72 66.21 22.19 67.25 22.59 68.14 23.18 67.88 22.63 66.65 24.21 65.95"/><polygon points="28.86 71.99 29.5 72.66 29.97 72.22 28.85 71.03 28.19 70.33 27.71 70.76 28.34 71.43 26.57 73.07 26.32 73.29 26.57 73.55 26.85 73.85 28.85 72 28.86 71.99"/><path d="M22.19,61.28l1.42.54L23.47,61l-.65-.18a5.27,5.27,0,0,0-.6-.14h0l.52-.34.57-.39L23.17,59l-1,.78-.53.41-1.85-.69.13.86.65.18c.25.07.44.12.65.16h0l-.56.39-.56.4.14.87,1.56-1.26Z"/><path d="M23.07,65.13a1.76,1.76,0,0,0,1.14-1,1.61,1.61,0,0,0,0-1h0a1.62,1.62,0,0,0-2-1.07l-.19.06a1.57,1.57,0,0,0-1.15,2,1.54,1.54,0,0,0,1.34,1.13,2.13,2.13,0,0,0,.88-.1M21.45,64c-.16-.47.16-.89.74-1.1l.08,0c.63-.2,1.19-.07,1.35.42s-.24.94-.82,1.13a1.74,1.74,0,0,1-.61.09.76.76,0,0,1-.74-.51"/><polygon points="28.04 70.11 27.57 69.5 26.57 70.28 25.85 70.83 24.89 71.58 25.36 72.19 25.85 71.81 26.57 71.25 28.04 70.11"/><path d="M25.85,70.21l.09-.06a1.91,1.91,0,0,0,.63-.6,1.48,1.48,0,0,0,0-1.62l0,0a1.66,1.66,0,0,0-.69-.63,1.76,1.76,0,0,0-1.64.14l-.05,0a1.58,1.58,0,0,0-.62,2.26,1.78,1.78,0,0,0,.67.64,1.71,1.71,0,0,0,1.64-.12m-1.64-.65a.7.7,0,0,1-.13-.16.78.78,0,0,1,.13-1,1.85,1.85,0,0,1,.39-.32,1.1,1.1,0,0,1,1.25-.1,1,1,0,0,1,.17.18.82.82,0,0,1-.17,1,1.48,1.48,0,0,1-.36.29,1.08,1.08,0,0,1-1.28.08"/><polygon points="68.44 62.35 68.73 61.47 68.11 61.27 67.44 63.34 67.31 63.74 67.44 63.78 67.92 63.94 68.2 63.08 69.58 63.52 70.82 63.92 71.06 63.2 69.58 62.72 68.44 62.35"/><polygon points="64.43 68.99 63.99 69.61 65.2 70.46 66.77 71.55 67.22 70.92 65.2 69.52 64.43 68.99"/><path d="M62.6,72.87l-.86-.47-.22-.12-.15.14-.58.56.58,1.12.37.72.66,1.3.2-.19.38-.36-.38-.68-.06-.11.06,0,.65-.62.29.16.5.28.59-.57-1.09-.6Zm0,1.06-.37.36-.36-.65-.13-.23c-.08-.12-.15-.24-.21-.35h0l.21.12.37.23.49.27.17.1Z"/><polygon points="67.55 69.26 67.44 69.19 66.87 68.83 67.44 67.93 67.53 67.78 67.44 67.72 67 67.45 66.34 68.5 65.74 68.13 66.44 67.01 65.91 66.68 65.2 67.81 64.79 68.45 65.2 68.7 67.44 70.09 67.68 70.24 68.82 68.41 68.29 68.08 67.55 69.26"/><polygon points="65.2 72.44 65.04 72.62 63.54 71.37 62.94 70.87 62.6 71.26 62.44 71.45 62.6 71.59 63.54 72.37 65.04 73.62 65.2 73.44 66.41 72.01 65.91 71.59 65.2 72.44"/><polygon points="71.17 59.55 70.95 60.92 70.15 60.8 70.34 59.57 69.73 59.47 69.58 60.43 69.53 60.7 68.83 60.59 69.04 59.29 68.42 59.19 68.09 61.25 69.58 61.48 71.45 61.78 71.79 59.65 71.17 59.55"/><path d="M67.44,64l-.25-.11-.29.65.54.23.37.17a13.11,13.11,0,0,0,1.32.51h0a11.05,11.05,0,0,0-1.29,0l-.4,0-1,.09-.36.82,1.39.61,1.71.76.29-.64-.94-.41c-.38-.17-.73-.32-1.06-.45l-.3-.12v0h.3c.35,0,.71,0,1,0l1.1-.09L70,66l.33-.73L69.58,65Z"/><polygon points="44.73 78.46 43.96 78.43 43.84 81.81 45.96 81.88 45.98 81.24 44.63 81.19 44.73 78.46"/><polygon points="47.27 81.22 47.19 80.43 48.44 80.32 48.39 79.7 47.14 79.81 47.08 79.11 48.4 78.99 48.34 78.37 46.26 78.55 46.55 81.92 48.71 81.73 48.66 81.1 47.27 81.22"/><path d="M61.5,75.84l-.13.17a1.85,1.85,0,0,1-.33.29,1.11,1.11,0,0,1-1.31-1.79,1.66,1.66,0,0,1,.59-.27l-.23-.59a2.29,2.29,0,0,0-.77.37,1.72,1.72,0,0,0-.44,2.54,1.64,1.64,0,0,0,2.45.33l0,0a3.16,3.16,0,0,0,.37-.33,1.14,1.14,0,0,0,.2-.27l-.2-.2Z"/><polygon points="41.15 78.13 41.15 78.13 41.15 78.13 41.11 78.41 41.07 78.69 41.11 78.7 41.97 78.82 41.59 81.53 42.35 81.64 42.73 78.93 43.65 79.06 43.74 78.42 41.16 78.06 41.15 78.13"/><path d="M50.33,79.43c-.46-.08-.67-.14-.71-.36s.1-.34.43-.4a1.63,1.63,0,0,1,.73,0l.06-.63a1.92,1.92,0,0,0-.88,0c-.79.14-1.19.65-1.09,1.22s.5.73,1.09.82c.43.08.61.17.65.37s-.12.4-.47.46a2.23,2.23,0,0,1-.88-.06l0,.64a2.16,2.16,0,0,0,1,0c.92-.16,1.27-.72,1.17-1.28s-.41-.72-1-.84"/><polygon points="56.95 78.72 56.57 78.01 57.67 77.43 57.38 76.88 56.27 77.47 55.94 76.84 57.11 76.23 56.82 75.67 55.24 76.5 54.97 76.65 55.24 77.17 56.56 79.63 58.48 78.62 58.18 78.07 56.95 78.72"/><path d="M55.24,77.89a1.4,1.4,0,0,0-.8-.67,1.65,1.65,0,0,0-.6-.07,3,3,0,0,0-.83.18,7.77,7.77,0,0,0-1,.4l1.08,3.14a5.6,5.6,0,0,0,.71-.19l.13,0a2.6,2.6,0,0,0,1.27-.82l.07-.1a1.72,1.72,0,0,0,.09-1.48,1.87,1.87,0,0,0-.16-.35M53.94,80l-.1,0-.16,0L53,78a1.27,1.27,0,0,1,.32-.14,1.31,1.31,0,0,1,.57-.07,1,1,0,0,1,.8.74,1,1,0,0,1-.7,1.49"/><path d="M45.82,76.94A21.19,21.19,0,1,1,67.14,55.75,21.28,21.28,0,0,1,45.82,76.94m0-41.35A20.16,20.16,0,1,0,66.1,55.75,20.24,20.24,0,0,0,45.82,35.59"/><path class="cls-2" d="M45.82,35.08A20.67,20.67,0,1,1,25,55.75a20.74,20.74,0,0,1,20.8-20.67"/><path class="cls-2" d="M21.63,51.27a1,1,0,1,1-1,1,1,1,0,0,1,1-1"/><path class="cls-3" d="M40.52,75.81a4.32,4.32,0,0,1-.38-1.12c0-.45-.11-1.34-.11-1.81,0-1.67-.05-3.55-.05-5.25,0-1-.39-2.39-.39-3.33,0-.3-.2-1.17-.28-1.75a10.76,10.76,0,0,1-.62-2.21c0-.72.12-1.5.12-2.22A5.61,5.61,0,0,0,38.62,57l0-1.09c-.17-.17-.62-.5-.64-.64a4.16,4.16,0,0,1-.28-.56c0-.15-.06-.8-.2-.89-.18-.34-.62-.5-.95-.69-.93-1.24-1.9-1.08-2.89-1.94-.24-.34-.41-.68-.61-1a13.43,13.43,0,0,1-.48-2c0-.27-.09-.68-.1-1l.13-1a14.44,14.44,0,0,1-.51-1.7s-.16-1.47-.16-1.54c-.07-.84,0-1.73,0-2.57a10.91,10.91,0,0,1,.21-1.8c.07-.21.14-.41.19-.61.08-.57.2-1.17.32-1.73.12-.37.4-.8.58-.8a1.24,1.24,0,0,1,1.16.53c.29.53,1,1.44,1.09,1.61a18,18,0,0,0,1.31,1.93,10.7,10.7,0,0,0,1.57,1.81c.7.7,2.14,1.86,2.73,2.53a7.37,7.37,0,0,1,.72,1.05,1.33,1.33,0,0,0,.15.45c.11.15.39.33.39.4a3.89,3.89,0,0,1,.09.54l.5.22.14-.3a1.32,1.32,0,0,1,.62-.36c.27,0,.28.1.28.39a3.89,3.89,0,0,1,.43-.11c.17,0,.28.14.44.06s.3-.14.37-.14c.27,0,.41.22.64.35a2.14,2.14,0,0,1,.56.11.89.89,0,0,1,.58-.3c.33,0,.67.27,1,.38l.64.1c.37,0,.85-.33,1.27-.37l.63.27.35.08c.08-.12,0-.21,0-.37s.1-.11.14-.19a4.64,4.64,0,0,1-.13-.76,1.84,1.84,0,0,0,0-.53,8.53,8.53,0,0,1,.2-1.75c0-.17.17-.33.21-.51a2.59,2.59,0,0,0,.08-.79l.3-.64c.35-.48.72-1,1.07-1.39a1.88,1.88,0,0,0,.23-.16,6.4,6.4,0,0,1,.69-1.56c.21-.27.45-.53.66-.81.29-.45.68-.95.93-1.42.17-.31.35-.61.53-.92.2-.14.35-.27.6-.21A2.32,2.32,0,0,1,57,35c0,.19.36.62.45.84a1.37,1.37,0,0,1,.44.75c0,.23.12.6.12.88a2.16,2.16,0,0,0,.27,1.24,5.08,5.08,0,0,1,.23.94c0,.49,0,1.12,0,1.15,0,.62,0,1.29,0,1.91l-.3,3c0,.22.16.45.18.68a19.66,19.66,0,0,1,.23,2.53,12.62,12.62,0,0,1-1,2.36,6.25,6.25,0,0,1-1.07,1.16l-1.1,1.18v.48l0,.15,0,.16,0,.26,0,.3,0,.16a6.94,6.94,0,0,1-.11,2.17l-.14.4-.12.24a4.92,4.92,0,0,0-.07.78l0,.41.41,2.38c.11.52,1.41,5,1.41,5l.22.35c.27.32,1.56,2.19,1.7,2.32.2.44.93,1.68,1.17,2-.73.65-1.73,1.49-2.2,1.83a13.81,13.81,0,0,1-2.08,1.34l-1.87.94a23.65,23.65,0,0,1-2.63.87c-.6.15-2.24.45-2.85.53a19.19,19.19,0,0,1-2.67.06c-.72,0-1.43,0-2-.14a26.08,26.08,0,0,1-3.36-.8"/><path class="cls-1" d="M50,75.48l.08-.06Z"/><path class="cls-1" d="M50.2,75.48l.32-.64c.37-.54,1.51-2.16,1.75-2.53a2.63,2.63,0,0,0,.39-.49c-1,.36-2,1.09-3,1.53a15.14,15.14,0,0,1-.25-2.23c0-.66,0-1.27,0-1.62a1.78,1.78,0,0,1,.22-.88c.81-2.15,1.21-2.47,1.9-3a1.62,1.62,0,0,0,1.87-.18c.29-.32.2-.69.24-1s-.12-.12,0-.39a3.52,3.52,0,0,0,.11-.81c-.07-.33.21-.57.21-.92a3.36,3.36,0,0,0-.32-.51c0-.09.14-.18.14-.27s-.1-.21-.14-.32,0-.2.07-.3a.76.76,0,0,1,.12-.42c0-.23.31-.56.45-.75l.51-.9.13.22,0,.3c0,.1.06.27.08.38.2.84.44,1.87.64,2.82a24.73,24.73,0,0,1,.68,3.76l.07.23a10.08,10.08,0,0,1,1.79,2.13,17,17,0,0,1,1.34,2.55,15.26,15.26,0,0,1-3.32,2.37,25.72,25.72,0,0,1-4.65,1.57c-.13,0-.91.21-1.37.32"/><path class="cls-1" d="M47.61,69.86v0c-.16,0-.18-.08-.16-.17s.24-.38.39-.14,0,.28-.23.33"/><path class="cls-1" d="M48.06,69.27l-.14,0c0-.1,0-.26,0-.36l.07,0a4.57,4.57,0,0,1,.52-.67c.1-.21.4-.67.65-.73a1.33,1.33,0,0,0,0,.19,2.85,2.85,0,0,0-.38.64,3.68,3.68,0,0,1-.7,1"/><path class="cls-1" d="M47.61,68.62v-.16l.16-.15-.16-.16.16-.18,0,0a4.51,4.51,0,0,1,.47-.74,2.72,2.72,0,0,1,.84-.74l.16.27.32-.19-.11.15-.33.26.07-.14-.27.19-.39.54a6.36,6.36,0,0,0-.46.69Z"/><path class="cls-1" d="M42.51,66.74l0-.08c.11-.08.13,0,.13.12Z"/><path class="cls-1" d="M42.4,66.57l.32-.83.35-.49.08-.22.18,0,.19-.31.27-.21H44a3.39,3.39,0,0,1-.45.49l-.16.19h-.11v.08l.16-.24c.16,0,.16.2.19.32h-.24l-.13.24a1.79,1.79,0,0,1-.16.46c-.16,0-.11-.08-.11-.14a5.63,5.63,0,0,0-.37.62Z"/><polygon class="cls-1" points="42.78 66.38 42.73 66.2 42.85 66.28 42.81 66.36 42.78 66.38"/><path class="cls-1" d="M52.55,65.44H52.4l.19-.1-.08-.19a3.62,3.62,0,0,1-.59-.24,3.38,3.38,0,0,1-.8-1c.32,0,.88.85,1.61.8l.32-.33c.13,0,.16-.16.24-.08a1,1,0,0,1,0,.35.76.76,0,0,1-.07.35,1.27,1.27,0,0,0-.32.13c0,.11,0,.14-.11.22s-.11,0-.18.1Z"/><path class="cls-1" d="M44.76,64.48a1.39,1.39,0,0,1-.49-.74A5.66,5.66,0,0,0,46,64.91a4.07,4.07,0,0,0,1.63.12,3,3,0,0,0,1.5-.53l0,.31c-.48.61-.75.29-1.46.52a3.16,3.16,0,0,1-1.62,0c-.76-.69-.93-.37-1.22-.85"/><polygon class="cls-1" points="53.23 63.92 53.2 63.66 53.08 63.66 53.23 63.44 53.31 63.44 53.41 64 53.23 63.92"/><path class="cls-1" d="M51.5,63a1.45,1.45,0,0,1,.17.19,6.42,6.42,0,0,0,.53.38c.18.07.41.2.61.3,0,.16,0,.08-.12.1s-.67-.34-.89-.42-.3-.27-.3-.55"/><path class="cls-1" d="M47,64.54l-.19-.05-.44-.08-.4,0-.57-.22-.22-.1-.24-.28-.26-.15-.19-.2,0-.18.22.18a5.94,5.94,0,0,0,.69.55l.21,0,.31.19a3.47,3.47,0,0,0,1,.08H47Z"/><path class="cls-1" d="M46.22,63.76l-.16,0-.64-.46h.19l.43.14c.21,0,.48.14.68.06l.51.08.14.05-.22.13Z"/><path class="cls-1" d="M43.73,63.68l-.45-.45c0-.22-1.27-2.11-1.45-2.48l-.24-.41c.08,0,.27-.12.13-.12l.22,0c.1.39.45.58.6.85s.37.81.56,1.25l.3.39.19.29.22-.19-.08.46.38-.3-.23.46Z"/><path class="cls-1" d="M52.86,63.22a3.22,3.22,0,0,0-.37-.12c-.19,0-.73-.33-.75-.34s-.09-.21-.11-.29c.3.14.56.29.86.45h.37c.08,0,.13-.11.2-.19.22.18.21.11.21.44-.11,0-.29-.06-.19-.14l0,0-.2.16"/><path class="cls-1" d="M47.84,63.45c-.06-.11.23-.07.12,0Z"/><polygon class="cls-1" points="44.24 63.03 44.16 62.9 44.35 62.9 44.24 63.03"/><path class="cls-1" d="M47.15,63a2.59,2.59,0,0,0-.63-.08v-.11c-.24,0-.22-.2-.48-.16a.3.3,0,0,0,0-.11l-.48-.42.33.08a3.09,3.09,0,0,0,.71.33c.22.06,1,.17,1.12.31l.08.22L47.15,63"/><path class="cls-1" d="M53.45,63v-.24L53,62.36l-.08-.3.35.16-.11-.32-.29-.27v-.16l.5-.46.06.33-.13.16c.06,0,.19.1.19.16l0,.29c.07.19.3.38.23.56Z"/><path class="cls-1" d="M51.08,61.05l.06-.84.13-.21v.15l0,.57a1.55,1.55,0,0,0,0,.26c0,.13.35.35.46.35a1.92,1.92,0,0,0,.8-.1c.09,0,.36-.34.36-.35.1-.16.2-.84.26-.9-.05.13.06.57,0,.78a1.47,1.47,0,0,1-.7.86c-.74.09-.93.16-1.36-.57"/><polygon class="cls-1" points="47.49 61.72 47.41 61.72 47.45 61.5 47.68 61.72 47.49 61.72"/><path class="cls-1" d="M47.9,59.92l.24-.64c.17-.17.57-.41.61-.63l.32,0,0-.16.45.13c.11.15.17.21.23,0H50l.34.19.41-.19.53.14c.06,0,.2-.22.3-.3l1.42,1,.07.23c-.22-.09-.38-.23-.6-.33L52,59.32l0,.08-.39,0-.24-.28-.42-.07L50.75,59l-.45.25a5.84,5.84,0,0,1-.9-.25c-.61.06-.6.19-1,.38a1.47,1.47,0,0,0-.23,1.29c.84.8,2,.74,2-.68a1.91,1.91,0,0,0,.27.16,1.37,1.37,0,0,1-.3,1,1.25,1.25,0,0,1-1,.31,1.23,1.23,0,0,1-1.13-1.62"/><polygon class="cls-1" points="46.96 61.52 46.96 61.3 47.23 61.41 47.07 61.46 46.96 61.52"/><polygon class="cls-1" points="46.77 61.39 46.67 61.34 46.63 61.21 46.45 61.21 46.37 61.13 46.37 60.97 46.6 61.13 46.88 61.29 46.77 61.39"/><path class="cls-1" d="M45.1,61.28c-.08-.14.22-.08.11,0Z"/><polygon class="cls-1" points="45.13 61.01 45.29 60.55 45.51 60.58 45.48 60.89 45.29 61.04 45.13 61.01"/><polygon class="cls-1" points="46.12 60.74 46.12 60.72 45.99 60.72 45.93 60.45 46.18 60.77 46.12 60.74"/><polygon class="cls-1" points="45.5 60.49 45.5 60.3 45.61 60.08 45.8 60.16 45.77 60.41 45.5 60.49"/><path class="cls-1" d="M45.84,60.19s.08-.16.08,0Z"/><path class="cls-1" d="M46.22,60.09V60c.15-.08.19.18.08.1Z"/><path class="cls-1" d="M53.48,60.07v-.19a5,5,0,0,0-1-1c-.2-.14-.69-.51-1.11-.77-.71,0-1.46,0-2.17,0a1.54,1.54,0,0,0-.83.29l-.18.24v-.3l-.35,0V58l-.67,0-.33.19,0,0,.11.46a2.35,2.35,0,0,1-.27,0,2.36,2.36,0,0,0-.53.51L45.82,59l-.11-.37-.23.27-.33-.16,0-.27-.26.08-.33-.13.48-1h-.18l0-.29h.07a2.07,2.07,0,0,0,.14-.69c0-.21,0-.49,0-.71l-.16,0s0-.59-.1-.36l-.35,1-.11.53-.1,0a4.38,4.38,0,0,1-.84.78s-.71.39-1,.5l-.16.22h.08l-.27,1-.3.1-.11.35,0-.57L42.11,58c.25.39.2,0,0-.22a4.13,4.13,0,0,0,1.1-.68c.29-.25.5-.57.82-.91a.75.75,0,0,0-.11-.53l-.45.16.16-.44-.61-.12.08-.11.72-.29a3.53,3.53,0,0,1-1.25-.28.61.61,0,0,1-.38-.48l.35.11,0-.11.35.15h0l.18-.11c.11.11.27.07.43.07,0-.07.2-.15.27-.42l.37-.06V54l.29-.35.52-.35a5.4,5.4,0,0,1,.64.72,1.92,1.92,0,0,0,1,.16,6.69,6.69,0,0,0-.68-.22l-.38-.42.08-.18a1.83,1.83,0,0,0,1.47.17L47,53.36c-.38.09-.78-.17-.88-.17s-.59-.4-.59-.52a5.3,5.3,0,0,0-.24-.57l.16.13a.9.9,0,0,0,.49.46,5.16,5.16,0,0,0,.83.08l-1-.46-.31-.37-.1-.33.29-.19,0-1.17L45.3,50l0-.19.62.37.35-.18-.91-.84-1.15-.08-.56.3.37-.41-.16-.16-.56.27-.33.38-.26-.1.08.25-1,.49,0,.19.76-.37.32-.19.32-.08-.54.37,0,.08c1.12-.29,3.07.39,1.52,1l-.13.49a4.85,4.85,0,0,0-.94-.15l-1,0v-.24l.19-.08v0l.05-.16.11.18a.89.89,0,0,1,.21-.41l-.25,0c0-.17.18-.18.25-.37l-.25-.12-.12.33a6.12,6.12,0,0,1-.9.36c-.3,0-1.6-.92-1.77-.41C37,54.22,41.33,56.94,41,57.06a6,6,0,0,1-1.36-1.48c-.36-.18-.62-.73-.89-.93a1.72,1.72,0,0,1-.18-.68c0-.52.13-1.39.13-1.71a5.4,5.4,0,0,1,1-2.33,14.52,14.52,0,0,1,1.34-1.84c.8-.64.61-1.24,1-1.67.08,0,.21.15.25.15a1.49,1.49,0,0,0,.31.06c.25,0-.38.59-.56.75s-.35.5-.5.69-.55.78-.7,1a5.1,5.1,0,0,0,.88-1,3.11,3.11,0,0,1,.45-.58,4.13,4.13,0,0,0,.71-1,4.35,4.35,0,0,0,.33-.4s.36-.31.41-.18c.13.37-.1.6-.4.89-.15.24-.48.55-.48.69s-.24.39-.45.65l-.75,1c0,.08-.54.59-.53.6l.31-.27c.2-.16.5-.51.69-.7s.74-.82.84-1,.29-.35.56-.63.52-.37.8-.59l.66-.35a.94.94,0,0,1,.43.08,1.36,1.36,0,0,1-.27.11c-.14,0-.2.18-.36.3s-.17.27-.25.4-.36.34-.56.48-.29.29-.41.44a1,1,0,0,0,.57-.33c.21-.25.3-.2.53-.43a3.41,3.41,0,0,0,.42-.56,1.5,1.5,0,0,1,.5,0c.28,0,.29-.13.61-.11l0,.22a1.09,1.09,0,0,1-.85.38s-.45.55-.46.57a5.54,5.54,0,0,0-.59.32l.72-.18a3.77,3.77,0,0,0,.39-.48,1.81,1.81,0,0,1,.78.06c.3.12.46,0,.91.72.9.92.06-.15-.17-.52,0-.07-.47-.43-.55-.52.19,0,.21-.07.43,0S47,47,47.15,47a.92.92,0,0,1,.64.25c0,.12,0,.35,0,.35s.26.1.45.1a3.6,3.6,0,0,0,.29.55,2.28,2.28,0,0,0,.56.1c1,3.12.71.08.19-.16-.1-.05-.48-.32-.73-.45a3.21,3.21,0,0,1-.39-.52c.65.08,1,.11,1.65.14,1-.37.24-.23-.47-.28-.35,0-.66-.06-1-.08-.43-.43.36-.13.36-.13l.41-.24a3.2,3.2,0,0,1,1.16,0c.4.1.85.7,1.27,1a5.25,5.25,0,0,0,1,.87,22.25,22.25,0,0,1,1.87,2,3.54,3.54,0,0,1,.7,2.08c0,.29.07.59.1.89l.08.19-.08.19a2.61,2.61,0,0,1,.24,1.07,17.52,17.52,0,0,1,0,2,5,5,0,0,1-1.63,2.51Z"/><polygon class="cls-1" points="53.14 60.01 53.06 59.77 53.19 59.8 53.14 60.01"/><path class="cls-1" d="M47,59.34l0-.11-.07-.08h-.08l-.18.08L46.7,59l.15-.08c.23,0,.11.11.25.19Z"/><path class="cls-3" d="M46.37,58l.32,0v-.33l-.28-.43c.5.21-.15-.29.2-.29l-.24-.45c.09-.08.19-.29.26-.31l.26-.21-.08-.19.29-.13v.24l-.08.51a2,2,0,0,0,.39-.48h.15v.26l.24,0-.08.12v.07l.08.12h.37l.37.12,0,.29-.56.35-.56.13-.22.43-.42-.08,0,.41c-.2-.23-.13.06-.24,0Z"/><path class="cls-4" d="M54.15,55.76c-.29,0,.35-.59.5-.95a1.38,1.38,0,0,1-.57.34c-.09,0-.44.09-.69.11.5-.23,1-.32,1.31-.88a2.69,2.69,0,0,1-1.27.19c-.23,0-1-.35-1-.68h.11a2.75,2.75,0,0,0,1.2.47c.16-.07.54-.29.6-.33a2.3,2.3,0,0,0,.34-.64l-.26,0c-.19.36-.54.7-.76.7a1.67,1.67,0,0,1-1.23-.4,1.91,1.91,0,0,0-.53.53l-.29.66c0-.17,0-.34.08-.52l.62-.78.19-.19.08-.34a4.8,4.8,0,0,0-.87.69c-.29.08-.62.21-.91.27l.35-.21c.4,0,.74-.37,1-.67.1-.1.35-.38.5-.38.45-1.25.72-.11,1.37-.41.4.13.46.3.75.6a2.25,2.25,0,0,0-.38-1c-.19-.24-.81-.69-.66-.94a3.88,3.88,0,0,1,.82.94A7.18,7.18,0,0,1,55,53.15a5.56,5.56,0,0,1,.08.82c0,.62-.56,1.21-.56,1.69-1.15,1.89.15.1-.37.1"/><path class="cls-5" d="M45.42,54.55c-.06-.11.24-.08.14,0Z"/><polygon class="cls-3" points="45.21 54.45 44.86 54.29 44.62 54.1 44.57 54.02 44.76 53.88 44.92 54.1 45.37 54.29 45.21 54.45"/><polygon class="cls-1" points="53.98 54.35 54.06 54.35 54.2 54.32 54.33 54.24 54.38 54.24 54.52 54.13 54.65 53.89 54.95 54 54.77 54.13 54.36 54.38 54.28 54.43 53.98 54.35"/><polygon class="cls-1" points="42.8 53.97 42.6 53.97 42.6 53.79 42.72 53.76 43.24 53.76 43.4 54.01 42.87 53.97 42.8 53.97"/><path class="cls-1" d="M52.93,53.23a1.13,1.13,0,0,0,.52.34,1.08,1.08,0,0,0,.44,0,1.53,1.53,0,0,1-.17.27.51.51,0,0,1-.61.07c-.25-.14-.64-.58-.18-.64"/><polygon class="cls-1" points="54.84 53.8 54.72 53.64 54.94 53.61 54.84 53.8"/><path class="cls-1" d="M54.84,53.42l.1-.16Z"/><path class="cls-1" d="M42.85,53.23l-.23,0,0-.22.45.11L43,52.91l-.07.05h-.12l-.25-.19a2.22,2.22,0,0,1-.12-.58.37.37,0,0,1,.33-.41c.09.09,0,.27.13.36a.5.5,0,0,0,.22.4.9.9,0,0,0,.66.08l.14-.08c0-.15.13-.07.29,0l-.12.35h.12l-.05.18H44l-.27,0-.06,0,0,.27-.48-.13.21,0Z"/><path class="cls-1" d="M55.41,53.13l0,0a13.55,13.55,0,0,0,.08-1.75,2.45,2.45,0,0,0-.74-1.13c.07-.49-.25-.42.47-.76.19-.24.19-.08.23-.32l.41-.3c.21.81.13.27.56.27,0,.2-.09.65,0,.78,0,.21,0,.21-.19.35s-.21.44-.49.48a3.22,3.22,0,0,0,.76,0,1.05,1.05,0,0,1,.11.43c.23.14.16-.28.26-.43.33-.2.22-.07.32-.48.38-.15.2-.27.46-.27l-.11-.37a1.2,1.2,0,0,0-.56,0,1.37,1.37,0,0,1-.35-.66l.06-.43-.43-.08-.19-.19a.77.77,0,0,1,.8-.14c.28,0,.71.14.79.38a6.81,6.81,0,0,1,.36.64l.08,0L58,47.72v-.91c.12-.57-.42-.54-.42-1.09a3.53,3.53,0,0,1,.23-1.06c0-.42.06-.36.06-.91a12.38,12.38,0,0,0,.12-2,14.27,14.27,0,0,0-.07-2,2.17,2.17,0,0,0-.13-.56l0-.8c.1.21.2.43.31.64a11.8,11.8,0,0,1,.12,1.21c0,.53,0,1.13,0,1.66a13.9,13.9,0,0,1-.19,3.15l-.19.68h.19l.19.53a3.06,3.06,0,0,0,0,1.53A4.45,4.45,0,0,1,58.25,49a7,7,0,0,1-1.36,2.59c-.22.26-1.19,1.29-1.48,1.58"/><path class="cls-1" d="M53.12,52.84l.21-.13h.16l.3.27a1.35,1.35,0,0,1-.34,0,1.64,1.64,0,0,1-.33-.16"/><polygon class="cls-1" points="42.51 52.94 42.48 52.9 42.29 52.84 42.24 52.68 42.59 52.86 42.51 52.94"/><polygon class="cls-1" points="43.71 52.14 43.36 52.11 43.44 51.92 43.55 51.92 43.89 52.11 43.71 52.14"/><path class="cls-1" d="M35.5,51.57a1.09,1.09,0,0,0-.45-.21c-.11,0-.11.11,0,.16l.27.21A6.32,6.32,0,0,1,33.86,51a3.85,3.85,0,0,1-.9-2.26,9.7,9.7,0,0,0-.28-1.15,1.08,1.08,0,0,1,.62.41,1.3,1.3,0,0,0,.32.34c.06.22.07.28.11.48s-.21.33-.29.43a4.17,4.17,0,0,1-.08.49c0,.21,0,.25.12.4,0-.29.11-.61.14-.89a1.18,1.18,0,0,1,.68-.19.76.76,0,0,0,.28-.25c.22-.27.14-.34,0-.34s-.24.14-.34.14c.13-.13.07-.3,0-.46a1.65,1.65,0,0,0-.33-.91c-.09-.15-.29-.12-.35-.14s-.58-.7-.58-.7a2.43,2.43,0,0,0-.42-1c0-.13-.18-.28-.22-.4a1.69,1.69,0,0,1,0-.45c.13.13.14.32.23.38l.22.18a.72.72,0,0,1,.32.11c.13.08.16.26,0,.24s-.17-.16-.32-.16c0,.22,0,.23.21.3l.11-.12.32.23a3.4,3.4,0,0,1,.21.56.89.89,0,0,1,.38.26c0,.19,0,.22.1.49.26.29.44.63.7.94a6.44,6.44,0,0,0,.7.88c.3.3.58,1,.85,1,.25.25.37.62.67.78.15.08.34-.14.51-.22s.48-.16.56-.35l-.08.24,0,.33.33,0c0,.16,0,.08-.15.23l-.22.08-.15.34-.25-.08-.06.22-.29,0,.08.21-.37.14v-.38h-.16v.24c-.12.07-.26.28-.38.28a2.17,2.17,0,0,1-.93-.28"/><polygon class="cls-1" points="42.17 50.88 42.48 50.68 42.36 50.88 42.17 50.88"/><polygon class="cls-1" points="45.29 50.45 45.21 50.45 45.21 50.21 45.09 50.21 45.09 49.95 45.42 50.16 45.5 50.43 45.29 50.45"/><polygon class="cls-1" points="43.18 50.07 43.26 49.94 43.33 49.88 43.56 49.88 43.48 50.07 43.26 50.07 43.18 50.07"/><polygon class="cls-1" points="46.03 49.96 45.65 49.85 45.6 49.74 45.41 49.66 45.41 49.47 45.57 49.58 45.92 49.7 46.03 49.96"/><polygon class="cls-1" points="54.38 49.96 54.28 49.94 54.16 49.78 54.35 49.63 54.43 49.82 54.38 49.96"/><polygon class="cls-1" points="45.02 49.67 44.76 49.64 44.68 49.46 45.18 49.38 45.24 49.56 45.02 49.67"/><path class="cls-1" d="M37.34,49.63a4.37,4.37,0,0,1-.8-1.09,4.72,4.72,0,0,0-.52-.35v.13c-.07-.14-.06-.18-.22-.23,0,.13,0,.1.12.1a.37.37,0,0,0,.18.31c0,.13.11.17,0,.23-.13-.14-.36-.28-.45-.46s-.3-.26-.41-.38-.15-.2-.19-.37l.64.16.18-.06v.19l.71.35.08.19.23.19.48.64.08.19,0,0,.05-.18.26.18c0,.17-.06.18-.16.31a.94.94,0,0,1-.29,0"/><path class="cls-1" d="M54.05,49.63l-.17-.34.25-.19c.06-.09.09-.26.19-.27s.07.16.12.24Z"/><path class="cls-1" d="M52.93,48.39c-.32-.33-1-.67-1.17-1.08.07-.17.18-.29.27-.46a4.47,4.47,0,0,0-.14-1.5,4.5,4.5,0,0,1,0-1.51l.25.57c.42-.91,1.06-1.23.22,0a1.8,1.8,0,0,0,.28,1.33c.12.17.26.57.37.69-.2.2-.08.48-.41.48.15.22.61.43.56.73,0,.12,0,.82-.23.73"/><path class="cls-1" d="M55,47.7a9.81,9.81,0,0,0,.76-1.26,2.54,2.54,0,0,0,.19-.65c.28,0-.25-.11-.27-.11a1.72,1.72,0,0,1-.6-.24l-1.2-.58c.35,0,.8,0,1.18,0,.47.61.1.54,1,.45.28.28.11.18.11.51,0,.14.07.3,0,.38a3.55,3.55,0,0,1-.56.94c-.25.27-.29.43-.65.56"/><path class="cls-1" d="M34.62,47.3l.07-.29.25-.38a2.63,2.63,0,0,1,.05.49c-.15,0-.15,0-.18.18Z"/><path class="cls-1" d="M51.09,46.82l.13-.67.5,0c0,.12.06.52.09.64l-.24.39Z"/><path class="cls-1" d="M46.3,47c0-.31.11-.37.31-.57.06,0,.16,0,.28,0s.15.27.21.41c-.29.19-.43.32-.8.19"/><path class="cls-1" d="M47.4,46.77l-.18-.14.13-.16.61.26h.19a.17.17,0,0,1-.16.19Z"/><polygon class="cls-1" points="41.66 46.36 41.58 46.13 41.39 45.75 41.69 45.48 42.06 45.93 42.12 46.01 42.12 46.13 41.88 46.4 41.66 46.36"/><path class="cls-1" d="M51.16,46.21v-.14a1,1,0,0,1,.51-.19l.09.3a2.91,2.91,0,0,1-.6,0"/><polygon class="cls-1" points="41.12 46.08 41.12 46.02 41.04 45.94 41.04 45.8 41.31 45.51 41.14 45.22 41.44 45.02 41.47 45.27 41.73 45.38 41.76 45.46 41.68 45.65 41.43 45.84 41.36 45.84 41.12 46.08"/><path class="cls-1" d="M51.18,46.37c0-.15-.13-1.07-.11-1.22.27-.14.36-.45.62-.29V46Z"/><polygon class="cls-1" points="41.08 45.2 41.12 45.2 41.16 45.13 40.92 44.7 41.39 44.59 41.47 45.08 41.2 45.28 41.08 45.2"/><path class="cls-1" d="M51.09,45.2l.16-2a2.2,2.2,0,0,0,.23-.88,5.59,5.59,0,0,1,1.46-2.44l.55-1a2.69,2.69,0,0,1-.26,1,5.91,5.91,0,0,1-.66.92c-.16.33-1,1.08-.65,1.28a5.78,5.78,0,0,0-.21,1.29l-.14.19c-.17,0-.21.17-.29.29s-.08.24,0,.27.26-.08.33.12l-.08.29h-.29l-.11.24.3-.13.26,0v.21a1.22,1.22,0,0,1-.37.16Z"/><path class="cls-1" d="M53.79,44.87c-.08-.11.21-.08.1,0Z"/><path class="cls-1" d="M40.93,44.78c-.19-.12-.29-.31-.45-.41a2,2,0,0,0,0-.35c-.1-.12-.28-.26-.39-.37-.63-.69-1.58-1.28-2.17-1.9a23.68,23.68,0,0,1-2-2.66l-2-2.88.25,0,.41.49c.07.11.68,1,1.25,1.85s1.36,1.92,1.71,2.33a24.41,24.41,0,0,0,1.76,1.77,19.56,19.56,0,0,1,1.92,1.68c0,.13.13.23.16.35Z"/><polygon class="cls-1" points="51.89 43.56 51.84 43.5 51.84 42.92 51.92 42.94 52.08 43.1 52 43.5 51.89 43.56"/><path class="cls-1" d="M53.49,38.67l.52-.9a5.8,5.8,0,0,1,.45-.52,7.18,7.18,0,0,0,.56-.91c.14-.19.67-.83.67-1.08a1.05,1.05,0,0,1,.72-.35c.22,0,.33.29.53.56a1,1,0,0,0,.48.57,3.54,3.54,0,0,1,.33,1c0,.15.13,1.34.14,1.51s-.22-.19-.26-.41a9.8,9.8,0,0,0-.21-1c.17-.34-.23-1-.45-1.28a1.39,1.39,0,0,0-.91-.12s.09.21.14.31c-.31,0-.36.25-.46.53-.15.11-.07.22-.34.22a.86.86,0,0,0-.38-.1,3.55,3.55,0,0,1-.51.82c-.32.24-.3.45-.51.75-.07.11-1,1.76-.51.37"/><path class="cls-1" d="M34,36.28a.75.75,0,0,0-.55-.32c-.13,0-.28.11-.39.14-.11.51-.17,1-.25,1.6a17.23,17.23,0,0,0-.34,2.57c0,.63,0,1.22,0,1.85,0,.43,0,.92,0,1.35s0,.91,0,1.34c0-.11-.16-.55-.22-1s0-1.18,0-1.65c0-.86-.05-1.84-.05-2.15,0-.56.13-1.15.16-1.54l.21-1.2.22-1.21c.22-.35.24-.56.63-.56s.52.27.82.53l.05.19Z"/><path class="cls-2" d="M70.31,51.27a1,1,0,1,1-1,1,1,1,0,0,1,1-1"/><path d="M72.72,80.54h0a2,2,0,1,0,0,3.94h0a2,2,0,0,0,0-3.94m0,3.53h0a1.57,1.57,0,0,1,0-3.14h0a1.5,1.5,0,0,1,1.44,1.57,1.49,1.49,0,0,1-1.44,1.57"/><path d="M73.13,82.56v0a.51.51,0,0,0,.4-.47.52.52,0,0,0-.19-.42,1,1,0,0,0-.62-.15h0a3.32,3.32,0,0,0-.73.07v2h.44v-.78h.34a.32.32,0,0,1,.27.3,1.59,1.59,0,0,0,.15.47h.48a1.53,1.53,0,0,1-.14-.48c-.06-.26-.16-.42-.35-.48m-.41-.15h-.33v-.57l.25,0h.08c.23,0,.33.14.33.3s-.14.26-.33.28"/><polygon class="cls-6" points="45.82 22.56 42.28 25.1 43.64 20.98 40.11 18.43 44.47 18.43 45.83 14.32 47.17 18.44 51.53 18.44 48 20.99 49.34 25.11 45.82 22.56"/><polygon class="cls-7" points="46.78 18.97 49.87 18.98 47.37 20.78 48.32 23.7 45.82 21.89 43.31 23.7 44.27 20.78 41.77 18.97 44.87 18.97 45.83 16.05 46.78 18.97"/></svg>