<svg id="Capa_1" data-name="Capa 1" xmlns="http://www.w3.org/2000/svg" viewBox="0 0 90 90"><defs><style>.cls-1,.cls-4{fill:#fff;}.cls-2{fill:#241f21;}.cls-3,.cls-6{fill:#262261;}.cls-3,.cls-4,.cls-5,.cls-7{fill-rule:evenodd;}.cls-5{fill:#e0262c;}.cls-7{fill:#e1352b;}.cls-8{fill:#ffd600;}</style></defs><title>Veracruz-90x90</title><path class="cls-1" d="M47,83.34a30.25,30.25,0,1,1,21.4-8.86A30.06,30.06,0,0,1,47,83.34Zm0-59.55a29.29,29.29,0,1,0,20.72,8.58A29.07,29.07,0,0,0,47,23.79Z"/><path class="cls-2" d="M46.86,28.7a24.58,24.58,0,1,0,17.33,7.2,24.44,24.44,0,0,0-17.33-7.2Zm0,0a24.58,24.58,0,1,1-17.33,7.2,24.48,24.48,0,0,1,17.33-7.2Z"/><path class="cls-3" d="M46.86,23.7a29.52,29.52,0,1,1-29.5,29.52A29.58,29.58,0,0,1,46.86,23.7Z"/><path class="cls-4" d="M46.86,25.26a28,28,0,1,1-27.95,28,28,28,0,0,1,28-28Z"/><path class="cls-3" d="M46.87,32.12a21.11,21.11,0,1,1-21.1,21.1,21.14,21.14,0,0,1,21.1-21.1Z"/><path class="cls-5" d="M65.8,54.58a4.65,4.65,0,0,1-4.54,1.16c-2.07-.69-3.88-3.08-5.87-6.16-.64,4.67,1.19,8.47,3.76,9.86a7.28,7.28,0,0,1-1.85,4.1l-.15-1.44a13.88,13.88,0,0,1-1.91,2.07l-.4,1.43a5.21,5.21,0,0,1-2.1.72c-3.69.26-5.32-4.1-5.3-7.12A13.46,13.46,0,0,1,54.59,61c-.51-4.15-2.88-6.65-6.53-7.42A25,25,0,0,0,47.89,49,26.93,26.93,0,0,0,46,42.12c-1.07-2.73-1.35-4.57-2.74-4.64-1,0-1.93,1.6-3.05,3.47a32,32,0,0,0-2.41,4.24,25.42,25.42,0,0,0-1.66,5.45,35.51,35.51,0,0,0-.35,4.18c-3.39,1.11-6.49,6.59-5,10.66,1.71-1.8,3.49-3.59,5.57-4.05a15.5,15.5,0,0,0,3.42,6.69A11.14,11.14,0,0,0,47.57,72,13.3,13.3,0,0,0,58.33,67.5L59.82,67a9.12,9.12,0,0,0,1.73-2.72l-1.49.56A13.58,13.58,0,0,0,61.32,60a5,5,0,0,0,4.48-5.39Z"/><path class="cls-4" d="M39.7,49.52c1.87-1.66,3.24-1.7,5.45.46-.45-3-1.37-5.11-2.42-5.14-1.38,0-2.69,2.7-3,4.68Z"/><path class="cls-4" d="M53.46,34.3a6,6,0,1,1-6.52,5.47,6,6,0,0,1,6.52-5.47Z"/><path class="cls-6" d="M53.45,34.39a5.93,5.93,0,0,0-1,11.81h0a5.95,5.95,0,0,0,6.43-5.38h0a5.95,5.95,0,0,0-5.39-6.43Zm0-.18A6.15,6.15,0,0,1,59,40.83h0a6.13,6.13,0,0,1-6.62,5.55h0A6.1,6.1,0,0,1,49,35.62a6,6,0,0,1,4.45-1.41Z"/><path class="cls-7" d="M49,35.78l0,0h0v0Z"/><polygon class="cls-7" points="48.94 35.8 48.95 35.8 48.95 35.8 48.94 35.8 48.94 35.8"/><path class="cls-5" d="M57.15,43.35l-1,.3-.69.21-.78-1.2-.37-.57.37-.79.64-1.3.83-.22,1-.25L58,41.25l-.88,2.1ZM54.7,44.52h0l.38-.46-.38-.57L54,42.4l-1.1-.1L52,42.23l-.89,1-.49.53.49.83.45.76,1.28.11,1,.08.82-1Zm-5-1.37-1.54-.67L47.74,40l1.44-1.5.51.27,1.22.67.24.81.48,1.64-.48.54-.84.94-.62-.26Zm-.21-6.86h0l-.16,1.84.37.2,1.41.79,0,0,1.73-.92.34-.18.14-1.7-.48-.21-1.6-.69-.13.07-1.46.72-.21.11Zm4.3.05h0L53.63,38l1.07,1.06.54.54.93-.24.92-.26.15-1.9-1.07-1-.46-.44-1,.31-.92.29Zm4.15.63-.42,0-1.34-1.28-.24-.25v-.34a5.86,5.86,0,0,0-1.23-.53,5.62,5.62,0,0,0-1.82-.27,5.5,5.5,0,0,0-1.73.28l-.17,0,.09.51-1.38.69-.37.19L49,35.8a6,6,0,0,0-2,4,.19.19,0,0,1,0,.08l.44.25.42,2.53c-.07.14-.13.27-.21.41a6,6,0,0,0,2.11,2.32,6.2,6.2,0,0,0,1.18.59l.28-.12.43-.19,1.3.12,1,.08.41.33.45-.12a6,6,0,0,0,1.47-.69,5.84,5.84,0,0,0,1.43-1.28l-.16-.59.84-2.1.57,0a4.67,4.67,0,0,0,.08-.52,6,6,0,0,0-1-3.85Z"/><polygon class="cls-3" points="68.99 66.73 66.87 69.5 67.03 65.33 66.2 64.68 63.91 67.6 62.79 69.04 63.69 69.75 63.91 69.48 65.67 67.15 65.53 71.28 66.38 71.94 69.89 67.44 68.99 66.73 68.99 66.73"/><polygon class="cls-3" points="33.66 74.65 34.27 73.84 31.48 71.67 31.89 71.15 34.6 73.25 34.84 73.44 35.5 72.58 31.46 69.44 28.62 73.09 30.09 74.22 32.69 76.24 33.37 75.36 30.4 73.06 30.85 72.48 33.66 74.65 33.66 74.65"/><polygon class="cls-3" points="30.31 68.15 29.81 68.25 26.55 68.94 26.39 68.73 28.1 65.29 27.16 64.06 24.9 68.68 26.21 70.4 29.8 69.67 31.25 69.36 30.31 68.15 30.31 68.15"/><path class="cls-3" d="M43.41,78.1l-1-.15,1-1.45.1-.15.28,0,.64,1.85-1-.14Zm0-2.85-.68-.11L40.08,78.8l-.42.58.42.06,1.17.16.5-.72,1.66.24,1.36.19.29.83,1.58.22-1.75-4.91-1.48-.2Z"/><path class="cls-3" d="M53,77.75h-.11L51.63,78a.81.81,0,0,1-.05.56.51.51,0,0,1-.34.16,9.22,9.22,0,0,1-1.07.18,9.07,9.07,0,0,1-.91.11.65.65,0,0,1-.38-.08.5.5,0,0,1-.22-.28,3.44,3.44,0,0,1-.14-.73,4.17,4.17,0,0,1-.06-.76.62.62,0,0,1,.12-.37.82.82,0,0,1,.34-.16c.16,0,.46-.09.91-.15s.76-.1,1-.11a.82.82,0,0,1,.42.05.19.19,0,0,1,.09.11,2.27,2.27,0,0,1,.08.3l1.39-.19c0-.13,0-.2,0-.23a2.17,2.17,0,0,0-.24-.83.83.83,0,0,0-.51-.38,2.12,2.12,0,0,0-.66-.06,12.3,12.3,0,0,0-1.29.14,13.84,13.84,0,0,0-2.33.46,1,1,0,0,0-.7.68,1.76,1.76,0,0,0,0,.55c0,.25.06.62.13,1.16s.15.91.19,1.12a1.49,1.49,0,0,0,.25.58.89.89,0,0,0,.42.31,2.66,2.66,0,0,0,.87.07c.37,0,1-.09,1.86-.22a8.08,8.08,0,0,0,1.73-.36,1.14,1.14,0,0,0,.48-.31,1,1,0,0,0,.15-.24,1.93,1.93,0,0,0,0-.85c0-.06,0-.21-.07-.43Z"/><path class="cls-3" d="M39.1,76a1.94,1.94,0,0,1-.17.31.37.37,0,0,1-.19.09.38.38,0,0,1-.18,0L38,76.19l-.29-.12-1.52-.68.46-1,1,.46.77.34.54.25.14.11a.31.31,0,0,1,.07.21,1.23,1.23,0,0,1-.1.32Zm.65,1.29a.74.74,0,0,0,.37-.25,2.36,2.36,0,0,0,.22-.36c0-.09.09-.18.13-.29a2.52,2.52,0,0,0,.27-.84.78.78,0,0,0-.15-.55,1.09,1.09,0,0,0-.29-.28l-.06-.05c-.15-.08-.58-.28-1.31-.61l-1.28-.56-1.83-.82-1,2.27-.87,2,.91.41.37.16.48-1.07,1.81.81.2.09a2.28,2.28,0,0,1,.32.16.31.31,0,0,1,.15.19.49.49,0,0,1,0,.27,3.55,3.55,0,0,1-.2.51l-.1.23,1.27.56.17-.39c.16-.37.26-.61.3-.74a.83.83,0,0,0,0-.35.93.93,0,0,0-.48-.49,1.1,1.1,0,0,0,.61,0Z"/><path class="cls-3" d="M57.41,75.35a.4.4,0,0,1-.14.11l-.56.25L56,76l-1.08.44-.43-1L56,74.79l.32-.14.56-.2a.3.3,0,0,1,.18,0,.33.33,0,0,1,.2.09,1.39,1.39,0,0,1,.25.63.31.31,0,0,1-.05.21Zm1.83.54a.67.67,0,0,0-.25-.25l-.14,0a1.07,1.07,0,0,0-.55,0,1.09,1.09,0,0,0,.44-.4.66.66,0,0,0,.08-.44,3,3,0,0,0-.22-.71,3.32,3.32,0,0,0-.41-.78.92.92,0,0,0-.5-.27,1.32,1.32,0,0,0-.49,0L56,73.54l-.09,0-2.94,1.19-.21.08.21.53,1.52,3.75,1.3-.52-.44-1.09.65-.27,1.19-.47a4.71,4.71,0,0,1,.54-.2.63.63,0,0,1,.24,0,.61.61,0,0,1,.19.2,3.12,3.12,0,0,1,.23.5l.1.23.41-.16.87-.36-.16-.4a5.57,5.57,0,0,0-.32-.71Z"/><path class="cls-3" d="M64,70.79l-.07-.11-1.26-1.54-1.1.88,1.34,1.65c.09.1.19.25.31.41l.24.36a.53.53,0,0,1-.16.62,7.1,7.1,0,0,1-.76.67,6.16,6.16,0,0,1-1,.69.43.43,0,0,1-.5-.06,5.46,5.46,0,0,1-.62-.68L59.08,72l-.23.19-.86.69L58.85,74l.47.57c.34.42.57.69.67.8s.22.23.36.35a1,1,0,0,0,1.23.15,4.85,4.85,0,0,0,.68-.42c.26-.17.59-.44,1-.79l.62-.5.58-.54a1.71,1.71,0,0,0,.45-.64,1,1,0,0,0-.1-1A13.4,13.4,0,0,0,64,70.79Z"/><path class="cls-5" d="M30,35.4a.48.48,0,0,1-.08.16s-.18.21-.42.45l-.84.88-.53.56-.82-.8,1.35-1.39,0,0,.41-.41a.39.39,0,0,1,.15-.1.31.31,0,0,1,.23,0,1.38,1.38,0,0,1,.27.2,1.85,1.85,0,0,1,.22.28.34.34,0,0,1,0,.2Zm2.48.28a5.3,5.3,0,0,0-.59-.53l-.05,0a.75.75,0,0,0-.27-.08.92.92,0,0,0-.64.28,1,1,0,0,0,.24-.55.67.67,0,0,0-.1-.43,3.77,3.77,0,0,0-.49-.57,3,3,0,0,0-.7-.53.8.8,0,0,0-.57,0,1.19,1.19,0,0,0-.43.23l-.22.2-.79.8-1,1L25.5,36.86l1.39,1.34,1.77,1.71.17.16,1-1L29,38.25l1.37-1.43a5.53,5.53,0,0,1,.42-.4.35.35,0,0,1,.22-.09.56.56,0,0,1,.26.11,2.48,2.48,0,0,1,.41.36l.18.17h0l.78-.81.17-.18-.17-.16-.14-.13Z"/><path class="cls-5" d="M27.77,39.85c-.15-.11-.44-.29-.88-.54-.11-.06-.24-.12-.36-.2l-1.87-1L24,39.36l1.87,1,.44.26c.17.1.29.19.36.24a.49.49,0,0,1,.13.2.73.73,0,0,1,0,.43,9.85,9.85,0,0,1-.45.92,5.78,5.78,0,0,1-.63,1,.44.44,0,0,1-.48.14,5.72,5.72,0,0,1-.84-.38l-.64-.34-1.23-.66-.42.78-.25.46.25.13,1.63.87h0l.9.46a3.57,3.57,0,0,0,.47.18,1,1,0,0,0,1.19-.34,5.5,5.5,0,0,0,.48-.65l.12-.21c.13-.23.31-.54.51-.91a15.75,15.75,0,0,0,.69-1.44,2,2,0,0,0,.17-.77,1.11,1.11,0,0,0-.49-.89Z"/><polygon class="cls-5" points="23.73 52.98 24.71 53 24.76 51.53 23.73 51.5 22.08 51.43 20.15 51.37 20.09 52.84 22.08 52.92 23.73 52.98 23.73 52.98"/><polygon class="cls-5" points="23.73 55.08 22.08 55.27 21.32 55.37 21.07 53.33 19.9 53.48 20.59 59.01 21.76 58.87 21.5 56.83 22.08 56.77 23.73 56.56 24.92 56.42 24.74 54.95 23.73 55.08 23.73 55.08"/><path class="cls-5" d="M24.4,47.07c0,.08-.06.32-.16.72l-.44,1.94-.07,0-.67-.15.44-1.94c.13-.54.21-.83.23-.87h0c.07-.13.19-.16.37-.12s.29.13.31.26a1.34,1.34,0,0,1,0,.19Zm-1.8.34-.45,1.94-.07,0-.64-.15.44-1.93a4.63,4.63,0,0,1,.2-.72h0a.29.29,0,0,1,.36-.1c.17,0,.27.11.29.23a3.35,3.35,0,0,1-.13.76Zm2.85-1.7a1.67,1.67,0,0,0-.77-.36,1.24,1.24,0,0,0-.95.07l-.06,0a1,1,0,0,0-.26.41.81.81,0,0,0-.21-.56,1.61,1.61,0,0,0-.69-.29,1.77,1.77,0,0,0-.43-.06h-.23a.75.75,0,0,0-.42.2,1.55,1.55,0,0,0-.3.62c0,.13-.14.53-.3,1.22l-.75,3.24,2,.46,1.65.37.85.2L25.33,48c.16-.76.27-1.22.29-1.37a2.39,2.39,0,0,0,0-.58.63.63,0,0,0-.19-.38Z"/><path class="cls-5" d="M73.66,54a1.15,1.15,0,0,0-.26-.72,1.7,1.7,0,0,0-1.09-.37,1.42,1.42,0,0,0-1,.19.71.71,0,0,0-.29.4,3.39,3.39,0,0,0-.16.77c0,.17,0,.55-.12,1.12s-.11.93-.12,1.1a1.16,1.16,0,0,1-.1.43.29.29,0,0,1-.21.09h-.08c-.18,0-.3-.07-.34-.17a1.12,1.12,0,0,1,0-.29c0-.12,0-.48.06-1.07s.08-.9.1-1a.47.47,0,0,1,.09-.25.28.28,0,0,1,.2-.11h.24l.1-1.35-.21,0h-.13a1.86,1.86,0,0,0-.62,0,.8.8,0,0,0-.42.34,2.13,2.13,0,0,0-.24.73c-.06.32-.11.84-.16,1.53s-.09,1.38-.08,1.69a1.73,1.73,0,0,0,.11.67.81.81,0,0,0,.32.39,2.07,2.07,0,0,0,1,.25h.13a2,2,0,0,0,.64-.06.8.8,0,0,0,.44-.33,2,2,0,0,0,.22-.58c0-.25.1-.73.18-1.48s.15-1.37.18-1.49a.28.28,0,0,1,.31-.17.29.29,0,0,1,.3.22,5,5,0,0,1,0,1.09,9.09,9.09,0,0,1-.09,1,.74.74,0,0,1-.08.31.24.24,0,0,1-.12.09A1,1,0,0,1,72,57l-.09,1.35.22,0a1.37,1.37,0,0,0,.91-.17,1.44,1.44,0,0,0,.41-.85,9.7,9.7,0,0,0,.16-1.41A14.32,14.32,0,0,0,73.66,54Z"/><path class="cls-5" d="M62.37,34.13a.41.41,0,0,1-.17-.05l-.51-.34-.17-.12-1.45-1,.65-.92.8.55.82.58.48.34a.81.81,0,0,1,.12.14.26.26,0,0,1,0,.21,1.5,1.5,0,0,1-.16.3,1.38,1.38,0,0,1-.24.27.34.34,0,0,1-.2.06ZM63,35.62a.91.91,0,0,0-.38-.58,1.24,1.24,0,0,0,.58.16A.84.84,0,0,0,63.6,35l0,0a3.09,3.09,0,0,0,.46-.56,3.87,3.87,0,0,0,.31-.51,1.12,1.12,0,0,0,.11-.26.73.73,0,0,0,0-.56.84.84,0,0,0-.06-.14,1.09,1.09,0,0,0-.22-.26,5.86,5.86,0,0,0-.55-.4c-.16-.13-.37-.27-.61-.44l-1.49-1-1.29-.92L57.57,33.7l1.16.81.67-1L61,34.69a4.17,4.17,0,0,1,.46.35l0,0a.48.48,0,0,1,.08.18.58.58,0,0,1-.05.27l0,0a2.76,2.76,0,0,1-.27.43l-.14.19.41.3.72.51.26-.36c.22-.32.36-.55.42-.66a.6.6,0,0,0,.07-.34Z"/><path class="cls-5" d="M66.2,39.87a.75.75,0,0,1-.36-.23c-.13-.13-.38-.42-.74-.86s-.59-.75-.71-.94c0,0,0,0,0,0a.53.53,0,0,1,0-.65l0,0a2.41,2.41,0,0,1,.42-.38,3.49,3.49,0,0,1,.77-.53.48.48,0,0,1,.46.08,9.24,9.24,0,0,1,.89,1q.61.76.75,1a.52.52,0,0,1,.09.4.67.67,0,0,1-.2.32,4.53,4.53,0,0,1-.55.49,3.16,3.16,0,0,1-.49.35.54.54,0,0,1-.33,0Zm1.65.76a1.07,1.07,0,0,0,.16-.14,6.46,6.46,0,0,0,1.11-1.05,1.05,1.05,0,0,0,0-1.26,16.21,16.21,0,0,0-1.23-1.64v0A18,18,0,0,0,66.51,35a1.05,1.05,0,0,0-1.22-.29,4.61,4.61,0,0,0-.9.57l-.35.28-.42.35a4.73,4.73,0,0,0-.72.73,1.08,1.08,0,0,0,0,1.26c.13.21.37.53.69,1,.17.2.34.43.55.69l.22.27a16,16,0,0,0,1.13,1.27,1.05,1.05,0,0,0,1.22.29,6.46,6.46,0,0,0,1.11-.74Z"/><path class="cls-5" d="M68.86,45.91a5.67,5.67,0,0,0,.9-.36l.55-.25,2-.91-.6-1.28-1.35.63-1.12.53a2.78,2.78,0,0,1-.39.15.27.27,0,0,1-.2,0c-.16-.07-.32-.33-.54-.78a3.57,3.57,0,0,1-.21-.53.83.83,0,0,1,0-.33l0,0a.49.49,0,0,1,.12-.13c.07,0,.22-.12.46-.23l-.58-1.23,0,0a3.2,3.2,0,0,0-.44.2,4,4,0,0,0-.61.33,1,1,0,0,0-.37,1,8.42,8.42,0,0,0,.6,1.58,8,8,0,0,0,.68,1.24l.16.17a1.13,1.13,0,0,0,.44.28,1.37,1.37,0,0,0,.57,0Z"/><path class="cls-5" d="M70,47.57l.35-.09.25,0a3.31,3.31,0,0,1,.93-.08.47.47,0,0,1,.36.28A7.74,7.74,0,0,1,72.14,49a11.53,11.53,0,0,1,.18,1.22.56.56,0,0,1-.12.4.84.84,0,0,1-.32.18c-.15,0-.39.1-.71.16a5,5,0,0,1-.61.06.75.75,0,0,1-.25-.07s0,0,0,0a.83.83,0,0,1-.2-.39,8.15,8.15,0,0,1-.23-1.1c-.1-.59-.16-1-.17-1.21a.53.53,0,0,1,.3-.58ZM70,52.41h.3a8.84,8.84,0,0,0,1.22-.15,5.93,5.93,0,0,0,1.5-.39,1.07,1.07,0,0,0,.58-1.11,18.51,18.51,0,0,0-.29-2,19,19,0,0,0-.42-2,1.06,1.06,0,0,0-.93-.84,6.48,6.48,0,0,0-1.51.14l-.15,0a6,6,0,0,0-1.37.37,1.06,1.06,0,0,0-.58,1.11c0,.37.11,1.06.28,2a17.26,17.26,0,0,0,.44,2,1,1,0,0,0,.93.84Z"/><path class="cls-5" d="M36.17,32.4a.77.77,0,0,1-.29.32c-.16.11-.48.3-1,.57a9.7,9.7,0,0,1-1.08.56.54.54,0,0,1-.65-.1,4.1,4.1,0,0,1-.33-.52c-.09-.16-.16-.3-.22-.42a2,2,0,0,1-.17-.44.44.44,0,0,1,.16-.42h0a8,8,0,0,1,1.14-.7,9.17,9.17,0,0,1,1.1-.57.47.47,0,0,1,.4,0,.77.77,0,0,1,.29.24c.09.13.21.33.38.62a3.41,3.41,0,0,1,.26.56.44.44,0,0,1,0,.32Zm1.34-.86c-.1-.23-.24-.5-.41-.81a6.32,6.32,0,0,0-.86-1.28A1,1,0,0,0,35,29.26a19.76,19.76,0,0,0-1.83.93c-.2.11-.38.21-.55.32s-.57.33-.78.46l-.43.28a1,1,0,0,0-.49,1.16,5.33,5.33,0,0,0,.62,1.37,4.8,4.8,0,0,0,.3.52,3.8,3.8,0,0,0,.56.79,1.18,1.18,0,0,0,.22.17,1.1,1.1,0,0,0,1,0,16.83,16.83,0,0,0,1.85-.94,19.27,19.27,0,0,0,1.75-1.05,1.34,1.34,0,0,0,.27-.26.92.92,0,0,0,.22-.89,3.86,3.86,0,0,0-.22-.6Z"/><path class="cls-5" d="M55.3,27.75A12,12,0,0,0,54,27.3a14.5,14.5,0,0,0-1.86-.46,1.15,1.15,0,0,0-.76.12,1.61,1.61,0,0,0-.58,1,1.49,1.49,0,0,0,0,1,.92.92,0,0,0,.34.37,3.54,3.54,0,0,0,.72.3l1.07.36,1,.35a1,1,0,0,1,.42.19.36.36,0,0,1,0,.3c-.06.18-.14.27-.25.29a.79.79,0,0,1-.29,0l-1-.28-1-.3a.76.76,0,0,1-.22-.14.48.48,0,0,1,0-.46l-1.31-.38-.06.21a1.85,1.85,0,0,0-.11.73.74.74,0,0,0,.24.48,2.3,2.3,0,0,0,.66.4c.31.12.8.28,1.46.47s1.35.37,1.65.43a1.62,1.62,0,0,0,.68,0,.81.81,0,0,0,.45-.23,2.06,2.06,0,0,0,.43-.88,2.26,2.26,0,0,0,.12-.77.89.89,0,0,0-.23-.5,1.56,1.56,0,0,0-.53-.33c-.23-.1-.7-.27-1.42-.49s-1.32-.44-1.41-.49a.27.27,0,0,1-.1-.34c0-.17.13-.25.27-.25a5.51,5.51,0,0,1,1.06.25l.94.28a.82.82,0,0,1,.29.16.38.38,0,0,1,.06.13.91.91,0,0,1-.05.27l1.32.37.06-.2a1.35,1.35,0,0,0,0-.93,1.49,1.49,0,0,0-.75-.58Z"/><polygon class="cls-5" points="42.14 26.85 42.95 30.2 42.8 30.23 39.67 27.42 37.51 27.92 37.27 27.98 37.51 29.05 38.3 32.48 39.7 32.16 38.9 28.8 39.04 28.77 42.18 31.58 44.56 31.02 43.53 26.52 42.14 26.85 42.14 26.85"/><polygon class="cls-5" points="44.8 31.02 49.93 31.12 49.95 30.01 46.19 29.94 46.21 29.2 49.75 29.27 49.76 28.25 46.22 28.18 46.24 27.51 49.97 27.58 49.99 26.5 44.88 26.41 44.8 31.02 44.8 31.02"/><polygon class="cls-8" points="67.53 12.83 67.53 17.08 71.03 19.49 66.99 20.8 65.78 24.88 63.28 21.44 59.03 21.54 61.53 18.11 60.12 14.1 64.16 15.41 67.53 12.83"/><polygon class="cls-8" points="28.58 12.83 28.58 17.08 25.08 19.49 29.13 20.8 30.34 24.88 32.84 21.44 37.09 21.54 34.59 18.11 36 14.1 31.96 15.41 28.58 12.83"/></svg>